<svg xmlns="http://www.w3.org/2000/svg" width="38.885" height="38.885" viewBox="0 0 38.885 38.885">
  <g id="Group_505" data-name="Group 505" transform="translate(-271.559 -20)">
    <g id="Path_3677" data-name="Path 3677" transform="translate(271.559 20)" fill="#280067">
      <path d="M 19.4423828125 37.88476181030273 C 14.51624298095703 37.88476181030273 9.884952545166016 35.96642303466797 6.401652812957764 32.48311233520508 C 2.91834282875061 28.99981307983398 1.000002861022949 24.36852264404297 1.000002861022949 19.4423828125 C 1.000002861022949 14.51624298095703 2.91834282875061 9.884952545166016 6.401652812957764 6.401652812957764 C 9.884952545166016 2.91834282875061 14.51624298095703 1.000002861022949 19.4423828125 1.000002861022949 C 24.36852264404297 1.000002861022949 28.99981307983398 2.91834282875061 32.48311233520508 6.401652812957764 C 35.96642303466797 9.884952545166016 37.88476181030273 14.51624298095703 37.88476181030273 19.4423828125 C 37.88476181030273 24.36852264404297 35.96642303466797 28.99981307983398 32.48311233520508 32.48311233520508 C 28.99981307983398 35.96642303466797 24.36852264404297 37.88476181030273 19.4423828125 37.88476181030273 Z" stroke="none"/>
      <path d="M 19.4423828125 2.000003814697266 C 14.78335189819336 2.000003814697266 10.4031925201416 3.814323425292969 7.108753204345703 7.108753204345703 C 3.814323425292969 10.4031925201416 2.000003814697266 14.78335189819336 2.000003814697266 19.4423828125 C 2.000003814697266 24.10141372680664 3.814323425292969 28.4815731048584 7.108753204345703 31.7760124206543 C 10.4031925201416 35.07044219970703 14.78335189819336 36.88476181030273 19.4423828125 36.88476181030273 C 24.10141372680664 36.88476181030273 28.4815731048584 35.07044219970703 31.7760124206543 31.7760124206543 C 35.07044219970703 28.4815731048584 36.88476181030273 24.10141372680664 36.88476181030273 19.4423828125 C 36.88476181030273 14.78335189819336 35.07044219970703 10.4031925201416 31.7760124206543 7.108753204345703 C 28.4815731048584 3.814323425292969 24.10141372680664 2.000003814697266 19.4423828125 2.000003814697266 M 19.4423828125 3.814697265625e-06 C 30.18011283874512 3.814697265625e-06 38.88476181030273 8.704652786254883 38.88476181030273 19.4423828125 C 38.88476181030273 30.18011283874512 30.18011283874512 38.88476181030273 19.4423828125 38.88476181030273 C 8.704652786254883 38.88476181030273 3.814697265625e-06 30.18011283874512 3.814697265625e-06 19.4423828125 C 3.814697265625e-06 8.704652786254883 8.704652786254883 3.814697265625e-06 19.4423828125 3.814697265625e-06 Z" stroke="none" fill="#5d2aae"/>
    </g>
    <path id="Path_3679" data-name="Path 3679" d="M-.385,129a2.414,2.414,0,0,1-.7,1.711,2.413,2.413,0,0,1-1.707.711,2.415,2.415,0,0,1-1.709-.706l-7.7-7.709a2.41,2.41,0,0,1-.706-1.716v-.079h0a2.4,2.4,0,0,1,.7-1.785l7.7-7.689a2.413,2.413,0,0,1,2.308-.577,2.413,2.413,0,0,1,1.682,1.683,2.414,2.414,0,0,1-.578,2.308l-6.071,6.072,6.071,6.072A2.409,2.409,0,0,1-.385,129Z" transform="translate(297.033 -81.908)" fill="#704395"/>
  </g>
</svg>
