<svg id="Component_15_1" data-name="Component 15 – 1" xmlns="http://www.w3.org/2000/svg" width="23" height="23" viewBox="0 0 23 23">
  <rect id="Rectangle_771" data-name="Rectangle 771" width="23" height="23" rx="6" fill="#421f7a"/>
  <path id="Path_3684" data-name="Path 3684" d="M-38.071,177.582c-.019.019-.039.039-.058.039a.019.019,0,0,0-.019.019c-.019,0-.039.019-.058.019h-.019l-4.475,1.1h-.077a.405.405,0,0,1-.212-.077.286.286,0,0,1-.077-.27l1.1-4.475v-.019c0-.019.019-.039.019-.058a.019.019,0,0,1,.019-.019c.019-.019.019-.039.039-.039l7.773-7.735a2.678,2.678,0,0,1,3.78,0,2.678,2.678,0,0,1,0,3.781Zm-.772-.367-2.642-2.642-.868,3.51Zm.559-.251,6.481-6.481-2.951-2.951-6.481,6.481Zm7.542-10.493a2.119,2.119,0,0,0-1.485-.617,2.071,2.071,0,0,0-1.485.617l-.656.656,2.97,2.951.656-.656a2.119,2.119,0,0,0,.617-1.485,2.073,2.073,0,0,0-.617-1.466Z" transform="translate(48.074 -160.285)" fill="#c69dd2"/>
</svg>
