<svg id="noun-setting-3875973" xmlns="http://www.w3.org/2000/svg" width="26.768" height="26.768" viewBox="0 0 26.768 26.768">
  <path id="Path_5022" data-name="Path 5022" d="M111.651,27.314h-.114a.833.833,0,0,1-.771-.535.825.825,0,0,1,.178-.9l.081-.081h0a2.622,2.622,0,0,0,0-3.7l-1.348-1.347a2.619,2.619,0,0,0-3.7,0l-.081.081a.853.853,0,0,1-1.445-.6v-.115a2.619,2.619,0,0,0-2.616-2.616H99.93a2.619,2.619,0,0,0-2.616,2.616v.115a.853.853,0,0,1-1.44.6l-.077-.081a2.619,2.619,0,0,0-3.7,0l-1.353,1.347a2.622,2.622,0,0,0,0,3.7l.081.081h0a.834.834,0,0,1,.165.924.824.824,0,0,1-.762.517h-.114A2.619,2.619,0,0,0,87.5,29.93v1.906a2.619,2.619,0,0,0,2.616,2.616h.114a.833.833,0,0,1,.771.535.825.825,0,0,1-.178.9l-.081.081h0a2.622,2.622,0,0,0,0,3.7l1.347,1.346a2.618,2.618,0,0,0,3.7,0l.081-.081h0a.835.835,0,0,1,.924-.165.822.822,0,0,1,.517.761v.115a2.619,2.619,0,0,0,2.62,2.621h1.906a2.619,2.619,0,0,0,2.616-2.616v-.115a.853.853,0,0,1,1.44-.6l.081.081h0a2.619,2.619,0,0,0,3.7,0l1.348-1.346h0a2.622,2.622,0,0,0,0-3.7l-.081-.081a.834.834,0,0,1-.165-.924.825.825,0,0,1,.762-.517h.114a2.619,2.619,0,0,0,2.616-2.616V29.93a2.619,2.619,0,0,0-2.616-2.616Zm.832,4.522a.832.832,0,0,1-.832.832h-.114a2.638,2.638,0,0,0-1.859,4.486l.08.081h0a.834.834,0,0,1,0,1.177l-1.348,1.346h0a.832.832,0,0,1-1.176,0l-.08-.081h0a2.638,2.638,0,0,0-4.486,1.859v.115a.832.832,0,0,1-.832.832H99.931a.832.832,0,0,1-.831-.832v-.115a2.633,2.633,0,0,0-4.486-1.858l-.081.081a.834.834,0,0,1-1.176,0l-1.347-1.346a.834.834,0,0,1,0-1.177l.081-.081a2.638,2.638,0,0,0-1.86-4.487h-.114a.832.832,0,0,1-.832-.832V29.93a.832.832,0,0,1,.832-.832h.114a2.638,2.638,0,0,0,1.859-4.486l-.08-.081h0a.833.833,0,0,1,0-1.176l1.347-1.348a.832.832,0,0,1,1.176,0l.08.081A2.639,2.639,0,0,0,99.1,20.231v-.115a.832.832,0,0,1,.832-.832h1.906a.832.832,0,0,1,.832.832v.115a2.638,2.638,0,0,0,4.486,1.858l.081-.081a.832.832,0,0,1,1.176,0l1.347,1.348a.833.833,0,0,1,0,1.176l-.081.081a2.637,2.637,0,0,0,1.859,4.486h.114a.832.832,0,0,1,.832.832Z" transform="translate(-87.499 -17.499)" fill="#568a29"/>
  <path id="Path_5023" data-name="Path 5023" d="M232.105,157.5a4.611,4.611,0,1,0,3.255,1.35A4.605,4.605,0,0,0,232.105,157.5Z" transform="translate(-218.721 -148.721)" fill="#568a29"/>
</svg>
