<svg id="Group_1294" data-name="Group 1294" xmlns="http://www.w3.org/2000/svg" width="17.232" height="17.251" viewBox="0 0 17.232 17.251">
  <path id="Path_46" data-name="Path 46" d="M408.541,54.615a.518.518,0,0,0,.517.483,4.78,4.78,0,0,1,4.774,4.774.518.518,0,0,0,1.036,0,5.817,5.817,0,0,0-5.81-5.81.518.518,0,0,0-.518.518v.033Z" transform="translate(-397.722 -53.978)" fill="#bebebe"/>
  <path id="Path_47" data-name="Path 47" d="M409.058,111.1a2.66,2.66,0,0,1,2.657,2.657.518.518,0,1,0,1.036,0,3.7,3.7,0,0,0-3.693-3.693.518.518,0,1,0,0,1.036Z" transform="translate(-397.722 -107.861)" fill="#bebebe"/>
  <path id="Path_48" data-name="Path 48" d="M139.332,65.366h.023l-3.189-3.188a1.345,1.345,0,0,0-.959-.393,1.4,1.4,0,0,0-.975.393l-.91.91a.749.749,0,0,1-1.073,0l-3.937-3.937a.744.744,0,0,1-.226-.526.706.706,0,0,1,.222-.522l.915-.914a1.389,1.389,0,0,0,0-1.933l-3.006-3.027a1.368,1.368,0,0,0-.956-.409,1.282,1.282,0,0,0-.957.41l-.041.041a6.4,6.4,0,0,0-1.891,4.555,6.328,6.328,0,0,0,1.891,4.555l5.8,5.8a6.488,6.488,0,0,0,4.555,1.891,6.331,6.331,0,0,0,4.555-1.891l.042-.042A1.364,1.364,0,0,0,139.332,65.366ZM124.968,53l.042-.042a.315.315,0,0,1,.459,0l3.027,3.027a.314.314,0,0,1,0,.459l-.91.91a1.784,1.784,0,0,0-.515,1.274,1.86,1.86,0,0,0,.515,1.273l3.937,3.937a1.794,1.794,0,0,0,2.526,0l.91-.91a.315.315,0,0,1,.459,0l3.027,3.027.009.008a.278.278,0,0,1,.109.2.322.322,0,0,1-.1.246l-.042.042a5.364,5.364,0,0,1-3.82,1.576,5.418,5.418,0,0,1-3.836-1.576l-5.8-5.8a5.425,5.425,0,0,1,0-7.656Z" transform="translate(-122.372 -51.82)" fill="#bebebe"/>
  <path id="Path_49" data-name="Path 49" d="M409.058,167.1a.529.529,0,0,1,.541.541.518.518,0,1,0,1.036,0,1.559,1.559,0,0,0-1.576-1.576.518.518,0,1,0,0,1.036Z" transform="translate(-397.722 -161.745)" fill="#bebebe"/>
</svg>
