<svg xmlns="http://www.w3.org/2000/svg" width="17.232" height="15.375" viewBox="0 0 17.232 15.375">
  <path id="Path_4062" data-name="Path 4062" d="M590.433,1707a1.952,1.952,0,0,0-1.952-1.9H575.155a1.952,1.952,0,0,0-1.95,1.881.411.411,0,0,0,0,.073v11.469a1.952,1.952,0,0,0,1.952,1.952h13.325a1.953,1.953,0,0,0,1.952-1.952v-11.47A.405.405,0,0,0,590.433,1707Zm-1.056-.187-7.559,4.852-7.526-4.852a.9.9,0,0,1,.863-.662h13.326a.9.9,0,0,1,.895.662Zm-15.125,1.224,7.283,4.711a.523.523,0,0,0,.566,0l7.283-4.71v10.487a.9.9,0,0,1-.9.9H575.156a.9.9,0,0,1-.9-.9Z" transform="translate(-573.203 -1705.098)" fill="#bebebe"/>
</svg>
