<svg xmlns="http://www.w3.org/2000/svg" width="19.608" height="19.028" viewBox="0 0 19.608 19.028">
  <g id="Group_1295" data-name="Group 1295" transform="translate(1217.599 569.708)">
    <path id="Path_3957" data-name="Path 3957" d="M-1216.786-231.727l.047,0,.022-.041a1.4,1.4,0,0,0,.129-.446c.013-.075.025-.146.043-.213a5.686,5.686,0,0,1,2.172-3.209,4.677,4.677,0,0,0,2.884,1.108,3.783,3.783,0,0,0,1.014-.139l.068-.019-.007-.07a3.923,3.923,0,0,0-.141-.663l-.027-.1-.021-.076-.077.017a3.571,3.571,0,0,1-.77.087h0a3.81,3.81,0,0,1-2.693-1.308l-.043-.043-.054.028a6.331,6.331,0,0,0-2.179,1.841,6.766,6.766,0,0,0-1.168,2.849v0a1.279,1.279,0,0,0-.011.2l0,.084.084,0h0a.787.787,0,0,1,.139.028c.047.012.1.026.153.035a2.166,2.166,0,0,0,.38.044Z" transform="translate(0 -325.977)" fill="#f63100"/>
    <path id="Path_3958" data-name="Path 3958" d="M-891.6-25.576a7.731,7.731,0,0,0-1.3-3.87,7.867,7.867,0,0,0-2.806-2.42l-.048-.026-.043.035c-.153.124-.3.255-.442.382a5.483,5.483,0,0,1-.975.748,3.919,3.919,0,0,1-2.009.486,4.455,4.455,0,0,1-3.419-1.611l-.044-.044-.055.029a8.962,8.962,0,0,0-1.922,1.358l-.05.047.038.058a1.9,1.9,0,0,0,.31.344,2.249,2.249,0,0,1,.233.242l.051.065.065-.051c.069-.054.143-.117.22-.182.105-.089.224-.19.359-.293.032-.025.071-.057.115-.095.134-.113.358-.3.474-.3.045,0,.149.1.219.159.033.031.068.062.1.091a4.96,4.96,0,0,0,3.3,1.179,5.366,5.366,0,0,0,3.609-1.431,6.225,6.225,0,0,1,3.038,5.757h-10.128l-.015.064a1.991,1.991,0,0,0-.023.475c0,.1.005.2,0,.285l-.005.088h11.067l.012-.068A6.369,6.369,0,0,0-891.6-25.576Z" transform="translate(-306.406 -526.678)" fill="#f63100"/>
    <path id="Path_3959" data-name="Path 3959" d="M-1098.1-562.943a4.275,4.275,0,0,0,2.806.973l.092,0-.007-.092a2.646,2.646,0,0,1,0-.267,1.208,1.208,0,0,0-.049-.506l-.01-.023-.021-.013a1.042,1.042,0,0,0-.517-.124c-.055,0-.108-.006-.158-.012a2.849,2.849,0,0,1-2.474-2.837,2.894,2.894,0,0,1,2.011-2.778,2.954,2.954,0,0,1,.852-.128,2.937,2.937,0,0,1,2.228,1.054c.028.033.068.091.111.152.157.225.268.374.372.394a.228.228,0,0,0,.042,0c.18,0,.666-.241.7-.4.026-.133-.1-.32-.287-.56l-.019-.024a4.154,4.154,0,0,0-1.294-1.126,3.948,3.948,0,0,0-1.925-.455c-.141,0-.287.006-.434.017a3.569,3.569,0,0,0-2.416,1.353,3.8,3.8,0,0,0-.869,2.877A3.745,3.745,0,0,0-1098.1-562.943Z" transform="translate(-115.762 0)" fill="#f63100"/>
    <path id="Path_3960" data-name="Path 3960" d="M-870.75-446.8a4.665,4.665,0,0,0,.406,3.164,4.911,4.911,0,0,0,1.807,1.935,5,5,0,0,0,2.5.664,4.511,4.511,0,0,0,.537-.031,4.728,4.728,0,0,0,2.591-1.158,4.825,4.825,0,0,0,1.429-2.37,4.616,4.616,0,0,0-.228-3.13,5.049,5.049,0,0,0-1.592-1.959,4.57,4.57,0,0,0-2.711-.878c-.123,0-.249,0-.375.014a4.6,4.6,0,0,0-1.644.4A4.761,4.761,0,0,0-870.75-446.8Zm.868.949a3.865,3.865,0,0,1,1.054-2.552,3.654,3.654,0,0,1,2.451-1.175c.109-.008.218-.013.325-.013a3.734,3.734,0,0,1,3.119,1.674,3.972,3.972,0,0,1,.567,2.878,3.721,3.721,0,0,1-3.766,3.033c-.121,0-.246-.005-.37-.015a3.7,3.7,0,0,1-2.388-1.216A3.722,3.722,0,0,1-869.882-445.85Z" transform="translate(-339.558 -116.677)" fill="#f63100"/>
    <path id="Path_3961" data-name="Path 3961" d="M-1189.578-51.281c.234-.028.5-.032.752-.036.169,0,.343-.006.509-.015l.06,0,.015-.058a2.16,2.16,0,0,1,.139-.362,2.78,2.78,0,0,0,.128-.317l.016-.05-.038-.036c-.382-.358-.763-.73-1.132-1.089-.68-.663-1.383-1.348-2.121-1.977l-.055-.047-.054.049c-.945.855-2.007,1.862-2.839,2.694l-.007.007c-.226.226-.359.376-.369.478a.683.683,0,0,0,.141.409.584.584,0,0,1,.107.243v.074l.074.007c.161.014.335.015.485.015h.183a3.973,3.973,0,0,1,.638.036,5.357,5.357,0,0,0,1.7,2.9,6.988,6.988,0,0,0,3.2,1.453l.04.008.031-.027a1.1,1.1,0,0,0,.265-.472c.028-.077.054-.15.087-.217l.029-.06-.053-.041A4.745,4.745,0,0,1-1189.578-51.281Zm-.953-1,0,.078a7.082,7.082,0,0,0,.207,2.218,5.971,5.971,0,0,0,.612,1.486,4.47,4.47,0,0,1-2.414-3.689l-.008-.059-.059-.012a1.831,1.831,0,0,0-.339-.025l-.169,0-.166,0c-.057,0-.106,0-.15,0a16.321,16.321,0,0,1,1.229-1.21c.162-.149.329-.3.492-.456a23.159,23.159,0,0,1,1.733,1.669Z" transform="translate(-22.548 -503.785)" fill="#f63100"/>
  </g>
</svg>
