<svg id="Group_910" data-name="Group 910" xmlns="http://www.w3.org/2000/svg" width="26.756" height="26.768" viewBox="0 0 26.756 26.768">
  <path id="Path_5329" data-name="Path 5329" d="M190.971,200.487a2.153,2.153,0,1,1-2.153-2.153,2.152,2.152,0,0,1,2.153,2.153" transform="translate(-181.847 -187.104)" fill="#568a29"/>
  <path id="Path_5330" data-name="Path 5330" d="M272.637,200.487a2.153,2.153,0,1,1-2.153-2.153,2.152,2.152,0,0,1,2.153,2.153" transform="translate(-257.1 -187.104)" fill="#568a29"/>
  <path id="Path_5331" data-name="Path 5331" d="M354.307,200.487a2.153,2.153,0,1,1-2.153-2.153,2.153,2.153,0,0,1,2.153,2.153" transform="translate(-332.356 -187.104)" fill="#568a29"/>
  <path id="Path_5332" data-name="Path 5332" d="M477.752,210.655q-.006-.122-.014-.241Q477.746,210.534,477.752,210.655Z" transform="translate(-451.013 -197.838)" fill="#568a29"/>
  <path id="Path_5333" data-name="Path 5333" d="M248.848,403.19l.007,0a1.759,1.759,0,0,0,.339.076v0C249.078,403.242,248.963,403.217,248.848,403.19Z" transform="translate(-238.533 -376.793)" fill="#568a29"/>
  <path id="Path_5334" data-name="Path 5334" d="M115.627,61.469v0c.672.112,2.067.257,2.111.262.2.015.409.031.615.031h0a13.878,13.878,0,0,0,2.025-.15,13.344,13.344,0,0,0,11.247-11.506,13.673,13.673,0,0,0,.083-2.23c0-.022,0-.043,0-.065q-.006-.12-.014-.241a15.913,15.913,0,0,0-.332-2.323,13.38,13.38,0,1,0-24.588,9.826.884.884,0,0,1,.116.622h0l-.781,3.71a1.673,1.673,0,0,0,2.085,1.956l3.687-1.023a.872.872,0,0,1,.618.073,13.271,13.271,0,0,0,2.763.976.071.071,0,0,1,.022,0C115.4,61.419,115.511,61.445,115.627,61.469Zm-3.546-2.83a2.427,2.427,0,0,0-.653.089l-3.687,1.027.781-3.709h0a2.555,2.555,0,0,0-.306-1.812,11.655,11.655,0,0,1-1.5-7.217h0a11.718,11.718,0,1,1,6.51,11.892A2.626,2.626,0,0,0,112.081,58.639Z" transform="translate(-104.966 -34.996)" fill="#568a29"/>
  <path id="Path_5335" data-name="Path 5335" d="M477.937,213.834c0-.022,0-.043,0-.065C477.935,213.791,477.936,213.812,477.937,213.834Z" transform="translate(-451.195 -200.952)" fill="#568a29"/>
  <path id="Path_5336" data-name="Path 5336" d="M248.544,403.123l.022,0A.071.071,0,0,0,248.544,403.123Z" transform="translate(-238.25 -376.731)" fill="#568a29"/>
</svg>
