<svg xmlns="http://www.w3.org/2000/svg" xmlns:xlink="http://www.w3.org/1999/xlink" width="83.46" height="85" viewBox="0 0 83.46 85">
  <defs>
    <linearGradient id="linear-gradient" x1="0.087" x2="0.625" y2="0.699" gradientUnits="objectBoundingBox">
      <stop offset="0" stop-color="#204b13"/>
      <stop offset="1" stop-color="#235218"/>
    </linearGradient>
    <linearGradient id="linear-gradient-2" x1="0.372" y1="0.046" x2="0.932" y2="0.788" gradientUnits="objectBoundingBox">
      <stop offset="0" stop-color="#75b53d"/>
      <stop offset="1" stop-color="#568a29" stop-opacity="0.129"/>
    </linearGradient>
  </defs>
  <g id="Group_973" data-name="Group 973" transform="translate(-710 -279)">
    <ellipse id="Ellipse_95" data-name="Ellipse 95" cx="41" cy="42.5" rx="41" ry="42.5" transform="translate(710 279)" opacity="0.2" fill="url(#linear-gradient)"/>
    <path id="Path_5343" data-name="Path 5343" d="M-901.835,10.327l.806-.656c.3-.235.614-.491.909-.707.593-.448,1.194-.886,1.809-1.3a44.489,44.489,0,0,1,3.8-2.321,44.408,44.408,0,0,1,8.165-3.432A44.064,44.064,0,0,1-868.956.232a43.139,43.139,0,0,1,16.5,5.183,43.07,43.07,0,0,1,13.007,11.1,42.373,42.373,0,0,1,7.57,15.127,42.187,42.187,0,0,1,1.03,16.694,41.23,41.23,0,0,1-5.5,15.6A41.234,41.234,0,0,1-847.388,76a40.774,40.774,0,0,0,10.216-12.528,39.814,39.814,0,0,0,4.449-15.343,39.834,39.834,0,0,0-1.865-15.681,39.058,39.058,0,0,0-7.764-13.532A38.841,38.841,0,0,0-854.63,9.591a37.958,37.958,0,0,0-14.758-3.727,37.944,37.944,0,0,0-14.869,2.293,37.618,37.618,0,0,0-6.72,3.294,37.177,37.177,0,0,0-3.064,2.129c-.494.376-.973.771-1.446,1.172-.244.2-.448.393-.673.589l-.743.679-.012.011a3.767,3.767,0,0,1-5.322-.238A3.767,3.767,0,0,1-902,10.469C-901.948,10.423-901.887,10.371-901.835,10.327Z" transform="translate(1623.912 279.004)" fill="url(#linear-gradient-2)"/>
  </g>
</svg>
