<svg xmlns="http://www.w3.org/2000/svg" xmlns:xlink="http://www.w3.org/1999/xlink" width="49.491" height="50.369" viewBox="0 0 49.491 50.369">
  <defs>
    <radialGradient id="radial-gradient" cx="0.5" cy="0.5" r="0.493" gradientTransform="translate(-0.014) scale(1.028 1)" gradientUnits="objectBoundingBox">
      <stop offset="0" stop-color="#d7141d"/>
      <stop offset="1" stop-color="#810693"/>
    </radialGradient>
    <filter id="Path_5714" x="0" y="0" width="49.491" height="50.369" filterUnits="userSpaceOnUse">
      <feOffset dy="3" input="SourceAlpha"/>
      <feGaussianBlur stdDeviation="3" result="blur"/>
      <feFlood flood-color="#48005b" flood-opacity="0.702"/>
      <feComposite operator="in" in2="blur"/>
      <feComposite in="SourceGraphic"/>
    </filter>
  </defs>
  <g id="Group_1675" data-name="Group 1675" transform="translate(-376.962 -121.598)">
    <g transform="matrix(1, 0, 0, 1, 376.96, 121.6)" filter="url(#Path_5714)">
      <path id="Path_5714-2" data-name="Path 5714" d="M-1055.753-32.481a8.646,8.646,0,0,0-5.925-2.186,12.9,12.9,0,0,0-3.98.551l2.29-4.737a1.538,1.538,0,0,0-.567-1.973,1.539,1.539,0,0,0-2.023.347l-9.48,11.946-1.043-9.658q0-.041-.011-.081a3.156,3.156,0,0,0-3.044-2.789h-2.107a3.346,3.346,0,0,0-.6,0h-1.144a1.539,1.539,0,0,0-1.174.545,1.538,1.538,0,0,0-.343,1.248l3.089,18.434.006.035a3.817,3.817,0,0,0,3.358,3.333c.1.008.2.012.306.012.079,0,.16,0,.241-.007h3.243l-3.23,6.536a1.538,1.538,0,0,0,.572,1.991,1.533,1.533,0,0,0,.806.229,1.537,1.537,0,0,0,1.23-.613l3.263-4.335a7.813,7.813,0,0,0,.747.793,8.349,8.349,0,0,0,2.983,1.765,11.483,11.483,0,0,0,3.571.606h.187a12.035,12.035,0,0,0,4.5-.816,8.142,8.142,0,0,0,3.5-2.562,7.111,7.111,0,0,0,1.458-3.958,7.164,7.164,0,0,0-3.9-6.852,24.181,24.181,0,0,0-3.68-1.671,2.859,2.859,0,0,1-1.122-.636.764.764,0,0,1,.405-.533,2.22,2.22,0,0,1,1.281-.324,1.087,1.087,0,0,1,.584.123c.037.067.089.156.154.259a4.356,4.356,0,0,0,3.6,2.255h2.778a1.539,1.539,0,0,0,1.538-1.523A7.4,7.4,0,0,0-1055.753-32.481ZM-1066.077-19.9l.041.018,2.3.954c.882.382.833.634.809.756l0,.013a.783.783,0,0,1-.352.556,2.02,2.02,0,0,1-1.151.286,1.68,1.68,0,0,1-1.156-.271.533.533,0,0,1-.044-.062c-.053-.139-.112-.274-.175-.4a4.354,4.354,0,0,0-3.764-2.469l-.067,0-2.385-.007a1.522,1.522,0,0,0-.2-.008l1.5-3.1A9.926,9.926,0,0,0-1066.077-19.9Z" transform="translate(1093.93 47.07)" fill="url(#radial-gradient)"/>
    </g>
    <g id="Group_1673" data-name="Group 1673" transform="translate(387.54 129.136)">
      <path id="Path_5715" data-name="Path 5715" d="M-1068.273-26.065a1.488,1.488,0,0,0-.42,0h-1.232l.312,1.86,2.777,16.575c.08.416.476,1.971,1.968,2.089a2.43,2.43,0,0,0,.375,0h3.279l2.174-4.5,3.494-7.227,4.255-8.8L-1063.1-11.18l-1.445-13.388s-.242-1.5-1.525-1.5" transform="translate(1069.926 26.079)" fill="#fff"/>
      <path id="Path_5716" data-name="Path 5716" d="M-986.143,46.162a23.051,23.051,0,0,0-3.432-1.55q-2.361-.9-2.093-2.312a2.288,2.288,0,0,1,1.1-1.593,3.737,3.737,0,0,1,2.143-.564,2.169,2.169,0,0,1,1.783.74c.023.03.043.063.065.1l.012.017c.02.038.068.127.143.246a2.967,2.967,0,0,0,2.3,1.538h2.778a5.9,5.9,0,0,0-1.825-4.609,7.12,7.12,0,0,0-4.9-1.776,11.052,11.052,0,0,0-4.186.719c-.116.045-.227.094-.338.142l-3.494,7.227q.935,2.24,4.269,3.738l2.312.959q2.03.874,1.72,2.467a2.312,2.312,0,0,1-.994,1.544,3.49,3.49,0,0,1-2.023.557,2.911,2.911,0,0,1-2.326-.81,2.189,2.189,0,0,1-.271-.408l-.005-.009a3.567,3.567,0,0,0-.156-.374,2.826,2.826,0,0,0-2.453-1.606l-2.5-.007-.046-.009,0,.008h-.008c0,.006,0,.011,0,.017l-4.314,8.73,4.671-6.205a5.922,5.922,0,0,0,1.616,2.462,6.788,6.788,0,0,0,2.438,1.438,9.9,9.9,0,0,0,3.087.522,10.552,10.552,0,0,0,4.095-.7,6.6,6.6,0,0,0,2.854-2.072,5.572,5.572,0,0,0,1.142-3.115A5.668,5.668,0,0,0-986.143,46.162Z" transform="translate(1009.764 -29.986)" fill="#fff"/>
    </g>
  </g>
</svg>
