<svg xmlns="http://www.w3.org/2000/svg" xmlns:xlink="http://www.w3.org/1999/xlink" width="25.305" height="18.343" viewBox="0 0 25.305 18.343">
  <defs>
    <linearGradient id="linear-gradient" x1="-1.459" y1="-1.028" x2="0.428" y2="1.097" gradientUnits="objectBoundingBox">
      <stop offset="0" stop-color="#f3dbff"/>
      <stop offset="1" stop-color="#c6a7ff"/>
    </linearGradient>
  </defs>
  <g id="Group_1684" data-name="Group 1684" transform="translate(-736 -328.687)">
    <g id="Group_1683" data-name="Group 1683" transform="translate(736 328.687)">
      <path id="Path_5739" data-name="Path 5739" d="M503.4,305.761c0-.574,0-1.149,0-1.722a3.813,3.813,0,0,0-3.19-3.735,6.652,6.652,0,0,0-.948-.052,1.056,1.056,0,0,0-.83.191c-.26.271-.483.59-.719.878-.368.451-.736.9-1.1,1.35-.222.271-.6.621-.618.986-.021.423,0,.854,0,1.277v.775a.614.614,0,1,0,1.218.126h0v-.006c0-.006,0-.011,0-.017s0-.011,0-.017v-1.938q.906-1.109,1.812-2.217l.139-.17h.555c.08,0,.159.009.239.016.024,0,.061.008.074.011.056.01.108.021.16.035.083.021.167.042.246.069.045.014.087.028.132.045l.086.036a3.4,3.4,0,0,1,.417.231c.038.024.073.052.111.076l.006,0,.015.013c.056.049.115.1.17.149s.128.128.187.194c.031.035.059.069.087.1l.017.021.025.035a3.355,3.355,0,0,1,.257.43c.01.021.02.041.029.062,0,0,.03.068.037.087.031.087.059.174.087.264s.045.181.063.274c.007.028.024.187.007.024l.01.094c.01.108.014.212.014.319v1.768h0a.6.6,0,0,0,1.208-.033C503.4,305.788,503.4,305.775,503.4,305.761Z" transform="translate(-478.093 -289.383)" fill="url(#linear-gradient)"/>
      <path id="Path_5740" data-name="Path 5740" d="M278.621,137.267a5.088,5.088,0,0,0,2.093,1.9,3.267,3.267,0,0,0,2.826-.076,5.35,5.35,0,0,0,2.051-2.017,7.093,7.093,0,0,0,1-2.8,4.941,4.941,0,0,0,.044-.554.591.591,0,0,0,0-.078,4.6,4.6,0,0,0-8.7-2.079,4.873,4.873,0,0,0-.406,3.02A6.994,6.994,0,0,0,278.621,137.267Z" transform="translate(-273.446 -129.054)" fill="url(#linear-gradient)"/>
      <path id="Path_5741" data-name="Path 5741" d="M229.887,297.6a4.828,4.828,0,0,0-3.291-1.236H226a.831.831,0,0,0-.677.181c-.111.118-.2.26-.305.385l-1.489,1.875-.708.89-1.08-1.348-1.021-1.27c-.233-.292-.441-.684-.854-.708-.215-.014-.43,0-.646,0a6.706,6.706,0,0,0-.791.028,4.826,4.826,0,0,0-2.489,1.034,4.687,4.687,0,0,0-1.468,2.09,5.076,5.076,0,0,0-.264,1.749v2.208h0a.608.608,0,0,0,1.217,0c0-.011,0-.021,0-.032v-2.381c0-.115,0-.226.014-.34,0-.024.017-.194.01-.108s0,0,0-.014c.007-.038.014-.076.021-.118a4.035,4.035,0,0,1,.191-.694c.007-.019.035-.086.044-.109l.039-.082c.052-.111.111-.215.174-.323s.121-.191.187-.285c.024-.032.073-.1.058-.079.033-.04.067-.079.1-.119a4.448,4.448,0,0,1,.486-.472l.033-.028.023-.017c.042-.031.087-.062.128-.09.1-.069.2-.132.309-.191s.191-.1.285-.142h0c.021-.009.043-.018.066-.026l.174-.063a3.306,3.306,0,0,1,.4-.111l.184-.038c.046-.009.159-.02.118-.017.172-.013.345-.024.517-.024h.586q1.225,1.526,2.448,3.055c.121.153.243.3.364.455a.608.608,0,0,0,.857,0q1.281-1.614,2.565-3.228l.224-.281h.575c.177,0,.351.007.524.024h.007l.066.01c.069.01.139.024.208.038a3.647,3.647,0,0,1,.382.1c.066.021.132.045.194.069l.071.029c.114.059.231.111.345.173s.222.132.326.2l.073.052,0,0,.052.043c.028.024.059.049.087.073.1.083.191.174.278.264.042.045.083.087.121.132l.059.069.061.075.012.015.052.073c.035.049.069.1.1.153a3.63,3.63,0,0,1,.2.358c.031.062.059.125.087.187-.069-.139.028.069.042.111a4.263,4.263,0,0,1,.128.424c.017.069.031.139.045.2.007.045.031.278.021.118a4.713,4.713,0,0,1,.035.485h0v2.381c0,.011,0,.021,0,.032a.608.608,0,1,0,1.217,0h0v-2.407s0,0,0,0A4.735,4.735,0,0,0,229.887,297.6Z" transform="translate(-214.208 -285.742)" fill="url(#linear-gradient)"/>
      <path id="Path_5742" data-name="Path 5742" d="M452.365,173.206a4.346,4.346,0,0,0,1.781-1.819,5.3,5.3,0,0,0,.715-2.534v0h0a3.7,3.7,0,0,0-7-1.666,4.633,4.633,0,0,0,.538,4.561,4.067,4.067,0,0,0,1.673,1.513A2.671,2.671,0,0,0,452.365,173.206Z" transform="translate(-432.67 -162.865)" fill="url(#linear-gradient)"/>
    </g>
  </g>
</svg>
