<svg xmlns="http://www.w3.org/2000/svg" xmlns:xlink="http://www.w3.org/1999/xlink" width="32.196" height="25.372" viewBox="0 0 32.196 25.372">
  <defs>
    <linearGradient id="linear-gradient" x1="0.225" y1="0.163" x2="1.076" y2="1.174" gradientUnits="objectBoundingBox">
      <stop offset="0" stop-color="#f3dbff"/>
      <stop offset="1" stop-color="#c6a7ff"/>
    </linearGradient>
  </defs>
  <g id="Group_2208" data-name="Group 2208" transform="translate(-2375 -421)">
    <path id="Path_5719" data-name="Path 5719" d="M93.5,82.738a1.568,1.568,0,0,0-1.389-.813h-1.8a9.614,9.614,0,0,1,9.552-8.773,9.315,9.315,0,0,1,4.641,1.219,1.569,1.569,0,1,0,1.525-2.744,12.624,12.624,0,0,0-18.8,10.264h-1.9A1.553,1.553,0,0,0,84.014,84.3L87.4,89.512a1.582,1.582,0,0,0,2.642,0L93.431,84.3a1.443,1.443,0,0,0,.068-1.558Z" transform="translate(2291.237 350.999)" fill="url(#linear-gradient)"/>
    <path id="Path_5720" data-name="Path 5720" d="M257.7,161.84l-3.387-5.216a1.618,1.618,0,0,0-2.608,0l-3.421,5.216a1.553,1.553,0,0,0,1.321,2.405h1.8a9.614,9.614,0,0,1-9.552,8.773A9.408,9.408,0,0,1,237.2,171.8a1.569,1.569,0,1,0-1.525,2.744,12.7,12.7,0,0,0,18.834-10.3h1.863a1.568,1.568,0,0,0,1.389-.813,1.661,1.661,0,0,0-.068-1.592Z" transform="translate(2149.262 270.237)" fill="url(#linear-gradient)"/>
  </g>
</svg>
