<svg id="noun-settings-2650511" xmlns="http://www.w3.org/2000/svg" xmlns:xlink="http://www.w3.org/1999/xlink" width="25.38" height="25.372" viewBox="0 0 25.38 25.372">
  <defs>
    <linearGradient id="linear-gradient" x1="0.247" y1="0.118" x2="0.73" y2="0.979" gradientUnits="objectBoundingBox">
      <stop offset="0" stop-color="#f3dbff"/>
      <stop offset="1" stop-color="#c6a7ff"/>
    </linearGradient>
  </defs>
  <path id="Path_5717" data-name="Path 5717" d="M95.016,7.315A2.673,2.673,0,0,0,92.588,5.77a3.708,3.708,0,0,1-2.512-.761,3.663,3.663,0,0,1-.837-2.492A2.67,2.67,0,0,0,87.614.139a2.671,2.671,0,0,0-2.809.619,3.79,3.79,0,0,1-2.317,1.248A3.648,3.648,0,0,1,80.139.842,2.677,2.677,0,0,0,77.312.3a2.677,2.677,0,0,0-1.55,2.428A3.708,3.708,0,0,1,75,5.242a3.685,3.685,0,0,1-2.487.837,2.687,2.687,0,0,0-2.378,1.626,2.671,2.671,0,0,0,.619,2.809A3.791,3.791,0,0,1,72,12.829a3.641,3.641,0,0,1-1.165,2.35,2.567,2.567,0,0,0,1.888,4.38,3.708,3.708,0,0,1,2.512.761,3.649,3.649,0,0,1,.837,2.487,2.572,2.572,0,0,0,4.435,1.759,3.714,3.714,0,0,1,2.314-1.238,3.73,3.73,0,0,1,2.355,1.17,2.573,2.573,0,0,0,4.38-1.893,3.708,3.708,0,0,1,.761-2.512,3.642,3.642,0,0,1,2.489-.83,2.575,2.575,0,0,0,1.758-4.441A3.75,3.75,0,0,1,93.319,12.5a3.629,3.629,0,0,1,1.17-2.35,2.713,2.713,0,0,0,.528-2.839ZM84.613,17.2a2.644,2.644,0,1,1,.008,0Z" transform="translate(-69.973 0.024)" fill="url(#linear-gradient)"/>
</svg>
