<svg xmlns="http://www.w3.org/2000/svg" width="28.984" height="24.057" viewBox="0 0 28.984 24.057">
  <path id="Path_3654" data-name="Path 3654" d="M-531.815,79.546h0a3.271,3.271,0,0,0-2.518-1.18h-1.745V77a.414.414,0,0,0-.414-.414H-554.6a.414.414,0,0,0-.414.414v1.368h-1.747a3.267,3.267,0,0,0-2.518,1.18,3.232,3.232,0,0,0-.7,2.66,10.3,10.3,0,0,0,1.93,4.588,7.454,7.454,0,0,0,5.115,2.776,9.506,9.506,0,0,0,5.646,4.42v2.881c-1.84.519-3.153,1.826-3.153,3.356a.414.414,0,0,0,.414.414h8.975a.414.414,0,0,0,.414-.414c0-1.53-1.31-2.837-3.153-3.356V93.99a9.509,9.509,0,0,0,5.646-4.42,7.454,7.454,0,0,0,5.115-2.776,10.283,10.283,0,0,0,1.93-4.588A3.251,3.251,0,0,0-531.815,79.546Zm-25.976,2.3a1.244,1.244,0,0,1,.31-.994,1.328,1.328,0,0,1,1-.446h1.464v2.287c0,.006,0,.012,0,.017h0a16.147,16.147,0,0,0,.872,4.26A6.27,6.27,0,0,1-557.791,81.841Zm14.329,3.623.4,2.353-2.113-1.11a.836.836,0,0,0-.38-.093.835.835,0,0,0-.38.093l-2.113,1.11.4-2.353a.808.808,0,0,0-.235-.719l-1.71-1.666,2.362-.342a.816.816,0,0,0,.611-.443l1.063-2.145,1.058,2.142a.809.809,0,0,0,.611.443l2.362.342-1.71,1.669A.816.816,0,0,0-543.462,85.464Zm10.155-3.623a6.268,6.268,0,0,1-3.643,5.124,16.448,16.448,0,0,0,.872-4.26V80.4h1.461a1.332,1.332,0,0,1,1,.446A1.262,1.262,0,0,1-533.307,81.841Z" transform="translate(560.041 -76.584)" fill="#fff"/>
</svg>
