<svg xmlns="http://www.w3.org/2000/svg" xmlns:xlink="http://www.w3.org/1999/xlink" width="50" height="50" viewBox="0 0 50 50">
  <defs>
    <linearGradient id="linear-gradient" x1="0.1" y1="0.101" x2="1.801" y2="2.115" gradientUnits="objectBoundingBox">
      <stop offset="0" stop-color="#ff266d"/>
      <stop offset="1" stop-color="#fb8700"/>
    </linearGradient>
  </defs>
  <g id="Group_443" data-name="Group 443" transform="translate(-50 -269)">
    <rect id="Rectangle_718" data-name="Rectangle 718" width="50" height="50" rx="10" transform="translate(50 269)" fill="url(#linear-gradient)"/>
    <g id="noun-roulette-2086028" transform="translate(-22.674 266.325)">
      <path id="Path_3651" data-name="Path 3651" d="M115.854,26.876h-3.99a14.291,14.291,0,0,0-3.793-9.17l2.817-2.818a.593.593,0,0,0-.839-.839l-2.817,2.818a14.294,14.294,0,0,0-9.171-3.793V9.083a.593.593,0,1,0-1.186,0v3.991A14.3,14.3,0,0,0,87.7,16.866l-2.817-2.817a.593.593,0,1,0-.839.839L86.865,17.7a14.294,14.294,0,0,0-3.793,9.171h-3.99a.593.593,0,1,0,0,1.186h3.99a14.293,14.293,0,0,0,3.793,9.171L84.048,40.05a.593.593,0,0,0,.839.839L87.7,38.071a14.3,14.3,0,0,0,9.171,3.793v3.99a.593.593,0,1,0,1.186,0v-3.99a14.293,14.293,0,0,0,9.171-3.793l2.817,2.818a.593.593,0,0,0,.839-.839l-2.817-2.818a14.3,14.3,0,0,0,3.793-9.171h3.99a.593.593,0,0,0,0-1.186Zm-5.927,5.007-3.132-1.273a9.872,9.872,0,0,0,.493-2.55h3.375a13.208,13.208,0,0,1-.736,3.822ZM103.16,39.4l-1.316-3.109A9.808,9.808,0,0,0,104,34.835l2.387,2.388A13.141,13.141,0,0,1,103.16,39.4ZM88.554,37.224l2.388-2.388a9.792,9.792,0,0,0,2.286,1.518l-1.27,3.131A13.149,13.149,0,0,1,88.554,37.224ZM84.273,28.06h3.374a9.872,9.872,0,0,0,.544,2.693L85.076,32.07a13.186,13.186,0,0,1-.8-4.01Zm.735-5,3.133,1.269a9.845,9.845,0,0,0-.495,2.55H84.273a13.243,13.243,0,0,1,.736-3.818Zm6.768-7.518,1.316,3.111A9.769,9.769,0,0,0,90.941,20.1l-2.388-2.388A13.17,13.17,0,0,1,91.776,15.538Zm14.608,2.178L104,20.1a9.759,9.759,0,0,0-2.286-1.518l1.271-3.133a13.172,13.172,0,0,1,3.4,2.262Zm4.278,9.157h-3.375a9.88,9.88,0,0,0-.541-2.683l3.115-1.317a13.226,13.226,0,0,1,.8,4ZM97.467,36.131c-11.407,0-11.452-17.326,0-17.326C108.975,18.806,108.784,36.131,97.467,36.131ZM106.289,23.1a9.783,9.783,0,0,0-1.454-2.153l2.388-2.388a13.165,13.165,0,0,1,2.177,3.226Zm-5.678-4.953a9.86,9.86,0,0,0-2.548-.494V14.274a13.214,13.214,0,0,1,3.819.736Zm-3.734-.494a9.9,9.9,0,0,0-2.69.543l-1.317-3.115a13.231,13.231,0,0,1,4.008-.8Zm-9.163.9L90.1,20.941a9.775,9.775,0,0,0-1.515,2.283l-3.134-1.269A13.172,13.172,0,0,1,87.714,18.553Zm.936,13.294A9.775,9.775,0,0,0,90.1,34l-2.389,2.388a13.176,13.176,0,0,1-2.177-3.223ZM94.328,36.8a9.833,9.833,0,0,0,2.549.489v3.375a13.217,13.217,0,0,1-3.818-.735Zm3.735.489a9.826,9.826,0,0,0,2.688-.54l1.315,3.112a13.2,13.2,0,0,1-4,.8Zm9.158-.905-2.388-2.388a9.784,9.784,0,0,0,1.517-2.286l3.132,1.274A13.148,13.148,0,0,1,107.221,36.383Z" transform="translate(0)" fill="#280067"/>
      <path id="Path_3652" data-name="Path 3652" d="M273.51,203.666a1.942,1.942,0,1,0-1.717-1.06l-1.031,1.032a2.365,2.365,0,0,0-2.327.039l-.993-.993a1.949,1.949,0,1,0-.875.8l1.062,1.062a2.274,2.274,0,0,0,.04,2.182l-1.027,1.027a1.937,1.937,0,1,0,.839.838l1.026-1.026a2.2,2.2,0,0,0,2.183.041l1.064,1.064a1.939,1.939,0,1,0,.8-.875l-.992-.992a2.229,2.229,0,0,0,.041-2.335l1.026-1.026a1.92,1.92,0,0,0,.879.222Zm-.531-2.467a.751.751,0,1,1,0,1.062A.751.751,0,0,1,272.979,201.2Zm-7.744,1.062a.751.751,0,1,1,1.061,0A.752.752,0,0,1,265.235,202.261Zm1.061,7.744a.75.75,0,1,1-.53-1.281.751.751,0,0,1,.53,1.281Zm2.567-3.632a1.093,1.093,0,1,1,1.865-.773A1.095,1.095,0,0,1,268.863,206.374Zm4.646,2.351a.751.751,0,1,1-.53,1.281.752.752,0,0,1,.53-1.281Z" transform="translate(-172.372 -177.932)" fill="#280067"/>
      <path id="Path_3653" data-name="Path 3653" d="M442.9,463.43a3.037,3.037,0,1,0,3.037,3.037,3.04,3.04,0,0,0-3.037-3.037Zm0,4.886a1.85,1.85,0,1,1,1.851-1.85A1.852,1.852,0,0,1,442.9,468.316Z" transform="translate(-336.11 -423.14)" fill="#280067"/>
    </g>
  </g>
</svg>
