<svg xmlns="http://www.w3.org/2000/svg" width="16.854" height="16.854" viewBox="0 0 16.854 16.854">
  <g id="Group_499" data-name="Group 499" transform="translate(-122.5 -52.5)">
    <path id="Path_3662" data-name="Path 3662" d="M333.8,140.648a.648.648,0,1,0-1.3,0v.648a.648.648,0,1,0,1.3,0Z" transform="translate(-202.221 -84.259)" fill="#fff"/>
    <path id="Path_3663" data-name="Path 3663" d="M333.8,228.148a.648.648,0,1,0-1.3,0v5.834a.648.648,0,1,0,1.3,0Z" transform="translate(-202.221 -168.518)" fill="#fff"/>
    <path id="Path_3664" data-name="Path 3664" d="M122.5,60.927a8.427,8.427,0,1,1,8.427,8.427A8.427,8.427,0,0,1,122.5,60.927Zm8.427-7.13a7.13,7.13,0,1,0,7.13,7.13A7.13,7.13,0,0,0,130.927,53.8Z" fill="#fff"/>
  </g>
</svg>
