<svg xmlns="http://www.w3.org/2000/svg" width="17.455" height="15.59" viewBox="0 0 17.455 15.59">
  <path id="Path_3670" data-name="Path 3670" d="M2288.036,3957.077l5,3.991a.718.718,0,0,0,.448.149.653.653,0,0,0,.448-.149l5-4.029c1.678-1.492,3.245-3.207,3.245-5.744a.746.746,0,0,0-1.492,0c0,1.865-1.044,3.133-2.723,4.625l-4.513,3.617-4.513-3.58c-1.678-1.492-2.722-2.76-2.722-4.625a4.25,4.25,0,0,1,4.251-4.252,4.164,4.164,0,0,1,2.536.858.786.786,0,0,0,.9,0,4.163,4.163,0,0,1,4.55-.336.743.743,0,1,0,.708-1.305,5.773,5.773,0,0,0-2.722-.671,5.569,5.569,0,0,0-2.984.857,5.664,5.664,0,0,0-2.984-.857,5.746,5.746,0,0,0-5.744,5.744c.038,2.462,1.6,4.177,3.32,5.706Z" transform="translate(-2284.716 -3945.627)" fill="#fff"/>
</svg>
