<svg xmlns="http://www.w3.org/2000/svg" width="16.861" height="17.313" viewBox="0 0 16.861 17.313">
  <path id="Path_3671" data-name="Path 3671" d="M2812.5,3818.951l-.407-7.514a.523.523,0,0,0-.446-.489h-.007a17.17,17.17,0,0,0-1.932-.11c-.191,0-.384,0-.576.01l-.669-2.041a.524.524,0,0,0-.5-.359.48.48,0,0,0-.065,0h-.005a17.414,17.414,0,0,0-2.342.515l-1.122-1.729a.526.526,0,0,0-.442-.239.5.5,0,0,0-.206.043,16.505,16.505,0,0,0-5.1,3.5l-.01.011a11.273,11.273,0,0,0-2.453,3.959,10.15,10.15,0,0,0-.509,4.6.519.519,0,0,0,.125.285l4.09,4.691a.568.568,0,0,0,.453.225.506.506,0,0,0,.428-.221,10.552,10.552,0,0,1,4.9-4.3,9.1,9.1,0,0,1,3.392-.613,13.81,13.81,0,0,1,2.774.3.466.466,0,0,0,.1.011h0a.529.529,0,0,0,.383-.17A.512.512,0,0,0,2812.5,3818.951Zm-13.069-7.7.006-.006a14.145,14.145,0,0,1,4.374-3.057l3.509,5.384a11.49,11.49,0,0,0-5.1,3.446,10.956,10.956,0,0,0-2.229,5.568l-3.26-3.739A9.45,9.45,0,0,1,2799.43,3811.247Zm8.186-1.692,2,6.111a11.234,11.234,0,0,0-5.774,2.025,9.681,9.681,0,0,0-2.115,2.177,8.678,8.678,0,0,1,1.3-2.2,10.883,10.883,0,0,1,5.244-3.352l.005,0a.528.528,0,0,0,.262-.769l-2.384-3.662C2806.629,3809.752,2807.12,3809.642,2807.616,3809.555Zm-3.161,8.974a10.624,10.624,0,0,1,5.881-1.888.528.528,0,0,0,.459-.683l-1.329-4.074h.178c.479,0,.965.021,1.448.064l.335,6.418a14.474,14.474,0,0,0-2.377-.209,10.13,10.13,0,0,0-3.724.67,9.79,9.79,0,0,0-2.875,1.789A8.756,8.756,0,0,1,2804.455,3818.529Z" transform="translate(-2795.639 -3807)" fill="#fff"/>
</svg>
