<svg xmlns="http://www.w3.org/2000/svg" width="16.854" height="16.863" viewBox="0 0 16.854 16.863">
  <g id="Group_504" data-name="Group 504" transform="translate(-3318.039 -3822.006)">
    <path id="Path_3674" data-name="Path 3674" d="M3467.14,4022.337a.588.588,0,0,0,.2-.254.582.582,0,0,0,.035-.318l-.215-1.306.949-.921a.585.585,0,0,0-.276-.99l-.016-.005a.138.138,0,0,0-.033-.009l-1.312-.191-.589-1.193a.586.586,0,0,0-.311-.283.593.593,0,0,0-.425,0,.584.584,0,0,0-.313.287l-.587,1.189-1.309.19a.585.585,0,0,0-.327,1.005l.949.925-.225,1.3a.588.588,0,0,0,.426.659.6.6,0,0,0,.419-.042l0,0,1.171-.62,1.173.62a.59.59,0,0,0,.274.068l0,.1v-.1A.571.571,0,0,0,3467.14,4022.337Zm-.793-1.951.189,1.1-.985-.522-.017-.009,0,0a.409.409,0,0,0-.355.007l-.992.526.189-1.1a.394.394,0,0,0-.113-.35l-.8-.784,1.108-.161a.4.4,0,0,0,.3-.217l.5-1.006.5,1.005a.394.394,0,0,0,.3.217l1.11.161-.8.784A.393.393,0,0,0,3466.347,4020.386Z" transform="translate(-138.894 -187.405)" fill="#fff"/>
    <path id="Path_3675" data-name="Path 3675" d="M3334.813,3822.264a.54.54,0,0,0-.455-.258h-6.179a.536.536,0,0,0-.453.264l-1.147,1.89-1.395-1.932a.535.535,0,0,0-.432-.221h-6.179a.533.533,0,0,0-.463.8l3.265,5.877-.036.049a6.366,6.366,0,1,0,10.258,0l-.036-.049,3.266-5.878a.535.535,0,0,0-.008-.534Zm-15.332.809h5l1.5,2.076-.661,1.078-.042.008a6.349,6.349,0,0,0-3.063,1.521l-.089.08Zm12.285,9.417a5.3,5.3,0,1,1-1.552-3.748A5.266,5.266,0,0,1,3331.766,3832.49Zm-.96-4.655-.089-.08a6.389,6.389,0,0,0-3.926-1.624l-.159-.008,1.85-3.051h4.968Z" transform="translate(0 0)" fill="#fff"/>
  </g>
</svg>
