<svg xmlns="http://www.w3.org/2000/svg" width="16.854" height="16.854" viewBox="0 0 16.854 16.854">
  <path id="Path_3676" data-name="Path 3676" d="M3875.737,3819.481a8.367,8.367,0,0,0-5.952-2.475h-.045a8.427,8.427,0,0,0,.045,16.854c1.479,0,2.722-1.894,3.255-4.948h3.13a7.308,7.308,0,0,1-3.3,3.131.571.571,0,0,0-.281.747.571.571,0,0,0,.749.281,8.442,8.442,0,0,0,4.871-7.637A8.367,8.367,0,0,0,3875.737,3819.481Zm-3.849,9.456a8.849,8.849,0,0,1-.968,2.829c-.369.617-.782.971-1.135.971h0c-.689,0-1.634-1.305-2.128-3.8Zm-4.33-6.356c.431-2.892,1.469-4.453,2.227-4.453.689,0,1.634,1.305,2.128,3.8H3869a.561.561,0,0,0,0,1.122h3.07a19.389,19.389,0,0,1,.145,2.382v.037a18.53,18.53,0,0,1-.145,2.319H3867.5a18.857,18.857,0,0,1-.145-2.356A20.58,20.58,0,0,1,3867.559,3822.582Zm.192-4.158a10.162,10.162,0,0,0-1.22,3.531h-3.155A7.332,7.332,0,0,1,3867.751,3818.424Zm-1.246,10.488a10.278,10.278,0,0,0,1.22,3.53,7.337,7.337,0,0,1-4.348-3.53Zm9.69-6.957h-3.13a10.5,10.5,0,0,0-1.245-3.531A7.335,7.335,0,0,1,3876.2,3821.955Zm-9.848,5.834h-3.475a7.3,7.3,0,0,1,0-4.712h3.476a19.039,19.039,0,0,0-.144,2.356A18.841,18.841,0,0,0,3866.347,3827.789Zm7.021-2.355a18.845,18.845,0,0,0-.144-2.356h3.475a7.4,7.4,0,0,1,.391,2.356,7.524,7.524,0,0,1-.391,2.356h-3.475A19,19,0,0,0,3873.368,3825.434Z" transform="translate(-3861.359 -3817.006)" fill="#fff"/>
</svg>
