<svg xmlns="http://www.w3.org/2000/svg" width="15.606" height="18.734" viewBox="0 0 15.606 18.734">
  <g id="Group_515" data-name="Group 515" transform="translate(16505.646 -685)">
    <path id="Path_3686" data-name="Path 3686" d="M158.405,22.823c.041-.038.082-.078.12-.119,1.933-2.08,6.428-7.274,6.428-10.584a7.807,7.807,0,0,0-15.606,0c0,3.106,4.026,7.962,6.423,10.577a1.864,1.864,0,0,0,2.634.126ZM157.151,5.664a6.6,6.6,0,0,1,6.714,6.456c0,2.389-3.17,6.651-6.143,9.849a.777.777,0,0,1-1.1.047c-.017-.015-.032-.031-.047-.047-3.9-4.261-6.14-7.848-6.14-9.849a6.6,6.6,0,0,1,6.714-6.456Z" transform="translate(-16654.994 680.426)" fill="#c69dd2"/>
    <path id="Path_3687" data-name="Path 3687" d="M274.015,125.289a3.206,3.206,0,0,0-3.207-3.2h0a3.208,3.208,0,0,0-1.161.218.545.545,0,1,0,.393,1.016,2.11,2.11,0,1,1-1.3,1.492.544.544,0,1,0-1.045-.3.561.561,0,0,0-.014.06,3.265,3.265,0,0,0-.082.726,3.206,3.206,0,0,0,6.412,0Z" transform="translate(-16768.65 567.485)" fill="#c69dd2"/>
  </g>
</svg>
