<svg xmlns="http://www.w3.org/2000/svg" width="11.837" height="12.404" viewBox="0 0 11.837 12.404">
  <g id="Group_1080" data-name="Group 1080" transform="translate(-192.82 0.001)">
    <path id="Path_3962" data-name="Path 3962" d="M199.56,6.759l-5.422,5.422a.775.775,0,0,1-1.1-1.1L197.926,6.2l-4.884-4.884a.785.785,0,0,1,0-1.1.785.785,0,0,1,1.1,0l5.422,5.441a.785.785,0,0,1,0,1.1Z" transform="translate(0 0)" fill="#fff"/>
    <path id="Path_3963" data-name="Path 3963" d="M419.56,6.759l-5.422,5.422a.775.775,0,1,1-1.1-1.1L417.926,6.2l-4.884-4.884a.785.785,0,0,1,0-1.1.785.785,0,0,1,1.1,0l5.422,5.441a.785.785,0,0,1,0,1.1Z" transform="translate(-215.127 0)" fill="#fff"/>
  </g>
</svg>
