<svg xmlns="http://www.w3.org/2000/svg" width="17.222" height="15.5" viewBox="0 0 17.222 15.5">
  <g id="Group_562" data-name="Group 562" transform="translate(-87.5 -70)">
    <path id="Path_3817" data-name="Path 3817" d="M103,72.3h-1.722V70.574a.574.574,0,0,0-1.148,0V72.3H92.093V70.574a.574.574,0,1,0-1.148,0V72.3H89.222A1.724,1.724,0,0,0,87.5,74.019v9.759A1.724,1.724,0,0,0,89.222,85.5H103a1.724,1.724,0,0,0,1.722-1.722V74.019A1.724,1.724,0,0,0,103,72.3ZM89.222,73.444h1.722v.574a.574.574,0,0,0,1.148,0v-.574h8.037v.574a.574.574,0,0,0,1.148,0v-.574H103a.574.574,0,0,1,.574.574v1.148H88.648V74.019A.574.574,0,0,1,89.222,73.444ZM103,84.352H89.222a.574.574,0,0,1-.574-.574V76.315h14.926v7.463A.574.574,0,0,1,103,84.352Z" fill="#eec4ed"/>
    <path id="Path_3818" data-name="Path 3818" d="M250.877,280.185l-3.614,4.131-1.288-1.288a.574.574,0,0,0-.812.812l1.722,1.722a.575.575,0,0,0,.406.168h.019a.573.573,0,0,0,.413-.2l4.019-4.593a.574.574,0,0,0-.864-.756Z" transform="translate(-152.327 -203.1)" fill="#eec4ed"/>
  </g>
</svg>
