<svg xmlns="http://www.w3.org/2000/svg" width="11.294" height="11.295" viewBox="0 0 11.294 11.295">
  <g id="Group_1203" data-name="Group 1203" transform="translate(-100.666 -30.707)">
    <path id="Path_4044" data-name="Path 4044" d="M104.933,37.735a9.347,9.347,0,0,0,2.229,1.657l1.457-1.485,2.651.61c.275.064.514.231.514.514v2.795c-2.51.614-5.69-.393-8.119-2.821s-3.437-5.608-2.823-8.12h2.795c.283,0,.45.239.514.514l.61,2.651-1.485,1.457a9.328,9.328,0,0,0,1.657,2.229Zm1.281-3.58a2.424,2.424,0,0,1,.859.212,2.477,2.477,0,0,1,1.23,1.23,2.482,2.482,0,0,1,.212.859.179.179,0,1,0,.358-.021,2.785,2.785,0,0,0-.243-.984,2.833,2.833,0,0,0-.576-.833,2.811,2.811,0,0,0-1.817-.819.18.18,0,0,0-.19.168A.177.177,0,0,0,106.214,34.155Zm0-1.546a3.995,3.995,0,0,1,3.842,3.842.179.179,0,0,0,.358-.012,4.385,4.385,0,0,0-.36-1.578,4.352,4.352,0,0,0-3.826-2.608.178.178,0,0,0-.013.357Zm0-1.545a5.541,5.541,0,0,1,5.384,5.385.178.178,0,1,0,.357-.009,5.893,5.893,0,0,0-5.732-5.733.178.178,0,0,0-.183.174.181.181,0,0,0,.175.183Z" fill="#dcb3e1"/>
  </g>
</svg>
