<svg xmlns="http://www.w3.org/2000/svg" width="13.38" height="13.382" viewBox="0 0 13.38 13.382">
  <g id="Group_1234" data-name="Group 1234" transform="translate(-100.666 -30.707)">
    <path id="Path_4044" data-name="Path 4044" d="M105.722,39.033A11.073,11.073,0,0,0,108.362,41l1.726-1.759,3.14.723c.326.076.609.274.609.609V43.88c-2.974.728-6.741-.465-9.618-3.343s-4.072-6.644-3.344-9.62h3.311c.335,0,.533.283.609.609l.723,3.14-1.759,1.726a11.05,11.05,0,0,0,1.963,2.64Zm1.517-4.241a2.871,2.871,0,0,1,1.017.251,2.934,2.934,0,0,1,1.457,1.457,2.94,2.94,0,0,1,.251,1.017.212.212,0,1,0,.424-.025,3.3,3.3,0,0,0-.288-1.166,3.356,3.356,0,0,0-.682-.987,3.33,3.33,0,0,0-2.153-.97.213.213,0,0,0-.225.2A.21.21,0,0,0,107.239,34.792Zm0-1.832a4.732,4.732,0,0,1,4.551,4.551.212.212,0,0,0,.424-.014,5.2,5.2,0,0,0-.427-1.87,5.156,5.156,0,0,0-4.532-3.09.211.211,0,0,0-.016.422Zm0-1.83a6.564,6.564,0,0,1,6.378,6.38.211.211,0,1,0,.422-.011,6.982,6.982,0,0,0-6.791-6.791.211.211,0,0,0-.217.206.214.214,0,0,0,.207.217Z" fill="#704395"/>
  </g>
</svg>
