<svg xmlns="http://www.w3.org/2000/svg" width="18.868" height="20.349" viewBox="0 0 18.868 20.349">
  <g id="Group_516" data-name="Group 516" transform="translate(16483.888 -678)">
    <path id="Path_3689" data-name="Path 3689" d="M175.583,317.591h-8.246a3.131,3.131,0,0,1-3.068-2.515l-1.159-5.73a.532.532,0,0,1,1.044-.209l1.148,5.74h0a2.088,2.088,0,0,0,2.035,1.67h8.246a2.087,2.087,0,0,0,2.046-1.68l1.148-5.74h0a.532.532,0,0,1,1.044.209l-1.148,5.74h0a3.131,3.131,0,0,1-3.089,2.515Z" transform="translate(-16645.912 380.757)" fill="#c69dd2"/>
    <path id="Path_3690" data-name="Path 3690" d="M147.934,66.675a4.7,4.7,0,0,1-3.7-1.826,3.131,3.131,0,1,1-3.058-5.313,4.119,4.119,0,0,1-.026-.428,3.9,3.9,0,0,1,4.243-3.9,4.953,4.953,0,0,1,9.294,1.811,4.7,4.7,0,1,1-3.757,8.569,4.655,4.655,0,0,1-3,1.085Zm-3.58-3.617.4.7h0a3.653,3.653,0,0,0,5.74.809l.3-.3.355.23h0a3.6,3.6,0,0,0,2,.605,3.653,3.653,0,0,0,.908-7.186l-.386-.1v-.391a3.909,3.909,0,0,0-7.5-1.456l-.167.381-.412-.078h0a2.849,2.849,0,0,0-3.4,2.828,2.944,2.944,0,0,0,.089.694l.141.553-.564.094h0a2.087,2.087,0,1,0,2.02,3.267Z" transform="translate(-16622.906 625.412)" fill="#c69dd2"/>
  </g>
</svg>
