<svg xmlns="http://www.w3.org/2000/svg" width="184.279" height="33.565" viewBox="0 0 184.279 33.565">
  <g id="Group_318" data-name="Group 318" transform="translate(-89.721 -269.619)">
    <g id="Rectangle_452" data-name="Rectangle 452" transform="translate(106 274)" fill="none" stroke="#51b53c" stroke-width="1">
      <rect width="168" height="26" rx="6" stroke="none"/>
      <rect x="0.5" y="0.5" width="167" height="25" rx="5.5" fill="none"/>
    </g>
    <text id="_100_Safe_Secure" data-name="100% Safe &amp; Secure" transform="translate(195 291)" fill="#51b53c" font-size="12" font-family="Montserrat-Medium, Montserrat" font-weight="500"><tspan x="-65.364" y="0">100% SAFE &amp; SECURE</tspan></text>
    <g id="safety" transform="translate(89.723 269.619)">
      <path id="Path_105" data-name="Path 105" d="M15.216,0c5.7,3.608,10.839,5.318,15.256,4.914.77,15.6-4.988,24.808-15.2,28.651C5.418,29.968-.411,21.153.02,4.676A21.8,21.8,0,0,0,15.216,0Z" transform="translate(0)" fill="#51b53c" fill-rule="evenodd"/>
      <path id="Path_106" data-name="Path 106" d="M19.887,7.05c5.04,3.2,9.6,4.706,13.5,4.349.683,13.805-4.417,21.959-13.45,25.362-8.725-3.185-13.885-10.986-13.5-25.57A19.293,19.293,0,0,0,19.887,7.05Z" transform="translate(-4.666 -5.124)" fill="#280067" fill-rule="evenodd"/>
      <path id="Path_107" data-name="Path 107" d="M27.943,19.54c3.884,2.461,7.392,3.625,10.4,3.352.524,10.637-3.4,16.917-10.364,19.539l-.131-.049-.131.049c-6.96-2.622-10.888-8.9-10.364-19.539,3.01.276,6.52-.89,10.4-3.352h0l.09.068.1-.068Z" transform="translate(-12.583 -14.203)" fill="#51b53c" fill-rule="evenodd"/>
      <path id="Path_108" data-name="Path 108" d="M34.989,46.643l2.04-.027.153.038a7.867,7.867,0,0,1,1.912,1.541,29.427,29.427,0,0,1,2.338-3.256,21.3,21.3,0,0,1,2.475-2.592l.2-.076h2.229l-.451.5a39.263,39.263,0,0,0-3.373,4.362,46.674,46.674,0,0,0-3.046,5.064l-.281.541-.257-.552a13.4,13.4,0,0,0-1.721-2.789,11.24,11.24,0,0,0-2.387-2.21l.169-.541Z" transform="translate(-25.31 -30.724)" fill="#fff"/>
    </g>
  </g>
</svg>
