<svg xmlns="http://www.w3.org/2000/svg" xmlns:xlink="http://www.w3.org/1999/xlink" width="89.999" height="90.07" viewBox="0 0 89.999 90.07">
  <defs>
    <linearGradient id="linear-gradient" x1="0.773" y1="0.14" x2="0.191" y2="0.958" gradientUnits="objectBoundingBox">
      <stop offset="0" stop-color="#ff266d"/>
      <stop offset="1" stop-color="#6903a6" stop-opacity="0"/>
    </linearGradient>
  </defs>
  <g id="Group_1048" data-name="Group 1048" transform="translate(-36.001 -103)">
    <path id="Path_3697" data-name="Path 3697" d="M-198.572,63.4l-4.162-3.122a5.165,5.165,0,0,1-1.608-5.961l1.987-4.825a5.143,5.143,0,0,0-4.068-7l-5.2-.663a5.022,5.022,0,0,1-4.353-4.352l-.663-5.2a5.143,5.143,0,0,0-7-4.068l-4.825,1.987a5.165,5.165,0,0,1-5.961-1.608l-3.216-4.163a5.063,5.063,0,0,0-8.042,0l-3.027,4.257a5.165,5.165,0,0,1-5.96,1.608L-259.5,28.21a5.143,5.143,0,0,0-7,4.068l-.663,5.2a5.021,5.021,0,0,1-4.353,4.352l-5.2.663a5.143,5.143,0,0,0-4.068,7l1.987,4.825a5.166,5.166,0,0,1-1.608,5.961l-4.163,3.216a5.063,5.063,0,0,0,0,8.042l4.257,3.121a5.165,5.165,0,0,1,1.608,5.96l-2.081,4.825a5.143,5.143,0,0,0,4.068,7l5.2.663a5.021,5.021,0,0,1,4.353,4.352l.662,5.2a5.143,5.143,0,0,0,7,4.068l4.825-1.987a5.166,5.166,0,0,1,5.961,1.608l3.217,4.163a5.063,5.063,0,0,0,8.042,0l3.217-4.163a5.165,5.165,0,0,1,5.96-1.608l4.825,1.987a5.143,5.143,0,0,0,7-4.068l.663-5.2a5.022,5.022,0,0,1,4.353-4.352l5.2-.663a5.143,5.143,0,0,0,4.068-7l-1.987-4.825a5.166,5.166,0,0,1,1.608-5.96l4.163-3.217a5.181,5.181,0,0,0-.191-8.042Z" transform="translate(322.561 80.562)" fill="url(#linear-gradient)"/>
  </g>
</svg>
