<svg xmlns="http://www.w3.org/2000/svg" xmlns:xlink="http://www.w3.org/1999/xlink" width="20.36" height="16" viewBox="0 0 20.36 16">
  <defs>
    <linearGradient id="linear-gradient" x1="0.082" y1="0.051" x2="1.597" y2="1.607" gradientUnits="objectBoundingBox">
      <stop offset="0" stop-color="#ff266d"/>
      <stop offset="1" stop-color="#fb8700"/>
    </linearGradient>
  </defs>
  <g id="Group_64" data-name="Group 64" transform="translate(679 -86.938)">
    <path id="Path_162" data-name="Path 162" d="M-659.066,92.457a1.455,1.455,0,0,0-1.028-.426h0V89.122a2.182,2.182,0,0,0-.639-1.543,2.182,2.182,0,0,0-1.543-.639v0h-1.454v0h-3.89v0h-1.608v0h-5.017l0,0h-1.586v0h-.989a2.182,2.182,0,0,0-1.543.639A2.182,2.182,0,0,0-679,89.122v11.635a2.182,2.182,0,0,0,.639,1.543,2.182,2.182,0,0,0,1.543.639h14.543a2.182,2.182,0,0,0,1.543-.639,2.182,2.182,0,0,0,.639-1.543V97.848a1.455,1.455,0,0,0,1.028-.426,1.455,1.455,0,0,0,.426-1.028V93.485A1.455,1.455,0,0,0-659.066,92.457Zm-1.028,3.937H-663a1.455,1.455,0,0,1-1.26-.727,1.455,1.455,0,0,1,0-1.454,1.455,1.455,0,0,1,1.26-.727h2.909Z" fill="url(#linear-gradient)"/>
    <path id="Path_163" data-name="Path 163" d="M-313.011,257.64a.946.946,0,0,1-.946.946.946.946,0,0,1-.946-.946.946.946,0,0,1,.946-.946A.946.946,0,0,1-313.011,257.64Z" transform="translate(-348.967 -162.702)" fill="url(#linear-gradient)"/>
  </g>
</svg>
