<svg xmlns="http://www.w3.org/2000/svg" width="27.219" height="21.389" viewBox="0 0 27.219 21.389">
  <g id="Group_51" data-name="Group 51" transform="translate(679 -86.938)">
    <path id="Path_162" data-name="Path 162" d="M-652.351,94.315a1.945,1.945,0,0,0-1.375-.569h0V89.858a2.917,2.917,0,0,0-.854-2.062,2.917,2.917,0,0,0-2.062-.854s0,0,0,0h-1.944s0,0,0,0h-5.2v0h-2.149l0,0h-6.707l0,0h-2.12v0h-1.322a2.917,2.917,0,0,0-2.062.854A2.917,2.917,0,0,0-679,89.858v15.553a2.917,2.917,0,0,0,.854,2.062,2.917,2.917,0,0,0,2.062.854h19.442a2.917,2.917,0,0,0,2.062-.854,2.917,2.917,0,0,0,.854-2.062v-3.888a1.945,1.945,0,0,0,1.375-.569,1.945,1.945,0,0,0,.569-1.375V95.69A1.945,1.945,0,0,0-652.351,94.315Zm-1.375,5.263h-3.888a1.945,1.945,0,0,1-1.684-.972,1.945,1.945,0,0,1,0-1.944,1.945,1.945,0,0,1,1.684-.972h3.888Z" fill="#704395"/>
    <path id="Path_163" data-name="Path 163" d="M-312.374,257.959a1.265,1.265,0,0,1-1.265,1.265,1.265,1.265,0,0,1-1.265-1.265,1.265,1.265,0,0,1,1.265-1.265A1.265,1.265,0,0,1-312.374,257.959Z" transform="translate(-343.871 -160.326)" fill="#704395"/>
  </g>
</svg>
