<svg xmlns="http://www.w3.org/2000/svg" xmlns:xlink="http://www.w3.org/1999/xlink" width="194.22" height="194.371" viewBox="0 0 194.22 194.371">
  <defs>
    <linearGradient id="linear-gradient" x1="0.773" y1="0.14" x2="0.191" y2="0.958" gradientUnits="objectBoundingBox">
      <stop offset="0" stop-color="#ff266d"/>
      <stop offset="1" stop-color="#6903a6" stop-opacity="0"/>
    </linearGradient>
  </defs>
  <g id="Group_48" data-name="Group 48" transform="translate(-81 -300)">
    <path id="Path_165" data-name="Path 165" d="M-51.3,212.551a10.637,10.637,0,0,0-14.959,0L-96.182,242.06l-11.065-11.065a10.638,10.638,0,0,0-14.959,0,10.637,10.637,0,0,0,0,14.959l18.648,18.648a10.524,10.524,0,0,0,7.582,3.073,10.517,10.517,0,0,0,7.581-3.073l37.09-37.089h0A10.639,10.639,0,0,0-51.3,212.551Z" transform="translate(264.913 158.584)" fill="#fff"/>
    <g id="Group_47" data-name="Group 47" transform="translate(81 300)">
      <path id="Path_164" data-name="Path 164" d="M-96.682,110.844l-8.982-6.738a11.146,11.146,0,0,1-3.471-12.863l4.288-10.412a11.1,11.1,0,0,0-8.779-15.109l-11.23-1.43a10.837,10.837,0,0,1-9.393-9.393l-1.43-11.23a11.1,11.1,0,0,0-15.109-8.779L-161.2,39.18a11.147,11.147,0,0,1-12.863-3.471L-181,26.726a10.925,10.925,0,0,0-17.356,0l-6.533,9.187a11.145,11.145,0,0,1-12.863,3.471l-10.413-4.49a11.1,11.1,0,0,0-15.109,8.779l-1.43,11.23a10.837,10.837,0,0,1-9.393,9.393l-11.229,1.43a11.1,11.1,0,0,0-8.779,15.109l4.288,10.412a11.147,11.147,0,0,1-3.471,12.863l-8.984,6.941a10.925,10.925,0,0,0,0,17.356l9.187,6.735A11.146,11.146,0,0,1-269.614,148l-4.491,10.412a11.1,11.1,0,0,0,8.779,15.109l11.229,1.43a10.836,10.836,0,0,1,9.393,9.393l1.43,11.23a11.1,11.1,0,0,0,15.109,8.779l10.412-4.288a11.148,11.148,0,0,1,12.863,3.471l6.941,8.984a10.925,10.925,0,0,0,17.356,0l6.941-8.984a11.147,11.147,0,0,1,12.863-3.471l10.413,4.288a11.1,11.1,0,0,0,15.109-8.779l1.43-11.23a10.837,10.837,0,0,1,9.393-9.393l11.23-1.43a11.1,11.1,0,0,0,8.779-15.109L-108.725,148a11.147,11.147,0,0,1,3.471-12.863l8.984-6.941a11.181,11.181,0,0,0-.412-17.354Zm-57.372-2.246-36.955,36.954a10.479,10.479,0,0,1-7.554,3.062,10.485,10.485,0,0,1-7.554-3.062l-18.58-18.58a10.6,10.6,0,0,1,0-14.9,10.6,10.6,0,0,1,14.9,0l11.024,11.025,29.81-29.4a10.6,10.6,0,0,1,14.9,0,10.6,10.6,0,0,1,0,14.905Z" transform="translate(286.56 -22.438)" fill="url(#linear-gradient)"/>
    </g>
  </g>
</svg>
