<svg xmlns="http://www.w3.org/2000/svg" width="26.578" height="24.057" viewBox="0 0 26.578 24.057">
  <g id="home" transform="translate(-4.049 -4.832)">
    <path id="Path_143" data-name="Path 143" d="M13.2,25.958V18.736h5.778v7.222A1.449,1.449,0,0,0,20.421,27.4h4.333A1.449,1.449,0,0,0,26.2,25.958V15.847h2.456a.717.717,0,0,0,.477-1.257L17.056,3.713a1.456,1.456,0,0,0-1.936,0L3.045,14.59a.719.719,0,0,0,.477,1.257H5.977V25.958A1.449,1.449,0,0,0,7.421,27.4h4.333A1.449,1.449,0,0,0,13.2,25.958Z" transform="translate(1.245 1.487)" fill="#fff"/>
  </g>
</svg>
