<svg xmlns="http://www.w3.org/2000/svg" width="17.232" height="17.266" viewBox="0 0 17.232 17.266">
  <path id="Path_3635" data-name="Path 3635" d="M122.24,51.54a8.631,8.631,0,0,0-6.08-8.234h0a4.6,4.6,0,1,0-5.072,0,8.631,8.631,0,0,0-6.08,8.234.573.573,0,0,0,0,.07.583.583,0,0,0,1.164-.048h0v-.6a7.468,7.468,0,0,1,14.893,0l.019.588a.575.575,0,1,0,1.151,0s0,0,0-.007S122.24,51.543,122.24,51.54Zm-8.616-8.615a3.446,3.446,0,1,1,2.437-1.009A3.449,3.449,0,0,1,113.624,42.925Z" transform="translate(-105.008 -34.879)" fill="#666e7a"/>
</svg>
