<svg xmlns="http://www.w3.org/2000/svg" width="17.229" height="20.349" viewBox="0 0 17.229 20.349">
  <path id="Path_3685" data-name="Path 3685" d="M139.729,14.051V9.413a.663.663,0,0,0-.663-.663h-4.639v1.325h3.039l-3.582,3.582a6.958,6.958,0,1,0,0,10.728l1.926,1.925-1.851,1.851.937.937,1.851-1.851L138.6,29.1l.937-.937-1.851-1.851,1.851-1.851-.937-.937-1.851,1.851-1.925-1.925a6.944,6.944,0,0,0,0-8.854l3.582-3.582v3.039Zm-10.271,10.6a5.633,5.633,0,1,1,5.633-5.633A5.639,5.639,0,0,1,129.457,24.654Z" transform="translate(-122.499 -8.75)" fill="#c69dd2"/>
</svg>
