<svg xmlns="http://www.w3.org/2000/svg" xmlns:xlink="http://www.w3.org/1999/xlink" width="27.434" height="26.609" viewBox="0 0 27.434 26.609">
  <defs>
    <linearGradient id="linear-gradient" x1="0.314" y1="0.26" x2="1.111" y2="1.13" gradientUnits="objectBoundingBox">
      <stop offset="0" stop-color="#ff266d"/>
      <stop offset="1" stop-color="#fb8700"/>
    </linearGradient>
  </defs>
  <path id="Path_171" data-name="Path 171" d="M173.6,40.578a12.335,12.335,0,0,1-1.515-1.176,7.5,7.5,0,0,1-1.053-1.179h0a8.336,8.336,0,0,1-.724-1.244,7.4,7.4,0,0,1-.46-1.288,11.694,11.694,0,0,1-.261-1.409,12.563,12.563,0,0,1-.094-1.472v0q-.007-.81-.01-1.661V29.369a9.355,9.355,0,0,0-.143-1.636,8.888,8.888,0,0,0-.431-1.552,10,10,0,0,0-.673-1.419,9.215,9.215,0,0,0-.888-1.281l0,0a9.33,9.33,0,0,0-1.094-1.114,9.642,9.642,0,0,0-1.215-.884c-.017-.012-.036-.022-.053-.034a9.726,9.726,0,0,0-1.423-.7,8.816,8.816,0,0,0-1.039-.339,2.2,2.2,0,0,0-.639-1.051,2.372,2.372,0,0,0-1.629-.562,2.341,2.341,0,0,0-1.644.547,2.162,2.162,0,0,0-.639,1.053,8.934,8.934,0,0,0-2.5,1.026,9.341,9.341,0,0,0-2.38,2.031l0,0a9.357,9.357,0,0,0-.9,1.288,9.783,9.783,0,0,0-.68,1.428,8.662,8.662,0,0,0-.433,1.559,9.11,9.11,0,0,0-.148,1.639v3.413a12.344,12.344,0,0,1-.09,1.486,10.543,10.543,0,0,1-.254,1.363c0,.007,0,.017-.007.027a7.576,7.576,0,0,1-.47,1.293,8.527,8.527,0,0,1-.695,1.213.182.182,0,0,0-.027.034,7.19,7.19,0,0,1-1.046,1.186,12.668,12.668,0,0,1-1.5,1.174.721.721,0,0,0,.373,1.339h8.924a.43.43,0,0,0,.005.111,4.056,4.056,0,0,0,.482,1.339,4.159,4.159,0,0,0,.92,1.089,4.01,4.01,0,0,0,1.237.724,4.306,4.306,0,0,0,2.847,0,4.068,4.068,0,0,0,1.239-.724,4.165,4.165,0,0,0,.92-1.089,4.11,4.11,0,0,0,.475-1.3.637.637,0,0,0,.019-.119c0-.012,0-.024,0-.036H173.2v0a.72.72,0,0,0,.4-1.317Zm-6.9-.121H149.3l.019-.017a8.8,8.8,0,0,0,1.254-1.416l.029-.044a10.107,10.107,0,0,0,.811-1.416,9.2,9.2,0,0,0,.559-1.535l.007-.034a12.133,12.133,0,0,0,.3-1.549,13.838,13.838,0,0,0,.1-1.661V29.372a7.725,7.725,0,0,1,.119-1.385,7.292,7.292,0,0,1,.366-1.3,8.573,8.573,0,0,1,.579-1.22,8.046,8.046,0,0,1,.758-1.092,7.815,7.815,0,0,1,.932-.944,7.7,7.7,0,0,1,1.08-.777,7.627,7.627,0,0,1,2.506-.949.716.716,0,0,0,.583-.625,1.035,1.035,0,0,1,.266-.668.989.989,0,0,1,.675-.182.814.814,0,0,1,.954.855.72.72,0,0,0,.622.627,7.862,7.862,0,0,1,1.22.37,8.958,8.958,0,0,1,1.206.593.476.476,0,0,0,.048.027,8.416,8.416,0,0,1,1.029.753,8.018,8.018,0,0,1,.922.937A7.817,7.817,0,0,1,167,25.477a8.442,8.442,0,0,1,.571,1.213v0a7.29,7.29,0,0,1,.356,1.293,7.652,7.652,0,0,1,.121,1.385c0,.114,0,.7,0,1.774q0,.872.01,1.673v0a14.1,14.1,0,0,0,.1,1.639,12.608,12.608,0,0,0,.3,1.588v0a8.678,8.678,0,0,0,.557,1.542,9.938,9.938,0,0,0,.85,1.46v0a8.943,8.943,0,0,0,1.249,1.4Z" transform="translate(-146.489 -18.793)" fill="url(#linear-gradient)"/>
</svg>
