<svg xmlns="http://www.w3.org/2000/svg" width="24.076" height="24.057" viewBox="0 0 24.076 24.057">
  <path id="Path_168" data-name="Path 168" d="M-2519.961-658.778h0a2.652,2.652,0,0,1-.685-2.586,2.394,2.394,0,0,0-.228-1.774,2.284,2.284,0,0,0-1.419-1.09,2.715,2.715,0,0,1-1.9-1.9,2.344,2.344,0,0,0-2.865-1.648,2.665,2.665,0,0,1-2.586-.71,2.326,2.326,0,0,0-3.3,0,2.682,2.682,0,0,1-2.611.684,2.344,2.344,0,0,0-2.865,1.648,2.715,2.715,0,0,1-1.9,1.9,2.344,2.344,0,0,0-1.648,2.865,2.665,2.665,0,0,1-.71,2.586,2.325,2.325,0,0,0,0,3.3,2.652,2.652,0,0,1,.684,2.586,2.4,2.4,0,0,0,.228,1.774,2.283,2.283,0,0,0,1.419,1.09,2.715,2.715,0,0,1,1.9,1.9,2.344,2.344,0,0,0,2.865,1.648,2.664,2.664,0,0,1,2.586.71,2.345,2.345,0,0,0,1.648.685,2.3,2.3,0,0,0,1.648-.685,2.652,2.652,0,0,1,2.586-.685,2.344,2.344,0,0,0,2.865-1.648,2.715,2.715,0,0,1,1.9-1.9,2.284,2.284,0,0,0,1.419-1.09,2.28,2.28,0,0,0,.228-1.774,2.711,2.711,0,0,1,.685-2.586A2.282,2.282,0,0,0-2519.961-658.778Zm-14.913-3.759a1.858,1.858,0,0,1,1.85,1.851,1.858,1.858,0,0,1-1.85,1.851,1.858,1.858,0,0,1-1.851-1.851A1.858,1.858,0,0,1-2534.874-662.538Zm-.073,10.378a.975.975,0,0,1-.653.29.975.975,0,0,1-.653-.29.964.964,0,0,1,0-1.343l8.564-8.6a.964.964,0,0,1,1.343,0,.964.964,0,0,1,0,1.343Zm7.185.436a1.858,1.858,0,0,1-1.85-1.851,1.858,1.858,0,0,1,1.85-1.851,1.858,1.858,0,0,1,1.851,1.851A1.858,1.858,0,0,1-2527.762-651.724Z" transform="translate(2543.359 669.172)" fill="#704395"/>
</svg>
