<svg xmlns="http://www.w3.org/2000/svg" xmlns:xlink="http://www.w3.org/1999/xlink" width="56.907" height="41" viewBox="0 0 56.907 41">
  <defs>
    <linearGradient id="linear-gradient" x1="0.163" y1="0.25" x2="1.92" y2="2.003" gradientUnits="objectBoundingBox">
      <stop offset="0" stop-color="#ff266d"/>
      <stop offset="1" stop-color="#fb8700"/>
    </linearGradient>
  </defs>
  <path id="Path_3499" data-name="Path 3499" d="M561.176,58H513.231a4.494,4.494,0,0,0-4.481,4.481V94.519A4.494,4.494,0,0,0,513.231,99h47.945a4.494,4.494,0,0,0,4.481-4.481V62.481A4.494,4.494,0,0,0,561.176,58Zm-16.8,21.732-10.754,5.377a1.225,1.225,0,0,1-1.792-1.12V73.235a1.274,1.274,0,0,1,1.792-1.12l10.754,5.377A1.27,1.27,0,0,1,544.373,79.732Z" transform="translate(-508.75 -58)" fill="url(#linear-gradient)"/>
</svg>
