<svg xmlns="http://www.w3.org/2000/svg" xmlns:xlink="http://www.w3.org/1999/xlink" width="194.22" height="194.371" viewBox="0 0 194.22 194.371">
  <defs>
    <linearGradient id="linear-gradient" x1="0.773" y1="0.14" x2="0.191" y2="0.958" gradientUnits="objectBoundingBox">
      <stop offset="0" stop-color="#ff266d"/>
      <stop offset="1" stop-color="#6903a6" stop-opacity="0"/>
    </linearGradient>
  </defs>
  <g id="Group_1074" data-name="Group 1074" transform="translate(-90 -183)">
    <path id="Path_164" data-name="Path 164" d="M-96.682,110.844l-8.982-6.738a11.146,11.146,0,0,1-3.471-12.863l4.288-10.412a11.1,11.1,0,0,0-8.779-15.109l-11.23-1.43a10.837,10.837,0,0,1-9.393-9.393l-1.43-11.23a11.1,11.1,0,0,0-15.109-8.779L-161.2,39.18a11.147,11.147,0,0,1-12.863-3.471L-181,26.726a10.925,10.925,0,0,0-17.356,0l-6.533,9.187a11.145,11.145,0,0,1-12.863,3.471l-10.413-4.49a11.1,11.1,0,0,0-15.109,8.779l-1.43,11.23a10.837,10.837,0,0,1-9.393,9.393l-11.229,1.43a11.1,11.1,0,0,0-8.779,15.109l4.288,10.412a11.147,11.147,0,0,1-3.471,12.863l-8.984,6.941a10.925,10.925,0,0,0,0,17.356l9.187,6.735A11.146,11.146,0,0,1-269.614,148l-4.491,10.412a11.1,11.1,0,0,0,8.779,15.109l11.229,1.43a10.836,10.836,0,0,1,9.393,9.393l1.43,11.23a11.1,11.1,0,0,0,15.109,8.779l10.412-4.288a11.148,11.148,0,0,1,12.863,3.471l6.941,8.984a10.925,10.925,0,0,0,17.356,0l6.941-8.984a11.147,11.147,0,0,1,12.863-3.471l10.413,4.288a11.1,11.1,0,0,0,15.109-8.779l1.43-11.23a10.837,10.837,0,0,1,9.393-9.393l11.23-1.43a11.1,11.1,0,0,0,8.779-15.109L-108.725,148a11.147,11.147,0,0,1,3.471-12.863l8.984-6.941a11.181,11.181,0,0,0-.412-17.354Z" transform="translate(376.56 160.562)" fill="url(#linear-gradient)"/>
    <g id="Group_1062" data-name="Group 1062" transform="translate(79.719 228.627)">
      <path id="Path_3945" data-name="Path 3945" d="M264.368,166.018a18.576,18.576,0,0,0-6.748-4.229,2.594,2.594,0,0,0-2.372.31,2.567,2.567,0,0,0-1.1,2.125l.015,15.732-5.135,0-.1-15.713a2.586,2.586,0,0,0-3.489-2.41,18.649,18.649,0,0,0-6.708,4.29,18.15,18.15,0,0,0,.1,25.639,17.6,17.6,0,0,0,5.186,3.591l-.586,8.949-.024.425a2.613,2.613,0,0,0,5.169.472l.044-.789.683-10.671a2.583,2.583,0,0,0-1.827-2.616,12.15,12.15,0,0,1-5-3.039,12.964,12.964,0,0,1-.073-18.314h0a12.762,12.762,0,0,1,1.376-1.2l.071,11.336a5.054,5.054,0,0,0,1.461,3.69,5.24,5.24,0,0,0,3.746,1.549l5.128-.013a5.231,5.231,0,0,0,3.74-1.594,5.029,5.029,0,0,0,1.432-3.613l-.02-11.417a13.435,13.435,0,0,1,1.378,1.185,12.965,12.965,0,0,1,.073,18.314,12.062,12.062,0,0,1-4.973,3.078,2.593,2.593,0,0,0-1.8,2.634L255.86,222.6l.024.376a2.593,2.593,0,0,0,5.164-.345c0-.031,0-.061,0-.091h.005l-1.738-27.252a17.485,17.485,0,0,0,5.161-3.629A18.149,18.149,0,0,0,264.368,166.018Zm-3.8,55.114,0,0Zm-.157-.2.012.013Zm-.153-.163-.025-.023Zm-1.806-.734a2.61,2.61,0,0,1,.263.013A2.61,2.61,0,0,0,258.453,220.035Zm.356.027c.054.007.108.014.161.025C258.917,220.076,258.863,220.07,258.809,220.062Zm.278.054c.043.011.086.02.128.033C259.173,220.136,259.13,220.127,259.087,220.116Zm.259.08c.034.013.07.024.1.038C259.416,220.22,259.381,220.209,259.346,220.2Zm.245.1c.027.013.055.025.081.039C259.646,220.326,259.618,220.314,259.591,220.3Zm.231.128c.02.013.041.024.061.037C259.863,220.452,259.842,220.441,259.822,220.428Zm.215.149.041.031Z" transform="translate(-142.452 -136.319)" fill="#fff"/>
      <path id="Path_3946" data-name="Path 3946" d="M319.04,500.413a3.479,3.479,0,0,0-.263.33Q318.917,500.585,319.04,500.413Z" transform="translate(-215.127 -424.961)" fill="#fff"/>
      <path id="Path_3947" data-name="Path 3947" d="M150.042,37.392l-.959-4.907a11.1,11.1,0,0,0-12.937-9.023,4.246,4.246,0,0,1-4.983-3.4l-.005-.026a3.942,3.942,0,0,1,.113-2.023,11.11,11.11,0,0,0-6.864-14.12l-4.764-1.651a11.137,11.137,0,0,0-13.016,4.566,11.237,11.237,0,0,0-1.086,2.24,4.34,4.34,0,0,1-.434.912,4.257,4.257,0,0,1-4.942,1.758l-.026-.009a4.453,4.453,0,0,1-1.74-1.216A11.112,11.112,0,0,0,82.8,9.342l-3.988,3.343a11.014,11.014,0,0,0-2.117,2.464,11.067,11.067,0,0,0,1,13.2l.013.015a4.282,4.282,0,0,1-2.456,6.982A11.094,11.094,0,0,0,68.283,39.9c-.1.142-.2.288-.288.434a11.125,11.125,0,0,0-1.588,7.607l0,.028c.012.113.028.226.049.344l.95,4.966A11.119,11.119,0,0,0,80.4,62.033l.017,0a4.235,4.235,0,0,1,5.007,3.343l0,.021a3.893,3.893,0,0,1-.088,1.929l-.012.035a11.117,11.117,0,0,0,6.416,14.284l.044.016,5.069,1.757a11.088,11.088,0,0,0,12.333-3.658c.035-.071,1.564-3.2-1.051-4.959a3.054,3.054,0,0,0-4.228.653q-.124.171-.263.33h0a4.242,4.242,0,0,1-4.565,1.2l-4.927-1.709A4.354,4.354,0,0,1,91.8,72.992a4.3,4.3,0,0,1-.061-3.32c.009-.022.017-.045.025-.068a10.8,10.8,0,0,0,.328-5.61A11.049,11.049,0,0,0,79.1,55.365,4.341,4.341,0,0,1,75.89,54.7a4.263,4.263,0,0,1-1.808-2.723L73.191,47.3c-.009-.088-.023-.176-.04-.262a4.31,4.31,0,0,1,3.37-4.993,11.065,11.065,0,0,0,6.259-18.2,4.242,4.242,0,0,1,.437-5.953l3.989-3.343a4.268,4.268,0,0,1,3.113-1.032,4.325,4.325,0,0,1,2.934,1.466l.013.015a11.521,11.521,0,0,0,4.676,3.178l.038.013a11.067,11.067,0,0,0,12.87-4.558,11.162,11.162,0,0,0,1.113-2.325,4.307,4.307,0,0,1,5.453-2.629l4.749,1.646a4.3,4.3,0,0,1,2.645,5.479l-.007.022a10.835,10.835,0,0,0-.324,5.624A11.041,11.041,0,0,0,137.4,30.139l.015,0a4.293,4.293,0,0,1,4.944,3.548l.008.045.978,5.017a4.251,4.251,0,0,1-3.4,4.918,11.1,11.1,0,0,0-6.3,18.167,4.265,4.265,0,0,1,1.034,3.093,4.317,4.317,0,0,1-1.412,2.9l-.019.016-4.013,3.32a4.271,4.271,0,0,1-3.98.88h0a3.275,3.275,0,0,0-3.026,5.655,5.112,5.112,0,0,0,2.119,1.114,11.084,11.084,0,0,0,9.28-2.453l4.051-3.353a11.044,11.044,0,0,0,3.781-7.584,11.053,11.053,0,0,0-2.667-8.051,4.291,4.291,0,0,1-.383-5.1,4.243,4.243,0,0,1,.3-.415,4.3,4.3,0,0,1,2.519-1.507,11.075,11.075,0,0,0,8.805-12.955ZM123.971,5.151h0Z" fill="#fff"/>
      <path id="Path_3948" data-name="Path 3948" d="M318.774,502.641h0Z" transform="translate(-215.124 -426.859)" fill="#fff"/>
    </g>
  </g>
</svg>
