<svg xmlns="http://www.w3.org/2000/svg" xmlns:xlink="http://www.w3.org/1999/xlink" width="194.22" height="194.371" viewBox="0 0 194.22 194.371">
  <defs>
    <linearGradient id="linear-gradient" x1="0.773" y1="0.14" x2="0.191" y2="0.958" gradientUnits="objectBoundingBox">
      <stop offset="0" stop-color="#ff266d"/>
      <stop offset="1" stop-color="#6903a6" stop-opacity="0"/>
    </linearGradient>
  </defs>
  <g id="Group_1073" data-name="Group 1073" transform="translate(-90 -183)">
    <path id="Path_164" data-name="Path 164" d="M-96.682,110.844l-8.982-6.738a11.146,11.146,0,0,1-3.471-12.863l4.288-10.412a11.1,11.1,0,0,0-8.779-15.109l-11.23-1.43a10.837,10.837,0,0,1-9.393-9.393l-1.43-11.23a11.1,11.1,0,0,0-15.109-8.779L-161.2,39.18a11.147,11.147,0,0,1-12.863-3.471L-181,26.726a10.925,10.925,0,0,0-17.356,0l-6.533,9.187a11.145,11.145,0,0,1-12.863,3.471l-10.413-4.49a11.1,11.1,0,0,0-15.109,8.779l-1.43,11.23a10.837,10.837,0,0,1-9.393,9.393l-11.229,1.43a11.1,11.1,0,0,0-8.779,15.109l4.288,10.412a11.147,11.147,0,0,1-3.471,12.863l-8.984,6.941a10.925,10.925,0,0,0,0,17.356l9.187,6.735A11.146,11.146,0,0,1-269.614,148l-4.491,10.412a11.1,11.1,0,0,0,8.779,15.109l11.229,1.43a10.836,10.836,0,0,1,9.393,9.393l1.43,11.23a11.1,11.1,0,0,0,15.109,8.779l10.412-4.288a11.148,11.148,0,0,1,12.863,3.471l6.941,8.984a10.925,10.925,0,0,0,17.356,0l6.941-8.984a11.147,11.147,0,0,1,12.863-3.471l10.413,4.288a11.1,11.1,0,0,0,15.109-8.779l1.43-11.23a10.837,10.837,0,0,1,9.393-9.393l11.23-1.43a11.1,11.1,0,0,0,8.779-15.109L-108.725,148a11.147,11.147,0,0,1,3.471-12.863l8.984-6.941a11.181,11.181,0,0,0-.412-17.354Z" transform="translate(376.56 160.562)" fill="url(#linear-gradient)"/>
    <g id="Group_1063" data-name="Group 1063" transform="translate(39.453 183.002)">
      <path id="Path_3949" data-name="Path 3949" d="M219.524,105.551a.789.789,0,0,1,.192.192,4.111,4.111,0,0,0,3.355,1.752,4.03,4.03,0,0,0,2.526-.877c.18-.142.316-.259.442-.377L246.684,85.6a4.1,4.1,0,1,0-5.8-5.8L228.572,92.106a.819.819,0,0,1-1.4-.579v-34.1a4.1,4.1,0,0,0-8.208,0V91.418a.818.818,0,0,1-1.4.579L205.149,79.576a4.1,4.1,0,0,0-5.8,5.8Z" transform="translate(-74.935)" fill="#fff"/>
      <path id="Path_3950" data-name="Path 3950" d="M183.483,334.171h-.029a4.108,4.108,0,0,0-4.074,4.1v14.062a1.875,1.875,0,0,1-1.873,1.873H118.627a1.875,1.875,0,0,1-1.873-1.873V338.274a4.1,4.1,0,1,0-8.207,0v14.062a10.083,10.083,0,0,0,10.072,10.072h58.9a10.083,10.083,0,0,0,10.071-10.072V338.274A4.108,4.108,0,0,0,183.483,334.171Z" transform="translate(0 -234.874)" fill="#fff"/>
    </g>
  </g>
</svg>
