<svg xmlns="http://www.w3.org/2000/svg" width="14.44" height="14.668" viewBox="0 0 14.44 14.668">
  <g id="Group_1204" data-name="Group 1204" transform="translate(-355.312 -341.332)">
    <path id="Path_4045" data-name="Path 4045" d="M-18.781,79.044a7.227,7.227,0,0,0-5.115-2.1A7.226,7.226,0,0,0-29,79.068a7.227,7.227,0,0,0-2.1,5.115,7.227,7.227,0,0,0,2.129,5.1l-1.239,1.6a.445.445,0,0,0-.087.342.445.445,0,0,0,.189.3.445.445,0,0,0,.346.067l3.236-.714h0a7.227,7.227,0,0,0,4.835.158,7.228,7.228,0,0,0,3.852-2.927,7.228,7.228,0,0,0,1.143-4.7,7.228,7.228,0,0,0-2.079-4.369Z" transform="translate(386.416 264.393)" fill="#11a52b"/>
    <path id="Path_4046" data-name="Path 4046" d="M299.764,239.331a6.088,6.088,0,0,0,1.451,1.079l.949-.967,1.726.4c.179.042.335.15.335.335V242a6.422,6.422,0,0,1-7.125-7.125h1.82c.184,0,.293.156.335.335l.4,1.726-.967.949a6.073,6.073,0,0,0,1.079,1.451Z" transform="translate(61.927 110.009)" fill="#feffff"/>
  </g>
</svg>
