<svg xmlns="http://www.w3.org/2000/svg" xmlns:xlink="http://www.w3.org/1999/xlink" width="178.714" height="178.853" viewBox="0 0 178.714 178.853">
  <defs>
    <linearGradient id="linear-gradient" x1="0.773" y1="0.14" x2="0.191" y2="0.958" gradientUnits="objectBoundingBox">
      <stop offset="0" stop-color="#75b53d"/>
      <stop offset="1" stop-color="#568a29"/>
    </linearGradient>
    <clipPath id="clip-path">
      <path id="Path_5369" data-name="Path 5369" d="M-111.841,103.786l-8.265-6.2A10.256,10.256,0,0,1-123.3,85.75l3.946-9.581a10.213,10.213,0,0,0-8.078-13.9l-10.333-1.316a9.972,9.972,0,0,1-8.643-8.643l-1.316-10.333a10.212,10.212,0,0,0-13.9-8.078l-9.581,3.946a10.257,10.257,0,0,1-11.836-3.193l-6.387-8.267a10.053,10.053,0,0,0-15.97,0l-6.011,8.453a10.256,10.256,0,0,1-11.836,3.194l-9.581-4.132a10.212,10.212,0,0,0-13.9,8.078l-1.316,10.333a9.972,9.972,0,0,1-8.643,8.643l-10.333,1.316a10.212,10.212,0,0,0-8.078,13.9l3.946,9.581a10.257,10.257,0,0,1-3.194,11.836l-8.267,6.387a10.053,10.053,0,0,0,0,15.97l8.454,6.2a10.257,10.257,0,0,1,3.194,11.836l-4.132,9.581a10.213,10.213,0,0,0,8.078,13.9l10.333,1.316a9.971,9.971,0,0,1,8.643,8.643l1.315,10.333a10.212,10.212,0,0,0,13.9,8.078l9.581-3.946a10.258,10.258,0,0,1,11.836,3.193l6.387,8.267a10.053,10.053,0,0,0,15.97,0l6.387-8.267a10.257,10.257,0,0,1,11.836-3.193l9.581,3.946a10.212,10.212,0,0,0,13.9-8.078l1.316-10.333a9.972,9.972,0,0,1,8.643-8.643l10.333-1.316a10.212,10.212,0,0,0,8.078-13.9l-3.946-9.581a10.257,10.257,0,0,1,3.193-11.836l8.267-6.387a10.288,10.288,0,0,0-.379-15.969Z" transform="translate(286.56 -22.438)" fill="url(#linear-gradient)"/>
    </clipPath>
    <radialGradient id="radial-gradient" cx="0.5" cy="0.5" r="0.419" gradientUnits="objectBoundingBox">
      <stop offset="0" stop-color="#77ae57"/>
      <stop offset="0.626" stop-color="#77ae57" stop-opacity="0.18"/>
      <stop offset="1" stop-color="#568a29" stop-opacity="0"/>
    </radialGradient>
  </defs>
  <g id="Group_1011" data-name="Group 1011" transform="translate(-4790 -406)">
    <path id="Path_5368" data-name="Path 5368" d="M-111.841,103.786l-8.265-6.2A10.256,10.256,0,0,1-123.3,85.75l3.946-9.581a10.213,10.213,0,0,0-8.078-13.9l-10.333-1.316a9.972,9.972,0,0,1-8.643-8.643l-1.316-10.333a10.212,10.212,0,0,0-13.9-8.078l-9.581,3.946a10.257,10.257,0,0,1-11.836-3.193l-6.387-8.267a10.053,10.053,0,0,0-15.97,0l-6.011,8.453a10.256,10.256,0,0,1-11.836,3.194l-9.581-4.132a10.212,10.212,0,0,0-13.9,8.078l-1.316,10.333a9.972,9.972,0,0,1-8.643,8.643l-10.333,1.316a10.212,10.212,0,0,0-8.078,13.9l3.946,9.581a10.257,10.257,0,0,1-3.194,11.836l-8.267,6.387a10.053,10.053,0,0,0,0,15.97l8.454,6.2a10.257,10.257,0,0,1,3.194,11.836l-4.132,9.581a10.213,10.213,0,0,0,8.078,13.9l10.333,1.316a9.971,9.971,0,0,1,8.643,8.643l1.315,10.333a10.212,10.212,0,0,0,13.9,8.078l9.581-3.946a10.258,10.258,0,0,1,11.836,3.193l6.387,8.267a10.053,10.053,0,0,0,15.97,0l6.387-8.267a10.257,10.257,0,0,1,11.836-3.193l9.581,3.946a10.212,10.212,0,0,0,13.9-8.078l1.316-10.333a9.972,9.972,0,0,1,8.643-8.643l10.333-1.316a10.212,10.212,0,0,0,8.078-13.9l-3.946-9.581a10.257,10.257,0,0,1,3.193-11.836l8.267-6.387a10.288,10.288,0,0,0-.379-15.969Z" transform="translate(5076.56 383.562)" fill="url(#linear-gradient)"/>
    <g id="Mask_Group_3" data-name="Mask Group 3" transform="translate(4790 406)" clip-path="url(#clip-path)">
      <g id="Group_1010" data-name="Group 1010" transform="translate(-70.585 -70.585)">
        <path id="Union_1" data-name="Union 1" d="M148.111,320.478l12.008-159.621-48.661,152.5-22.49-9.086,70.948-143.539L55.509,282.121,38.357,264.97l121.36-104.379L17.477,234.014,8,211.685l151.665-51.329L0,172.367V148.111l159.62,12.008L7.125,111.458l9.087-22.49,143.538,70.948L38.357,55.509,55.509,38.357,159.886,159.716,86.464,17.477,108.793,8l51.33,151.666L148.111,0h24.256L160.359,159.621l48.661-152.5,22.49,9.086-70.948,143.54L264.97,38.357l17.152,17.152L160.761,159.887,303,86.465l9.478,22.328L160.814,160.122l159.665-12.011v24.256L160.858,160.36l152.5,48.661-9.087,22.49L160.728,160.563,282.121,264.97l-17.152,17.152L160.591,160.762,234.013,303l-22.328,9.477L160.356,160.815l12.011,159.663Z" transform="translate(0)" fill="url(#radial-gradient)"/>
      </g>
    </g>
  </g>
</svg>
