<svg xmlns="http://www.w3.org/2000/svg" width="20.428" height="20.428" viewBox="0 0 20.428 20.428">
  <g id="Group_1013" data-name="Group 1013" transform="translate(-4352.664 -488.194)">
    <path id="Path_5382" data-name="Path 5382" d="M236.894,177.108a10.214,10.214,0,1,0-10.214-10.214A10.225,10.225,0,0,0,236.894,177.108Zm-6.876-16.434,2.221,2.221a6.112,6.112,0,0,0-1.466,3.535h-3.143A9.237,9.237,0,0,1,230.018,160.674Zm16.138,5.756h-3.143a6.11,6.11,0,0,0-1.466-3.535l2.221-2.221A9.235,9.235,0,0,1,246.156,166.43Zm-2.387,6.684-2.221-2.221a6.112,6.112,0,0,0,1.466-3.535h3.143A9.237,9.237,0,0,1,243.769,173.114Zm-6.876-11.436a5.216,5.216,0,1,1-5.216,5.216A5.222,5.222,0,0,1,236.894,161.678Zm-4,9.869a6.109,6.109,0,0,0,3.535,1.466v3.143a9.236,9.236,0,0,1-5.756-2.387Zm4.462,1.466a6.111,6.111,0,0,0,3.535-1.466l2.221,2.221a9.237,9.237,0,0,1-5.756,2.387Zm3.535-10.774a6.11,6.11,0,0,0-3.535-1.466V157.63a9.236,9.236,0,0,1,5.756,2.387Zm-4.462-1.466a6.111,6.111,0,0,0-3.535,1.466l-2.221-2.221a9.237,9.237,0,0,1,5.756-2.387Zm-5.656,6.584a6.11,6.11,0,0,0,1.466,3.535l-2.221,2.221a9.235,9.235,0,0,1-2.387-5.756Z" transform="translate(4125.983 331.514)" fill="#fff"/>
    <path id="Path_5383" data-name="Path 5383" d="M300.373,229.522l1.149,1.307-.161,1.732a.361.361,0,0,0,.5.365l1.6-.689,1.6.689a.361.361,0,0,0,.5-.365l-.162-1.732,1.149-1.307a.36.36,0,0,0-.192-.59l-1.7-.382-.887-1.5a.375.375,0,0,0-.62,0l-.887,1.5-1.7.382a.36.36,0,0,0-.191.59Z" transform="translate(4059.385 267.987)" fill="#fff"/>
  </g>
</svg>
