<svg xmlns="http://www.w3.org/2000/svg" xmlns:xlink="http://www.w3.org/1999/xlink" width="181.508" height="149" viewBox="0 0 181.508 149">
  <defs>
    <linearGradient id="linear-gradient" x1="0.5" y1="0.339" x2="0.5" y2="1" gradientUnits="objectBoundingBox">
      <stop offset="0" stop-color="#280067"/>
      <stop offset="1" stop-color="#380068"/>
    </linearGradient>
    <filter id="Union_3" x="0" y="0" width="181.508" height="149" filterUnits="userSpaceOnUse">
      <feOffset dy="-3" input="SourceAlpha"/>
      <feGaussianBlur stdDeviation="13" result="blur"/>
      <feFlood flood-opacity="0.051"/>
      <feComposite operator="in" in2="blur"/>
      <feComposite in="SourceGraphic"/>
    </filter>
  </defs>
  <g transform="matrix(1, 0, 0, 1, 0, 0)" filter="url(#Union_3)">
    <path id="Union_3-2" data-name="Union 3" d="M-1809.383,48.126l-6.32,3.655-10.551-12.546s11.186,2.323,17.579-7.38A35.517,35.517,0,0,1-1774.5,6a35.515,35.515,0,0,1,34.174,25.853c6.393,9.7,17.58,7.381,17.58,7.381L-1733.3,51.781l-6.32-3.655A35.511,35.511,0,0,1-1774.5,77,35.51,35.51,0,0,1-1809.383,48.126Z" transform="translate(1865.25 36)" fill="url(#linear-gradient)"/>
  </g>
</svg>
