<svg xmlns="http://www.w3.org/2000/svg" xmlns:xlink="http://www.w3.org/1999/xlink" width="147.657" height="147.657" viewBox="0 0 147.657 147.657">
  <defs>
    <filter id="Ellipse_89" x="0" y="0" width="147.657" height="147.657" filterUnits="userSpaceOnUse">
      <feOffset dy="4" input="SourceAlpha"/>
      <feGaussianBlur stdDeviation="3.5" result="blur"/>
      <feFlood flood-opacity="0.388"/>
      <feComposite operator="in" in2="blur"/>
      <feComposite in="SourceGraphic"/>
    </filter>
    <linearGradient id="linear-gradient" x1="99.917" y1="17.39" x2="100.073" y2="17.39" gradientUnits="objectBoundingBox">
      <stop offset="0" stop-color="#a9a5a6"/>
      <stop offset="0.264" stop-color="#c8c6c6"/>
      <stop offset="0.566" stop-color="#e6e5e5"/>
      <stop offset="0.822" stop-color="#f8f8f8"/>
      <stop offset="1" stop-color="#fff"/>
    </linearGradient>
    <linearGradient id="linear-gradient-2" x1="62.041" y1="19.24" x2="62.112" y2="19.24" xlink:href="#linear-gradient"/>
    <linearGradient id="linear-gradient-3" x1="41.286" y1="53.829" x2="41.339" y2="53.829" xlink:href="#linear-gradient"/>
    <linearGradient id="linear-gradient-4" x1="138.365" y1="11.82" x2="138.522" y2="11.82" xlink:href="#linear-gradient"/>
    <linearGradient id="linear-gradient-5" x1="44.44" y1="21.566" x2="44.493" y2="21.566" xlink:href="#linear-gradient"/>
    <linearGradient id="linear-gradient-6" x1="54.87" y1="14.88" x2="54.941" y2="14.88" xlink:href="#linear-gradient"/>
  </defs>
  <g id="Group_938" data-name="Group 938" transform="translate(84.307 -715.822)">
    <g transform="matrix(1, 0, 0, 1, -84.31, 715.82)" filter="url(#Ellipse_89)">
      <ellipse id="Ellipse_89-2" data-name="Ellipse 89" cx="63.329" cy="63.329" rx="63.329" ry="63.329" transform="translate(10.5 6.5)" fill="#5aaf21"/>
    </g>
    <g id="Group_931" data-name="Group 931" transform="translate(-73.867 722.322)">
      <ellipse id="Ellipse_66" data-name="Ellipse 66" cx="63.388" cy="63.388" rx="63.388" ry="63.388" transform="translate(0 0)" fill="#75d833"/>
      <g id="Group_907" data-name="Group 907" transform="translate(0 0)">
        <path id="Path_5271" data-name="Path 5271" d="M-885.935,175.752a48.166,48.166,0,0,0-2.875-9.082,48.392,48.392,0,0,0-4.261-7.834,48.765,48.765,0,0,0-6.041-7.361,48.868,48.868,0,0,0-7.8-6.324,48.351,48.351,0,0,0-8.443-4.4,47.841,47.841,0,0,0-8.545-2.551c-.688-.138-1.382-.255-2.081-.362-.215-.035-.431-.063-.647-.094-.505-.07-1.012-.135-1.52-.189-.23-.026-.46-.051-.693-.074-.636-.059-1.281-.11-1.927-.145l-.225-.014c-.791-.041-1.589-.06-2.389-.06q-1.269,0-2.523.066h0l-.2.014c-.69.039-1.379.1-2.063.164-.244.023-.484.053-.727.08q-.8.094-1.6.211c-.23.035-.46.066-.688.1-.736.122-1.464.251-2.188.4a47.962,47.962,0,0,0-9.081,2.875,48.607,48.607,0,0,0-7.836,4.26,48.9,48.9,0,0,0-7.359,6.042,48.778,48.778,0,0,0-6.325,7.8,48.49,48.49,0,0,0-4.4,8.445,47.786,47.786,0,0,0-2.552,8.546,48.437,48.437,0,0,0-.939,9.479,48.351,48.351,0,0,0,1.043,9.993,48.128,48.128,0,0,0,2.875,9.082,48.213,48.213,0,0,0,4.258,7.834,48.783,48.783,0,0,0,6.044,7.361,48.907,48.907,0,0,0,7.8,6.324,48.479,48.479,0,0,0,8.443,4.4,48.022,48.022,0,0,0,8.548,2.551c.688.137,1.381.255,2.081.362.213.035.43.063.646.094q.757.1,1.52.189c.231.026.46.051.691.073q.961.09,1.931.146c.866.047,1.735.074,2.61.074a48.486,48.486,0,0,0,9.991-1.041,48.084,48.084,0,0,0,9.084-2.874,48.682,48.682,0,0,0,7.834-4.261,49,49,0,0,0,7.361-6.042,48.9,48.9,0,0,0,6.324-7.8,48.328,48.328,0,0,0,4.4-8.443,47.985,47.985,0,0,0,2.553-8.546,48.675,48.675,0,0,0,.937-9.481A48.515,48.515,0,0,0-885.935,175.752Zm-39.431-37.813c-.145-.025-.288-.054-.435-.076C-925.654,137.888-925.511,137.915-925.366,137.939Zm-1.553-.237c-.362-.049-.724-.094-1.092-.135C-927.644,137.608-927.282,137.653-926.92,137.7Zm-1.992-.23q-.915-.088-1.838-.139Q-929.826,137.383-928.911,137.473Zm-7.218-.133c-.659.037-1.316.092-1.969.156C-937.446,137.432-936.788,137.379-936.13,137.34Zm-2.916.261q-.579.069-1.153.152Q-939.625,137.671-939.045,137.6Zm-2.331.329c-.151.025-.3.056-.446.082C-941.673,137.986-941.527,137.955-941.376,137.931Zm-.026,95.618c.147.025.295.055.441.078C-941.108,233.6-941.255,233.575-941.4,233.549Zm1.556.237c.365.049.73.1,1.1.137C-939.116,233.882-939.482,233.835-939.847,233.786Zm1.994.232q.917.085,1.844.139C-936.626,234.121-937.241,234.076-937.853,234.017Z" transform="translate(996.77 -122.356)" fill="#c80e2d"/>
        <path id="Path_5272" data-name="Path 5272" d="M-980.5,206.017a50.853,50.853,0,0,1-3.028-9.6q-.433-2.064-.694-4.187l-12.086,1.517q.325,2.622.86,5.18a62.8,62.8,0,0,0,3.75,11.879c.3.7.622,1.391.947,2.08l11.017-5.194C-980,207.139-980.259,206.584-980.5,206.017Z" transform="translate(996.801 -122.476)" fill="#f7faf6"/>
        <path id="Path_5273" data-name="Path 5273" d="M-880.192,220.665l-10.189-6.679A51.421,51.421,0,0,1-897,222.123a51.443,51.443,0,0,1-4.224,3.765l7.608,9.508a64.124,64.124,0,0,0,5.227-4.661A63.713,63.713,0,0,0-880.192,220.665Z" transform="translate(996.595 -122.523)" fill="#f7faf6"/>
        <path id="Path_5274" data-name="Path 5274" d="M-952.392,233.493a50.626,50.626,0,0,1-6.735-3.3l-6.134,10.524a63.056,63.056,0,0,0,8.338,4.081,62.841,62.841,0,0,0,10.246,3.12l2.564-11.915A50.852,50.852,0,0,1-952.392,233.493Z" transform="translate(996.734 -122.558)" fill="#f7faf6"/>
        <path id="Path_5275" data-name="Path 5275" d="M-886.088,165.639a50.543,50.543,0,0,1,3.03,9.6q.431,2.064.694,4.187l12.086-1.517q-.329-2.622-.861-5.18a62.79,62.79,0,0,0-3.748-11.878c-.3-.7-.624-1.392-.95-2.079l-11.018,5.192C-886.59,164.516-886.328,165.072-886.088,165.639Z" transform="translate(996.563 -122.403)" fill="#f7faf6"/>
        <path id="Path_5276" data-name="Path 5276" d="M-914.205,138.168a51.157,51.157,0,0,1,6.733,3.3l6.134-10.524a62.978,62.978,0,0,0-8.338-4.081,62.756,62.756,0,0,0-10.246-3.122l-2.563,11.918A50.79,50.79,0,0,1-914.205,138.168Z" transform="translate(996.641 -122.327)" fill="#f7faf6"/>
        <path id="Path_5277" data-name="Path 5277" d="M-870.516,177.826l-12.087,1.517v.006q-.261-2.123-.695-4.193a50.506,50.506,0,0,0-3.029-9.6c-.241-.567-.5-1.125-.768-1.681v0l11.018-5.192a63.294,63.294,0,0,0-4.615-8.172,63.574,63.574,0,0,0-7.9-9.627,63.676,63.676,0,0,0-10.2-8.277q-1.333-.871-2.711-1.674l-6.134,10.524,0,0a50.964,50.964,0,0,0-6.735-3.3,50.806,50.806,0,0,0-8.28-2.512l2.563-11.918c-.313-.066-.624-.134-.936-.2a63.643,63.643,0,0,0-12.4-1.214,63.675,63.675,0,0,0-13.066,1.351,62.72,62.72,0,0,0-11.878,3.749,63.026,63.026,0,0,0-10.254,5.565c-1.516,1.013-2.977,2.1-4.4,3.239l7.609,9.508a51.771,51.771,0,0,0-4.223,3.765,51.424,51.424,0,0,0-6.688,8.24l.071-.1-10.187-6.679-.086.129a63.218,63.218,0,0,0-5.756,11.047,63.051,63.051,0,0,0-3.319,11.183,63.738,63.738,0,0,0-1.213,12.4,63.8,63.8,0,0,0,.491,7.887l12.085-1.517v-.011q.264,2.125.7,4.2a50.889,50.889,0,0,0,3.028,9.6c.243.567.5,1.123.766,1.678l-11.017,5.194a63.29,63.29,0,0,0,4.615,8.171,63.742,63.742,0,0,0,7.9,9.628,63.738,63.738,0,0,0,10.2,8.276q1.331.871,2.709,1.674l6.133-10.524v0a50.425,50.425,0,0,0,6.735,3.3,50.921,50.921,0,0,0,9.033,2.682c-.253-.051-.5-.116-.754-.168l-2.564,11.915c.312.068.623.137.936.2a63.66,63.66,0,0,0,12.4,1.216,63.655,63.655,0,0,0,13.065-1.351A62.9,62.9,0,0,0-908.469,244a63.089,63.089,0,0,0,10.25-5.564c1.517-1.016,2.978-2.1,4.4-3.24l-7.609-9.508a51.425,51.425,0,0,0,4.224-3.765,51.407,51.407,0,0,0,6.615-8.137l10.189,6.68.086-.129a63.266,63.266,0,0,0,5.756-11.049,62.844,62.844,0,0,0,3.317-11.181,63.656,63.656,0,0,0,1.216-12.4A64.034,64.034,0,0,0-870.516,177.826Zm-17.267-15.348c-.091-.175-.18-.35-.27-.526C-887.963,162.128-887.875,162.3-887.783,162.479Zm-1.912-3.431c-.364-.6-.736-1.189-1.124-1.768C-890.432,157.858-890.06,158.448-889.7,159.047Zm1.01,1.738q-.246-.441-.5-.877C-889.019,160.2-888.849,160.491-888.685,160.785Zm-73.164-17.667c-.618.413-1.223.846-1.823,1.284C-963.073,143.963-962.467,143.532-961.849,143.119Zm-22.56,47.254.021.237Zm-.191-3.145c0,.125.009.25.015.376C-984.591,187.477-984.6,187.353-984.6,187.228Zm.07,1.548c.008.117.016.233.023.352C-984.514,189.009-984.522,188.892-984.53,188.775Zm5.486,20.171c.089.175.18.352.272.526C-978.864,209.3-978.955,209.121-979.044,208.947Zm1.91,3.43c.364.6.735,1.189,1.126,1.77C-976.4,213.566-976.77,212.975-977.134,212.376Zm-1.012-1.738q.248.445.509.883C-977.809,211.229-977.98,210.934-978.146,210.638Zm73.166,17.669c.617-.415,1.223-.845,1.826-1.286Q-904.053,227.683-904.98,228.306Zm8.837-18.29a45.012,45.012,0,0,1-5.8,7.162,44.924,44.924,0,0,1-6.76,5.546,44.406,44.406,0,0,1-7.193,3.911,44.119,44.119,0,0,1-8.339,2.641,44.482,44.482,0,0,1-9.175.955,44.6,44.6,0,0,1-8.7-.86,43.875,43.875,0,0,1-7.848-2.344,44.367,44.367,0,0,1-7.751-4.044,44.823,44.823,0,0,1-7.162-5.805,44.82,44.82,0,0,1-5.548-6.759,44.451,44.451,0,0,1-3.913-7.193,44.31,44.31,0,0,1-2.638-8.339,44.5,44.5,0,0,1-.955-9.175,44.45,44.45,0,0,1,.86-8.7,44.259,44.259,0,0,1,2.342-7.848,44.652,44.652,0,0,1,4.044-7.751,44.9,44.9,0,0,1,5.808-7.162,44.869,44.869,0,0,1,6.757-5.546,44.312,44.312,0,0,1,7.193-3.911,44.094,44.094,0,0,1,8.339-2.641,44.5,44.5,0,0,1,9.176-.955,44.467,44.467,0,0,1,8.705.86,44.169,44.169,0,0,1,7.845,2.342,44.381,44.381,0,0,1,7.752,4.044,44.975,44.975,0,0,1,7.164,5.807,44.808,44.808,0,0,1,5.546,6.759,44.439,44.439,0,0,1,3.912,7.193,44.281,44.281,0,0,1,2.641,8.339,44.6,44.6,0,0,1,.955,9.174,44.546,44.546,0,0,1-.862,8.705,44.123,44.123,0,0,1-2.342,7.847A44.446,44.446,0,0,1-896.143,210.016Zm13.7-29.191.019.213Zm.119,1.484c.007.111.015.222.021.332C-882.305,182.531-882.313,182.42-882.32,182.309Zm.078,1.52c0,.123.009.243.013.366C-882.233,184.073-882.239,183.952-882.242,183.829Z" transform="translate(996.802 -122.324)" fill="#75d833"/>
        <path id="Path_5278" data-name="Path 5278" d="M-969.6,149.531a51.778,51.778,0,0,1,4.223-3.765l-7.609-9.508a63.654,63.654,0,0,0-5.226,4.662,63.542,63.542,0,0,0-8.191,10.069l10.187,6.68A51.334,51.334,0,0,1-969.6,149.531Z" transform="translate(996.78 -122.354)" fill="#f7faf6"/>
        <path id="Path_5279" data-name="Path 5279" d="M-983.952,193.93c.019.136.035.274.058.411C-983.917,194.2-983.934,194.066-983.952,193.93Z" transform="translate(996.774 -122.479)" fill="#c80e2d"/>
        <path id="Path_5280" data-name="Path 5280" d="M-896.987,222.123a51.407,51.407,0,0,0,6.616-8.137A51.407,51.407,0,0,1-896.987,222.123Z" transform="translate(996.585 -122.523)" fill="#c80e2d"/>
        <path id="Path_5281" data-name="Path 5281" d="M-948.259,234.94q2.052.624,4.176,1.076Q-946.2,235.562-948.259,234.94Z" transform="translate(996.697 -122.568)" fill="#c80e2d"/>
        <path id="Path_5282" data-name="Path 5282" d="M-950.3,234.273c.552.2,1.111.373,1.672.548C-949.19,234.646-949.749,234.467-950.3,234.273Z" transform="translate(996.701 -122.567)" fill="#c80e2d"/>
        <path id="Path_5283" data-name="Path 5283" d="M-882.659,177.357l.029.2Z" transform="translate(996.555 -122.443)" fill="#c80e2d"/>
        <path id="Path_5284" data-name="Path 5284" d="M-973.094,153.467a51.238,51.238,0,0,0-3.091,4.223A51.581,51.581,0,0,1-973.094,153.467Z" transform="translate(996.757 -122.392)" fill="#f8faf8"/>
        <path id="Path_5285" data-name="Path 5285" d="M-971.384,151.473c-.539.6-1.057,1.208-1.566,1.828C-972.441,152.681-971.923,152.069-971.384,151.473Z" transform="translate(996.75 -122.387)" fill="#f8faf8"/>
        <path id="Path_5286" data-name="Path 5286" d="M-989.917,212.5c-.323-.679-.641-1.358-.936-2.049a62.162,62.162,0,0,1-3.7-11.706q-.529-2.518-.848-5.1l-.914.115q.325,2.622.86,5.18a62.8,62.8,0,0,0,3.75,11.879c.3.7.622,1.391.947,2.08Z" transform="translate(996.801 -122.479)" fill="url(#linear-gradient)"/>
        <path id="Path_5287" data-name="Path 5287" d="M-889.024,230.1a62.23,62.23,0,0,1-5.149,4.594l.576.72a64.2,64.2,0,0,0,5.227-4.661,63.766,63.766,0,0,0,8.193-10.07l-.772-.507A62.5,62.5,0,0,1-889.024,230.1Z" transform="translate(996.579 -122.536)" fill="url(#linear-gradient-2)"/>
        <path id="Path_5288" data-name="Path 5288" d="M-956.581,243.966a62.2,62.2,0,0,1-8.215-4.021l-.465.8a63.055,63.055,0,0,0,8.338,4.081,62.828,62.828,0,0,0,10.246,3.12l.195-.9A62.219,62.219,0,0,1-956.581,243.966Z" transform="translate(996.734 -122.579)" fill="url(#linear-gradient-3)"/>
        <path id="Path_5289" data-name="Path 5289" d="M-875.713,161.21a61.77,61.77,0,0,1,3.694,11.706q.53,2.518.848,5.1l.916-.116c-.219-1.748-.5-3.477-.861-5.18a62.807,62.807,0,0,0-3.748-11.878c-.3-.7-.624-1.392-.95-2.079l-.834.393C-876.326,159.84-876.008,160.519-875.713,161.21Z" transform="translate(996.541 -122.403)" fill="url(#linear-gradient-4)"/>
        <path id="Path_5290" data-name="Path 5290" d="M-910.013,127.716a62.5,62.5,0,0,1,8.217,4.022l.464-.8a63,63,0,0,0-8.338-4.081,62.771,62.771,0,0,0-10.246-3.122l-.194.9A61.92,61.92,0,0,1-910.013,127.716Z" transform="translate(996.636 -122.327)" fill="url(#linear-gradient-5)"/>
        <path id="Path_5291" data-name="Path 5291" d="M-894.287,234.721c-1.4,1.121-2.84,2.192-4.334,3.192a62.205,62.205,0,0,1-10.1,5.484,61.905,61.905,0,0,1-11.7,3.7,62.858,62.858,0,0,1-12.876,1.331,62.78,62.78,0,0,1-12.216-1.2c-.307-.061-.614-.129-.921-.193l-.195.9c.312.068.623.137.936.2a63.653,63.653,0,0,0,12.4,1.216,63.653,63.653,0,0,0,13.064-1.351,62.893,62.893,0,0,0,11.882-3.749,63.116,63.116,0,0,0,10.251-5.564c1.517-1.016,2.978-2.1,4.4-3.24Z" transform="translate(996.693 -122.568)" fill="#5bb022"/>
        <path id="Path_5292" data-name="Path 5292" d="M-870.264,177.947l-.916.116h0a62.791,62.791,0,0,1,.485,7.77,62.736,62.736,0,0,1-1.2,12.215,61.749,61.749,0,0,1-3.27,11.019,62.045,62.045,0,0,1-5.673,10.886l-.083.127.772.507.086-.129a63.229,63.229,0,0,0,5.756-11.049,62.828,62.828,0,0,0,3.317-11.181,63.656,63.656,0,0,0,1.216-12.4A64.129,64.129,0,0,0-870.264,177.947Z" transform="translate(996.55 -122.445)" fill="#5bb022"/>
        <g id="Group_904" data-name="Group 904">
          <path id="Path_5293" data-name="Path 5293" d="M-995.4,193.547a63.014,63.014,0,0,1-.483-7.772,62.563,62.563,0,0,1,1.2-12.214,61.966,61.966,0,0,1,3.269-11.02,62.43,62.43,0,0,1,5.671-10.887l.085-.127-.771-.5-.086.129a63.217,63.217,0,0,0-5.756,11.047,63.049,63.049,0,0,0-3.319,11.183,63.738,63.738,0,0,0-1.213,12.4,63.8,63.8,0,0,0,.491,7.887Z" transform="translate(996.802 -122.386)" fill="#95fc70"/>
          <path id="Path_5294" data-name="Path 5294" d="M-964.852,239.885q-1.357-.792-2.671-1.648a62.889,62.889,0,0,1-10.048-8.158,62.755,62.755,0,0,1-7.788-9.487,62.227,62.227,0,0,1-4.546-8.052l-.836.394a63.29,63.29,0,0,0,4.615,8.171,63.757,63.757,0,0,0,7.9,9.628,63.751,63.751,0,0,0,10.2,8.276q1.33.871,2.709,1.674Z" transform="translate(996.789 -122.52)" fill="#95fc70"/>
          <path id="Path_5295" data-name="Path 5295" d="M-901.757,131.754q1.356.792,2.67,1.648a62.754,62.754,0,0,1,10.05,8.158,62.707,62.707,0,0,1,7.786,9.487A62.161,62.161,0,0,1-876.7,159.1l.834-.393a63.331,63.331,0,0,0-4.615-8.172,63.557,63.557,0,0,0-7.9-9.627,63.69,63.69,0,0,0-10.2-8.277q-1.334-.871-2.711-1.674Z" transform="translate(996.596 -122.343)" fill="#95fc70"/>
          <path id="Path_5296" data-name="Path 5296" d="M-972.381,136.948c1.4-1.121,2.842-2.194,4.335-3.192a62.2,62.2,0,0,1,10.1-5.484,61.96,61.96,0,0,1,11.7-3.695,62.85,62.85,0,0,1,12.877-1.331,62.921,62.921,0,0,1,12.216,1.2c.307.063.613.129.922.2l.193-.9c-.312-.066-.624-.134-.936-.2a63.639,63.639,0,0,0-12.4-1.214,63.673,63.673,0,0,0-13.066,1.351,62.712,62.712,0,0,0-11.878,3.749,63,63,0,0,0-10.254,5.565c-1.516,1.013-2.977,2.1-4.4,3.239Z" transform="translate(996.75 -122.324)" fill="#95fc70"/>
        </g>
        <path id="Path_5297" data-name="Path 5297" d="M-977.562,141.572a62.567,62.567,0,0,1,5.151-4.594l-.577-.72a63.654,63.654,0,0,0-5.226,4.662,63.542,63.542,0,0,0-8.191,10.069l.771.505A62.814,62.814,0,0,1-977.562,141.572Z" transform="translate(996.78 -122.354)" fill="url(#linear-gradient-6)"/>
        <path id="Path_5298" data-name="Path 5298" d="M-888.941,176.395a45.274,45.274,0,0,0-2.692-8.507,45.343,45.343,0,0,0-3.99-7.337,45.707,45.707,0,0,0-5.658-6.892,45.621,45.621,0,0,0-7.306-5.923,45.4,45.4,0,0,0-7.906-4.126,44.971,44.971,0,0,0-8-2.389c-.645-.128-1.3-.239-1.949-.34-.2-.031-.4-.058-.608-.087-.471-.066-.946-.126-1.422-.177-.217-.024-.431-.048-.646-.068-.6-.058-1.2-.1-1.805-.135l-.21-.016q-1.111-.057-2.238-.055c-.791,0-1.58.02-2.363.062h0l-.19.013c-.647.038-1.292.089-1.933.153-.228.022-.454.051-.682.076q-.753.085-1.5.2c-.214.03-.431.059-.644.095-.689.113-1.373.234-2.051.377a45.022,45.022,0,0,0-8.5,2.692A45.277,45.277,0,0,0-958.575,148a45.582,45.582,0,0,0-6.895,5.658,45.736,45.736,0,0,0-5.92,7.3,45.44,45.44,0,0,0-4.126,7.907,45.07,45.07,0,0,0-2.389,8,45.351,45.351,0,0,0-.877,8.878,45.421,45.421,0,0,0,.974,9.359,45.141,45.141,0,0,0,2.693,8.506,45.32,45.32,0,0,0,3.989,7.336,45.818,45.818,0,0,0,5.658,6.894,45.777,45.777,0,0,0,7.3,5.922,45.377,45.377,0,0,0,7.906,4.124,44.841,44.841,0,0,0,8.005,2.391c.643.128,1.294.238,1.947.337.2.035.406.061.607.09.473.067.948.125,1.426.177.212.024.428.049.645.068q.9.087,1.81.136c.809.044,1.621.07,2.442.07a45.36,45.36,0,0,0,9.359-.974,45.027,45.027,0,0,0,8.5-2.691,45.433,45.433,0,0,0,7.337-3.991,45.614,45.614,0,0,0,6.9-5.658,45.753,45.753,0,0,0,5.922-7.307,45.237,45.237,0,0,0,4.124-7.9,44.929,44.929,0,0,0,2.39-8,45.292,45.292,0,0,0,.878-8.879A45.453,45.453,0,0,0-888.941,176.395Zm-36.928-35.412c-.135-.025-.269-.051-.409-.073C-926.137,140.932-926,140.958-925.868,140.983Zm-1.455-.221c-.341-.046-.68-.091-1.022-.128C-928,140.673-927.665,140.715-927.323,140.761Zm-1.866-.219c-.57-.053-1.143-.1-1.72-.128Q-930.044,140.464-929.19,140.543Zm-9.49.124c-.362.042-.72.091-1.082.142C-939.4,140.755-939.042,140.708-938.679,140.666Zm-2.183.307c-.138.024-.277.053-.417.078C-941.139,141.027-941,141-940.862,140.974Zm-.026,89.547c.141.022.278.049.415.071C-940.61,230.57-940.748,230.543-940.889,230.521Zm1.459.223c.341.045.684.087,1.027.127C-938.745,230.83-939.089,230.788-939.43,230.743Zm1.869.215c.572.053,1.147.1,1.724.131Q-936.7,231.04-937.561,230.959Z" transform="translate(996.763 -122.363)" fill="#b2f189"/>
        <path id="Path_5299" data-name="Path 5299" d="M-894.178,177.511a39.935,39.935,0,0,0-2.374-7.5,39.906,39.906,0,0,0-3.519-6.471,40.387,40.387,0,0,0-4.989-6.079,40.249,40.249,0,0,0-6.443-5.223,39.993,39.993,0,0,0-6.974-3.639,39.619,39.619,0,0,0-7.057-2.106c-.568-.113-1.142-.211-1.718-.3-.178-.027-.357-.05-.537-.076-.415-.058-.833-.111-1.254-.156-.19-.021-.38-.043-.57-.061-.528-.05-1.059-.091-1.591-.119l-.186-.013c-.653-.034-1.312-.049-1.974-.049q-1.048,0-2.084.054h0l-.167.012q-.858.049-1.706.135c-.2.02-.4.045-.6.066-.442.051-.883.11-1.319.176-.19.028-.38.053-.567.084-.608.1-1.211.207-1.809.333a39.713,39.713,0,0,0-7.5,2.374,40.032,40.032,0,0,0-6.47,3.519,40.257,40.257,0,0,0-6.08,4.989,40.313,40.313,0,0,0-5.221,6.441,40.011,40.011,0,0,0-3.639,6.974,39.7,39.7,0,0,0-2.106,7.059,40.024,40.024,0,0,0-.773,7.829,40.013,40.013,0,0,0,.859,8.253,39.766,39.766,0,0,0,2.373,7.5,40.007,40.007,0,0,0,3.517,6.47,40.446,40.446,0,0,0,4.991,6.079,40.317,40.317,0,0,0,6.441,5.223,39.983,39.983,0,0,0,6.974,3.637,39.523,39.523,0,0,0,7.059,2.109c.566.113,1.14.211,1.717.3.178.029.358.053.536.078q.625.088,1.256.156c.188.022.378.043.57.061q.792.076,1.6.119c.714.039,1.43.062,2.155.062a39.968,39.968,0,0,0,8.253-.859,39.635,39.635,0,0,0,7.5-2.374,39.965,39.965,0,0,0,6.47-3.519,40.3,40.3,0,0,0,6.081-4.989,40.362,40.362,0,0,0,5.223-6.443,39.947,39.947,0,0,0,3.637-6.972,39.555,39.555,0,0,0,2.107-7.059,39.932,39.932,0,0,0,.774-7.83A40.1,40.1,0,0,0-894.178,177.511Zm-32.566-31.229c-.12-.021-.238-.045-.36-.064C-926.981,146.237-926.863,146.261-926.744,146.282Zm-1.282-.195c-.3-.041-.6-.08-.9-.113C-928.626,146.009-928.328,146.046-928.026,146.087Zm-1.646-.193c-.5-.047-1.008-.086-1.517-.114Q-930.426,145.824-929.672,145.895Zm-8.369.109c-.319.037-.635.08-.954.125C-938.677,146.081-938.36,146.04-938.041,146Zm-1.926.27c-.123.022-.243.047-.368.069C-940.21,146.321-940.09,146.3-939.967,146.274Zm-.022,78.971c.124.02.244.043.365.062C-939.745,225.288-939.865,225.265-939.989,225.245Zm1.286.194c.3.041.6.078.905.114C-938.1,225.517-938.4,225.481-938.7,225.44Zm1.647.192q.757.07,1.521.115Q-936.3,225.7-937.055,225.631Z" transform="translate(996.751 -122.375)" fill="#50c900"/>
        <g id="Group_905" data-name="Group 905" transform="translate(18.869 18.869)">
          <path id="Path_5300" data-name="Path 5300" d="M-895.585,169.7l3.307-1.415a44.458,44.458,0,0,0-3.911-7.193l-2.992,2A41.027,41.027,0,0,1-895.585,169.7Z" transform="translate(977.721 -141.277)" fill="#75d833"/>
          <path id="Path_5301" data-name="Path 5301" d="M-904.291,214.822l2.544,2.543a44.977,44.977,0,0,0,5.806-7.162l-3.012-1.965A41.317,41.317,0,0,1-904.291,214.822Z" transform="translate(977.732 -141.38)" fill="#75d833"/>
          <path id="Path_5302" data-name="Path 5302" d="M-971.349,170.6l-3.34-1.339a44.218,44.218,0,0,0-2.342,7.848l3.53.7A40.326,40.326,0,0,1-971.349,170.6Z" transform="translate(977.89 -141.295)" fill="#75d833"/>
          <path id="Path_5303" data-name="Path 5303" d="M-974.294,185.85h-3.6a44.516,44.516,0,0,0,.955,9.175l3.523-.74A40.866,40.866,0,0,1-974.294,185.85Z" transform="translate(977.892 -141.331)" fill="#75d833"/>
          <path id="Path_5304" data-name="Path 5304" d="M-970.981,201.984l-3.31,1.415a44.521,44.521,0,0,0,3.912,7.193l2.992-2A40.914,40.914,0,0,1-970.981,201.984Z" transform="translate(977.884 -141.366)" fill="#75d833"/>
          <path id="Path_5305" data-name="Path 5305" d="M-962.267,214.836l-2.543,2.543a44.851,44.851,0,0,0,7.162,5.805l1.965-3.013A41.2,41.2,0,0,1-962.267,214.836Z" transform="translate(977.864 -141.394)" fill="#75d833"/>
          <path id="Path_5306" data-name="Path 5306" d="M-933.3,144.832v-3.6a44.5,44.5,0,0,0-9.177.955l.742,3.522A40.886,40.886,0,0,1-933.3,144.832Z" transform="translate(977.815 -141.234)" fill="#75d833"/>
          <path id="Path_5307" data-name="Path 5307" d="M-949.428,148.145l-1.417-3.307a44.3,44.3,0,0,0-7.194,3.911l2,2.991A40.828,40.828,0,0,1-949.428,148.145Z" transform="translate(977.849 -141.242)" fill="#75d833"/>
          <path id="Path_5308" data-name="Path 5308" d="M-962.279,156.859l-2.544-2.543a44.908,44.908,0,0,0-5.807,7.162l3.014,1.965A41.192,41.192,0,0,1-962.279,156.859Z" transform="translate(977.876 -141.262)" fill="#75d833"/>
          <path id="Path_5309" data-name="Path 5309" d="M-893.146,177.4a40.881,40.881,0,0,1,.877,8.434h3.6a44.618,44.618,0,0,0-.955-9.174Z" transform="translate(977.708 -141.311)" fill="#75d833"/>
          <path id="Path_5310" data-name="Path 5310" d="M-904.305,156.847l2.545-2.543a44.962,44.962,0,0,0-7.164-5.807l-1.964,3.013A41.172,41.172,0,0,1-904.305,156.847Z" transform="translate(977.747 -141.25)" fill="#75d833"/>
          <path id="Path_5311" data-name="Path 5311" d="M-895.216,201.082l3.339,1.337a44.082,44.082,0,0,0,2.342-7.847l-3.527-.7A40.678,40.678,0,0,1-895.216,201.082Z" transform="translate(977.712 -141.348)" fill="#75d833"/>
          <path id="Path_5312" data-name="Path 5312" d="M-948.526,223.91l-1.339,3.339a43.883,43.883,0,0,0,7.848,2.344l.7-3.529A40.617,40.617,0,0,1-948.526,223.91Z" transform="translate(977.831 -141.413)" fill="#75d833"/>
          <path id="Path_5313" data-name="Path 5313" d="M-918.044,147.779l1.336-3.341a44.173,44.173,0,0,0-7.846-2.342l-.7,3.529A40.552,40.552,0,0,1-918.044,147.779Z" transform="translate(977.778 -141.236)" fill="#75d833"/>
          <path id="Path_5314" data-name="Path 5314" d="M-933.276,226.859v3.6a44.5,44.5,0,0,0,9.175-.955l-.743-3.522A40.849,40.849,0,0,1-933.276,226.859Z" transform="translate(977.795 -141.418)" fill="#75d833"/>
          <path id="Path_5315" data-name="Path 5315" d="M-917.144,223.541l1.417,3.307a44.42,44.42,0,0,0,7.193-3.911l-2-2.992A40.8,40.8,0,0,1-917.144,223.541Z" transform="translate(977.76 -141.405)" fill="#75d833"/>
        </g>
        <g id="Group_906" data-name="Group 906" transform="translate(46.613 46.68)">
          <path id="Path_5316" data-name="Path 5316" d="M-945.652,200.238V175.591a6.167,6.167,0,0,1-.929.4q-.589.208-1.271.454t-1.289.456q-.606.208-.948.36v-4.323q.456-.229,1.232-.607t1.65-.834a16.024,16.024,0,0,0,1.649-.986,6.97,6.97,0,0,0,1.195-.986h4.55v30.713Z" transform="translate(950.088 -169.107)" fill="#f7faf6"/>
          <path id="Path_5317" data-name="Path 5317" d="M-925.862,200.768a8.515,8.515,0,0,1-4.588-1.138,7.073,7.073,0,0,1-2.73-3.129,10.973,10.973,0,0,1-.91-4.606V178.131a11.868,11.868,0,0,1,.872-4.721,6.807,6.807,0,0,1,2.692-3.166,8.673,8.673,0,0,1,4.664-1.139,8.5,8.5,0,0,1,4.607,1.139,6.85,6.85,0,0,1,2.673,3.166,11.889,11.889,0,0,1,.872,4.721V191.9a10.973,10.973,0,0,1-.91,4.606,7.072,7.072,0,0,1-2.73,3.129A8.361,8.361,0,0,1-925.862,200.768Zm0-5.158a1.682,1.682,0,0,0,1.479-.644,3.716,3.716,0,0,0,.607-1.536,9.9,9.9,0,0,0,.151-1.649V178.245a12.206,12.206,0,0,0-.133-1.744,3.684,3.684,0,0,0-.588-1.574,1.707,1.707,0,0,0-1.517-.664,1.757,1.757,0,0,0-1.536.664A3.536,3.536,0,0,0-928,176.5a12.032,12.032,0,0,0-.133,1.744v13.537a9.9,9.9,0,0,0,.151,1.649,3.435,3.435,0,0,0,.645,1.536A1.742,1.742,0,0,0-925.862,195.61Z" transform="translate(950.053 -169.106)" fill="#f7faf6"/>
        </g>
      </g>
    </g>
  </g>
</svg>
