<svg xmlns="http://www.w3.org/2000/svg" xmlns:xlink="http://www.w3.org/1999/xlink" width="147.657" height="147.657" viewBox="0 0 147.657 147.657">
  <defs>
    <filter id="Ellipse_94" x="0" y="0" width="147.657" height="147.657" filterUnits="userSpaceOnUse">
      <feOffset dy="4" input="SourceAlpha"/>
      <feGaussianBlur stdDeviation="3.5" result="blur"/>
      <feFlood flood-opacity="0.388"/>
      <feComposite operator="in" in2="blur"/>
      <feComposite in="SourceGraphic"/>
    </filter>
    <linearGradient id="linear-gradient" x1="46.766" y1="15.688" x2="46.922" y2="15.688" gradientUnits="objectBoundingBox">
      <stop offset="0" stop-color="#a9a5a6"/>
      <stop offset="0.264" stop-color="#c8c6c6"/>
      <stop offset="0.566" stop-color="#e6e5e5"/>
      <stop offset="0.822" stop-color="#f8f8f8"/>
      <stop offset="1" stop-color="#fff"/>
    </linearGradient>
    <linearGradient id="linear-gradient-2" x1="26.876" y1="16.499" x2="26.948" y2="16.499" xlink:href="#linear-gradient"/>
    <linearGradient id="linear-gradient-3" x1="19.476" y1="40.606" x2="19.529" y2="40.606" xlink:href="#linear-gradient"/>
    <linearGradient id="linear-gradient-4" x1="58.011" y1="12.579" x2="58.167" y2="12.579" xlink:href="#linear-gradient"/>
    <linearGradient id="linear-gradient-5" x1="19.126" y1="29.105" x2="19.179" y2="29.105" xlink:href="#linear-gradient"/>
    <linearGradient id="linear-gradient-6" x1="25.474" y1="17.255" x2="25.546" y2="17.255" xlink:href="#linear-gradient"/>
  </defs>
  <g id="Group_943" data-name="Group 943" transform="translate(-414.936 -715.759)">
    <g transform="matrix(1, 0, 0, 1, 414.94, 715.76)" filter="url(#Ellipse_94)">
      <ellipse id="Ellipse_94-2" data-name="Ellipse 94" cx="63.329" cy="63.329" rx="63.329" ry="63.329" transform="translate(10.5 6.5)" fill="#5aaf21"/>
    </g>
    <g id="Group_934" data-name="Group 934" transform="translate(425.436 722.259)">
      <ellipse id="Ellipse_63" data-name="Ellipse 63" cx="63.388" cy="63.388" rx="63.388" ry="63.388" transform="translate(0 0)" fill="#631e97"/>
      <g id="Group_894" data-name="Group 894" transform="translate(0)">
        <path id="Path_5130" data-name="Path 5130" d="M-434.552,175.752a48.236,48.236,0,0,0-2.875-9.082,48.44,48.44,0,0,0-4.261-7.834,48.825,48.825,0,0,0-6.041-7.361,48.862,48.862,0,0,0-7.8-6.324,48.448,48.448,0,0,0-8.443-4.4,47.822,47.822,0,0,0-8.545-2.551c-.687-.138-1.381-.255-2.081-.362-.213-.035-.43-.063-.646-.094-.505-.07-1.012-.135-1.52-.189-.231-.026-.46-.051-.693-.074-.638-.059-1.28-.11-1.927-.145l-.225-.014q-1.187-.061-2.39-.06c-.845,0-1.687.021-2.521.066h0l-.2.014c-.691.039-1.379.1-2.062.164-.245.023-.484.053-.727.08q-.8.094-1.6.211c-.231.035-.46.066-.688.1-.736.122-1.464.251-2.188.4a47.952,47.952,0,0,0-9.08,2.875,48.528,48.528,0,0,0-7.836,4.26,48.929,48.929,0,0,0-7.359,6.042,48.707,48.707,0,0,0-6.324,7.8,48.359,48.359,0,0,0-4.4,8.445,47.806,47.806,0,0,0-2.552,8.546,48.428,48.428,0,0,0-.939,9.479,48.351,48.351,0,0,0,1.043,9.993,48.107,48.107,0,0,0,2.874,9.082,48.349,48.349,0,0,0,4.259,7.834,48.791,48.791,0,0,0,6.044,7.361,48.915,48.915,0,0,0,7.8,6.324,48.4,48.4,0,0,0,8.443,4.4,48.025,48.025,0,0,0,8.547,2.551c.688.137,1.382.255,2.082.362.214.035.431.063.647.094q.757.1,1.52.189c.23.026.46.051.69.073q.961.09,1.931.146c.865.047,1.734.074,2.609.074a48.48,48.48,0,0,0,9.992-1.041,48.074,48.074,0,0,0,9.084-2.874,48.764,48.764,0,0,0,7.834-4.261,49.036,49.036,0,0,0,7.361-6.042,48.894,48.894,0,0,0,6.324-7.8,48.412,48.412,0,0,0,4.4-8.443,47.984,47.984,0,0,0,2.553-8.546,48.665,48.665,0,0,0,.937-9.481A48.5,48.5,0,0,0-434.552,175.752Zm-39.431-37.813c-.145-.025-.289-.054-.435-.076C-474.271,137.888-474.127,137.915-473.983,137.939Zm-1.554-.237q-.543-.073-1.091-.135Q-476.079,137.629-475.537,137.7Zm-1.992-.23q-.914-.088-1.838-.139Q-478.443,137.383-477.528,137.473Zm-7.219-.133c-.658.037-1.315.092-1.968.156Q-485.736,137.4-484.748,137.34Zm-2.915.261c-.386.046-.77.1-1.155.152C-488.432,137.7-488.048,137.647-487.662,137.6Zm-2.331.329c-.151.025-.3.056-.447.082C-490.29,137.986-490.144,137.955-489.993,137.931Zm-.028,95.618c.149.025.3.055.443.078C-489.724,233.6-489.872,233.575-490.021,233.549Zm1.558.237c.364.049.73.1,1.1.137C-487.733,233.882-488.1,233.835-488.464,233.786Zm1.994.232q.918.085,1.844.139C-485.244,234.121-485.858,234.076-486.47,234.017Z" transform="translate(545.387 -122.356)" fill="#c80e2d"/>
        <path id="Path_5131" data-name="Path 5131" d="M-529.12,206.017a50.835,50.835,0,0,1-3.028-9.6q-.432-2.064-.693-4.187l-12.086,1.517q.325,2.622.86,5.18a62.754,62.754,0,0,0,3.749,11.879c.3.7.621,1.391.948,2.08l11.017-5.194C-528.614,207.139-528.876,206.584-529.12,206.017Z" transform="translate(545.418 -122.476)" fill="#f7faf6"/>
        <path id="Path_5132" data-name="Path 5132" d="M-428.809,220.665-439,213.986a51.345,51.345,0,0,1-6.617,8.137,51.286,51.286,0,0,1-4.223,3.765l7.608,9.508A64.185,64.185,0,0,0-437,230.736,63.739,63.739,0,0,0-428.809,220.665Z" transform="translate(545.211 -122.523)" fill="#f7faf6"/>
        <path id="Path_5133" data-name="Path 5133" d="M-501.01,233.493a50.757,50.757,0,0,1-6.735-3.3l-6.133,10.524a63.126,63.126,0,0,0,8.337,4.081,62.877,62.877,0,0,0,10.247,3.12l2.563-11.915A50.926,50.926,0,0,1-501.01,233.493Z" transform="translate(545.351 -122.558)" fill="#f7faf6"/>
        <path id="Path_5134" data-name="Path 5134" d="M-434.7,165.639a50.533,50.533,0,0,1,3.029,9.6q.431,2.064.695,4.187l12.087-1.517c-.219-1.748-.5-3.477-.861-5.18a62.81,62.81,0,0,0-3.749-11.878c-.3-.7-.624-1.392-.949-2.079l-11.018,5.192C-435.207,164.516-434.945,165.072-434.7,165.639Z" transform="translate(545.18 -122.403)" fill="#f7faf6"/>
        <path id="Path_5135" data-name="Path 5135" d="M-462.822,138.168a51.166,51.166,0,0,1,6.733,3.3l6.134-10.524a62.973,62.973,0,0,0-8.338-4.081,62.787,62.787,0,0,0-10.245-3.122l-2.565,11.918A50.773,50.773,0,0,1-462.822,138.168Z" transform="translate(545.258 -122.327)" fill="#f7faf6"/>
        <path id="Path_5136" data-name="Path 5136" d="M-419.133,177.826l-12.087,1.517v.006q-.262-2.123-.694-4.193a50.543,50.543,0,0,0-3.03-9.6c-.24-.567-.5-1.125-.767-1.681v0l11.018-5.192a63.34,63.34,0,0,0-4.615-8.172,63.61,63.61,0,0,0-7.9-9.627,63.682,63.682,0,0,0-10.2-8.277q-1.333-.871-2.711-1.674l-6.134,10.524,0,0a50.983,50.983,0,0,0-6.735-3.3,50.792,50.792,0,0,0-8.281-2.512l2.565-11.918c-.312-.066-.624-.134-.936-.2a63.659,63.659,0,0,0-12.4-1.214,63.672,63.672,0,0,0-13.065,1.351,62.725,62.725,0,0,0-11.879,3.749,62.983,62.983,0,0,0-10.253,5.565c-1.517,1.013-2.977,2.1-4.4,3.239l7.609,9.508a51.909,51.909,0,0,0-4.224,3.765,51.409,51.409,0,0,0-6.686,8.24l.07-.1-10.187-6.679-.085.129a63.142,63.142,0,0,0-5.755,11.047,62.94,62.94,0,0,0-3.32,11.183,63.766,63.766,0,0,0-1.213,12.4,63.847,63.847,0,0,0,.491,7.887l12.086-1.517,0-.011q.262,2.125.7,4.2a50.81,50.81,0,0,0,3.028,9.6c.243.567.505,1.123.766,1.678l-11.017,5.194a63.288,63.288,0,0,0,4.615,8.171,63.819,63.819,0,0,0,7.9,9.628,63.8,63.8,0,0,0,10.2,8.276q1.331.871,2.709,1.674l6.132-10.524v0a50.549,50.549,0,0,0,6.735,3.3,50.932,50.932,0,0,0,9.033,2.682c-.253-.051-.5-.116-.754-.168l-2.563,11.915c.312.068.623.137.936.2a63.645,63.645,0,0,0,12.395,1.216,63.651,63.651,0,0,0,13.065-1.351A62.89,62.89,0,0,0-457.086,244a63.087,63.087,0,0,0,10.251-5.564c1.516-1.016,2.978-2.1,4.4-3.24l-7.608-9.508a51.244,51.244,0,0,0,4.222-3.765,51.335,51.335,0,0,0,6.617-8.137l10.189,6.68.086-.129a63.2,63.2,0,0,0,5.756-11.049,62.906,62.906,0,0,0,3.317-11.181,63.656,63.656,0,0,0,1.216-12.4A64.058,64.058,0,0,0-419.133,177.826ZM-436.4,162.479c-.091-.175-.179-.35-.271-.526C-436.58,162.128-436.491,162.3-436.4,162.479Zm-1.912-3.431c-.364-.6-.737-1.189-1.125-1.768C-439.049,157.858-438.676,158.448-438.312,159.047Zm1.01,1.738q-.247-.441-.5-.877C-437.636,160.2-437.467,160.491-437.3,160.785Zm-73.164-17.667c-.618.413-1.224.846-1.822,1.284C-511.69,143.963-511.084,143.532-510.466,143.119Zm-22.56,47.254.021.237Zm-.19-3.145c0,.125.009.25.015.376C-533.208,187.477-533.214,187.353-533.217,187.228Zm.07,1.548c.008.117.015.233.023.352C-533.132,189.009-533.139,188.892-533.147,188.775Zm5.486,20.171c.089.175.18.352.27.526C-527.481,209.3-527.572,209.121-527.661,208.947Zm1.91,3.43c.364.6.735,1.189,1.126,1.77C-525.016,213.566-525.387,212.975-525.751,212.376Zm-1.012-1.738q.249.445.509.883C-526.425,211.229-526.6,210.934-526.763,210.638Zm73.165,17.669c.619-.415,1.224-.845,1.827-1.286Q-452.669,227.683-453.6,228.306Zm8.839-18.29a44.972,44.972,0,0,1-5.805,7.162,44.911,44.911,0,0,1-6.76,5.546,44.5,44.5,0,0,1-7.193,3.911,44.117,44.117,0,0,1-8.339,2.641,44.49,44.49,0,0,1-9.176.955,44.593,44.593,0,0,1-8.7-.86,43.9,43.9,0,0,1-7.849-2.344,44.336,44.336,0,0,1-7.75-4.044,44.848,44.848,0,0,1-7.163-5.805,44.774,44.774,0,0,1-5.548-6.759,44.48,44.48,0,0,1-3.913-7.193,44.282,44.282,0,0,1-2.638-8.339,44.465,44.465,0,0,1-.955-9.175,44.506,44.506,0,0,1,.859-8.7,44.17,44.17,0,0,1,2.343-7.848,44.618,44.618,0,0,1,4.044-7.751,44.87,44.87,0,0,1,5.807-7.162,44.9,44.9,0,0,1,6.757-5.546,44.269,44.269,0,0,1,7.193-3.911,44.111,44.111,0,0,1,8.339-2.641,44.492,44.492,0,0,1,9.175-.955,44.469,44.469,0,0,1,8.706.86,44.176,44.176,0,0,1,7.846,2.342,44.388,44.388,0,0,1,7.752,4.044,44.968,44.968,0,0,1,7.163,5.807,44.771,44.771,0,0,1,5.546,6.759,44.43,44.43,0,0,1,3.912,7.193,44.281,44.281,0,0,1,2.641,8.339,44.609,44.609,0,0,1,.955,9.174,44.509,44.509,0,0,1-.862,8.705,44.194,44.194,0,0,1-2.342,7.847A44.445,44.445,0,0,1-444.759,210.016Zm13.7-29.191.02.213Zm.119,1.484c.008.111.016.222.022.332C-430.922,182.531-430.93,182.42-430.938,182.309Zm.079,1.52c0,.123.009.243.013.366C-430.85,184.073-430.857,183.952-430.859,183.829Z" transform="translate(545.419 -122.324)" fill="#631e97"/>
        <path id="Path_5137" data-name="Path 5137" d="M-518.219,149.531A51.892,51.892,0,0,1-514,145.766l-7.609-9.508a63.853,63.853,0,0,0-5.228,4.662,63.662,63.662,0,0,0-8.191,10.069l10.187,6.68A51.428,51.428,0,0,1-518.219,149.531Z" transform="translate(545.396 -122.354)" fill="#f7faf6"/>
        <path id="Path_5138" data-name="Path 5138" d="M-532.569,193.93c.019.136.035.274.058.411C-532.534,194.2-532.55,194.066-532.569,193.93Z" transform="translate(545.391 -122.479)" fill="#c80e2d"/>
        <path id="Path_5139" data-name="Path 5139" d="M-445.605,222.123a51.366,51.366,0,0,0,6.617-8.137A51.366,51.366,0,0,1-445.605,222.123Z" transform="translate(545.202 -122.523)" fill="#c80e2d"/>
        <path id="Path_5140" data-name="Path 5140" d="M-496.876,234.94q2.052.624,4.176,1.076Q-494.821,235.562-496.876,234.94Z" transform="translate(545.314 -122.568)" fill="#c80e2d"/>
        <path id="Path_5141" data-name="Path 5141" d="M-498.917,234.273c.552.2,1.111.373,1.672.548C-497.806,234.646-498.365,234.467-498.917,234.273Z" transform="translate(545.318 -122.567)" fill="#c80e2d"/>
        <path id="Path_5142" data-name="Path 5142" d="M-431.276,177.357l.029.2Z" transform="translate(545.171 -122.443)" fill="#c80e2d"/>
        <path id="Path_5143" data-name="Path 5143" d="M-521.711,153.467a51.351,51.351,0,0,0-3.091,4.223A51.7,51.7,0,0,1-521.711,153.467Z" transform="translate(545.374 -122.392)" fill="#f8faf8"/>
        <path id="Path_5144" data-name="Path 5144" d="M-520,151.473c-.539.6-1.057,1.208-1.567,1.828C-521.057,152.681-520.539,152.069-520,151.473Z" transform="translate(545.367 -122.387)" fill="#f8faf8"/>
        <path id="Path_5145" data-name="Path 5145" d="M-538.535,212.5c-.321-.679-.639-1.358-.935-2.049a62.038,62.038,0,0,1-3.7-11.706q-.528-2.518-.847-5.1l-.914.115q.325,2.622.86,5.18a62.752,62.752,0,0,0,3.749,11.879c.3.7.621,1.391.948,2.08Z" transform="translate(545.418 -122.479)" fill="url(#linear-gradient)"/>
        <path id="Path_5146" data-name="Path 5146" d="M-437.64,230.1a62.158,62.158,0,0,1-5.15,4.594l.577.72a64.174,64.174,0,0,0,5.227-4.661,63.725,63.725,0,0,0,8.193-10.07l-.772-.507A62.615,62.615,0,0,1-437.64,230.1Z" transform="translate(545.196 -122.536)" fill="url(#linear-gradient-2)"/>
        <path id="Path_5147" data-name="Path 5147" d="M-505.2,243.966a62.2,62.2,0,0,1-8.215-4.021l-.465.8a63.126,63.126,0,0,0,8.337,4.081,62.864,62.864,0,0,0,10.247,3.12l.194-.9A62.25,62.25,0,0,1-505.2,243.966Z" transform="translate(545.351 -122.579)" fill="url(#linear-gradient-3)"/>
        <path id="Path_5148" data-name="Path 5148" d="M-424.33,161.21a61.921,61.921,0,0,1,3.694,11.706q.528,2.518.848,5.1l.916-.116c-.22-1.748-.5-3.477-.861-5.18a62.766,62.766,0,0,0-3.749-11.878c-.3-.7-.623-1.392-.949-2.079l-.834.393C-424.943,159.84-424.625,160.519-424.33,161.21Z" transform="translate(545.158 -122.403)" fill="url(#linear-gradient-4)"/>
        <path id="Path_5149" data-name="Path 5149" d="M-458.63,127.716a62.506,62.506,0,0,1,8.216,4.022l.464-.8a62.984,62.984,0,0,0-8.338-4.081,62.789,62.789,0,0,0-10.246-3.122l-.194.9A61.941,61.941,0,0,1-458.63,127.716Z" transform="translate(545.252 -122.327)" fill="url(#linear-gradient-5)"/>
        <path id="Path_5150" data-name="Path 5150" d="M-544.014,193.547a63.085,63.085,0,0,1-.483-7.772,62.591,62.591,0,0,1,1.2-12.214,62,62,0,0,1,3.268-11.02,62.492,62.492,0,0,1,5.672-10.887l.086-.127-.772-.5-.085.129a63.141,63.141,0,0,0-5.755,11.047,62.938,62.938,0,0,0-3.32,11.183,63.766,63.766,0,0,0-1.213,12.4,63.845,63.845,0,0,0,.491,7.887Z" transform="translate(545.419 -122.386)" fill="#822ecc"/>
        <path id="Path_5151" data-name="Path 5151" d="M-513.469,239.885q-1.357-.792-2.671-1.648a62.84,62.84,0,0,1-10.048-8.158,62.731,62.731,0,0,1-7.788-9.487,62.406,62.406,0,0,1-4.547-8.052l-.835.394a63.277,63.277,0,0,0,4.615,8.171,63.787,63.787,0,0,0,7.9,9.628,63.789,63.789,0,0,0,10.2,8.276q1.331.871,2.709,1.674Z" transform="translate(545.406 -122.52)" fill="#822ecc"/>
        <path id="Path_5152" data-name="Path 5152" d="M-442.9,234.721c-1.4,1.121-2.84,2.192-4.335,3.192a62.216,62.216,0,0,1-10.1,5.484,61.914,61.914,0,0,1-11.7,3.7,62.855,62.855,0,0,1-12.877,1.331,62.773,62.773,0,0,1-12.215-1.2c-.308-.061-.614-.129-.922-.193l-.194.9c.312.068.623.137.936.2a63.639,63.639,0,0,0,12.4,1.216,63.661,63.661,0,0,0,13.066-1.351,62.892,62.892,0,0,0,11.88-3.749,63.091,63.091,0,0,0,10.252-5.564c1.516-1.016,2.977-2.1,4.4-3.24Z" transform="translate(545.31 -122.568)" fill="#4a117c"/>
        <path id="Path_5153" data-name="Path 5153" d="M-418.881,177.947l-.916.116h0a62.791,62.791,0,0,1,.485,7.77,62.745,62.745,0,0,1-1.2,12.215,61.792,61.792,0,0,1-3.271,11.019,62.049,62.049,0,0,1-5.672,10.886l-.084.127.772.507.086-.129a63.237,63.237,0,0,0,5.755-11.049,62.909,62.909,0,0,0,3.317-11.181,63.637,63.637,0,0,0,1.216-12.4A64.08,64.08,0,0,0-418.881,177.947Z" transform="translate(545.168 -122.445)" fill="#4a117c"/>
        <path id="Path_5154" data-name="Path 5154" d="M-450.374,131.754q1.356.792,2.67,1.648a62.837,62.837,0,0,1,10.05,8.158,62.78,62.78,0,0,1,7.786,9.487,62.089,62.089,0,0,1,4.548,8.053l.834-.393a63.374,63.374,0,0,0-4.615-8.172,63.594,63.594,0,0,0-7.9-9.627,63.7,63.7,0,0,0-10.2-8.277q-1.334-.871-2.711-1.674Z" transform="translate(545.213 -122.343)" fill="#822ecc"/>
        <path id="Path_5155" data-name="Path 5155" d="M-521,136.948c1.4-1.121,2.842-2.194,4.335-3.192a62.207,62.207,0,0,1,10.1-5.484,61.977,61.977,0,0,1,11.7-3.695,62.844,62.844,0,0,1,12.876-1.331,62.916,62.916,0,0,1,12.216,1.2c.307.063.613.129.921.2l.195-.9c-.312-.066-.624-.134-.936-.2a63.653,63.653,0,0,0-12.4-1.214,63.676,63.676,0,0,0-13.065,1.351,62.739,62.739,0,0,0-11.879,3.749,62.983,62.983,0,0,0-10.253,5.565c-1.517,1.013-2.978,2.1-4.4,3.239Z" transform="translate(545.367 -122.324)" fill="#822ecc"/>
        <path id="Path_5156" data-name="Path 5156" d="M-526.178,141.572a62.684,62.684,0,0,1,5.151-4.594l-.577-.72a63.853,63.853,0,0,0-5.228,4.662,63.662,63.662,0,0,0-8.191,10.069l.772.505A62.685,62.685,0,0,1-526.178,141.572Z" transform="translate(545.396 -122.354)" fill="url(#linear-gradient-6)"/>
        <path id="Path_5157" data-name="Path 5157" d="M-437.558,176.395a45.265,45.265,0,0,0-2.692-8.507,45.275,45.275,0,0,0-3.991-7.337,45.544,45.544,0,0,0-5.658-6.892,45.565,45.565,0,0,0-7.305-5.923,45.349,45.349,0,0,0-7.908-4.126,44.926,44.926,0,0,0-8-2.389c-.645-.128-1.3-.239-1.948-.34-.2-.031-.405-.058-.609-.087-.47-.066-.945-.126-1.422-.177-.217-.024-.432-.048-.646-.068-.6-.058-1.2-.1-1.806-.135l-.209-.016q-1.111-.057-2.239-.055-1.187,0-2.362.062h0l-.19.013q-.971.057-1.934.153c-.227.022-.453.051-.681.076q-.753.085-1.5.2c-.215.03-.431.059-.644.095-.689.113-1.373.234-2.051.377a45.007,45.007,0,0,0-8.5,2.692A45.271,45.271,0,0,0-507.192,148a45.566,45.566,0,0,0-6.9,5.658,45.708,45.708,0,0,0-5.92,7.3,45.323,45.323,0,0,0-4.126,7.907,45,45,0,0,0-2.388,8,45.379,45.379,0,0,0-.877,8.878,45.346,45.346,0,0,0,.974,9.359,45.069,45.069,0,0,0,2.692,8.506,45.365,45.365,0,0,0,3.988,7.336,45.875,45.875,0,0,0,5.659,6.894,45.764,45.764,0,0,0,7.3,5.922,45.368,45.368,0,0,0,7.907,4.124,44.825,44.825,0,0,0,8,2.391c.643.128,1.294.238,1.947.337.2.035.406.061.608.09.473.067.948.125,1.426.177.212.024.428.049.644.068q.9.087,1.81.136c.809.044,1.622.07,2.442.07a45.361,45.361,0,0,0,9.36-.974,45.08,45.08,0,0,0,8.5-2.691,45.459,45.459,0,0,0,7.337-3.991,45.58,45.58,0,0,0,6.894-5.658,45.753,45.753,0,0,0,5.923-7.307,45.294,45.294,0,0,0,4.124-7.9,44.94,44.94,0,0,0,2.39-8,45.292,45.292,0,0,0,.878-8.879A45.529,45.529,0,0,0-437.558,176.395Zm-36.928-35.412c-.135-.025-.27-.051-.409-.073C-474.756,140.932-474.621,140.958-474.485,140.983Zm-1.455-.221c-.341-.046-.68-.091-1.023-.128C-476.621,140.673-476.281,140.715-475.94,140.761Zm-1.867-.219c-.571-.053-1.142-.1-1.719-.128C-478.95,140.448-478.378,140.49-477.807,140.543Zm-9.489.124c-.362.042-.72.091-1.082.142C-488.017,140.755-487.659,140.708-487.3,140.666Zm-2.183.307c-.139.024-.276.053-.417.078C-489.756,141.027-489.619,141-489.48,140.974Zm-.026,89.547c.141.022.278.049.415.071C-489.228,230.57-489.365,230.543-489.506,230.521Zm1.459.223c.341.045.685.087,1.027.127C-487.362,230.83-487.706,230.788-488.047,230.743Zm1.869.215c.572.053,1.147.1,1.724.131Q-485.32,231.04-486.178,230.959Z" transform="translate(545.38 -122.363)" fill="#822ecc"/>
        <path id="Path_5158" data-name="Path 5158" d="M-442.794,177.511a39.891,39.891,0,0,0-2.374-7.5,39.983,39.983,0,0,0-3.52-6.471,40.356,40.356,0,0,0-4.989-6.079,40.233,40.233,0,0,0-6.443-5.223,40,40,0,0,0-6.974-3.639,39.655,39.655,0,0,0-7.057-2.106c-.569-.113-1.142-.211-1.719-.3-.177-.027-.356-.05-.536-.076-.415-.058-.834-.111-1.255-.156-.19-.021-.379-.043-.569-.061-.528-.05-1.06-.091-1.593-.119l-.185-.013c-.652-.034-1.312-.049-1.975-.049q-1.046,0-2.083.054h0l-.167.012q-.858.049-1.705.135c-.2.02-.4.045-.6.066-.442.051-.883.11-1.319.176-.19.028-.38.053-.568.084-.608.1-1.21.207-1.808.333a39.685,39.685,0,0,0-7.5,2.374,40.005,40.005,0,0,0-6.47,3.519,40.266,40.266,0,0,0-6.081,4.989,40.317,40.317,0,0,0-5.221,6.441,40.012,40.012,0,0,0-3.639,6.974,39.682,39.682,0,0,0-2.106,7.059,40.015,40.015,0,0,0-.773,7.829,39.971,39.971,0,0,0,.859,8.253,39.688,39.688,0,0,0,2.374,7.5,40.007,40.007,0,0,0,3.517,6.47,40.462,40.462,0,0,0,4.991,6.079,40.315,40.315,0,0,0,6.441,5.223,39.986,39.986,0,0,0,6.973,3.637,39.54,39.54,0,0,0,7.06,2.109c.567.113,1.141.211,1.716.3.18.029.359.053.536.078q.625.088,1.257.156c.189.022.378.043.57.061q.792.076,1.6.119c.713.039,1.43.062,2.153.062a39.974,39.974,0,0,0,8.254-.859,39.618,39.618,0,0,0,7.5-2.374,39.916,39.916,0,0,0,6.471-3.519,40.269,40.269,0,0,0,6.081-4.989,40.342,40.342,0,0,0,5.223-6.443,39.939,39.939,0,0,0,3.637-6.972,39.636,39.636,0,0,0,2.107-7.059,39.941,39.941,0,0,0,.774-7.83A40.171,40.171,0,0,0-442.794,177.511Zm-32.566-31.229c-.12-.021-.238-.045-.36-.064C-475.6,146.237-475.48,146.261-475.36,146.282Zm-1.282-.195c-.3-.041-.6-.08-.9-.113C-477.243,146.009-476.944,146.046-476.643,146.087Zm-1.646-.193c-.5-.047-1.008-.086-1.517-.114Q-479.043,145.824-478.289,145.895Zm-8.369.109c-.319.037-.636.08-.954.125C-487.294,146.081-486.977,146.04-486.658,146Zm-1.926.27c-.123.022-.244.047-.368.069C-488.827,146.321-488.707,146.3-488.584,146.274Zm-.022,78.971c.124.02.244.043.365.062C-488.361,225.288-488.482,225.265-488.606,225.245Zm1.286.194c.3.041.6.078.905.114C-486.717,225.517-487.018,225.481-487.32,225.44Zm1.648.192q.757.07,1.521.115Q-484.915,225.7-485.672,225.631Z" transform="translate(545.368 -122.375)" fill="#581b85"/>
        <g id="Group_892" data-name="Group 892" transform="translate(18.869 18.869)">
          <path id="Path_5159" data-name="Path 5159" d="M-444.2,169.7l3.307-1.415a44.449,44.449,0,0,0-3.911-7.193l-2.992,2A41,41,0,0,1-444.2,169.7Z" transform="translate(526.338 -141.277)" fill="#631e97"/>
          <path id="Path_5160" data-name="Path 5160" d="M-452.908,214.822l2.545,2.543a44.988,44.988,0,0,0,5.805-7.162l-3.013-1.965A41.238,41.238,0,0,1-452.908,214.822Z" transform="translate(526.349 -141.38)" fill="#631e97"/>
          <path id="Path_5161" data-name="Path 5161" d="M-519.966,170.6l-3.34-1.339a44.17,44.17,0,0,0-2.343,7.848l3.53.7A40.356,40.356,0,0,1-519.966,170.6Z" transform="translate(526.507 -141.295)" fill="#631e97"/>
          <path id="Path_5162" data-name="Path 5162" d="M-522.911,185.85h-3.6a44.508,44.508,0,0,0,.955,9.175l3.521-.74A40.95,40.95,0,0,1-522.911,185.85Z" transform="translate(526.509 -141.331)" fill="#631e97"/>
          <path id="Path_5163" data-name="Path 5163" d="M-519.6,201.984l-3.31,1.415A44.457,44.457,0,0,0-519,210.592l2.991-2A40.862,40.862,0,0,1-519.6,201.984Z" transform="translate(526.501 -141.366)" fill="#631e97"/>
          <path id="Path_5164" data-name="Path 5164" d="M-510.884,214.836l-2.544,2.543a44.851,44.851,0,0,0,7.162,5.805l1.965-3.013A41.212,41.212,0,0,1-510.884,214.836Z" transform="translate(526.481 -141.394)" fill="#631e97"/>
          <path id="Path_5165" data-name="Path 5165" d="M-481.914,144.832v-3.6a44.485,44.485,0,0,0-9.175.955l.741,3.522A40.883,40.883,0,0,1-481.914,144.832Z" transform="translate(526.432 -141.234)" fill="#631e97"/>
          <path id="Path_5166" data-name="Path 5166" d="M-498.045,148.145l-1.417-3.307a44.26,44.26,0,0,0-7.193,3.911l2,2.991A40.785,40.785,0,0,1-498.045,148.145Z" transform="translate(526.466 -141.242)" fill="#631e97"/>
          <path id="Path_5167" data-name="Path 5167" d="M-510.9,156.859l-2.544-2.543a44.863,44.863,0,0,0-5.807,7.162l3.013,1.965A41.247,41.247,0,0,1-510.9,156.859Z" transform="translate(526.493 -141.262)" fill="#631e97"/>
          <path id="Path_5168" data-name="Path 5168" d="M-441.763,177.4a40.931,40.931,0,0,1,.877,8.434h3.6a44.626,44.626,0,0,0-.955-9.174Z" transform="translate(526.325 -141.311)" fill="#631e97"/>
          <path id="Path_5169" data-name="Path 5169" d="M-452.922,156.847l2.544-2.543a44.97,44.97,0,0,0-7.163-5.807l-1.964,3.013A41.178,41.178,0,0,1-452.922,156.847Z" transform="translate(526.364 -141.25)" fill="#631e97"/>
          <path id="Path_5170" data-name="Path 5170" d="M-443.833,201.082l3.339,1.337a44.234,44.234,0,0,0,2.342-7.847l-3.527-.7A40.708,40.708,0,0,1-443.833,201.082Z" transform="translate(526.33 -141.348)" fill="#631e97"/>
          <path id="Path_5171" data-name="Path 5171" d="M-497.143,223.91l-1.339,3.339a43.909,43.909,0,0,0,7.849,2.344l.7-3.529A40.626,40.626,0,0,1-497.143,223.91Z" transform="translate(526.448 -141.413)" fill="#631e97"/>
          <path id="Path_5172" data-name="Path 5172" d="M-466.662,147.779l1.337-3.341a44.174,44.174,0,0,0-7.846-2.342l-.7,3.529A40.53,40.53,0,0,1-466.662,147.779Z" transform="translate(526.395 -141.236)" fill="#631e97"/>
          <path id="Path_5173" data-name="Path 5173" d="M-481.894,226.859v3.6a44.5,44.5,0,0,0,9.176-.955l-.742-3.522A40.859,40.859,0,0,1-481.894,226.859Z" transform="translate(526.412 -141.418)" fill="#631e97"/>
          <path id="Path_5174" data-name="Path 5174" d="M-465.761,223.541l1.417,3.307a44.5,44.5,0,0,0,7.193-3.911l-2-2.992A40.833,40.833,0,0,1-465.761,223.541Z" transform="translate(526.377 -141.405)" fill="#631e97"/>
        </g>
        <g id="Group_893" data-name="Group 893" transform="translate(36.318 46.68)">
          <path id="Path_5175" data-name="Path 5175" d="M-504.586,200.238V175.591a6.134,6.134,0,0,1-.929.4q-.587.208-1.27.454c-.454.165-.885.317-1.289.456s-.72.259-.948.36v-4.323q.455-.229,1.232-.607t1.649-.834a16.221,16.221,0,0,0,1.65-.986,7,7,0,0,0,1.194-.986h4.55v30.713Z" transform="translate(509.022 -169.107)" fill="#f7faf6"/>
          <path id="Path_5176" data-name="Path 5176" d="M-484.8,200.768a8.514,8.514,0,0,1-4.588-1.138,7.073,7.073,0,0,1-2.73-3.129,10.973,10.973,0,0,1-.91-4.606V178.131a11.859,11.859,0,0,1,.872-4.721,6.809,6.809,0,0,1,2.692-3.166,8.671,8.671,0,0,1,4.664-1.139,8.493,8.493,0,0,1,4.607,1.139,6.85,6.85,0,0,1,2.673,3.166,11.868,11.868,0,0,1,.872,4.721V191.9a10.973,10.973,0,0,1-.91,4.606,7.071,7.071,0,0,1-2.73,3.129A8.361,8.361,0,0,1-484.8,200.768Zm0-5.158a1.682,1.682,0,0,0,1.479-.644,3.681,3.681,0,0,0,.606-1.536,9.815,9.815,0,0,0,.153-1.649V178.245a12.031,12.031,0,0,0-.132-1.744,3.682,3.682,0,0,0-.588-1.574,1.707,1.707,0,0,0-1.517-.664,1.757,1.757,0,0,0-1.536.664,3.526,3.526,0,0,0-.607,1.574,12.049,12.049,0,0,0-.133,1.744v13.537a9.783,9.783,0,0,0,.152,1.649,3.423,3.423,0,0,0,.645,1.536A1.741,1.741,0,0,0-484.8,195.61Z" transform="translate(508.987 -169.106)" fill="#f7faf6"/>
          <path id="Path_5177" data-name="Path 5177" d="M-464.162,200.768a8.518,8.518,0,0,1-4.588-1.138,7.073,7.073,0,0,1-2.73-3.129,10.973,10.973,0,0,1-.91-4.606V178.131a11.861,11.861,0,0,1,.872-4.721,6.8,6.8,0,0,1,2.693-3.166,8.665,8.665,0,0,1,4.663-1.139,8.5,8.5,0,0,1,4.608,1.139,6.852,6.852,0,0,1,2.672,3.166,11.883,11.883,0,0,1,.872,4.721V191.9a10.962,10.962,0,0,1-.91,4.606,7.068,7.068,0,0,1-2.73,3.129A8.363,8.363,0,0,1-464.162,200.768Zm0-5.158a1.682,1.682,0,0,0,1.479-.644,3.689,3.689,0,0,0,.607-1.536,9.929,9.929,0,0,0,.152-1.649V178.245a12.039,12.039,0,0,0-.134-1.744,3.669,3.669,0,0,0-.587-1.574,1.707,1.707,0,0,0-1.517-.664,1.757,1.757,0,0,0-1.536.664,3.542,3.542,0,0,0-.607,1.574,12.066,12.066,0,0,0-.132,1.744v13.537a9.924,9.924,0,0,0,.152,1.649,3.435,3.435,0,0,0,.645,1.536A1.742,1.742,0,0,0-464.162,195.61Z" transform="translate(508.942 -169.106)" fill="#f7faf6"/>
        </g>
      </g>
    </g>
  </g>
</svg>
