<svg xmlns="http://www.w3.org/2000/svg" xmlns:xlink="http://www.w3.org/1999/xlink" width="147.657" height="147.657" viewBox="0 0 147.657 147.657">
  <defs>
    <filter id="Ellipse_98" x="0" y="0" width="147.657" height="147.657" filterUnits="userSpaceOnUse">
      <feOffset dy="4" input="SourceAlpha"/>
      <feGaussianBlur stdDeviation="3.5" result="blur"/>
      <feFlood flood-opacity="0.388"/>
      <feComposite operator="in" in2="blur"/>
      <feComposite in="SourceGraphic"/>
    </filter>
    <linearGradient id="linear-gradient" x1="10.725" y1="14.535" x2="10.881" y2="14.535" gradientUnits="objectBoundingBox">
      <stop offset="0" stop-color="#a9a5a6"/>
      <stop offset="0.264" stop-color="#c8c6c6"/>
      <stop offset="0.566" stop-color="#e6e5e5"/>
      <stop offset="0.822" stop-color="#f8f8f8"/>
      <stop offset="1" stop-color="#fff"/>
    </linearGradient>
    <linearGradient id="linear-gradient-2" x1="3.039" y1="14.64" x2="3.11" y2="14.64" xlink:href="#linear-gradient"/>
    <linearGradient id="linear-gradient-3" x1="4.69" y1="31.643" x2="4.743" y2="31.643" xlink:href="#linear-gradient"/>
    <linearGradient id="linear-gradient-4" x1="3.541" y1="13.093" x2="3.697" y2="13.093" xlink:href="#linear-gradient"/>
    <linearGradient id="linear-gradient-5" x1="1.967" y1="34.215" x2="2.02" y2="34.215" xlink:href="#linear-gradient"/>
    <linearGradient id="linear-gradient-6" x1="13.517" y1="6.509" x2="13.606" y2="6.509" gradientUnits="objectBoundingBox">
      <stop offset="0" stop-color="#fb0065"/>
      <stop offset="0.504" stop-color="#f90063"/>
      <stop offset="0.686" stop-color="#f3025c"/>
      <stop offset="0.816" stop-color="#e80550"/>
      <stop offset="0.921" stop-color="#d9093f"/>
      <stop offset="1" stop-color="#c80e2d"/>
    </linearGradient>
    <linearGradient id="linear-gradient-7" x1="4.717" y1="6.625" x2="4.756" y2="6.625" gradientUnits="objectBoundingBox">
      <stop offset="0" stop-color="#f30058"/>
      <stop offset="0.3" stop-color="#eb0250"/>
      <stop offset="0.756" stop-color="#d6093b"/>
      <stop offset="1" stop-color="#c80e2d"/>
    </linearGradient>
    <linearGradient id="linear-gradient-8" x1="0.159" y1="11.534" x2="0.197" y2="11.534" xlink:href="#linear-gradient-6"/>
    <linearGradient id="linear-gradient-9" x1="2.376" y1="23.904" x2="2.395" y2="23.904" xlink:href="#linear-gradient-6"/>
    <linearGradient id="linear-gradient-10" x1="5.55" y1="18.864" x2="5.622" y2="18.864" xlink:href="#linear-gradient"/>
  </defs>
  <g id="Group_947" data-name="Group 947" transform="translate(-744.723 -715.759)">
    <g transform="matrix(1, 0, 0, 1, 744.72, 715.76)" filter="url(#Ellipse_98)">
      <ellipse id="Ellipse_98-2" data-name="Ellipse 98" cx="63.329" cy="63.329" rx="63.329" ry="63.329" transform="translate(10.5 6.5)" fill="#5aaf21"/>
    </g>
    <g id="Group_936" data-name="Group 936" transform="translate(755.223 722.259)">
      <ellipse id="Ellipse_61" data-name="Ellipse 61" cx="63.388" cy="63.388" rx="63.388" ry="63.388" transform="translate(0 0)" fill="#cc0530"/>
      <g id="Group_886" data-name="Group 886" transform="translate(0)">
        <path id="Path_5033" data-name="Path 5033" d="M-128.567,175.752a48.246,48.246,0,0,0-2.875-9.082,48.439,48.439,0,0,0-4.261-7.834,48.823,48.823,0,0,0-6.041-7.361,48.871,48.871,0,0,0-7.8-6.324,48.451,48.451,0,0,0-8.444-4.4,47.818,47.818,0,0,0-8.545-2.551c-.687-.138-1.382-.255-2.081-.362-.215-.035-.43-.063-.647-.094-.5-.07-1.012-.135-1.521-.189q-.344-.039-.691-.074c-.638-.059-1.28-.11-1.928-.145l-.224-.014q-1.187-.061-2.39-.06c-.845,0-1.687.021-2.521.066h0l-.2.014c-.691.039-1.379.1-2.063.164-.245.023-.484.053-.727.08q-.8.094-1.6.211c-.229.035-.46.066-.687.1-.735.122-1.464.251-2.188.4a47.905,47.905,0,0,0-9.08,2.875,48.579,48.579,0,0,0-7.837,4.26,48.977,48.977,0,0,0-7.359,6.042,48.687,48.687,0,0,0-6.323,7.8,48.359,48.359,0,0,0-4.4,8.445,47.79,47.79,0,0,0-2.551,8.546,48.428,48.428,0,0,0-.94,9.479,48.431,48.431,0,0,0,1.043,9.993,48.093,48.093,0,0,0,2.875,9.082,48.33,48.33,0,0,0,4.259,7.834,48.853,48.853,0,0,0,6.043,7.361,48.968,48.968,0,0,0,7.8,6.324,48.4,48.4,0,0,0,8.443,4.4,48.034,48.034,0,0,0,8.547,2.551c.688.137,1.382.255,2.081.362.214.035.431.063.648.094q.756.1,1.52.189c.23.026.46.051.689.073.642.06,1.284.109,1.932.146.865.047,1.734.074,2.609.074a48.487,48.487,0,0,0,9.992-1.041,48.046,48.046,0,0,0,9.083-2.874,48.732,48.732,0,0,0,7.835-4.261,49.022,49.022,0,0,0,7.361-6.042,48.892,48.892,0,0,0,6.324-7.8,48.4,48.4,0,0,0,4.4-8.443,48.05,48.05,0,0,0,2.553-8.546,48.67,48.67,0,0,0,.937-9.481A48.5,48.5,0,0,0-128.567,175.752ZM-168,137.939c-.144-.025-.288-.054-.434-.076C-168.287,137.888-168.143,137.915-168,137.939Zm-1.553-.237q-.543-.073-1.092-.135Q-170.094,137.629-169.552,137.7Zm-1.992-.23q-.916-.088-1.838-.139Q-172.458,137.383-171.543,137.473Zm-7.219-.133c-.659.037-1.315.092-1.968.156Q-179.751,137.4-178.763,137.34Zm-2.916.261q-.578.069-1.153.152Q-182.255,137.671-181.678,137.6Zm-2.33.329c-.151.025-.3.056-.447.082C-184.306,137.986-184.159,137.955-184.008,137.931Zm-.028,95.618c.149.025.3.055.443.078C-183.74,233.6-183.887,233.575-184.036,233.549Zm1.558.237c.364.049.73.1,1.1.137C-181.748,233.882-182.114,233.835-182.478,233.786Zm1.994.232q.917.085,1.843.139C-179.259,234.121-179.873,234.076-180.485,234.017Z" transform="translate(239.402 -122.356)" fill="#c80e2d"/>
        <path id="Path_5034" data-name="Path 5034" d="M-223.134,206.017a50.822,50.822,0,0,1-3.028-9.6q-.433-2.064-.695-4.187l-12.085,1.517q.325,2.622.859,5.18a62.844,62.844,0,0,0,3.75,11.879c.3.7.622,1.391.947,2.08l11.017-5.194C-222.629,207.139-222.891,206.584-223.134,206.017Z" transform="translate(239.433 -122.476)" fill="#f7faf6"/>
        <path id="Path_5035" data-name="Path 5035" d="M-122.824,220.665l-10.189-6.679a51.367,51.367,0,0,1-6.617,8.137,51.61,51.61,0,0,1-4.223,3.765l7.608,9.508a64.16,64.16,0,0,0,5.227-4.661A63.739,63.739,0,0,0-122.824,220.665Z" transform="translate(239.226 -122.523)" fill="#f7faf6"/>
        <path id="Path_5036" data-name="Path 5036" d="M-195.025,233.493a50.747,50.747,0,0,1-6.735-3.3l-6.133,10.524a63.085,63.085,0,0,0,8.337,4.081,62.867,62.867,0,0,0,10.247,3.12l2.563-11.915A50.921,50.921,0,0,1-195.025,233.493Z" transform="translate(239.366 -122.558)" fill="#f7faf6"/>
        <path id="Path_5037" data-name="Path 5037" d="M-128.72,165.639a50.542,50.542,0,0,1,3.029,9.6q.431,2.064.694,4.187l12.086-1.517q-.328-2.622-.86-5.18a62.788,62.788,0,0,0-3.749-11.878c-.3-.7-.624-1.392-.949-2.079l-11.018,5.192C-129.222,164.516-128.961,165.072-128.72,165.639Z" transform="translate(239.195 -122.403)" fill="#f7faf6"/>
        <path id="Path_5038" data-name="Path 5038" d="M-156.837,138.168a51.168,51.168,0,0,1,6.733,3.3l6.134-10.524a62.976,62.976,0,0,0-8.338-4.081,62.793,62.793,0,0,0-10.246-3.122l-2.564,11.918A50.774,50.774,0,0,1-156.837,138.168Z" transform="translate(239.273 -122.327)" fill="#f7faf6"/>
        <path id="Path_5039" data-name="Path 5039" d="M-113.149,177.826l-12.086,1.517v.006q-.262-2.123-.694-4.193a50.551,50.551,0,0,0-3.029-9.6c-.242-.567-.5-1.125-.767-1.681v0l11.018-5.192a63.587,63.587,0,0,0-4.615-8.172,63.585,63.585,0,0,0-7.9-9.627,63.663,63.663,0,0,0-10.2-8.277q-1.332-.871-2.71-1.674l-6.134,10.524,0,0a50.972,50.972,0,0,0-6.735-3.3,50.785,50.785,0,0,0-8.281-2.512l2.564-11.918c-.312-.066-.624-.134-.936-.2a63.652,63.652,0,0,0-12.4-1.214,63.687,63.687,0,0,0-13.066,1.351,62.742,62.742,0,0,0-11.878,3.749,62.991,62.991,0,0,0-10.253,5.565c-1.517,1.013-2.979,2.1-4.4,3.239l7.608,9.508a51.989,51.989,0,0,0-4.224,3.765,51.363,51.363,0,0,0-6.686,8.24l.07-.1-10.187-6.679-.086.129a63.2,63.2,0,0,0-5.755,11.047,62.94,62.94,0,0,0-3.32,11.183,63.738,63.738,0,0,0-1.213,12.4,63.87,63.87,0,0,0,.491,7.887l12.085-1.517,0-.011q.263,2.125.7,4.2a50.832,50.832,0,0,0,3.029,9.6c.244.567.5,1.123.765,1.678l-11.017,5.194a63.5,63.5,0,0,0,4.615,8.171,63.878,63.878,0,0,0,7.9,9.628,63.782,63.782,0,0,0,10.2,8.276q1.331.871,2.709,1.674l6.133-10.524v0a50.524,50.524,0,0,0,6.735,3.3,50.931,50.931,0,0,0,9.033,2.682c-.253-.051-.5-.116-.754-.168l-2.563,11.915c.311.068.623.137.935.2a63.664,63.664,0,0,0,12.4,1.216,63.673,63.673,0,0,0,13.066-1.351A62.884,62.884,0,0,0-151.1,244a63.07,63.07,0,0,0,10.252-5.564c1.516-1.016,2.978-2.1,4.4-3.24l-7.609-9.508a51.593,51.593,0,0,0,4.223-3.765,51.359,51.359,0,0,0,6.617-8.137l10.189,6.68.086-.129a63.22,63.22,0,0,0,5.756-11.049,62.9,62.9,0,0,0,3.317-11.181,63.647,63.647,0,0,0,1.216-12.4A63.9,63.9,0,0,0-113.149,177.826Zm-17.266-15.348c-.091-.175-.18-.35-.271-.526C-130.595,162.128-130.506,162.3-130.415,162.479Zm-1.912-3.431c-.365-.6-.737-1.189-1.125-1.768C-133.064,157.858-132.692,158.448-132.327,159.047Zm1.009,1.738q-.245-.441-.5-.877C-131.652,160.2-131.482,160.491-131.318,160.785Zm-73.163-17.667c-.618.413-1.223.846-1.822,1.284C-205.7,143.963-205.1,143.532-204.481,143.119Zm-22.56,47.254.021.237Zm-.192-3.145c0,.125.01.25.016.376C-227.223,187.477-227.229,187.353-227.233,187.228Zm.071,1.548c.007.117.015.233.023.352C-227.147,189.009-227.155,188.892-227.162,188.775Zm5.486,20.171c.089.175.179.352.271.526C-221.5,209.3-221.587,209.121-221.676,208.947Zm1.91,3.43c.364.6.735,1.189,1.127,1.77C-219.031,213.566-219.4,212.975-219.766,212.376Zm-1.012-1.738q.248.445.509.883C-220.44,211.229-220.612,210.934-220.778,210.638Zm73.165,17.669c.618-.415,1.224-.845,1.826-1.286C-146.385,227.462-147,227.891-147.613,228.306Zm8.839-18.29a44.99,44.99,0,0,1-5.806,7.162,44.866,44.866,0,0,1-6.758,5.546,44.5,44.5,0,0,1-7.193,3.911,44.115,44.115,0,0,1-8.339,2.641,44.492,44.492,0,0,1-9.176.955,44.6,44.6,0,0,1-8.7-.86,43.9,43.9,0,0,1-7.849-2.344,44.344,44.344,0,0,1-7.75-4.044,44.836,44.836,0,0,1-7.162-5.805,44.86,44.86,0,0,1-5.549-6.759,44.5,44.5,0,0,1-3.911-7.193,44.221,44.221,0,0,1-2.638-8.339,44.49,44.49,0,0,1-.955-9.175,44.525,44.525,0,0,1,.859-8.7,44.155,44.155,0,0,1,2.343-7.848,44.614,44.614,0,0,1,4.044-7.751,44.85,44.85,0,0,1,5.807-7.162,44.82,44.82,0,0,1,6.757-5.546,44.263,44.263,0,0,1,7.193-3.911,44.077,44.077,0,0,1,8.339-2.641,44.5,44.5,0,0,1,9.175-.955,44.463,44.463,0,0,1,8.706.86,44.168,44.168,0,0,1,7.846,2.342,44.385,44.385,0,0,1,7.752,4.044,44.9,44.9,0,0,1,7.162,5.807,44.727,44.727,0,0,1,5.547,6.759,44.453,44.453,0,0,1,3.911,7.193,44.292,44.292,0,0,1,2.64,8.339,44.609,44.609,0,0,1,.955,9.174,44.527,44.527,0,0,1-.861,8.705,44.125,44.125,0,0,1-2.343,7.847A44.383,44.383,0,0,1-138.774,210.016Zm13.7-29.191.02.213Zm.119,1.484c.008.111.016.222.022.332C-124.937,182.531-124.945,182.42-124.953,182.309Zm.078,1.52c0,.123.01.243.014.366C-124.865,184.073-124.871,183.952-124.875,183.829Z" transform="translate(239.434 -122.324)" fill="#cc0530"/>
        <path id="Path_5040" data-name="Path 5040" d="M-212.235,149.531a51.985,51.985,0,0,1,4.224-3.765l-7.608-9.508a63.64,63.64,0,0,0-5.228,4.662,63.673,63.673,0,0,0-8.191,10.069l10.187,6.68A51.416,51.416,0,0,1-212.235,149.531Z" transform="translate(239.411 -122.354)" fill="#f7faf6"/>
        <path id="Path_5041" data-name="Path 5041" d="M-226.585,193.93c.02.136.036.274.059.411C-226.549,194.2-226.565,194.066-226.585,193.93Z" transform="translate(239.406 -122.479)" fill="#c80e2d"/>
        <path id="Path_5042" data-name="Path 5042" d="M-139.62,222.123A51.359,51.359,0,0,0-133,213.986,51.359,51.359,0,0,1-139.62,222.123Z" transform="translate(239.217 -122.523)" fill="#c80e2d"/>
        <path id="Path_5043" data-name="Path 5043" d="M-190.891,234.94q2.052.624,4.175,1.076Q-188.837,235.562-190.891,234.94Z" transform="translate(239.329 -122.568)" fill="#c80e2d"/>
        <path id="Path_5044" data-name="Path 5044" d="M-192.932,234.273c.552.2,1.111.373,1.672.548C-191.821,234.646-192.38,234.467-192.932,234.273Z" transform="translate(239.333 -122.567)" fill="#c80e2d"/>
        <path id="Path_5045" data-name="Path 5045" d="M-125.292,177.357l.03.2Z" transform="translate(239.186 -122.443)" fill="#c80e2d"/>
        <path id="Path_5046" data-name="Path 5046" d="M-215.726,153.467a51.322,51.322,0,0,0-3.091,4.223A51.667,51.667,0,0,1-215.726,153.467Z" transform="translate(239.389 -122.392)" fill="#f8faf8"/>
        <path id="Path_5047" data-name="Path 5047" d="M-214.015,151.473c-.539.6-1.057,1.208-1.568,1.828C-215.072,152.681-214.554,152.069-214.015,151.473Z" transform="translate(239.382 -122.387)" fill="#f8faf8"/>
        <path id="Path_5048" data-name="Path 5048" d="M-232.55,212.5c-.321-.679-.64-1.358-.935-2.049a62.052,62.052,0,0,1-3.7-11.706q-.528-2.518-.847-5.1l-.914.115q.325,2.622.859,5.18a62.842,62.842,0,0,0,3.75,11.879c.3.7.622,1.391.947,2.08Z" transform="translate(239.433 -122.479)" fill="url(#linear-gradient)"/>
        <path id="Path_5049" data-name="Path 5049" d="M-131.655,230.1a62.359,62.359,0,0,1-5.15,4.594l.577.72A64.155,64.155,0,0,0-131,230.749a63.737,63.737,0,0,0,8.193-10.07l-.772-.507A62.62,62.62,0,0,1-131.655,230.1Z" transform="translate(239.211 -122.536)" fill="url(#linear-gradient-2)"/>
        <path id="Path_5050" data-name="Path 5050" d="M-199.213,243.966a62.219,62.219,0,0,1-8.215-4.021l-.465.8a63.085,63.085,0,0,0,8.337,4.081,62.855,62.855,0,0,0,10.247,3.12l.194-.9A62.247,62.247,0,0,1-199.213,243.966Z" transform="translate(239.366 -122.579)" fill="url(#linear-gradient-3)"/>
        <path id="Path_5051" data-name="Path 5051" d="M-118.345,161.21a61.908,61.908,0,0,1,3.694,11.706q.528,2.518.847,5.1l.916-.116q-.328-2.622-.86-5.18a62.786,62.786,0,0,0-3.749-11.878c-.3-.7-.624-1.392-.949-2.079l-.834.393C-118.959,159.84-118.64,160.519-118.345,161.21Z" transform="translate(239.173 -122.403)" fill="url(#linear-gradient-4)"/>
        <path id="Path_5052" data-name="Path 5052" d="M-152.646,127.716a62.461,62.461,0,0,1,8.217,4.022l.464-.8a62.977,62.977,0,0,0-8.338-4.081,62.786,62.786,0,0,0-10.246-3.122l-.195.9A61.938,61.938,0,0,1-152.646,127.716Z" transform="translate(239.268 -122.327)" fill="url(#linear-gradient-5)"/>
        <path id="Path_5053" data-name="Path 5053" d="M-238.029,193.547a63.025,63.025,0,0,1-.483-7.772,62.591,62.591,0,0,1,1.2-12.214,62.02,62.02,0,0,1,3.268-11.02,62.406,62.406,0,0,1,5.672-10.887l.086-.127-.772-.5-.086.129A63.2,63.2,0,0,0-234.9,162.2a62.938,62.938,0,0,0-3.32,11.183,63.738,63.738,0,0,0-1.213,12.4,63.868,63.868,0,0,0,.491,7.887Z" transform="translate(239.434 -122.386)" fill="url(#linear-gradient-6)"/>
        <path id="Path_5054" data-name="Path 5054" d="M-207.483,239.885q-1.359-.792-2.671-1.648a62.831,62.831,0,0,1-10.048-8.158,62.732,62.732,0,0,1-7.788-9.487,62.245,62.245,0,0,1-4.547-8.052l-.836.394a63.517,63.517,0,0,0,4.615,8.171,63.867,63.867,0,0,0,7.9,9.628,63.787,63.787,0,0,0,10.2,8.276q1.331.871,2.709,1.674Z" transform="translate(239.421 -122.52)" fill="url(#linear-gradient-7)"/>
        <path id="Path_5055" data-name="Path 5055" d="M-136.919,234.721c-1.4,1.121-2.84,2.192-4.335,3.192a62.264,62.264,0,0,1-10.1,5.484,61.912,61.912,0,0,1-11.7,3.7,62.861,62.861,0,0,1-12.877,1.331,62.776,62.776,0,0,1-12.215-1.2c-.308-.061-.614-.129-.922-.193l-.194.9c.311.068.623.137.935.2a63.658,63.658,0,0,0,12.4,1.216,63.672,63.672,0,0,0,13.065-1.351,62.891,62.891,0,0,0,11.88-3.749,63.08,63.08,0,0,0,10.252-5.564c1.516-1.016,2.977-2.1,4.4-3.24Z" transform="translate(239.325 -122.568)" fill="#87002a"/>
        <path id="Path_5056" data-name="Path 5056" d="M-112.9,177.947l-.916.116h0a62.619,62.619,0,0,1,.486,7.77,62.75,62.75,0,0,1-1.2,12.215,61.8,61.8,0,0,1-3.271,11.019,62.056,62.056,0,0,1-5.672,10.886l-.084.127.772.507.086-.129a63.224,63.224,0,0,0,5.755-11.049,62.9,62.9,0,0,0,3.317-11.181,63.644,63.644,0,0,0,1.216-12.4A63.889,63.889,0,0,0-112.9,177.947Z" transform="translate(239.182 -122.445)" fill="#87002a"/>
        <path id="Path_5057" data-name="Path 5057" d="M-144.389,131.754q1.356.792,2.67,1.648a62.84,62.84,0,0,1,10.05,8.158,62.835,62.835,0,0,1,7.786,9.487,62.233,62.233,0,0,1,4.548,8.053l.834-.393a63.6,63.6,0,0,0-4.615-8.172,63.585,63.585,0,0,0-7.9-9.627,63.663,63.663,0,0,0-10.2-8.277q-1.332-.871-2.71-1.674Z" transform="translate(239.228 -122.343)" fill="url(#linear-gradient-8)"/>
        <path id="Path_5058" data-name="Path 5058" d="M-215.013,136.948c1.4-1.121,2.841-2.194,4.334-3.192a62.3,62.3,0,0,1,10.1-5.484,62,62,0,0,1,11.706-3.695A62.837,62.837,0,0,1-176,123.246a62.907,62.907,0,0,1,12.215,1.2c.308.063.614.129.922.2l.195-.9c-.312-.066-.624-.134-.936-.2a63.652,63.652,0,0,0-12.4-1.214,63.687,63.687,0,0,0-13.066,1.351,62.742,62.742,0,0,0-11.878,3.749,62.989,62.989,0,0,0-10.253,5.565c-1.517,1.013-2.979,2.1-4.4,3.239Z" transform="translate(239.382 -122.324)" fill="url(#linear-gradient-9)"/>
        <path id="Path_5059" data-name="Path 5059" d="M-220.193,141.572a62.521,62.521,0,0,1,5.151-4.594l-.577-.72a63.64,63.64,0,0,0-5.228,4.662,63.673,63.673,0,0,0-8.191,10.069l.772.505A62.675,62.675,0,0,1-220.193,141.572Z" transform="translate(239.411 -122.354)" fill="url(#linear-gradient-10)"/>
        <path id="Path_5060" data-name="Path 5060" d="M-131.574,176.395a45.187,45.187,0,0,0-2.691-8.507,45.359,45.359,0,0,0-3.991-7.337,45.562,45.562,0,0,0-5.658-6.892,45.578,45.578,0,0,0-7.305-5.923,45.356,45.356,0,0,0-7.908-4.126,44.955,44.955,0,0,0-8-2.389c-.646-.128-1.3-.239-1.949-.34-.2-.031-.405-.058-.609-.087-.47-.066-.946-.126-1.423-.177-.216-.024-.431-.048-.646-.068-.6-.058-1.2-.1-1.805-.135l-.211-.016c-.739-.038-1.487-.055-2.238-.055q-1.187,0-2.362.062h0l-.19.013q-.971.057-1.934.153c-.227.022-.453.051-.68.076q-.753.085-1.5.2c-.215.03-.431.059-.644.095-.69.113-1.373.234-2.051.377a45.008,45.008,0,0,0-8.5,2.692A45.25,45.25,0,0,0-201.207,148a45.56,45.56,0,0,0-6.9,5.658,45.708,45.708,0,0,0-5.92,7.3,45.235,45.235,0,0,0-4.126,7.907,45.014,45.014,0,0,0-2.389,8,45.375,45.375,0,0,0-.878,8.878,45.341,45.341,0,0,0,.975,9.359,45.042,45.042,0,0,0,2.692,8.506,45.322,45.322,0,0,0,3.988,7.336,45.864,45.864,0,0,0,5.66,6.894,45.8,45.8,0,0,0,7.3,5.922,45.41,45.41,0,0,0,7.908,4.124,44.831,44.831,0,0,0,8,2.391c.643.128,1.294.238,1.947.337.2.035.406.061.608.09.473.067.948.125,1.426.177.213.024.428.049.645.068q.9.087,1.81.136c.809.044,1.62.07,2.442.07a45.364,45.364,0,0,0,9.36-.974,45.073,45.073,0,0,0,8.5-2.691,45.446,45.446,0,0,0,7.337-3.991,45.621,45.621,0,0,0,6.894-5.658,45.763,45.763,0,0,0,5.923-7.307,45.3,45.3,0,0,0,4.124-7.9,44.99,44.99,0,0,0,2.39-8,45.357,45.357,0,0,0,.878-8.879A45.462,45.462,0,0,0-131.574,176.395ZM-168.5,140.983c-.137-.025-.27-.051-.409-.073C-168.771,140.932-168.637,140.958-168.5,140.983Zm-1.455-.221c-.341-.046-.68-.091-1.023-.128C-170.635,140.673-170.3,140.715-169.955,140.761Zm-1.867-.219c-.571-.053-1.142-.1-1.719-.128C-172.964,140.448-172.393,140.49-171.822,140.543Zm-9.489.124c-.362.042-.72.091-1.082.142C-182.032,140.755-181.674,140.708-181.311,140.666Zm-2.183.307c-.14.024-.276.053-.418.078C-183.771,141.027-183.634,141-183.495,140.974Zm-.026,89.547c.141.022.277.049.414.071C-183.243,230.57-183.38,230.543-183.52,230.521Zm1.459.223q.512.067,1.027.127Q-181.55,230.81-182.062,230.743Zm1.868.215c.573.053,1.148.1,1.724.131Q-179.335,231.04-180.194,230.959Z" transform="translate(239.395 -122.363)" fill="#fb0065"/>
        <path id="Path_5061" data-name="Path 5061" d="M-136.809,177.511a39.913,39.913,0,0,0-2.374-7.5,39.921,39.921,0,0,0-3.52-6.471,40.268,40.268,0,0,0-4.989-6.079,40.154,40.154,0,0,0-6.443-5.223,39.95,39.95,0,0,0-6.973-3.639,39.659,39.659,0,0,0-7.057-2.106c-.569-.113-1.143-.211-1.719-.3-.177-.027-.356-.05-.536-.076-.415-.058-.834-.111-1.255-.156-.19-.021-.38-.043-.569-.061-.528-.05-1.06-.091-1.593-.119l-.185-.013c-.654-.034-1.312-.049-1.975-.049q-1.046,0-2.083.054h0l-.168.012q-.856.049-1.705.135c-.2.02-.4.045-.6.066-.442.051-.883.11-1.319.176-.19.028-.38.053-.568.084-.608.1-1.211.207-1.808.333a39.683,39.683,0,0,0-7.5,2.374,40.024,40.024,0,0,0-6.47,3.519,40.188,40.188,0,0,0-6.081,4.989,40.322,40.322,0,0,0-5.221,6.441,39.916,39.916,0,0,0-3.639,6.974,39.688,39.688,0,0,0-2.106,7.059,40.02,40.02,0,0,0-.774,7.829,39.963,39.963,0,0,0,.86,8.253,39.705,39.705,0,0,0,2.374,7.5,40.007,40.007,0,0,0,3.517,6.47,40.445,40.445,0,0,0,4.991,6.079,40.321,40.321,0,0,0,6.441,5.223,39.946,39.946,0,0,0,6.973,3.637,39.536,39.536,0,0,0,7.06,2.109c.567.113,1.14.211,1.716.3.18.029.359.053.536.078q.626.088,1.257.156c.189.022.378.043.569.061q.793.076,1.6.119c.713.039,1.43.062,2.153.062a39.975,39.975,0,0,0,8.254-.859,39.612,39.612,0,0,0,7.5-2.374,39.915,39.915,0,0,0,6.471-3.519,40.226,40.226,0,0,0,6.08-4.989,40.415,40.415,0,0,0,5.224-6.443,39.931,39.931,0,0,0,3.636-6.972,39.584,39.584,0,0,0,2.108-7.059,39.951,39.951,0,0,0,.774-7.83A40.171,40.171,0,0,0-136.809,177.511Zm-32.566-31.229c-.12-.021-.237-.045-.36-.064C-169.613,146.237-169.5,146.261-169.376,146.282Zm-1.282-.195c-.3-.041-.6-.08-.9-.113C-171.258,146.009-170.959,146.046-170.658,146.087Zm-1.647-.193c-.5-.047-1.007-.086-1.516-.114Q-173.058,145.824-172.305,145.895Zm-8.368.109c-.32.037-.636.08-.954.125C-181.309,146.081-180.993,146.04-180.673,146Zm-1.926.27c-.123.022-.243.047-.368.069C-182.842,146.321-182.721,146.3-182.6,146.274Zm-.022,78.971c.124.02.244.043.365.062C-182.376,225.288-182.5,225.265-182.621,225.245Zm1.286.194c.3.041.6.078.905.114C-180.732,225.517-181.034,225.481-181.335,225.44Zm1.647.192q.757.07,1.52.115Q-178.929,225.7-179.687,225.631Z" transform="translate(239.383 -122.375)" fill="#bc0031"/>
        <g id="Group_884" data-name="Group 884" transform="translate(18.869 18.869)">
          <path id="Path_5062" data-name="Path 5062" d="M-138.218,169.7l3.308-1.415a44.456,44.456,0,0,0-3.911-7.193l-2.992,2A41.064,41.064,0,0,1-138.218,169.7Z" transform="translate(220.353 -141.277)" fill="#bc0031"/>
          <path id="Path_5063" data-name="Path 5063" d="M-146.923,214.822l2.543,2.543a44.993,44.993,0,0,0,5.806-7.162l-3.013-1.965A41.233,41.233,0,0,1-146.923,214.822Z" transform="translate(220.364 -141.38)" fill="#bc0031"/>
          <path id="Path_5064" data-name="Path 5064" d="M-213.98,170.6l-3.34-1.339a44.165,44.165,0,0,0-2.343,7.848l3.529.7A40.43,40.43,0,0,1-213.98,170.6Z" transform="translate(220.522 -141.295)" fill="#bc0031"/>
          <path id="Path_5065" data-name="Path 5065" d="M-216.927,185.85h-3.6a44.491,44.491,0,0,0,.955,9.175l3.521-.74A40.934,40.934,0,0,1-216.927,185.85Z" transform="translate(220.524 -141.331)" fill="#bc0031"/>
          <path id="Path_5066" data-name="Path 5066" d="M-213.613,201.984l-3.31,1.415a44.5,44.5,0,0,0,3.911,7.193l2.993-2A40.879,40.879,0,0,1-213.613,201.984Z" transform="translate(220.516 -141.366)" fill="#bc0031"/>
          <path id="Path_5067" data-name="Path 5067" d="M-204.9,214.836l-2.543,2.543a44.854,44.854,0,0,0,7.162,5.805l1.965-3.013A41.205,41.205,0,0,1-204.9,214.836Z" transform="translate(220.496 -141.394)" fill="#bc0031"/>
          <path id="Path_5068" data-name="Path 5068" d="M-175.929,144.832v-3.6a44.489,44.489,0,0,0-9.175.955l.741,3.522A40.883,40.883,0,0,1-175.929,144.832Z" transform="translate(220.447 -141.234)" fill="#bc0031"/>
          <path id="Path_5069" data-name="Path 5069" d="M-192.061,148.145l-1.416-3.307a44.264,44.264,0,0,0-7.193,3.911l2,2.991A40.875,40.875,0,0,1-192.061,148.145Z" transform="translate(220.481 -141.242)" fill="#bc0031"/>
          <path id="Path_5070" data-name="Path 5070" d="M-204.911,156.859l-2.544-2.543a44.856,44.856,0,0,0-5.807,7.162l3.012,1.965A41.254,41.254,0,0,1-204.911,156.859Z" transform="translate(220.508 -141.262)" fill="#bc0031"/>
          <path id="Path_5071" data-name="Path 5071" d="M-135.778,177.4a40.933,40.933,0,0,1,.877,8.434h3.6a44.611,44.611,0,0,0-.955-9.174Z" transform="translate(220.34 -141.311)" fill="#bc0031"/>
          <path id="Path_5072" data-name="Path 5072" d="M-146.937,156.847l2.543-2.543a44.91,44.91,0,0,0-7.162-5.807l-1.964,3.013A41.176,41.176,0,0,1-146.937,156.847Z" transform="translate(220.379 -141.25)" fill="#bc0031"/>
          <path id="Path_5073" data-name="Path 5073" d="M-137.848,201.082l3.338,1.337a44.127,44.127,0,0,0,2.343-7.847l-3.527-.7A40.772,40.772,0,0,1-137.848,201.082Z" transform="translate(220.345 -141.348)" fill="#bc0031"/>
          <path id="Path_5074" data-name="Path 5074" d="M-191.158,223.91l-1.339,3.339a43.9,43.9,0,0,0,7.849,2.344l.7-3.529A40.627,40.627,0,0,1-191.158,223.91Z" transform="translate(220.463 -141.413)" fill="#bc0031"/>
          <path id="Path_5075" data-name="Path 5075" d="M-160.677,147.779l1.337-3.341a44.166,44.166,0,0,0-7.846-2.342l-.7,3.529A40.527,40.527,0,0,1-160.677,147.779Z" transform="translate(220.41 -141.236)" fill="#bc0031"/>
          <path id="Path_5076" data-name="Path 5076" d="M-175.909,226.859v3.6a44.5,44.5,0,0,0,9.176-.955l-.743-3.522A40.84,40.84,0,0,1-175.909,226.859Z" transform="translate(220.427 -141.418)" fill="#bc0031"/>
          <path id="Path_5077" data-name="Path 5077" d="M-159.776,223.541l1.417,3.307a44.5,44.5,0,0,0,7.193-3.911l-2-2.992A40.832,40.832,0,0,1-159.776,223.541Z" transform="translate(220.392 -141.405)" fill="#bc0031"/>
        </g>
        <g id="Group_885" data-name="Group 885" transform="translate(31.925 51.597)">
          <path id="Path_5078" data-name="Path 5078" d="M-203.7,200.249V179.494a5.318,5.318,0,0,1-.783.335q-.5.175-1.07.383t-1.086.383c-.34.117-.607.219-.8.3v-3.64q.382-.192,1.038-.511t1.389-.7a13.837,13.837,0,0,0,1.388-.83,5.912,5.912,0,0,0,1.007-.83h3.831v25.864Z" transform="translate(207.44 -174.034)" fill="#f7faf6"/>
          <path id="Path_5079" data-name="Path 5079" d="M-187.039,200.695a7.164,7.164,0,0,1-3.865-.959,5.952,5.952,0,0,1-2.3-2.633,9.261,9.261,0,0,1-.766-3.88V181.632a9.971,9.971,0,0,1,.735-3.975,5.735,5.735,0,0,1,2.266-2.666,7.3,7.3,0,0,1,3.928-.958,7.141,7.141,0,0,1,3.879.958,5.776,5.776,0,0,1,2.252,2.666,10.008,10.008,0,0,1,.733,3.975v11.591a9.229,9.229,0,0,1-.766,3.88,5.939,5.939,0,0,1-2.3,2.633A7.037,7.037,0,0,1-187.039,200.695Zm0-4.343a1.417,1.417,0,0,0,1.245-.544,3.117,3.117,0,0,0,.51-1.293,8.338,8.338,0,0,0,.128-1.389v-11.4a10.141,10.141,0,0,0-.112-1.469,3.089,3.089,0,0,0-.495-1.325,1.437,1.437,0,0,0-1.276-.559,1.479,1.479,0,0,0-1.293.559,2.982,2.982,0,0,0-.512,1.325,10.145,10.145,0,0,0-.111,1.469v11.4a8.229,8.229,0,0,0,.128,1.389,2.87,2.87,0,0,0,.542,1.293A1.466,1.466,0,0,0-187.039,196.352Z" transform="translate(207.411 -174.033)" fill="#f7faf6"/>
          <path id="Path_5080" data-name="Path 5080" d="M-169.663,200.695a7.164,7.164,0,0,1-3.865-.959,5.952,5.952,0,0,1-2.3-2.633,9.258,9.258,0,0,1-.766-3.88V181.632a9.989,9.989,0,0,1,.734-3.975,5.743,5.743,0,0,1,2.267-2.666,7.3,7.3,0,0,1,3.929-.958,7.14,7.14,0,0,1,3.879.958,5.775,5.775,0,0,1,2.252,2.666,10.008,10.008,0,0,1,.733,3.975v11.591a9.229,9.229,0,0,1-.766,3.88,5.937,5.937,0,0,1-2.3,2.633A7.036,7.036,0,0,1-169.663,200.695Zm0-4.343a1.417,1.417,0,0,0,1.245-.544,3.117,3.117,0,0,0,.51-1.293,8.318,8.318,0,0,0,.128-1.389v-11.4a10.141,10.141,0,0,0-.112-1.469,3.086,3.086,0,0,0-.495-1.325,1.436,1.436,0,0,0-1.276-.559,1.479,1.479,0,0,0-1.293.559,2.982,2.982,0,0,0-.512,1.325,10.135,10.135,0,0,0-.111,1.469v11.4a8.223,8.223,0,0,0,.128,1.389,2.87,2.87,0,0,0,.542,1.293A1.466,1.466,0,0,0-169.663,196.352Z" transform="translate(207.373 -174.033)" fill="#f7faf6"/>
          <path id="Path_5081" data-name="Path 5081" d="M-152.288,200.695a7.163,7.163,0,0,1-3.864-.959,5.947,5.947,0,0,1-2.3-2.633,9.244,9.244,0,0,1-.766-3.88V181.632a9.988,9.988,0,0,1,.734-3.975,5.742,5.742,0,0,1,2.267-2.666,7.293,7.293,0,0,1,3.928-.958,7.142,7.142,0,0,1,3.879.958,5.775,5.775,0,0,1,2.252,2.666,10.008,10.008,0,0,1,.733,3.975v11.591a9.229,9.229,0,0,1-.766,3.88,5.938,5.938,0,0,1-2.3,2.633A7.037,7.037,0,0,1-152.288,200.695Zm0-4.343a1.418,1.418,0,0,0,1.246-.544,3.118,3.118,0,0,0,.51-1.293,8.322,8.322,0,0,0,.128-1.389v-11.4a10.141,10.141,0,0,0-.112-1.469,3.089,3.089,0,0,0-.495-1.325,1.438,1.438,0,0,0-1.277-.559,1.478,1.478,0,0,0-1.292.559,2.968,2.968,0,0,0-.512,1.325,10.144,10.144,0,0,0-.111,1.469v11.4a8.327,8.327,0,0,0,.127,1.389,2.885,2.885,0,0,0,.543,1.293A1.466,1.466,0,0,0-152.288,196.352Z" transform="translate(207.335 -174.033)" fill="#f7faf6"/>
        </g>
      </g>
    </g>
  </g>
</svg>
