<svg xmlns="http://www.w3.org/2000/svg" xmlns:xlink="http://www.w3.org/1999/xlink" width="147.657" height="147.657" viewBox="0 0 147.657 147.657">
  <defs>
    <filter id="Ellipse_90" x="0" y="0" width="147.657" height="147.657" filterUnits="userSpaceOnUse">
      <feOffset dy="4" input="SourceAlpha"/>
      <feGaussianBlur stdDeviation="3.5" result="blur"/>
      <feFlood flood-opacity="0.388"/>
      <feComposite operator="in" in2="blur"/>
      <feComposite in="SourceGraphic"/>
    </filter>
    <linearGradient id="linear-gradient" x1="50.433" y1="18.335" x2="50.505" y2="18.335" gradientUnits="objectBoundingBox">
      <stop offset="0" stop-color="#a9a5a6"/>
      <stop offset="0.264" stop-color="#c8c6c6"/>
      <stop offset="0.566" stop-color="#e6e5e5"/>
      <stop offset="0.822" stop-color="#f8f8f8"/>
      <stop offset="1" stop-color="#fff"/>
    </linearGradient>
    <linearGradient id="linear-gradient-2" x1="34.086" y1="49.464" x2="34.139" y2="49.464" xlink:href="#linear-gradient"/>
    <linearGradient id="linear-gradient-3" x1="111.841" y1="12.07" x2="111.997" y2="12.07" xlink:href="#linear-gradient"/>
    <linearGradient id="linear-gradient-4" x1="36.084" y1="24.055" x2="36.137" y2="24.055" xlink:href="#linear-gradient"/>
    <linearGradient id="linear-gradient-5" y1="0.5" x2="1" y2="0.5" gradientUnits="objectBoundingBox">
      <stop offset="0" stop-color="#00eae6"/>
      <stop offset="0.468" stop-color="#00e8e5"/>
      <stop offset="0.637" stop-color="#00e1e2"/>
      <stop offset="0.758" stop-color="#00d5dd"/>
      <stop offset="0.856" stop-color="#00c4d5"/>
      <stop offset="0.938" stop-color="#00aecc"/>
      <stop offset="1" stop-color="#0099c3"/>
    </linearGradient>
    <linearGradient id="linear-gradient-7" y1="0.5" x2="1" y2="0.5" gradientUnits="objectBoundingBox">
      <stop offset="0" stop-color="#00a6be"/>
      <stop offset="0.27" stop-color="#0096b5"/>
      <stop offset="0.581" stop-color="#008cb0"/>
      <stop offset="1" stop-color="#008aaf"/>
    </linearGradient>
    <linearGradient id="linear-gradient-11" x1="45.167" y1="15.664" x2="45.238" y2="15.664" xlink:href="#linear-gradient"/>
  </defs>
  <g id="Group_939" data-name="Group 939" transform="translate(-82.068 -715.822)">
    <g transform="matrix(1, 0, 0, 1, 82.07, 715.82)" filter="url(#Ellipse_90)">
      <ellipse id="Ellipse_90-2" data-name="Ellipse 90" cx="63.329" cy="63.329" rx="63.329" ry="63.329" transform="translate(10.5 6.5)" fill="#5aaf21"/>
    </g>
    <g id="Group_932" data-name="Group 932" transform="translate(92.568 722.322)">
      <ellipse id="Ellipse_65" data-name="Ellipse 65" cx="63.388" cy="63.388" rx="63.388" ry="63.388" transform="translate(0 0)" fill="#00b9ed"/>
      <g id="Group_902" data-name="Group 902" transform="translate(0 0)">
        <path id="Path_5225" data-name="Path 5225" d="M-736.935,175.752a48.184,48.184,0,0,0-2.875-9.082,48.43,48.43,0,0,0-4.261-7.834,48.739,48.739,0,0,0-6.041-7.361,48.853,48.853,0,0,0-7.8-6.324,48.38,48.38,0,0,0-8.444-4.4,47.833,47.833,0,0,0-8.544-2.551c-.688-.138-1.382-.255-2.081-.362-.215-.035-.431-.063-.648-.094-.5-.07-1.012-.135-1.52-.189-.23-.026-.46-.051-.692-.074-.637-.059-1.28-.11-1.927-.145l-.225-.014c-.791-.041-1.589-.06-2.388-.06q-1.27,0-2.523.066h0l-.2.014c-.69.039-1.379.1-2.062.164-.244.023-.484.053-.727.08q-.8.094-1.6.211c-.23.035-.46.066-.688.1-.736.122-1.463.251-2.188.4a47.96,47.96,0,0,0-9.08,2.875,48.618,48.618,0,0,0-7.836,4.26,48.924,48.924,0,0,0-7.359,6.042,48.761,48.761,0,0,0-6.324,7.8,48.441,48.441,0,0,0-4.4,8.445,47.806,47.806,0,0,0-2.552,8.546,48.456,48.456,0,0,0-.939,9.479,48.351,48.351,0,0,0,1.043,9.993,48.076,48.076,0,0,0,2.875,9.082,48.229,48.229,0,0,0,4.257,7.834,48.8,48.8,0,0,0,6.044,7.361,48.92,48.92,0,0,0,7.8,6.324,48.483,48.483,0,0,0,8.443,4.4,48.048,48.048,0,0,0,8.549,2.551c.687.137,1.381.255,2.081.362.214.035.43.063.647.094q.757.1,1.52.189c.23.026.46.051.69.073q.961.09,1.931.146c.866.047,1.736.074,2.611.074a48.48,48.48,0,0,0,9.991-1.041,48.075,48.075,0,0,0,9.084-2.874,48.69,48.69,0,0,0,7.834-4.261,48.96,48.96,0,0,0,7.361-6.042,48.85,48.85,0,0,0,6.324-7.8,48.329,48.329,0,0,0,4.4-8.443,48.005,48.005,0,0,0,2.553-8.546,48.713,48.713,0,0,0,.937-9.481A48.5,48.5,0,0,0-736.935,175.752Zm-39.431-37.813c-.145-.025-.289-.054-.435-.076C-776.654,137.888-776.511,137.915-776.366,137.939Zm-1.554-.237c-.362-.049-.724-.094-1.091-.135C-778.644,137.608-778.282,137.653-777.92,137.7Zm-1.991-.23q-.914-.088-1.838-.139Q-780.826,137.383-779.911,137.473Zm-7.219-.133c-.658.037-1.315.092-1.968.156C-788.445,137.432-787.788,137.379-787.13,137.34Zm-2.915.261q-.579.069-1.154.152Q-790.624,137.671-790.045,137.6Zm-2.331.329c-.151.025-.3.056-.446.082C-792.673,137.986-792.527,137.955-792.376,137.931Zm-.027,95.618c.147.025.3.055.442.078C-792.108,233.6-792.256,233.575-792.4,233.549Zm1.556.237c.364.049.73.1,1.1.137C-790.116,233.882-790.482,233.835-790.847,233.786Zm1.994.232q.918.085,1.844.139C-787.626,234.121-788.241,234.076-788.853,234.017Z" transform="translate(847.769 -122.356)" fill="#c80e2d"/>
        <path id="Path_5226" data-name="Path 5226" d="M-831.5,206.017a50.907,50.907,0,0,1-3.029-9.6q-.432-2.064-.693-4.187l-12.086,1.517q.325,2.622.86,5.18a62.747,62.747,0,0,0,3.75,11.879c.3.7.621,1.391.947,2.08l11.017-5.194C-831,207.139-831.259,206.584-831.5,206.017Z" transform="translate(847.801 -122.476)" fill="#f7faf6"/>
        <path id="Path_5227" data-name="Path 5227" d="M-731.192,220.665l-10.189-6.679A51.38,51.38,0,0,1-748,222.123a51.439,51.439,0,0,1-4.224,3.765l7.608,9.508a64.209,64.209,0,0,0,5.227-4.661A63.737,63.737,0,0,0-731.192,220.665Z" transform="translate(847.595 -122.523)" fill="#f7faf6"/>
        <path id="Path_5228" data-name="Path 5228" d="M-803.392,233.493a50.641,50.641,0,0,1-6.735-3.3l-6.134,10.524a63.056,63.056,0,0,0,8.338,4.081,62.841,62.841,0,0,0,10.246,3.12l2.564-11.915A50.867,50.867,0,0,1-803.392,233.493Z" transform="translate(847.734 -122.558)" fill="#f7faf6"/>
        <path id="Path_5229" data-name="Path 5229" d="M-737.088,165.639a50.542,50.542,0,0,1,3.029,9.6q.431,2.064.695,4.187l12.086-1.517c-.219-1.748-.5-3.477-.861-5.18a62.789,62.789,0,0,0-3.748-11.878c-.3-.7-.624-1.392-.95-2.079l-11.018,5.192C-737.59,164.516-737.328,165.072-737.088,165.639Z" transform="translate(847.563 -122.403)" fill="#f7faf6"/>
        <path id="Path_5230" data-name="Path 5230" d="M-765.205,138.168a51.163,51.163,0,0,1,6.734,3.3l6.133-10.524a62.949,62.949,0,0,0-8.338-4.081,62.748,62.748,0,0,0-10.245-3.122l-2.564,11.918A50.787,50.787,0,0,1-765.205,138.168Z" transform="translate(847.641 -122.327)" fill="#f7faf6"/>
        <path id="Path_5231" data-name="Path 5231" d="M-721.516,177.826l-12.087,1.517v.006q-.26-2.123-.694-4.193a50.542,50.542,0,0,0-3.03-9.6c-.24-.567-.5-1.125-.767-1.681v0l11.018-5.192a63.356,63.356,0,0,0-4.615-8.172,63.614,63.614,0,0,0-7.9-9.627,63.732,63.732,0,0,0-10.2-8.277q-1.333-.871-2.711-1.674l-6.134,10.524,0,0a50.9,50.9,0,0,0-6.735-3.3,50.8,50.8,0,0,0-8.28-2.512l2.563-11.918c-.312-.066-.624-.134-.936-.2a63.645,63.645,0,0,0-12.4-1.214,63.669,63.669,0,0,0-13.065,1.351,62.7,62.7,0,0,0-11.878,3.749,62.985,62.985,0,0,0-10.254,5.565c-1.516,1.013-2.978,2.1-4.4,3.239l7.609,9.508a51.853,51.853,0,0,0-4.223,3.765,51.449,51.449,0,0,0-6.687,8.24l.071-.1-10.187-6.679-.086.129a63.215,63.215,0,0,0-5.755,11.047,63.073,63.073,0,0,0-3.32,11.183,63.757,63.757,0,0,0-1.213,12.4,63.894,63.894,0,0,0,.491,7.887l12.086-1.517,0-.011q.264,2.125.7,4.2a50.872,50.872,0,0,0,3.029,9.6c.243.567.5,1.123.766,1.678l-11.017,5.194a63.345,63.345,0,0,0,4.615,8.171,63.79,63.79,0,0,0,7.9,9.628,63.749,63.749,0,0,0,10.2,8.276q1.331.871,2.709,1.674l6.133-10.524v0a50.417,50.417,0,0,0,6.736,3.3,50.907,50.907,0,0,0,9.032,2.682c-.253-.051-.5-.116-.753-.168l-2.564,11.915c.312.068.623.137.936.2a63.651,63.651,0,0,0,12.4,1.216,63.661,63.661,0,0,0,13.065-1.351A62.9,62.9,0,0,0-759.468,244a63.079,63.079,0,0,0,10.25-5.564c1.517-1.016,2.978-2.1,4.4-3.24l-7.608-9.508a51.421,51.421,0,0,0,4.224-3.765,51.408,51.408,0,0,0,6.616-8.137l10.189,6.68.085-.129a63.217,63.217,0,0,0,5.756-11.049,62.825,62.825,0,0,0,3.317-11.181,63.656,63.656,0,0,0,1.216-12.4A64.082,64.082,0,0,0-721.516,177.826Zm-17.268-15.348c-.09-.175-.179-.35-.27-.526C-738.963,162.128-738.874,162.3-738.784,162.479Zm-1.912-3.431c-.364-.6-.736-1.189-1.124-1.768C-741.432,157.858-741.059,158.448-740.7,159.047Zm1.01,1.738q-.245-.441-.5-.877C-740.019,160.2-739.849,160.491-739.685,160.785Zm-73.164-17.667c-.618.413-1.223.846-1.822,1.284C-814.072,143.963-813.467,143.532-812.849,143.119Zm-22.56,47.254.022.237Zm-.19-3.145c0,.125.009.25.015.376C-835.591,187.477-835.6,187.353-835.6,187.228Zm.07,1.548c.008.117.016.233.023.352C-835.514,189.009-835.522,188.892-835.53,188.775Zm5.486,20.171c.089.175.18.352.271.526C-829.864,209.3-829.955,209.121-830.044,208.947Zm1.91,3.43c.365.6.736,1.189,1.127,1.77C-827.4,213.566-827.77,212.975-828.134,212.376Zm-1.012-1.738q.249.445.509.883C-828.809,211.229-828.98,210.934-829.146,210.638Zm73.166,17.669c.618-.415,1.224-.845,1.826-1.286Q-755.052,227.683-755.98,228.306Zm8.838-18.29a44.988,44.988,0,0,1-5.805,7.162,44.92,44.92,0,0,1-6.759,5.546,44.418,44.418,0,0,1-7.193,3.911,44.115,44.115,0,0,1-8.339,2.641,44.49,44.49,0,0,1-9.175.955,44.6,44.6,0,0,1-8.7-.86,43.876,43.876,0,0,1-7.848-2.344,44.36,44.36,0,0,1-7.751-4.044,44.846,44.846,0,0,1-7.162-5.805,44.864,44.864,0,0,1-5.548-6.759,44.526,44.526,0,0,1-3.913-7.193,44.309,44.309,0,0,1-2.638-8.339,44.5,44.5,0,0,1-.955-9.175,44.45,44.45,0,0,1,.86-8.7,44.238,44.238,0,0,1,2.342-7.848,44.619,44.619,0,0,1,4.044-7.751,44.922,44.922,0,0,1,5.807-7.162,44.884,44.884,0,0,1,6.757-5.546,44.312,44.312,0,0,1,7.193-3.911,44.1,44.1,0,0,1,8.339-2.641,44.5,44.5,0,0,1,9.176-.955,44.46,44.46,0,0,1,8.705.86,44.162,44.162,0,0,1,7.846,2.342,44.379,44.379,0,0,1,7.752,4.044,44.952,44.952,0,0,1,7.163,5.807,44.78,44.78,0,0,1,5.546,6.759,44.458,44.458,0,0,1,3.912,7.193,44.317,44.317,0,0,1,2.641,8.339,44.634,44.634,0,0,1,.955,9.174,44.527,44.527,0,0,1-.862,8.705,44.123,44.123,0,0,1-2.342,7.847A44.462,44.462,0,0,1-747.142,210.016Zm13.7-29.191.019.213Zm.119,1.484c.007.111.015.222.021.332C-733.305,182.531-733.313,182.42-733.32,182.309Zm.078,1.52c0,.123.01.243.013.366C-733.233,184.073-733.238,183.952-733.242,183.829Z" transform="translate(847.802 -122.324)" fill="#00b9ed"/>
        <path id="Path_5232" data-name="Path 5232" d="M-820.6,149.531a51.781,51.781,0,0,1,4.223-3.765l-7.609-9.508a63.654,63.654,0,0,0-5.226,4.662,63.526,63.526,0,0,0-8.191,10.069l10.186,6.68A51.332,51.332,0,0,1-820.6,149.531Z" transform="translate(847.78 -122.354)" fill="#f7faf6"/>
        <path id="Path_5233" data-name="Path 5233" d="M-834.952,193.93c.019.136.035.274.057.411C-834.917,194.2-834.933,194.066-834.952,193.93Z" transform="translate(847.774 -122.479)" fill="#c80e2d"/>
        <path id="Path_5234" data-name="Path 5234" d="M-747.987,222.123a51.433,51.433,0,0,0,6.615-8.137A51.433,51.433,0,0,1-747.987,222.123Z" transform="translate(847.585 -122.523)" fill="#c80e2d"/>
        <path id="Path_5235" data-name="Path 5235" d="M-799.259,234.94q2.052.624,4.176,1.076Q-797.2,235.562-799.259,234.94Z" transform="translate(847.697 -122.568)" fill="#c80e2d"/>
        <path id="Path_5236" data-name="Path 5236" d="M-801.3,234.273c.552.2,1.111.373,1.673.548C-800.19,234.646-800.748,234.467-801.3,234.273Z" transform="translate(847.701 -122.567)" fill="#c80e2d"/>
        <path id="Path_5237" data-name="Path 5237" d="M-733.659,177.357l.029.2Z" transform="translate(847.555 -122.443)" fill="#c80e2d"/>
        <path id="Path_5238" data-name="Path 5238" d="M-824.094,153.467a51.525,51.525,0,0,0-3.092,4.223A51.872,51.872,0,0,1-824.094,153.467Z" transform="translate(847.757 -122.392)" fill="#f8faf8"/>
        <path id="Path_5239" data-name="Path 5239" d="M-822.383,151.473c-.539.6-1.057,1.208-1.567,1.828C-823.44,152.681-822.922,152.069-822.383,151.473Z" transform="translate(847.75 -122.387)" fill="#f8faf8"/>
        <path id="Path_5240" data-name="Path 5240" d="M-740.023,230.1a62.194,62.194,0,0,1-5.15,4.594l.577.72a64.2,64.2,0,0,0,5.227-4.661,63.766,63.766,0,0,0,8.193-10.07l-.772-.507A62.515,62.515,0,0,1-740.023,230.1Z" transform="translate(847.579 -122.536)" fill="url(#linear-gradient)"/>
        <path id="Path_5241" data-name="Path 5241" d="M-807.581,243.966a62.23,62.23,0,0,1-8.215-4.021l-.465.8a63.055,63.055,0,0,0,8.338,4.081,62.828,62.828,0,0,0,10.246,3.12l.195-.9A62.229,62.229,0,0,1-807.581,243.966Z" transform="translate(847.734 -122.579)" fill="url(#linear-gradient-2)"/>
        <path id="Path_5242" data-name="Path 5242" d="M-726.713,161.21a61.772,61.772,0,0,1,3.694,11.706q.53,2.518.848,5.1l.916-.116c-.219-1.748-.5-3.477-.861-5.18a62.771,62.771,0,0,0-3.747-11.878c-.3-.7-.624-1.392-.95-2.079l-.834.393C-727.326,159.84-727.008,160.519-726.713,161.21Z" transform="translate(847.541 -122.403)" fill="url(#linear-gradient-3)"/>
        <path id="Path_5243" data-name="Path 5243" d="M-761.013,127.716a62.512,62.512,0,0,1,8.216,4.022l.464-.8a63.008,63.008,0,0,0-8.338-4.081,62.774,62.774,0,0,0-10.246-3.122l-.193.9A61.937,61.937,0,0,1-761.013,127.716Z" transform="translate(847.636 -122.327)" fill="url(#linear-gradient-4)"/>
        <path id="Path_5244" data-name="Path 5244" d="M-846.4,193.547a62.966,62.966,0,0,1-.483-7.772,62.6,62.6,0,0,1,1.2-12.214,62.027,62.027,0,0,1,3.269-11.02,62.48,62.48,0,0,1,5.671-10.887l.086-.127-.771-.5-.086.129a63.214,63.214,0,0,0-5.755,11.047,63.071,63.071,0,0,0-3.32,11.183,63.757,63.757,0,0,0-1.213,12.4,63.892,63.892,0,0,0,.491,7.887Z" transform="translate(847.802 -122.386)" fill="url(#linear-gradient-5)"/>
        <path id="Path_5245" data-name="Path 5245" d="M-815.851,239.885q-1.358-.792-2.671-1.648a62.871,62.871,0,0,1-10.048-8.158,62.755,62.755,0,0,1-7.788-9.487,62.225,62.225,0,0,1-4.546-8.052l-.836.394a63.234,63.234,0,0,0,4.615,8.171,63.757,63.757,0,0,0,7.9,9.628,63.737,63.737,0,0,0,10.2,8.276q1.331.871,2.709,1.674Z" transform="translate(847.789 -122.52)" fill="url(#linear-gradient-5)"/>
        <path id="Path_5246" data-name="Path 5246" d="M-745.287,234.721c-1.4,1.121-2.84,2.192-4.334,3.192a62.225,62.225,0,0,1-10.1,5.484,61.921,61.921,0,0,1-11.7,3.7,62.851,62.851,0,0,1-12.876,1.331,62.778,62.778,0,0,1-12.216-1.2c-.307-.061-.614-.129-.921-.193l-.195.9c.312.068.623.137.936.2a63.647,63.647,0,0,0,12.4,1.216,63.657,63.657,0,0,0,13.065-1.351,62.892,62.892,0,0,0,11.881-3.749,63.109,63.109,0,0,0,10.251-5.564c1.517-1.016,2.977-2.1,4.4-3.24Z" transform="translate(847.693 -122.568)" fill="url(#linear-gradient-7)"/>
        <path id="Path_5247" data-name="Path 5247" d="M-721.264,177.947l-.916.116h0a62.791,62.791,0,0,1,.485,7.77,62.736,62.736,0,0,1-1.2,12.215,61.81,61.81,0,0,1-3.27,11.019,62.078,62.078,0,0,1-5.673,10.886l-.084.127.772.507.086-.129a63.229,63.229,0,0,0,5.756-11.049,62.828,62.828,0,0,0,3.317-11.181,63.618,63.618,0,0,0,1.217-12.4A64.032,64.032,0,0,0-721.264,177.947Z" transform="translate(847.551 -122.445)" fill="url(#linear-gradient-7)"/>
        <path id="Path_5248" data-name="Path 5248" d="M-752.757,131.754q1.356.792,2.67,1.648a62.756,62.756,0,0,1,10.05,8.158,62.735,62.735,0,0,1,7.786,9.487A62.1,62.1,0,0,1-727.7,159.1l.834-.393a63.36,63.36,0,0,0-4.615-8.172,63.572,63.572,0,0,0-7.9-9.627,63.692,63.692,0,0,0-10.2-8.277q-1.333-.871-2.711-1.674Z" transform="translate(847.596 -122.343)" fill="url(#linear-gradient-5)"/>
        <path id="Path_5249" data-name="Path 5249" d="M-823.381,136.948c1.4-1.121,2.842-2.194,4.334-3.192a62.222,62.222,0,0,1,10.1-5.484,61.963,61.963,0,0,1,11.7-3.695,62.848,62.848,0,0,1,12.877-1.331,62.919,62.919,0,0,1,12.216,1.2c.307.063.613.129.922.2l.193-.9c-.312-.066-.624-.134-.936-.2a63.643,63.643,0,0,0-12.4-1.214,63.669,63.669,0,0,0-13.065,1.351,62.725,62.725,0,0,0-11.878,3.749,63.013,63.013,0,0,0-10.254,5.565c-1.516,1.013-2.977,2.1-4.4,3.239Z" transform="translate(847.75 -122.324)" fill="url(#linear-gradient-5)"/>
        <path id="Path_5250" data-name="Path 5250" d="M-828.562,141.572a62.64,62.64,0,0,1,5.151-4.594l-.577-.72a63.654,63.654,0,0,0-5.226,4.662,63.526,63.526,0,0,0-8.191,10.069l.771.505A62.773,62.773,0,0,1-828.562,141.572Z" transform="translate(847.78 -122.354)" fill="url(#linear-gradient-11)"/>
        <path id="Path_5251" data-name="Path 5251" d="M-739.941,176.395a45.274,45.274,0,0,0-2.692-8.507,45.382,45.382,0,0,0-3.99-7.337,45.692,45.692,0,0,0-5.658-6.892,45.633,45.633,0,0,0-7.306-5.923,45.373,45.373,0,0,0-7.906-4.126,44.962,44.962,0,0,0-8-2.389c-.645-.128-1.3-.239-1.949-.34-.2-.031-.4-.058-.608-.087-.471-.066-.946-.126-1.422-.177-.217-.024-.431-.048-.646-.068-.6-.058-1.2-.1-1.805-.135l-.21-.016q-1.111-.057-2.238-.055c-.791,0-1.58.02-2.363.062h0l-.189.013c-.646.038-1.292.089-1.933.153-.228.022-.454.051-.681.076q-.753.085-1.5.2c-.215.03-.431.059-.644.095-.689.113-1.373.234-2.05.377a45.024,45.024,0,0,0-8.5,2.692A45.3,45.3,0,0,0-809.575,148a45.572,45.572,0,0,0-6.9,5.658,45.722,45.722,0,0,0-5.92,7.3,45.405,45.405,0,0,0-4.126,7.907,45.009,45.009,0,0,0-2.389,8,45.351,45.351,0,0,0-.877,8.878,45.421,45.421,0,0,0,.974,9.359,45.1,45.1,0,0,0,2.692,8.506,45.266,45.266,0,0,0,3.989,7.336,45.788,45.788,0,0,0,5.658,6.894,45.763,45.763,0,0,0,7.3,5.922,45.383,45.383,0,0,0,7.907,4.124,44.827,44.827,0,0,0,8,2.391c.644.128,1.294.238,1.947.337.2.035.406.061.607.09.473.067.948.125,1.426.177.213.024.428.049.645.068q.9.087,1.81.136c.809.044,1.622.07,2.443.07a45.365,45.365,0,0,0,9.359-.974,45.036,45.036,0,0,0,8.5-2.691,45.444,45.444,0,0,0,7.337-3.991,45.638,45.638,0,0,0,6.9-5.658,45.768,45.768,0,0,0,5.922-7.307,45.218,45.218,0,0,0,4.124-7.9,44.889,44.889,0,0,0,2.39-8,45.273,45.273,0,0,0,.878-8.879A45.47,45.47,0,0,0-739.941,176.395Zm-36.928-35.412c-.135-.025-.269-.051-.409-.073C-777.137,140.932-777,140.958-776.868,140.983Zm-1.455-.221c-.342-.046-.681-.091-1.023-.128C-779,140.673-778.664,140.715-778.323,140.761Zm-1.867-.219c-.57-.053-1.143-.1-1.719-.128Q-781.044,140.464-780.19,140.543Zm-9.489.124c-.362.042-.72.091-1.082.142C-790.4,140.755-790.041,140.708-789.679,140.666Zm-2.183.307c-.139.024-.277.053-.417.078C-792.139,141.027-792,141-791.862,140.974Zm-.026,89.547c.141.022.278.049.415.071C-791.61,230.57-791.748,230.543-791.889,230.521Zm1.459.223c.341.045.685.087,1.027.127C-789.745,230.83-790.089,230.788-790.43,230.743Zm1.869.215c.572.053,1.147.1,1.723.131Q-787.7,231.04-788.561,230.959Z" transform="translate(847.763 -122.363)" fill="#4ad7ff"/>
        <path id="Path_5252" data-name="Path 5252" d="M-745.178,177.511a39.918,39.918,0,0,0-2.374-7.5,39.888,39.888,0,0,0-3.519-6.471,40.358,40.358,0,0,0-4.989-6.079,40.258,40.258,0,0,0-6.443-5.223,40,40,0,0,0-6.974-3.639,39.631,39.631,0,0,0-7.057-2.106c-.569-.113-1.142-.211-1.718-.3-.177-.027-.357-.05-.537-.076-.415-.058-.833-.111-1.254-.156-.191-.021-.38-.043-.57-.061-.528-.05-1.06-.091-1.591-.119l-.186-.013c-.653-.034-1.311-.049-1.974-.049q-1.048,0-2.083.054h0l-.167.012q-.858.049-1.706.135c-.2.02-.4.045-.6.066-.442.051-.883.11-1.319.176-.189.028-.38.053-.567.084-.609.1-1.211.207-1.809.333a39.711,39.711,0,0,0-7.5,2.374,40.012,40.012,0,0,0-6.47,3.519,40.273,40.273,0,0,0-6.081,4.989,40.35,40.35,0,0,0-5.221,6.441,40.011,40.011,0,0,0-3.639,6.974,39.683,39.683,0,0,0-2.107,7.059,40.024,40.024,0,0,0-.773,7.829,40.013,40.013,0,0,0,.859,8.253,39.749,39.749,0,0,0,2.374,7.5,39.987,39.987,0,0,0,3.517,6.47,40.448,40.448,0,0,0,4.991,6.079,40.313,40.313,0,0,0,6.441,5.223,39.994,39.994,0,0,0,6.974,3.637,39.523,39.523,0,0,0,7.059,2.109c.567.113,1.14.211,1.717.3.179.029.358.053.536.078q.625.088,1.256.156c.189.022.378.043.57.061q.791.076,1.6.119c.714.039,1.43.062,2.154.062a39.963,39.963,0,0,0,8.253-.859,39.643,39.643,0,0,0,7.5-2.374,39.94,39.94,0,0,0,6.47-3.519,40.27,40.27,0,0,0,6.081-4.989,40.322,40.322,0,0,0,5.223-6.443,39.914,39.914,0,0,0,3.637-6.972,39.556,39.556,0,0,0,2.108-7.059,39.969,39.969,0,0,0,.774-7.83A40.1,40.1,0,0,0-745.178,177.511Zm-32.566-31.229c-.12-.021-.237-.045-.36-.064C-777.981,146.237-777.864,146.261-777.744,146.282Zm-1.282-.195c-.3-.041-.6-.08-.9-.113C-779.626,146.009-779.327,146.046-779.026,146.087Zm-1.646-.193c-.5-.047-1.008-.086-1.517-.114Q-781.426,145.824-780.672,145.895Zm-8.369.109c-.319.037-.636.08-.954.125C-789.677,146.081-789.36,146.04-789.041,146Zm-1.926.27c-.123.022-.244.047-.369.069C-791.211,146.321-791.09,146.3-790.967,146.274Zm-.022,78.971c.124.02.244.043.365.062C-790.745,225.288-790.865,225.265-790.989,225.245Zm1.286.194c.3.041.6.078.905.114C-789.1,225.517-789.4,225.481-789.7,225.44Zm1.647.192q.757.07,1.521.115Q-787.3,225.7-788.056,225.631Z" transform="translate(847.751 -122.375)" fill="#00abdb"/>
        <g id="Group_900" data-name="Group 900" transform="translate(18.869 18.869)">
          <path id="Path_5253" data-name="Path 5253" d="M-746.585,169.7l3.307-1.415a44.442,44.442,0,0,0-3.912-7.193l-2.991,2A40.988,40.988,0,0,1-746.585,169.7Z" transform="translate(828.721 -141.277)" fill="#00b9ed"/>
          <path id="Path_5254" data-name="Path 5254" d="M-755.291,214.822l2.545,2.543a45,45,0,0,0,5.805-7.162l-3.012-1.965A41.292,41.292,0,0,1-755.291,214.822Z" transform="translate(828.732 -141.38)" fill="#00b9ed"/>
          <path id="Path_5255" data-name="Path 5255" d="M-822.348,170.6l-3.34-1.339a44.22,44.22,0,0,0-2.342,7.848l3.53.7A40.347,40.347,0,0,1-822.348,170.6Z" transform="translate(828.89 -141.295)" fill="#00b9ed"/>
          <path id="Path_5256" data-name="Path 5256" d="M-825.294,185.85h-3.6a44.5,44.5,0,0,0,.955,9.175l3.523-.74A40.85,40.85,0,0,1-825.294,185.85Z" transform="translate(828.892 -141.331)" fill="#00b9ed"/>
          <path id="Path_5257" data-name="Path 5257" d="M-821.981,201.984l-3.31,1.415a44.466,44.466,0,0,0,3.913,7.193l2.991-2A40.892,40.892,0,0,1-821.981,201.984Z" transform="translate(828.884 -141.366)" fill="#00b9ed"/>
          <path id="Path_5258" data-name="Path 5258" d="M-813.267,214.836l-2.543,2.543a44.882,44.882,0,0,0,7.162,5.805l1.965-3.013A41.186,41.186,0,0,1-813.267,214.836Z" transform="translate(828.864 -141.394)" fill="#00b9ed"/>
          <path id="Path_5259" data-name="Path 5259" d="M-784.3,144.832v-3.6a44.494,44.494,0,0,0-9.176.955l.741,3.522A40.884,40.884,0,0,1-784.3,144.832Z" transform="translate(828.815 -141.234)" fill="#00b9ed"/>
          <path id="Path_5260" data-name="Path 5260" d="M-800.428,148.145l-1.417-3.307a44.315,44.315,0,0,0-7.193,3.911l2,2.991A40.849,40.849,0,0,1-800.428,148.145Z" transform="translate(828.849 -141.242)" fill="#00b9ed"/>
          <path id="Path_5261" data-name="Path 5261" d="M-813.279,156.859l-2.544-2.543a44.921,44.921,0,0,0-5.807,7.162l3.013,1.965A41.182,41.182,0,0,1-813.279,156.859Z" transform="translate(828.876 -141.262)" fill="#00b9ed"/>
          <path id="Path_5262" data-name="Path 5262" d="M-744.146,177.4a40.864,40.864,0,0,1,.877,8.434h3.6a44.6,44.6,0,0,0-.955-9.174Z" transform="translate(828.708 -141.311)" fill="#00b9ed"/>
          <path id="Path_5263" data-name="Path 5263" d="M-755.306,156.847l2.545-2.543a44.973,44.973,0,0,0-7.164-5.807l-1.963,3.013A41.192,41.192,0,0,1-755.306,156.847Z" transform="translate(828.747 -141.25)" fill="#00b9ed"/>
          <path id="Path_5264" data-name="Path 5264" d="M-746.216,201.082l3.339,1.337a44.142,44.142,0,0,0,2.342-7.847l-3.527-.7A40.7,40.7,0,0,1-746.216,201.082Z" transform="translate(828.712 -141.348)" fill="#00b9ed"/>
          <path id="Path_5265" data-name="Path 5265" d="M-799.526,223.91l-1.338,3.339a43.875,43.875,0,0,0,7.848,2.344l.7-3.529A40.628,40.628,0,0,1-799.526,223.91Z" transform="translate(828.831 -141.413)" fill="#00b9ed"/>
          <path id="Path_5266" data-name="Path 5266" d="M-769.044,147.779l1.336-3.341a44.163,44.163,0,0,0-7.846-2.342l-.7,3.529A40.552,40.552,0,0,1-769.044,147.779Z" transform="translate(828.778 -141.236)" fill="#00b9ed"/>
          <path id="Path_5267" data-name="Path 5267" d="M-784.276,226.859v3.6a44.5,44.5,0,0,0,9.175-.955l-.743-3.522A40.848,40.848,0,0,1-784.276,226.859Z" transform="translate(828.795 -141.418)" fill="#00b9ed"/>
          <path id="Path_5268" data-name="Path 5268" d="M-768.144,223.541l1.417,3.307a44.433,44.433,0,0,0,7.193-3.911l-2-2.992A40.8,40.8,0,0,1-768.144,223.541Z" transform="translate(828.76 -141.405)" fill="#00b9ed"/>
        </g>
        <g id="Group_901" data-name="Group 901" transform="translate(45.836 46.719)">
          <path id="Path_5269" data-name="Path 5269" d="M-801.866,200.237V196.1l7.469-11.489q.835-1.289,1.573-2.465a13.831,13.831,0,0,0,1.213-2.408,7.3,7.3,0,0,0,.475-2.636,3.782,3.782,0,0,0-.57-2.255,1.9,1.9,0,0,0-1.629-.778,2.319,2.319,0,0,0-1.745.627,3.351,3.351,0,0,0-.833,1.649,10.236,10.236,0,0,0-.229,2.236v1.442h-5.724v-1.517a12.94,12.94,0,0,1,.852-4.853,6.929,6.929,0,0,1,2.692-3.318,8.744,8.744,0,0,1,4.834-1.194q4.058,0,6.1,2.123a8.219,8.219,0,0,1,2.048,5.953,10.018,10.018,0,0,1-.568,3.431,15.461,15.461,0,0,1-1.5,3.033q-.929,1.459-1.99,3.014l-5.917,8.91h9.138v4.627Z" transform="translate(801.866 -169.145)" fill="#f7faf6"/>
          <path id="Path_5270" data-name="Path 5270" d="M-774.637,200.769a8.662,8.662,0,0,1-4.93-1.176,5.89,5.89,0,0,1-2.332-3.3,17.684,17.684,0,0,1-.625-4.967h5.649a15.8,15.8,0,0,0,.209,2.806,3.234,3.234,0,0,0,.758,1.706,2.088,2.088,0,0,0,1.65.532,1.811,1.811,0,0,0,1.592-.834,5.107,5.107,0,0,0,.607-2.275q.113-1.479.113-3.488a19.521,19.521,0,0,0-.189-2.882,4.261,4.261,0,0,0-.74-1.972,1.986,1.986,0,0,0-1.687-.721,2.191,2.191,0,0,0-1.687.721,4.412,4.412,0,0,0-.966,2.047h-5.006l.417-17.442H-767.7v5.043h-9.29l-.34,6.787a3.574,3.574,0,0,1,1.536-.986,7.727,7.727,0,0,1,2.332-.493,5.636,5.636,0,0,1,3.961.909,6.647,6.647,0,0,1,2.332,3.357,16.81,16.81,0,0,1,.758,5.4,30.967,30.967,0,0,1-.3,4.493,9.873,9.873,0,0,1-1.175,3.564,5.96,5.96,0,0,1-2.5,2.332A9.34,9.34,0,0,1-774.637,200.769Z" transform="translate(801.824 -169.146)" fill="#f7faf6"/>
        </g>
      </g>
    </g>
  </g>
</svg>
