<svg xmlns="http://www.w3.org/2000/svg" xmlns:xlink="http://www.w3.org/1999/xlink" width="147.657" height="147.657" viewBox="0 0 147.657 147.657">
  <defs>
    <filter id="Ellipse_71" x="0" y="0" width="147.657" height="147.657" filterUnits="userSpaceOnUse">
      <feOffset dy="4" input="SourceAlpha"/>
      <feGaussianBlur stdDeviation="3.5" result="blur"/>
      <feFlood flood-opacity="0.388"/>
      <feComposite operator="in" in2="blur"/>
      <feComposite in="SourceGraphic"/>
    </filter>
    <linearGradient id="linear-gradient" x1="65.517" y1="16.288" x2="65.673" y2="16.288" gradientUnits="objectBoundingBox">
      <stop offset="0" stop-color="#a9a5a6"/>
      <stop offset="0.264" stop-color="#c8c6c6"/>
      <stop offset="0.566" stop-color="#e6e5e5"/>
      <stop offset="0.822" stop-color="#f8f8f8"/>
      <stop offset="1" stop-color="#fff"/>
    </linearGradient>
    <linearGradient id="linear-gradient-2" x1="39.279" y1="17.466" x2="39.35" y2="17.466" xlink:href="#linear-gradient"/>
    <linearGradient id="linear-gradient-3" x1="27.169" y1="45.27" x2="27.222" y2="45.27" xlink:href="#linear-gradient"/>
    <linearGradient id="linear-gradient-4" x1="86.365" y1="12.311" x2="86.521" y2="12.311" xlink:href="#linear-gradient"/>
    <linearGradient id="linear-gradient-5" x1="28.053" y1="26.446" x2="28.106" y2="26.446" xlink:href="#linear-gradient"/>
    <linearGradient id="linear-gradient-6" y1="0.5" x2="1" y2="0.5" gradientUnits="objectBoundingBox">
      <stop offset="0" stop-color="#fc1dcf"/>
      <stop offset="0.476" stop-color="#fa1dcd"/>
      <stop offset="0.649" stop-color="#f51fc6"/>
      <stop offset="0.772" stop-color="#eb23ba"/>
      <stop offset="0.871" stop-color="#de29a9"/>
      <stop offset="0.956" stop-color="#cd3093"/>
      <stop offset="1" stop-color="#c23685"/>
    </linearGradient>
    <linearGradient id="linear-gradient-8" y1="0.5" x2="1" y2="0.5" gradientUnits="objectBoundingBox">
      <stop offset="0" stop-color="#c72c92"/>
      <stop offset="0.212" stop-color="#bc3187"/>
      <stop offset="0.548" stop-color="#b2367e"/>
      <stop offset="1" stop-color="#b0387c"/>
    </linearGradient>
    <linearGradient id="linear-gradient-12" x1="35.841" y1="16.417" x2="35.912" y2="16.417" xlink:href="#linear-gradient"/>
  </defs>
  <g id="Group_941" data-name="Group 941" transform="translate(-248.502 -512.008)">
    <g transform="matrix(1, 0, 0, 1, 248.5, 512.01)" filter="url(#Ellipse_71)">
      <ellipse id="Ellipse_71-2" data-name="Ellipse 71" cx="63.329" cy="63.329" rx="63.329" ry="63.329" transform="translate(10.5 6.5)" fill="#5aaf21"/>
    </g>
    <g id="Group_899" data-name="Group 899" transform="translate(259.002 518.508)">
      <ellipse id="Ellipse_64" data-name="Ellipse 64" cx="63.388" cy="63.388" rx="63.388" ry="63.388" transform="translate(0 0)" fill="#d94297"/>
      <g id="Group_898" data-name="Group 898" transform="translate(0 0)">
        <path id="Path_5178" data-name="Path 5178" d="M-593.753,175.752a48.271,48.271,0,0,0-2.874-9.082,48.46,48.46,0,0,0-4.261-7.834,48.833,48.833,0,0,0-6.041-7.361,48.866,48.866,0,0,0-7.8-6.324,48.456,48.456,0,0,0-8.443-4.4,47.852,47.852,0,0,0-8.546-2.551c-.687-.138-1.382-.255-2.082-.362-.215-.035-.43-.063-.646-.094-.5-.07-1.012-.135-1.521-.189q-.344-.039-.692-.074c-.637-.059-1.28-.11-1.928-.145l-.223-.014q-1.187-.061-2.39-.06c-.845,0-1.687.021-2.521.066h0l-.2.014c-.691.039-1.379.1-2.063.164-.245.023-.483.053-.727.08q-.8.094-1.6.211c-.229.035-.46.066-.687.1-.735.122-1.464.251-2.188.4a47.907,47.907,0,0,0-9.081,2.875,48.583,48.583,0,0,0-7.837,4.26,48.961,48.961,0,0,0-7.359,6.042,48.7,48.7,0,0,0-6.323,7.8,48.358,48.358,0,0,0-4.4,8.445,47.766,47.766,0,0,0-2.552,8.546,48.4,48.4,0,0,0-.94,9.479,48.435,48.435,0,0,0,1.043,9.993,48.057,48.057,0,0,0,2.875,9.082,48.218,48.218,0,0,0,4.259,7.834,48.835,48.835,0,0,0,6.043,7.361,48.96,48.96,0,0,0,7.8,6.324,48.413,48.413,0,0,0,8.443,4.4,48.048,48.048,0,0,0,8.547,2.551c.689.137,1.382.255,2.082.362.214.035.431.063.647.094q.756.1,1.52.189c.229.026.46.051.689.073.642.06,1.284.109,1.932.146.865.047,1.734.074,2.609.074a48.486,48.486,0,0,0,9.992-1.041,48.037,48.037,0,0,0,9.083-2.874,48.735,48.735,0,0,0,7.835-4.261,49.04,49.04,0,0,0,7.361-6.042,48.9,48.9,0,0,0,6.324-7.8,48.419,48.419,0,0,0,4.4-8.443,48.056,48.056,0,0,0,2.554-8.546,48.684,48.684,0,0,0,.937-9.481A48.49,48.49,0,0,0-593.753,175.752Zm-39.432-37.813c-.144-.025-.288-.054-.434-.076C-633.473,137.888-633.329,137.915-633.185,137.939Zm-1.553-.237c-.363-.049-.725-.094-1.092-.135C-635.463,137.608-635.1,137.653-634.738,137.7Zm-1.992-.23q-.916-.088-1.838-.139Q-637.644,137.383-636.729,137.473Zm-7.219-.133c-.659.037-1.315.092-1.968.156Q-644.938,137.4-643.948,137.34Zm-2.916.261q-.578.069-1.153.152Q-647.442,137.671-646.864,137.6Zm-2.33.329c-.15.025-.3.056-.447.082C-649.491,137.986-649.345,137.955-649.195,137.931Zm-.027,95.618c.149.025.3.055.443.078C-648.926,233.6-649.073,233.575-649.222,233.549Zm1.558.237c.364.049.73.1,1.1.137C-646.934,233.882-647.3,233.835-647.664,233.786Zm1.994.232q.918.085,1.843.139C-644.445,234.121-645.059,234.076-645.671,234.017Z" transform="translate(704.588 -122.356)" fill="#c80e2d"/>
        <path id="Path_5179" data-name="Path 5179" d="M-688.32,206.017a50.818,50.818,0,0,1-3.029-9.6q-.432-2.064-.695-4.187l-12.084,1.517q.324,2.622.859,5.18a62.87,62.87,0,0,0,3.75,11.879c.3.7.622,1.391.947,2.08l11.017-5.194C-687.816,207.139-688.077,206.584-688.32,206.017Z" transform="translate(704.619 -122.476)" fill="#f7faf6"/>
        <path id="Path_5180" data-name="Path 5180" d="M-588.01,220.665l-10.189-6.679a51.405,51.405,0,0,1-6.616,8.137,51.67,51.67,0,0,1-4.223,3.765l7.608,9.508a64.188,64.188,0,0,0,5.227-4.661A63.88,63.88,0,0,0-588.01,220.665Z" transform="translate(704.412 -122.523)" fill="#f7faf6"/>
        <path id="Path_5181" data-name="Path 5181" d="M-660.211,233.493a50.74,50.74,0,0,1-6.735-3.3l-6.133,10.524a63.082,63.082,0,0,0,8.337,4.081,62.872,62.872,0,0,0,10.247,3.12l2.563-11.915A50.889,50.889,0,0,1-660.211,233.493Z" transform="translate(704.552 -122.558)" fill="#f7faf6"/>
        <path id="Path_5182" data-name="Path 5182" d="M-593.906,165.639a50.568,50.568,0,0,1,3.029,9.6q.431,2.064.695,4.187l12.086-1.517q-.328-2.622-.86-5.18a62.8,62.8,0,0,0-3.749-11.878c-.3-.7-.623-1.392-.948-2.079l-11.018,5.192C-594.408,164.516-594.147,165.072-593.906,165.639Z" transform="translate(704.381 -122.403)" fill="#f7faf6"/>
        <path id="Path_5183" data-name="Path 5183" d="M-622.023,138.168a51.161,51.161,0,0,1,6.734,3.3l6.133-10.524a62.952,62.952,0,0,0-8.338-4.081,62.794,62.794,0,0,0-10.246-3.122l-2.565,11.918A50.757,50.757,0,0,1-622.023,138.168Z" transform="translate(704.459 -122.327)" fill="#f7faf6"/>
        <path id="Path_5184" data-name="Path 5184" d="M-578.335,177.826l-12.086,1.517v.006q-.262-2.123-.694-4.193a50.524,50.524,0,0,0-3.029-9.6c-.242-.567-.5-1.125-.768-1.681v0l11.018-5.192a63.558,63.558,0,0,0-4.615-8.172,63.673,63.673,0,0,0-7.9-9.627,63.675,63.675,0,0,0-10.2-8.277q-1.332-.871-2.71-1.674l-6.134,10.524,0,0a50.973,50.973,0,0,0-6.735-3.3,50.789,50.789,0,0,0-8.281-2.512l2.565-11.918c-.312-.066-.624-.134-.936-.2a63.656,63.656,0,0,0-12.4-1.214,63.687,63.687,0,0,0-13.065,1.351,62.739,62.739,0,0,0-11.878,3.749,63,63,0,0,0-10.253,5.565c-1.517,1.013-2.979,2.1-4.4,3.239l7.608,9.508a51.863,51.863,0,0,0-4.224,3.765,51.352,51.352,0,0,0-6.687,8.24l.07-.1-10.187-6.679-.086.129a63.161,63.161,0,0,0-5.754,11.047,62.91,62.91,0,0,0-3.32,11.183,63.7,63.7,0,0,0-1.213,12.4,63.894,63.894,0,0,0,.491,7.887l12.085-1.517,0-.011q.264,2.125.7,4.2a50.87,50.87,0,0,0,3.028,9.6c.244.567.505,1.123.766,1.678l-11.017,5.194a63.579,63.579,0,0,0,4.615,8.171,63.893,63.893,0,0,0,7.9,9.628,63.778,63.778,0,0,0,10.2,8.276q1.33.871,2.709,1.674l6.133-10.524v0a50.521,50.521,0,0,0,6.735,3.3,50.95,50.95,0,0,0,9.033,2.682c-.253-.051-.5-.116-.754-.168l-2.563,11.915c.311.068.623.137.935.2a63.665,63.665,0,0,0,12.4,1.216,63.673,63.673,0,0,0,13.066-1.351A62.891,62.891,0,0,0-616.287,244a63.093,63.093,0,0,0,10.252-5.564c1.516-1.016,2.977-2.1,4.4-3.24l-7.609-9.508a51.569,51.569,0,0,0,4.223-3.765,51.416,51.416,0,0,0,6.617-8.137l10.188,6.68.086-.129a63.181,63.181,0,0,0,5.755-11.049,62.886,62.886,0,0,0,3.317-11.181,63.656,63.656,0,0,0,1.217-12.4A63.89,63.89,0,0,0-578.335,177.826ZM-595.6,162.479c-.091-.175-.18-.35-.272-.526C-595.781,162.128-595.692,162.3-595.6,162.479Zm-1.912-3.431c-.365-.6-.737-1.189-1.125-1.768C-598.251,157.858-597.879,158.448-597.513,159.047Zm1.009,1.738q-.245-.441-.5-.877C-596.838,160.2-596.668,160.491-596.5,160.785Zm-73.163-17.667c-.618.413-1.224.846-1.823,1.284C-670.891,143.963-670.285,143.532-669.667,143.119Zm-22.56,47.254.021.237Zm-.192-3.145c0,.125.01.25.016.376C-692.409,187.477-692.415,187.353-692.419,187.228Zm.071,1.548c.007.117.015.233.023.352C-692.333,189.009-692.341,188.892-692.348,188.775Zm5.486,20.171c.089.175.178.352.27.526C-686.683,209.3-686.773,209.121-686.862,208.947Zm1.909,3.43c.365.6.735,1.189,1.127,1.77C-684.217,213.566-684.588,212.975-684.952,212.376Zm-1.011-1.738q.249.445.509.883C-685.626,211.229-685.8,210.934-685.964,210.638Zm73.165,17.669c.618-.415,1.225-.845,1.826-1.286C-611.571,227.462-612.181,227.891-612.8,228.306Zm8.839-18.29a44.941,44.941,0,0,1-5.807,7.162,44.874,44.874,0,0,1-6.758,5.546,44.48,44.48,0,0,1-7.193,3.911,44.115,44.115,0,0,1-8.339,2.641,44.491,44.491,0,0,1-9.176.955,44.593,44.593,0,0,1-8.7-.86,43.9,43.9,0,0,1-7.849-2.344,44.354,44.354,0,0,1-7.75-4.044,44.857,44.857,0,0,1-7.162-5.805,44.9,44.9,0,0,1-5.549-6.759,44.522,44.522,0,0,1-3.912-7.193,44.256,44.256,0,0,1-2.638-8.339,44.515,44.515,0,0,1-.955-9.175,44.525,44.525,0,0,1,.859-8.7,44.2,44.2,0,0,1,2.343-7.848,44.62,44.62,0,0,1,4.045-7.751,44.881,44.881,0,0,1,5.807-7.162,44.866,44.866,0,0,1,6.757-5.546,44.332,44.332,0,0,1,7.193-3.911,44.1,44.1,0,0,1,8.34-2.641,44.494,44.494,0,0,1,9.175-.955,44.467,44.467,0,0,1,8.706.86,44.165,44.165,0,0,1,7.846,2.342,44.424,44.424,0,0,1,7.752,4.044,44.9,44.9,0,0,1,7.162,5.807,44.7,44.7,0,0,1,5.547,6.759,44.4,44.4,0,0,1,3.912,7.193,44.315,44.315,0,0,1,2.64,8.339,44.617,44.617,0,0,1,.955,9.174,44.546,44.546,0,0,1-.861,8.705,44.145,44.145,0,0,1-2.343,7.847A44.459,44.459,0,0,1-603.96,210.016Zm13.7-29.191.02.213Zm.118,1.484c.008.111.016.222.022.332C-590.123,182.531-590.131,182.42-590.139,182.309Zm.078,1.52c0,.123.01.243.014.366C-590.051,184.073-590.057,183.952-590.062,183.829Z" transform="translate(704.62 -122.324)" fill="#d94297"/>
        <path id="Path_5185" data-name="Path 5185" d="M-677.421,149.531a51.917,51.917,0,0,1,4.224-3.765l-7.609-9.508a63.634,63.634,0,0,0-5.228,4.662,63.647,63.647,0,0,0-8.191,10.069l10.187,6.68A51.4,51.4,0,0,1-677.421,149.531Z" transform="translate(704.597 -122.354)" fill="#f7faf6"/>
        <path id="Path_5186" data-name="Path 5186" d="M-691.771,193.93c.02.136.036.274.059.411C-691.735,194.2-691.751,194.066-691.771,193.93Z" transform="translate(704.592 -122.479)" fill="#c80e2d"/>
        <path id="Path_5187" data-name="Path 5187" d="M-604.806,222.123a51.415,51.415,0,0,0,6.617-8.137A51.415,51.415,0,0,1-604.806,222.123Z" transform="translate(704.403 -122.523)" fill="#c80e2d"/>
        <path id="Path_5188" data-name="Path 5188" d="M-656.077,234.94q2.051.624,4.175,1.076Q-654.023,235.562-656.077,234.94Z" transform="translate(704.515 -122.568)" fill="#c80e2d"/>
        <path id="Path_5189" data-name="Path 5189" d="M-658.118,234.273c.552.2,1.111.373,1.672.548C-657.007,234.646-657.566,234.467-658.118,234.273Z" transform="translate(704.519 -122.567)" fill="#c80e2d"/>
        <path id="Path_5190" data-name="Path 5190" d="M-590.478,177.357l.03.2Z" transform="translate(704.372 -122.443)" fill="#c80e2d"/>
        <path id="Path_5191" data-name="Path 5191" d="M-680.912,153.467A51.351,51.351,0,0,0-684,157.69,51.7,51.7,0,0,1-680.912,153.467Z" transform="translate(704.575 -122.392)" fill="#f8faf8"/>
        <path id="Path_5192" data-name="Path 5192" d="M-679.2,151.473c-.539.6-1.057,1.208-1.567,1.828C-680.258,152.681-679.74,152.069-679.2,151.473Z" transform="translate(704.568 -122.387)" fill="#f8faf8"/>
        <path id="Path_5193" data-name="Path 5193" d="M-697.736,212.5c-.321-.679-.64-1.358-.935-2.049a62.038,62.038,0,0,1-3.7-11.706q-.529-2.518-.847-5.1l-.914.115q.324,2.622.859,5.18a62.869,62.869,0,0,0,3.75,11.879c.3.7.622,1.391.947,2.08Z" transform="translate(704.619 -122.479)" fill="url(#linear-gradient)"/>
        <path id="Path_5194" data-name="Path 5194" d="M-596.841,230.1a62.377,62.377,0,0,1-5.15,4.594l.577.72a64.094,64.094,0,0,0,5.227-4.661,63.857,63.857,0,0,0,8.193-10.07l-.772-.507A62.635,62.635,0,0,1-596.841,230.1Z" transform="translate(704.397 -122.536)" fill="url(#linear-gradient-2)"/>
        <path id="Path_5195" data-name="Path 5195" d="M-664.4,243.966a62.2,62.2,0,0,1-8.215-4.021l-.465.8a63.082,63.082,0,0,0,8.337,4.081,62.86,62.86,0,0,0,10.247,3.12l.193-.9A62.259,62.259,0,0,1-664.4,243.966Z" transform="translate(704.552 -122.579)" fill="url(#linear-gradient-3)"/>
        <path id="Path_5196" data-name="Path 5196" d="M-583.531,161.21a61.876,61.876,0,0,1,3.693,11.706q.529,2.518.848,5.1l.916-.116q-.328-2.622-.86-5.18a62.793,62.793,0,0,0-3.749-11.878c-.3-.7-.624-1.392-.949-2.079l-.834.393C-584.145,159.84-583.827,160.519-583.531,161.21Z" transform="translate(704.359 -122.403)" fill="url(#linear-gradient-4)"/>
        <path id="Path_5197" data-name="Path 5197" d="M-617.832,127.716a62.439,62.439,0,0,1,8.217,4.022l.464-.8a63.005,63.005,0,0,0-8.338-4.081,62.781,62.781,0,0,0-10.245-3.122l-.194.9A61.926,61.926,0,0,1-617.832,127.716Z" transform="translate(704.454 -122.327)" fill="url(#linear-gradient-5)"/>
        <path id="Path_5198" data-name="Path 5198" d="M-703.215,193.547a63.014,63.014,0,0,1-.483-7.772,62.619,62.619,0,0,1,1.2-12.214,62.046,62.046,0,0,1,3.268-11.02,62.4,62.4,0,0,1,5.672-10.887l.086-.127-.772-.5-.086.129a63.159,63.159,0,0,0-5.754,11.047,62.908,62.908,0,0,0-3.32,11.183,63.7,63.7,0,0,0-1.213,12.4,63.892,63.892,0,0,0,.491,7.887Z" transform="translate(704.62 -122.386)" fill="url(#linear-gradient-6)"/>
        <path id="Path_5199" data-name="Path 5199" d="M-672.669,239.885q-1.359-.792-2.671-1.648a62.817,62.817,0,0,1-10.048-8.158,62.725,62.725,0,0,1-7.788-9.487,62.29,62.29,0,0,1-4.547-8.052l-.836.394a63.553,63.553,0,0,0,4.615,8.171,63.845,63.845,0,0,0,7.9,9.628,63.787,63.787,0,0,0,10.2,8.276q1.33.871,2.709,1.674Z" transform="translate(704.607 -122.52)" fill="url(#linear-gradient-6)"/>
        <path id="Path_5200" data-name="Path 5200" d="M-602.1,234.721c-1.4,1.121-2.84,2.192-4.334,3.192a62.265,62.265,0,0,1-10.1,5.484,61.912,61.912,0,0,1-11.7,3.7,62.864,62.864,0,0,1-12.877,1.331,62.774,62.774,0,0,1-12.215-1.2c-.308-.061-.614-.129-.922-.193l-.194.9c.311.068.622.137.935.2a63.656,63.656,0,0,0,12.4,1.216,63.671,63.671,0,0,0,13.066-1.351,62.887,62.887,0,0,0,11.88-3.749,63.076,63.076,0,0,0,10.252-5.564c1.516-1.016,2.977-2.1,4.4-3.24Z" transform="translate(704.511 -122.568)" fill="url(#linear-gradient-8)"/>
        <path id="Path_5201" data-name="Path 5201" d="M-578.083,177.947l-.916.116h0a62.648,62.648,0,0,1,.486,7.77,62.755,62.755,0,0,1-1.2,12.215,61.812,61.812,0,0,1-3.271,11.019,62.066,62.066,0,0,1-5.672,10.886l-.084.127.772.507.086-.129a63.228,63.228,0,0,0,5.755-11.049,62.879,62.879,0,0,0,3.317-11.181,63.637,63.637,0,0,0,1.216-12.4A63.841,63.841,0,0,0-578.083,177.947Z" transform="translate(704.368 -122.445)" fill="url(#linear-gradient-8)"/>
        <path id="Path_5202" data-name="Path 5202" d="M-609.575,131.754q1.356.792,2.67,1.648a62.86,62.86,0,0,1,10.05,8.158,62.831,62.831,0,0,1,7.786,9.487,62.218,62.218,0,0,1,4.548,8.053l.834-.393a63.606,63.606,0,0,0-4.615-8.172,63.652,63.652,0,0,0-7.9-9.627,63.684,63.684,0,0,0-10.2-8.277q-1.332-.871-2.71-1.674Z" transform="translate(704.414 -122.343)" fill="url(#linear-gradient-6)"/>
        <path id="Path_5203" data-name="Path 5203" d="M-680.2,136.948c1.4-1.121,2.84-2.194,4.333-3.192a62.293,62.293,0,0,1,10.1-5.484,62,62,0,0,1,11.705-3.695,62.841,62.841,0,0,1,12.876-1.331,62.9,62.9,0,0,1,12.215,1.2c.308.063.614.129.922.2l.195-.9c-.312-.066-.624-.134-.936-.2a63.653,63.653,0,0,0-12.4-1.214,63.683,63.683,0,0,0-13.065,1.351,62.734,62.734,0,0,0-11.878,3.749,62.984,62.984,0,0,0-10.253,5.565c-1.517,1.013-2.979,2.1-4.4,3.239Z" transform="translate(704.568 -122.324)" fill="url(#linear-gradient-6)"/>
        <path id="Path_5204" data-name="Path 5204" d="M-685.38,141.572a62.484,62.484,0,0,1,5.151-4.594l-.577-.72a63.634,63.634,0,0,0-5.228,4.662,63.647,63.647,0,0,0-8.191,10.069l.772.505A62.65,62.65,0,0,1-685.38,141.572Z" transform="translate(704.597 -122.354)" fill="url(#linear-gradient-12)"/>
        <path id="Path_5205" data-name="Path 5205" d="M-596.759,176.395a45.192,45.192,0,0,0-2.691-8.507,45.358,45.358,0,0,0-3.991-7.337,45.562,45.562,0,0,0-5.658-6.892,45.526,45.526,0,0,0-7.306-5.923,45.32,45.32,0,0,0-7.907-4.126,44.952,44.952,0,0,0-8-2.389c-.646-.128-1.3-.239-1.949-.34-.2-.031-.405-.058-.609-.087-.471-.066-.946-.126-1.423-.177-.216-.024-.431-.048-.645-.068-.6-.058-1.2-.1-1.805-.135l-.21-.016c-.74-.038-1.487-.055-2.238-.055q-1.187,0-2.362.062h0l-.189.013q-.972.057-1.934.153c-.227.022-.453.051-.68.076q-.753.085-1.5.2c-.214.03-.431.059-.643.095-.689.113-1.373.234-2.051.377a45,45,0,0,0-8.5,2.692A45.229,45.229,0,0,0-666.393,148a45.538,45.538,0,0,0-6.9,5.658,45.654,45.654,0,0,0-5.92,7.3,45.206,45.206,0,0,0-4.126,7.907,44.969,44.969,0,0,0-2.389,8,45.351,45.351,0,0,0-.878,8.878,45.371,45.371,0,0,0,.975,9.359,44.963,44.963,0,0,0,2.692,8.506,45.317,45.317,0,0,0,3.988,7.336,45.872,45.872,0,0,0,5.66,6.894,45.775,45.775,0,0,0,7.3,5.922,45.41,45.41,0,0,0,7.908,4.124,44.824,44.824,0,0,0,8,2.391c.642.128,1.294.238,1.947.337.2.035.406.061.607.09.473.067.948.125,1.425.177.214.024.429.049.646.068q.9.087,1.81.136c.808.044,1.62.07,2.442.07a45.365,45.365,0,0,0,9.36-.974,45.058,45.058,0,0,0,8.5-2.691,45.408,45.408,0,0,0,7.337-3.991,45.587,45.587,0,0,0,6.894-5.658,45.736,45.736,0,0,0,5.923-7.307,45.336,45.336,0,0,0,4.124-7.9,44.969,44.969,0,0,0,2.389-8,45.357,45.357,0,0,0,.878-8.879A45.47,45.47,0,0,0-596.759,176.395Zm-36.927-35.412c-.137-.025-.27-.051-.41-.073C-633.957,140.932-633.823,140.958-633.686,140.983Zm-1.455-.221c-.341-.046-.681-.091-1.023-.128C-635.822,140.673-635.482,140.715-635.141,140.761Zm-1.867-.219c-.571-.053-1.143-.1-1.719-.128C-638.151,140.448-637.579,140.49-637.008,140.543Zm-9.489.124c-.363.042-.721.091-1.082.142C-647.218,140.755-646.86,140.708-646.5,140.666Zm-2.183.307c-.14.024-.277.053-.418.078C-648.957,141.027-648.82,141-648.68,140.974Zm-.026,89.547c.14.022.277.049.414.071C-648.429,230.57-648.566,230.543-648.706,230.521Zm1.458.223q.512.067,1.027.127Q-646.736,230.81-647.248,230.743Zm1.868.215c.573.053,1.147.1,1.724.131Q-644.52,231.04-645.379,230.959Z" transform="translate(704.581 -122.363)" fill="#ef69d2"/>
        <path id="Path_5206" data-name="Path 5206" d="M-602,177.511a39.909,39.909,0,0,0-2.374-7.5,39.912,39.912,0,0,0-3.52-6.471,40.276,40.276,0,0,0-4.989-6.079,40.2,40.2,0,0,0-6.443-5.223,39.951,39.951,0,0,0-6.973-3.639,39.658,39.658,0,0,0-7.057-2.106c-.569-.113-1.144-.211-1.719-.3-.178-.027-.357-.05-.536-.076-.415-.058-.834-.111-1.255-.156-.19-.021-.38-.043-.569-.061-.528-.05-1.061-.091-1.593-.119l-.185-.013c-.653-.034-1.312-.049-1.974-.049q-1.046,0-2.084.054h0l-.168.012q-.856.049-1.705.135c-.2.02-.4.045-.6.066q-.664.076-1.319.176c-.189.028-.38.053-.567.084-.608.1-1.212.207-1.808.333a39.674,39.674,0,0,0-7.5,2.374,40.024,40.024,0,0,0-6.47,3.519,40.212,40.212,0,0,0-6.081,4.989,40.322,40.322,0,0,0-5.22,6.441,39.927,39.927,0,0,0-3.639,6.974,39.642,39.642,0,0,0-2.106,7.059,40.024,40.024,0,0,0-.774,7.829,39.963,39.963,0,0,0,.86,8.253,39.7,39.7,0,0,0,2.374,7.5,40.026,40.026,0,0,0,3.517,6.47,40.461,40.461,0,0,0,4.991,6.079,40.326,40.326,0,0,0,6.441,5.223,39.948,39.948,0,0,0,6.973,3.637,39.533,39.533,0,0,0,7.06,2.109c.567.113,1.141.211,1.716.3.18.029.359.053.536.078q.625.088,1.257.156c.189.022.378.043.569.061q.793.076,1.6.119c.713.039,1.43.062,2.153.062a39.973,39.973,0,0,0,8.254-.859,39.613,39.613,0,0,0,7.5-2.374,39.9,39.9,0,0,0,6.471-3.519,40.221,40.221,0,0,0,6.08-4.989,40.414,40.414,0,0,0,5.224-6.443,39.892,39.892,0,0,0,3.636-6.972,39.539,39.539,0,0,0,2.109-7.059,40.025,40.025,0,0,0,.774-7.83A40.163,40.163,0,0,0-602,177.511Zm-32.567-31.229c-.119-.021-.237-.045-.36-.064C-634.8,146.237-634.681,146.261-634.562,146.282Zm-1.282-.195c-.3-.041-.6-.08-.9-.113C-636.444,146.009-636.145,146.046-635.844,146.087Zm-1.647-.193c-.5-.047-1.007-.086-1.516-.114Q-638.244,145.824-637.491,145.895Zm-8.368.109c-.321.037-.635.08-.954.125C-646.495,146.081-646.18,146.04-645.859,146Zm-1.926.27c-.123.022-.244.047-.368.069C-648.028,146.321-647.907,146.3-647.785,146.274Zm-.022,78.971c.124.02.244.043.365.062C-647.562,225.288-647.683,225.265-647.807,225.245Zm1.286.194c.3.041.6.078.905.114C-645.918,225.517-646.22,225.481-646.52,225.44Zm1.648.192q.757.07,1.519.115Q-644.115,225.7-644.873,225.631Z" transform="translate(704.569 -122.375)" fill="#c9418e"/>
        <g id="Group_896" data-name="Group 896" transform="translate(18.869 18.869)">
          <path id="Path_5207" data-name="Path 5207" d="M-603.4,169.7l3.308-1.415a44.411,44.411,0,0,0-3.911-7.193l-2.991,2A41.039,41.039,0,0,1-603.4,169.7Z" transform="translate(685.539 -141.277)" fill="#d94297"/>
          <path id="Path_5208" data-name="Path 5208" d="M-612.109,214.822l2.544,2.543a44.986,44.986,0,0,0,5.806-7.162l-3.013-1.965A41.271,41.271,0,0,1-612.109,214.822Z" transform="translate(685.55 -141.38)" fill="#d94297"/>
          <path id="Path_5209" data-name="Path 5209" d="M-679.166,170.6l-3.34-1.339a44.18,44.18,0,0,0-2.343,7.848l3.529.7A40.43,40.43,0,0,1-679.166,170.6Z" transform="translate(685.708 -141.295)" fill="#d94297"/>
          <path id="Path_5210" data-name="Path 5210" d="M-682.113,185.85h-3.6a44.483,44.483,0,0,0,.955,9.175l3.521-.74A40.934,40.934,0,0,1-682.113,185.85Z" transform="translate(685.71 -141.331)" fill="#d94297"/>
          <path id="Path_5211" data-name="Path 5211" d="M-678.8,201.984l-3.31,1.415a44.5,44.5,0,0,0,3.912,7.193l2.992-2A40.873,40.873,0,0,1-678.8,201.984Z" transform="translate(685.702 -141.366)" fill="#d94297"/>
          <path id="Path_5212" data-name="Path 5212" d="M-670.084,214.836l-2.544,2.543a44.873,44.873,0,0,0,7.162,5.805l1.964-3.013A41.231,41.231,0,0,1-670.084,214.836Z" transform="translate(685.682 -141.394)" fill="#d94297"/>
          <path id="Path_5213" data-name="Path 5213" d="M-641.115,144.832v-3.6a44.488,44.488,0,0,0-9.175.955l.741,3.522A40.882,40.882,0,0,1-641.115,144.832Z" transform="translate(685.633 -141.234)" fill="#d94297"/>
          <path id="Path_5214" data-name="Path 5214" d="M-657.247,148.145l-1.417-3.307a44.351,44.351,0,0,0-7.193,3.911l2,2.991A40.859,40.859,0,0,1-657.247,148.145Z" transform="translate(685.667 -141.242)" fill="#d94297"/>
          <path id="Path_5215" data-name="Path 5215" d="M-670.1,156.859l-2.544-2.543a44.856,44.856,0,0,0-5.807,7.162l3.013,1.965A41.24,41.24,0,0,1-670.1,156.859Z" transform="translate(685.694 -141.262)" fill="#d94297"/>
          <path id="Path_5216" data-name="Path 5216" d="M-600.964,177.4a40.923,40.923,0,0,1,.877,8.434h3.6a44.626,44.626,0,0,0-.955-9.174Z" transform="translate(685.526 -141.311)" fill="#d94297"/>
          <path id="Path_5217" data-name="Path 5217" d="M-612.124,156.847l2.543-2.543a44.912,44.912,0,0,0-7.162-5.807l-1.964,3.013A41.188,41.188,0,0,1-612.124,156.847Z" transform="translate(685.565 -141.25)" fill="#d94297"/>
          <path id="Path_5218" data-name="Path 5218" d="M-603.034,201.082l3.338,1.337a44.145,44.145,0,0,0,2.343-7.847l-3.527-.7A40.739,40.739,0,0,1-603.034,201.082Z" transform="translate(685.53 -141.348)" fill="#d94297"/>
          <path id="Path_5219" data-name="Path 5219" d="M-656.344,223.91l-1.339,3.339a43.907,43.907,0,0,0,7.849,2.344l.7-3.529A40.627,40.627,0,0,1-656.344,223.91Z" transform="translate(685.65 -141.413)" fill="#d94297"/>
          <path id="Path_5220" data-name="Path 5220" d="M-625.863,147.779l1.337-3.341a44.173,44.173,0,0,0-7.846-2.342l-.7,3.529A40.526,40.526,0,0,1-625.863,147.779Z" transform="translate(685.596 -141.236)" fill="#d94297"/>
          <path id="Path_5221" data-name="Path 5221" d="M-641.1,226.859v3.6a44.492,44.492,0,0,0,9.176-.955l-.743-3.522A40.834,40.834,0,0,1-641.1,226.859Z" transform="translate(685.613 -141.418)" fill="#d94297"/>
          <path id="Path_5222" data-name="Path 5222" d="M-624.962,223.541l1.417,3.307a44.511,44.511,0,0,0,7.193-3.911l-2-2.992A40.817,40.817,0,0,1-624.962,223.541Z" transform="translate(685.578 -141.405)" fill="#d94297"/>
        </g>
        <g id="Group_897" data-name="Group 897" transform="translate(45.248 46.68)">
          <path id="Path_5223" data-name="Path 5223" d="M-651.387,200.769a8.662,8.662,0,0,1-4.929-1.176,5.887,5.887,0,0,1-2.333-3.3,17.679,17.679,0,0,1-.625-4.967h5.65a15.852,15.852,0,0,0,.208,2.806,3.234,3.234,0,0,0,.759,1.706,2.083,2.083,0,0,0,1.649.532,1.81,1.81,0,0,0,1.591-.834,5.107,5.107,0,0,0,.608-2.275q.114-1.479.114-3.488a19.361,19.361,0,0,0-.19-2.882,4.261,4.261,0,0,0-.74-1.972,1.987,1.987,0,0,0-1.687-.721,2.193,2.193,0,0,0-1.687.721,4.406,4.406,0,0,0-.967,2.047h-5.005l.417-17.442h14.1v5.043h-9.29l-.341,6.787a3.585,3.585,0,0,1,1.536-.986,7.737,7.737,0,0,1,2.332-.493,5.639,5.639,0,0,1,3.962.909,6.649,6.649,0,0,1,2.332,3.357,16.844,16.844,0,0,1,.758,5.4,31.1,31.1,0,0,1-.3,4.493,9.855,9.855,0,0,1-1.176,3.564,5.959,5.959,0,0,1-2.5,2.332A9.338,9.338,0,0,1-651.387,200.769Z" transform="translate(659.274 -169.107)" fill="#f7faf6"/>
          <path id="Path_5224" data-name="Path 5224" d="M-631.552,200.768a8.514,8.514,0,0,1-4.588-1.138,7.071,7.071,0,0,1-2.73-3.129,10.969,10.969,0,0,1-.91-4.606V178.131a11.863,11.863,0,0,1,.872-4.721,6.812,6.812,0,0,1,2.692-3.166,8.672,8.672,0,0,1,4.664-1.139,8.49,8.49,0,0,1,4.607,1.139,6.845,6.845,0,0,1,2.673,3.166,11.866,11.866,0,0,1,.872,4.721V191.9a10.988,10.988,0,0,1-.909,4.606,7.078,7.078,0,0,1-2.731,3.129A8.362,8.362,0,0,1-631.552,200.768Zm0-5.158a1.682,1.682,0,0,0,1.479-.644,3.7,3.7,0,0,0,.607-1.536,9.924,9.924,0,0,0,.152-1.649V178.245a12.032,12.032,0,0,0-.133-1.744,3.685,3.685,0,0,0-.588-1.574,1.707,1.707,0,0,0-1.517-.664,1.757,1.757,0,0,0-1.536.664,3.526,3.526,0,0,0-.607,1.574,12.015,12.015,0,0,0-.133,1.744v13.537a9.82,9.82,0,0,0,.151,1.649,3.425,3.425,0,0,0,.645,1.536A1.742,1.742,0,0,0-631.552,195.61Z" transform="translate(659.232 -169.106)" fill="#f7faf6"/>
        </g>
      </g>
    </g>
    <ellipse id="Ellipse_77" data-name="Ellipse 77" cx="63.329" cy="63.329" rx="63.329" ry="63.329" transform="translate(259.002 518.445)" fill="#031d02" opacity="0.3"/>
  </g>
</svg>
