<svg xmlns="http://www.w3.org/2000/svg" xmlns:xlink="http://www.w3.org/1999/xlink" width="147.657" height="147.657" viewBox="0 0 147.657 147.657">
  <defs>
    <filter id="Ellipse_96" x="0" y="0" width="147.657" height="147.657" filterUnits="userSpaceOnUse">
      <feOffset dy="4" input="SourceAlpha"/>
      <feGaussianBlur stdDeviation="3.5" result="blur"/>
      <feFlood flood-opacity="0.388"/>
      <feComposite operator="in" in2="blur"/>
      <feComposite in="SourceGraphic"/>
    </filter>
    <linearGradient id="linear-gradient" x1="28.859" y1="15.115" x2="29.015" y2="15.115" gradientUnits="objectBoundingBox">
      <stop offset="0" stop-color="#a9a5a6"/>
      <stop offset="0.264" stop-color="#c8c6c6"/>
      <stop offset="0.566" stop-color="#e6e5e5"/>
      <stop offset="0.822" stop-color="#f8f8f8"/>
      <stop offset="1" stop-color="#fff"/>
    </linearGradient>
    <linearGradient id="linear-gradient-2" x1="15.032" y1="15.575" x2="15.103" y2="15.575" xlink:href="#linear-gradient"/>
    <linearGradient id="linear-gradient-3" x1="12.129" y1="36.153" x2="12.182" y2="36.153" xlink:href="#linear-gradient"/>
    <linearGradient id="linear-gradient-4" x1="30.952" y1="12.834" x2="31.108" y2="12.834" xlink:href="#linear-gradient"/>
    <linearGradient id="linear-gradient-5" x1="10.601" y1="31.644" x2="10.654" y2="31.644" xlink:href="#linear-gradient"/>
    <linearGradient id="linear-gradient-6" x1="29.224" y1="6.683" x2="29.314" y2="6.683" gradientUnits="objectBoundingBox">
      <stop offset="0" stop-color="#ef9e6b"/>
      <stop offset="1" stop-color="#ef9e6b"/>
    </linearGradient>
    <linearGradient id="linear-gradient-7" x1="11.293" y1="6.063" x2="11.332" y2="6.063" xlink:href="#linear-gradient-6"/>
    <linearGradient id="linear-gradient-8" x1="5.49" y1="11.853" x2="5.528" y2="11.853" xlink:href="#linear-gradient-6"/>
    <linearGradient id="linear-gradient-9" x1="5.449" y1="26.096" x2="5.468" y2="26.096" xlink:href="#linear-gradient-6"/>
    <linearGradient id="linear-gradient-10" x1="15.576" y1="18.054" x2="15.648" y2="18.054" xlink:href="#linear-gradient"/>
  </defs>
  <g id="Group_946" data-name="Group 946" transform="translate(-578.288 -715.759)">
    <g transform="matrix(1, 0, 0, 1, 578.29, 715.76)" filter="url(#Ellipse_96)">
      <ellipse id="Ellipse_96-2" data-name="Ellipse 96" cx="63.329" cy="63.329" rx="63.329" ry="63.329" transform="translate(10.5 6.5)" fill="#5aaf21"/>
    </g>
    <g id="Group_935" data-name="Group 935" transform="translate(588.788 722.259)">
      <ellipse id="Ellipse_62" data-name="Ellipse 62" cx="63.388" cy="63.388" rx="63.388" ry="63.388" transform="translate(0 0)" fill="#ea8242"/>
      <g id="Group_890" data-name="Group 890">
        <path id="Path_5082" data-name="Path 5082" d="M-282.524,175.752a48.234,48.234,0,0,0-2.874-9.082,48.51,48.51,0,0,0-4.262-7.834,48.767,48.767,0,0,0-6.041-7.361,48.867,48.867,0,0,0-7.8-6.324,48.378,48.378,0,0,0-8.443-4.4,47.81,47.81,0,0,0-8.545-2.551c-.688-.138-1.382-.255-2.081-.362-.215-.035-.431-.063-.648-.094-.5-.07-1.011-.135-1.52-.189-.23-.026-.46-.051-.693-.074-.636-.059-1.28-.11-1.927-.145l-.225-.014q-1.187-.061-2.389-.06-1.269,0-2.522.066h0l-.2.014c-.691.039-1.378.1-2.062.164-.244.023-.483.053-.727.08q-.8.094-1.6.211c-.231.035-.46.066-.688.1-.735.122-1.463.251-2.188.4a47.956,47.956,0,0,0-9.08,2.875,48.608,48.608,0,0,0-7.836,4.26,48.973,48.973,0,0,0-7.359,6.042,48.733,48.733,0,0,0-6.324,7.8,48.426,48.426,0,0,0-4.4,8.445,47.806,47.806,0,0,0-2.552,8.546,48.437,48.437,0,0,0-.939,9.479,48.36,48.36,0,0,0,1.043,9.993,48.11,48.11,0,0,0,2.875,9.082,48.25,48.25,0,0,0,4.258,7.834,48.842,48.842,0,0,0,6.044,7.361,48.921,48.921,0,0,0,7.8,6.324,48.474,48.474,0,0,0,8.443,4.4,48.046,48.046,0,0,0,8.548,2.551c.688.137,1.381.255,2.082.362.214.035.43.063.647.094q.757.1,1.52.189c.23.026.459.051.69.073.641.06,1.283.109,1.931.146.866.047,1.735.074,2.611.074a48.478,48.478,0,0,0,9.991-1.041,48.029,48.029,0,0,0,9.084-2.874,48.675,48.675,0,0,0,7.834-4.261,48.975,48.975,0,0,0,7.361-6.042,48.841,48.841,0,0,0,6.324-7.8,48.312,48.312,0,0,0,4.4-8.443,47.975,47.975,0,0,0,2.553-8.546,48.675,48.675,0,0,0,.937-9.481A48.5,48.5,0,0,0-282.524,175.752Zm-39.431-37.813c-.145-.025-.288-.054-.435-.076C-322.243,137.888-322.1,137.915-321.955,137.939Zm-1.554-.237c-.362-.049-.724-.094-1.091-.135C-324.233,137.608-323.871,137.653-323.509,137.7Zm-1.992-.23q-.914-.088-1.838-.139Q-326.413,137.383-325.5,137.473Zm-7.218-.133c-.659.037-1.316.092-1.969.156C-334.035,137.432-333.377,137.379-332.719,137.34Zm-2.916.261q-.579.069-1.153.152Q-336.213,137.671-335.634,137.6Zm-2.331.329c-.15.025-.3.056-.446.082C-338.263,137.986-338.115,137.955-337.965,137.931Zm-.027,95.618c.148.025.3.055.442.078C-337.7,233.6-337.844,233.575-337.992,233.549Zm1.557.237c.364.049.731.1,1.1.137C-335.7,233.882-336.071,233.835-336.436,233.786Zm1.994.232q.919.085,1.844.139C-333.215,234.121-333.829,234.076-334.442,234.017Z" transform="translate(393.359 -122.356)" fill="#c80e2d"/>
        <path id="Path_5083" data-name="Path 5083" d="M-377.091,206.017a50.9,50.9,0,0,1-3.028-9.6q-.433-2.064-.694-4.187l-12.085,1.517q.323,2.622.859,5.18a62.782,62.782,0,0,0,3.75,11.879c.3.7.622,1.391.947,2.08l11.017-5.194C-376.587,207.139-376.848,206.584-377.091,206.017Z" transform="translate(393.39 -122.476)" fill="#f7faf6"/>
        <path id="Path_5084" data-name="Path 5084" d="M-276.78,220.665l-10.189-6.679a51.466,51.466,0,0,1-6.616,8.137,51.473,51.473,0,0,1-4.224,3.765l7.608,9.508a64.333,64.333,0,0,0,5.228-4.661A63.844,63.844,0,0,0-276.78,220.665Z" transform="translate(393.183 -122.523)" fill="#f7faf6"/>
        <path id="Path_5085" data-name="Path 5085" d="M-348.981,233.493a50.634,50.634,0,0,1-6.735-3.3l-6.134,10.524a63.045,63.045,0,0,0,8.338,4.081,62.853,62.853,0,0,0,10.246,3.12l2.564-11.915A50.866,50.866,0,0,1-348.981,233.493Z" transform="translate(393.322 -122.558)" fill="#f7faf6"/>
        <path id="Path_5086" data-name="Path 5086" d="M-282.677,165.639a50.463,50.463,0,0,1,3.029,9.6q.431,2.064.7,4.187l12.086-1.517q-.329-2.622-.86-5.18a62.859,62.859,0,0,0-3.749-11.878c-.3-.7-.623-1.392-.949-2.079l-11.018,5.192C-283.179,164.516-282.917,165.072-282.677,165.639Z" transform="translate(393.152 -122.403)" fill="#f7faf6"/>
        <path id="Path_5087" data-name="Path 5087" d="M-310.793,138.168a51.278,51.278,0,0,1,6.733,3.3l6.133-10.524a63.02,63.02,0,0,0-8.337-4.081,62.8,62.8,0,0,0-10.247-3.122l-2.563,11.918A50.836,50.836,0,0,1-310.793,138.168Z" transform="translate(393.23 -122.327)" fill="#f7faf6"/>
        <path id="Path_5088" data-name="Path 5088" d="M-267.1,177.826l-12.086,1.517v.006q-.262-2.123-.7-4.193a50.481,50.481,0,0,0-3.029-9.6c-.24-.567-.5-1.125-.766-1.681v0l11.018-5.192a63.588,63.588,0,0,0-4.615-8.172,63.7,63.7,0,0,0-7.9-9.627,63.752,63.752,0,0,0-10.2-8.277q-1.334-.871-2.711-1.674l-6.133,10.524,0,0a51.075,51.075,0,0,0-6.735-3.3,50.844,50.844,0,0,0-8.281-2.512l2.563-11.918c-.311-.066-.624-.134-.935-.2a63.662,63.662,0,0,0-12.4-1.214,63.681,63.681,0,0,0-13.066,1.351,62.72,62.72,0,0,0-11.878,3.749,63,63,0,0,0-10.254,5.565c-1.516,1.013-2.978,2.1-4.4,3.239l7.608,9.508a52.139,52.139,0,0,0-4.223,3.765,51.423,51.423,0,0,0-6.687,8.24l.071-.1-10.187-6.679-.086.129a63.191,63.191,0,0,0-5.755,11.047,63.083,63.083,0,0,0-3.32,11.183,63.738,63.738,0,0,0-1.213,12.4,63.7,63.7,0,0,0,.492,7.887l12.085-1.517,0-.011q.263,2.125.7,4.2a50.9,50.9,0,0,0,3.028,9.6c.244.567.505,1.123.766,1.678l-11.017,5.194a63.522,63.522,0,0,0,4.615,8.171,63.758,63.758,0,0,0,7.9,9.628,63.743,63.743,0,0,0,10.2,8.276q1.33.871,2.709,1.674l6.134-10.524v0a50.412,50.412,0,0,0,6.735,3.3,50.9,50.9,0,0,0,9.033,2.682c-.254-.051-.5-.116-.754-.168l-2.564,11.915c.312.068.623.137.936.2A63.659,63.659,0,0,0-330,249.1a63.656,63.656,0,0,0,13.065-1.351A62.9,62.9,0,0,0-305.057,244a63.049,63.049,0,0,0,10.251-5.564c1.517-1.016,2.979-2.1,4.4-3.24l-7.608-9.508a51.463,51.463,0,0,0,4.224-3.765,51.469,51.469,0,0,0,6.617-8.137l10.189,6.68.086-.129a63.219,63.219,0,0,0,5.755-11.049,62.743,62.743,0,0,0,3.317-11.181,63.647,63.647,0,0,0,1.216-12.4A64.082,64.082,0,0,0-267.1,177.826Zm-17.267-15.348c-.091-.175-.18-.35-.271-.526C-284.552,162.128-284.463,162.3-284.372,162.479Zm-1.912-3.431c-.364-.6-.736-1.189-1.125-1.768C-287.021,157.858-286.648,158.448-286.284,159.047Zm1.01,1.738q-.246-.441-.5-.877C-285.608,160.2-285.438,160.491-285.274,160.785Zm-73.163-17.667c-.619.413-1.224.846-1.823,1.284C-359.662,143.963-359.056,143.532-358.437,143.119ZM-381,190.373l.022.237Zm-.191-3.145c0,.125.01.25.015.376C-381.179,187.477-381.185,187.353-381.189,187.228Zm.07,1.548c.008.117.016.233.024.352C-381.1,189.009-381.111,188.892-381.119,188.775Zm5.486,20.171c.089.175.18.352.271.526C-375.453,209.3-375.544,209.121-375.633,208.947Zm1.91,3.43c.364.6.736,1.189,1.127,1.77C-372.987,213.566-373.359,212.975-373.723,212.376Zm-1.011-1.738q.248.445.508.883C-374.4,211.229-374.568,210.934-374.734,210.638Zm73.165,17.669c.618-.415,1.223-.845,1.826-1.286Q-300.641,227.683-301.569,228.306Zm8.838-18.29a44.92,44.92,0,0,1-5.805,7.162,44.873,44.873,0,0,1-6.76,5.546,44.4,44.4,0,0,1-7.193,3.911,44.106,44.106,0,0,1-8.339,2.641,44.488,44.488,0,0,1-9.175.955,44.6,44.6,0,0,1-8.7-.86,43.87,43.87,0,0,1-7.848-2.344,44.346,44.346,0,0,1-7.751-4.044,44.791,44.791,0,0,1-7.161-5.805,44.8,44.8,0,0,1-5.549-6.759,44.507,44.507,0,0,1-3.912-7.193,44.227,44.227,0,0,1-2.637-8.339,44.49,44.49,0,0,1-.956-9.175,44.45,44.45,0,0,1,.86-8.7,44.249,44.249,0,0,1,2.342-7.848,44.626,44.626,0,0,1,4.044-7.751,44.916,44.916,0,0,1,5.808-7.162,44.814,44.814,0,0,1,6.756-5.546,44.349,44.349,0,0,1,7.193-3.911,44.1,44.1,0,0,1,8.339-2.641,44.5,44.5,0,0,1,9.176-.955,44.459,44.459,0,0,1,8.705.86,44.21,44.21,0,0,1,7.847,2.342,44.372,44.372,0,0,1,7.751,4.044,44.954,44.954,0,0,1,7.164,5.807,44.729,44.729,0,0,1,5.546,6.759,44.438,44.438,0,0,1,3.911,7.193,44.228,44.228,0,0,1,2.641,8.339,44.617,44.617,0,0,1,.955,9.174,44.6,44.6,0,0,1-.861,8.705,44.125,44.125,0,0,1-2.343,7.847A44.463,44.463,0,0,1-292.731,210.016Zm13.7-29.191.019.213Zm.119,1.484q.012.166.021.332Q-278.9,182.476-278.909,182.309Zm.078,1.52c0,.123.01.243.014.366C-278.821,184.073-278.827,183.952-278.831,183.829Z" transform="translate(393.391 -122.324)" fill="#ea8242"/>
        <path id="Path_5089" data-name="Path 5089" d="M-366.19,149.531a52.144,52.144,0,0,1,4.223-3.765l-7.608-9.508a63.639,63.639,0,0,0-5.227,4.662,63.574,63.574,0,0,0-8.191,10.069l10.187,6.68A51.3,51.3,0,0,1-366.19,149.531Z" transform="translate(393.369 -122.354)" fill="#f7faf6"/>
        <path id="Path_5090" data-name="Path 5090" d="M-380.541,193.93c.019.136.035.274.059.411C-380.506,194.2-380.522,194.066-380.541,193.93Z" transform="translate(393.363 -122.479)" fill="#c80e2d"/>
        <path id="Path_5091" data-name="Path 5091" d="M-293.576,222.123a51.474,51.474,0,0,0,6.617-8.137A51.474,51.474,0,0,1-293.576,222.123Z" transform="translate(393.174 -122.523)" fill="#c80e2d"/>
        <path id="Path_5092" data-name="Path 5092" d="M-344.848,234.94q2.052.624,4.176,1.076Q-342.793,235.562-344.848,234.94Z" transform="translate(393.286 -122.568)" fill="#c80e2d"/>
        <path id="Path_5093" data-name="Path 5093" d="M-346.889,234.273c.552.2,1.112.373,1.672.548C-345.777,234.646-346.337,234.467-346.889,234.273Z" transform="translate(393.29 -122.567)" fill="#c80e2d"/>
        <path id="Path_5094" data-name="Path 5094" d="M-279.248,177.357l.029.2Z" transform="translate(393.143 -122.443)" fill="#c80e2d"/>
        <path id="Path_5095" data-name="Path 5095" d="M-369.683,153.467a51.341,51.341,0,0,0-3.09,4.223A51.687,51.687,0,0,1-369.683,153.467Z" transform="translate(393.346 -122.392)" fill="#f8faf8"/>
        <path id="Path_5096" data-name="Path 5096" d="M-367.972,151.473c-.539.6-1.056,1.208-1.567,1.828C-369.028,152.681-368.511,152.069-367.972,151.473Z" transform="translate(393.339 -122.387)" fill="#f8faf8"/>
        <path id="Path_5097" data-name="Path 5097" d="M-386.506,212.5c-.322-.679-.64-1.358-.936-2.049a62.189,62.189,0,0,1-3.7-11.706q-.527-2.518-.846-5.1l-.914.115q.323,2.622.859,5.18a62.781,62.781,0,0,0,3.75,11.879c.3.7.622,1.391.947,2.08Z" transform="translate(393.39 -122.479)" fill="url(#linear-gradient)"/>
        <path id="Path_5098" data-name="Path 5098" d="M-285.612,230.1a62.166,62.166,0,0,1-5.15,4.594l.577.72a64.362,64.362,0,0,0,5.228-4.661,63.852,63.852,0,0,0,8.193-10.07l-.773-.507A62.5,62.5,0,0,1-285.612,230.1Z" transform="translate(393.168 -122.536)" fill="url(#linear-gradient-2)"/>
        <path id="Path_5099" data-name="Path 5099" d="M-353.169,243.966a62.175,62.175,0,0,1-8.216-4.021l-.465.8a63.045,63.045,0,0,0,8.338,4.081,62.841,62.841,0,0,0,10.246,3.12l.194-.9A62.222,62.222,0,0,1-353.169,243.966Z" transform="translate(393.322 -122.579)" fill="url(#linear-gradient-3)"/>
        <path id="Path_5100" data-name="Path 5100" d="M-272.3,161.21a61.772,61.772,0,0,1,3.694,11.706q.53,2.518.848,5.1l.916-.116c-.22-1.748-.5-3.477-.86-5.18a62.868,62.868,0,0,0-3.749-11.878c-.3-.7-.624-1.392-.949-2.079l-.834.393C-272.915,159.84-272.6,160.519-272.3,161.21Z" transform="translate(393.13 -122.403)" fill="url(#linear-gradient-4)"/>
        <path id="Path_5101" data-name="Path 5101" d="M-306.6,127.716a62.513,62.513,0,0,1,8.216,4.022l.464-.8a63.029,63.029,0,0,0-8.337-4.081,62.8,62.8,0,0,0-10.247-3.122l-.193.9A61.933,61.933,0,0,1-306.6,127.716Z" transform="translate(393.225 -122.327)" fill="url(#linear-gradient-5)"/>
        <path id="Path_5102" data-name="Path 5102" d="M-391.985,193.547a62.823,62.823,0,0,1-.484-7.772,62.591,62.591,0,0,1,1.2-12.214A62.007,62.007,0,0,1-388,162.54a62.48,62.48,0,0,1,5.671-10.887l.086-.127-.771-.5-.086.129a63.19,63.19,0,0,0-5.755,11.047,63.081,63.081,0,0,0-3.32,11.183,63.738,63.738,0,0,0-1.213,12.4,63.7,63.7,0,0,0,.492,7.887Z" transform="translate(393.391 -122.386)" fill="url(#linear-gradient-6)"/>
        <path id="Path_5103" data-name="Path 5103" d="M-361.44,239.885q-1.358-.792-2.671-1.648a62.914,62.914,0,0,1-10.048-8.158,62.791,62.791,0,0,1-7.788-9.487,62.384,62.384,0,0,1-4.546-8.052l-.836.394a63.538,63.538,0,0,0,4.615,8.171,63.764,63.764,0,0,0,7.9,9.628,63.744,63.744,0,0,0,10.2,8.276q1.331.871,2.709,1.674Z" transform="translate(393.378 -122.52)" fill="url(#linear-gradient-7)"/>
        <path id="Path_5104" data-name="Path 5104" d="M-290.876,234.721c-1.4,1.121-2.839,2.192-4.334,3.192a62.22,62.22,0,0,1-10.1,5.484,61.916,61.916,0,0,1-11.7,3.7,62.845,62.845,0,0,1-12.876,1.331,62.761,62.761,0,0,1-12.215-1.2c-.308-.061-.615-.129-.922-.193l-.195.9c.312.068.623.137.936.2a63.649,63.649,0,0,0,12.4,1.216,63.656,63.656,0,0,0,13.065-1.351,62.9,62.9,0,0,0,11.881-3.749,63.059,63.059,0,0,0,10.251-5.564c1.517-1.016,2.979-2.1,4.4-3.24Z" transform="translate(393.282 -122.568)" fill="#e26619"/>
        <path id="Path_5105" data-name="Path 5105" d="M-266.853,177.947l-.916.116h0a62.8,62.8,0,0,1,.485,7.77,62.755,62.755,0,0,1-1.2,12.215,61.825,61.825,0,0,1-3.27,11.019,62.058,62.058,0,0,1-5.673,10.886l-.084.127.773.507.086-.129A63.22,63.22,0,0,0-270.9,209.41a62.743,62.743,0,0,0,3.317-11.181,63.656,63.656,0,0,0,1.216-12.4A64.068,64.068,0,0,0-266.853,177.947Z" transform="translate(393.14 -122.445)" fill="#e26619"/>
        <path id="Path_5106" data-name="Path 5106" d="M-298.346,131.754q1.356.792,2.67,1.648a62.74,62.74,0,0,1,10.05,8.158,62.715,62.715,0,0,1,7.786,9.487,62.239,62.239,0,0,1,4.549,8.053l.834-.393a63.579,63.579,0,0,0-4.615-8.172,63.7,63.7,0,0,0-7.9-9.627,63.743,63.743,0,0,0-10.2-8.277q-1.333-.871-2.711-1.674Z" transform="translate(393.185 -122.343)" fill="url(#linear-gradient-8)"/>
        <path id="Path_5107" data-name="Path 5107" d="M-368.97,136.948c1.4-1.121,2.842-2.194,4.334-3.192a62.259,62.259,0,0,1,10.1-5.484,61.964,61.964,0,0,1,11.7-3.695,62.849,62.849,0,0,1,12.877-1.331,62.915,62.915,0,0,1,12.215,1.2c.307.063.613.129.922.2l.194-.9c-.311-.066-.624-.134-.935-.2a63.664,63.664,0,0,0-12.4-1.214,63.68,63.68,0,0,0-13.066,1.351,62.72,62.72,0,0,0-11.878,3.749,63,63,0,0,0-10.254,5.565c-1.516,1.013-2.978,2.1-4.4,3.239Z" transform="translate(393.339 -122.324)" fill="url(#linear-gradient-9)"/>
        <path id="Path_5108" data-name="Path 5108" d="M-374.15,141.572A62.64,62.64,0,0,1-369,136.978l-.577-.72a63.639,63.639,0,0,0-5.227,4.662,63.574,63.574,0,0,0-8.191,10.069l.771.505A62.773,62.773,0,0,1-374.15,141.572Z" transform="translate(393.369 -122.354)" fill="url(#linear-gradient-10)"/>
        <path id="Path_5109" data-name="Path 5109" d="M-285.53,176.395a45.238,45.238,0,0,0-2.692-8.507,45.278,45.278,0,0,0-3.99-7.337,45.626,45.626,0,0,0-5.658-6.892,45.636,45.636,0,0,0-7.306-5.923,45.387,45.387,0,0,0-7.907-4.126,44.97,44.97,0,0,0-8-2.389c-.645-.128-1.3-.239-1.949-.34-.2-.031-.4-.058-.608-.087-.471-.066-.946-.126-1.423-.177-.215-.024-.431-.048-.646-.068-.6-.058-1.2-.1-1.8-.135l-.211-.016q-1.11-.057-2.238-.055c-.791,0-1.58.02-2.363.062h0l-.191.013c-.646.038-1.292.089-1.933.153-.228.022-.453.051-.68.076-.5.057-1,.123-1.5.2-.215.03-.431.059-.644.095-.689.113-1.373.234-2.051.377a45.036,45.036,0,0,0-8.5,2.692A45.3,45.3,0,0,0-355.164,148a45.56,45.56,0,0,0-6.9,5.658,45.756,45.756,0,0,0-5.92,7.3,45.372,45.372,0,0,0-4.126,7.907,45.111,45.111,0,0,0-2.389,8,45.436,45.436,0,0,0-.877,8.878,45.4,45.4,0,0,0,.974,9.359,45.139,45.139,0,0,0,2.692,8.506,45.409,45.409,0,0,0,3.99,7.336,45.744,45.744,0,0,0,5.66,6.894,45.712,45.712,0,0,0,7.3,5.922,45.364,45.364,0,0,0,7.907,4.124,44.852,44.852,0,0,0,8,2.391c.644.128,1.294.238,1.947.337.2.035.407.061.608.09.473.067.948.125,1.426.177.212.024.428.049.645.068q.9.087,1.81.136c.809.044,1.621.07,2.443.07a45.352,45.352,0,0,0,9.359-.974,45.029,45.029,0,0,0,8.5-2.691,45.41,45.41,0,0,0,7.337-3.991,45.619,45.619,0,0,0,6.895-5.658,45.749,45.749,0,0,0,5.922-7.307,45.169,45.169,0,0,0,4.124-7.9,44.929,44.929,0,0,0,2.39-8,45.292,45.292,0,0,0,.879-8.879A45.462,45.462,0,0,0-285.53,176.395Zm-36.927-35.412c-.135-.025-.269-.051-.409-.073C-322.726,140.932-322.593,140.958-322.457,140.983Zm-1.454-.221c-.342-.046-.682-.091-1.024-.128C-324.592,140.673-324.253,140.715-323.911,140.761Zm-1.868-.219c-.569-.053-1.141-.1-1.719-.128C-326.92,140.448-326.348,140.49-325.779,140.543Zm-9.489.124c-.362.042-.719.091-1.082.142C-335.987,140.755-335.631,140.708-335.268,140.666Zm-2.183.307c-.139.024-.277.053-.417.078C-337.728,141.027-337.59,141-337.451,140.974Zm-.026,89.547c.142.022.278.049.415.071C-337.2,230.57-337.336,230.543-337.477,230.521Zm1.459.223q.513.067,1.027.127Q-335.5,230.81-336.018,230.743Zm1.869.215c.573.053,1.147.1,1.723.131Q-333.291,231.04-334.15,230.959Z" transform="translate(393.352 -122.363)" fill="#ebaa83"/>
        <path id="Path_5110" data-name="Path 5110" d="M-290.766,177.511a39.82,39.82,0,0,0-2.374-7.5,39.916,39.916,0,0,0-3.519-6.471,40.373,40.373,0,0,0-4.989-6.079,40.229,40.229,0,0,0-6.443-5.223,39.949,39.949,0,0,0-6.973-3.639,39.667,39.667,0,0,0-7.058-2.106c-.569-.113-1.142-.211-1.718-.3-.178-.027-.357-.05-.536-.076-.415-.058-.834-.111-1.255-.156-.191-.021-.38-.043-.57-.061-.528-.05-1.06-.091-1.592-.119l-.185-.013c-.653-.034-1.311-.049-1.974-.049q-1.048,0-2.084.054h0l-.168.012c-.571.033-1.141.078-1.705.135-.2.02-.4.045-.6.066q-.663.076-1.319.176c-.188.028-.38.053-.567.084-.609.1-1.211.207-1.809.333a39.675,39.675,0,0,0-7.5,2.374,40,40,0,0,0-6.471,3.519,40.282,40.282,0,0,0-6.08,4.989,40.317,40.317,0,0,0-5.221,6.441,39.915,39.915,0,0,0-3.638,6.974,39.685,39.685,0,0,0-2.107,7.059,40.024,40.024,0,0,0-.773,7.829,40.047,40.047,0,0,0,.859,8.253,39.794,39.794,0,0,0,2.374,7.5,40.093,40.093,0,0,0,3.517,6.47,40.445,40.445,0,0,0,4.991,6.079,40.274,40.274,0,0,0,6.442,5.223,39.941,39.941,0,0,0,6.973,3.637,39.521,39.521,0,0,0,7.058,2.109c.567.113,1.141.211,1.717.3.179.029.358.053.536.078q.626.088,1.257.156c.187.022.377.043.569.061q.792.076,1.6.119c.713.039,1.429.062,2.153.062a39.964,39.964,0,0,0,8.253-.859,39.617,39.617,0,0,0,7.5-2.374,39.948,39.948,0,0,0,6.47-3.519,40.19,40.19,0,0,0,6.081-4.989,40.344,40.344,0,0,0,5.223-6.443,39.863,39.863,0,0,0,3.637-6.972,39.566,39.566,0,0,0,2.108-7.059,39.941,39.941,0,0,0,.775-7.83A40.1,40.1,0,0,0-290.766,177.511Zm-32.566-31.229c-.12-.021-.237-.045-.36-.064C-323.57,146.237-323.452,146.261-323.333,146.282Zm-1.282-.195c-.3-.041-.6-.08-.9-.113C-325.214,146.009-324.915,146.046-324.615,146.087Zm-1.646-.193c-.5-.047-1.008-.086-1.517-.114Q-327.015,145.824-326.261,145.895Zm-8.369.109c-.319.037-.636.08-.954.125C-335.266,146.081-334.949,146.04-334.63,146Zm-1.925.27c-.124.022-.245.047-.369.069C-336.8,146.321-336.678,146.3-336.555,146.274Zm-.023,78.971c.124.02.245.043.365.062C-336.333,225.288-336.454,225.265-336.578,225.245Zm1.286.194c.3.041.6.078.905.114C-334.688,225.517-334.99,225.481-335.292,225.44Zm1.647.192q.757.07,1.521.115Q-332.887,225.7-333.644,225.631Z" transform="translate(393.34 -122.375)" fill="#e27030"/>
        <g id="Group_888" data-name="Group 888" transform="translate(18.869 18.869)">
          <path id="Path_5111" data-name="Path 5111" d="M-292.174,169.7l3.307-1.415a44.449,44.449,0,0,0-3.911-7.193l-2.992,2A41,41,0,0,1-292.174,169.7Z" transform="translate(374.31 -141.277)" fill="#e27030"/>
          <path id="Path_5112" data-name="Path 5112" d="M-300.88,214.822l2.544,2.543a44.935,44.935,0,0,0,5.805-7.162l-3.013-1.965A41.29,41.29,0,0,1-300.88,214.822Z" transform="translate(374.321 -141.38)" fill="#e27030"/>
          <path id="Path_5113" data-name="Path 5113" d="M-367.937,170.6l-3.34-1.339a44.239,44.239,0,0,0-2.342,7.848l3.529.7A40.366,40.366,0,0,1-367.937,170.6Z" transform="translate(374.479 -141.295)" fill="#e27030"/>
          <path id="Path_5114" data-name="Path 5114" d="M-370.883,185.85h-3.6a44.491,44.491,0,0,0,.956,9.175l3.521-.74A40.942,40.942,0,0,1-370.883,185.85Z" transform="translate(374.481 -141.331)" fill="#e27030"/>
          <path id="Path_5115" data-name="Path 5115" d="M-367.57,201.984l-3.31,1.415a44.513,44.513,0,0,0,3.912,7.193l2.992-2A40.883,40.883,0,0,1-367.57,201.984Z" transform="translate(374.473 -141.366)" fill="#e27030"/>
          <path id="Path_5116" data-name="Path 5116" d="M-358.856,214.836l-2.542,2.543a44.806,44.806,0,0,0,7.161,5.805l1.965-3.013A41.2,41.2,0,0,1-358.856,214.836Z" transform="translate(374.453 -141.394)" fill="#e27030"/>
          <path id="Path_5117" data-name="Path 5117" d="M-329.885,144.832v-3.6a44.488,44.488,0,0,0-9.176.955l.742,3.522A40.867,40.867,0,0,1-329.885,144.832Z" transform="translate(374.404 -141.234)" fill="#e27030"/>
          <path id="Path_5118" data-name="Path 5118" d="M-346.017,148.145l-1.417-3.307a44.348,44.348,0,0,0-7.193,3.911l2,2.991A40.841,40.841,0,0,1-346.017,148.145Z" transform="translate(374.438 -141.242)" fill="#e27030"/>
          <path id="Path_5119" data-name="Path 5119" d="M-358.868,156.859l-2.543-2.543a44.915,44.915,0,0,0-5.808,7.162l3.013,1.965A41.188,41.188,0,0,1-358.868,156.859Z" transform="translate(374.465 -141.262)" fill="#e27030"/>
          <path id="Path_5120" data-name="Path 5120" d="M-289.734,177.4a40.931,40.931,0,0,1,.876,8.434h3.6a44.622,44.622,0,0,0-.955-9.174Z" transform="translate(374.297 -141.311)" fill="#e27030"/>
          <path id="Path_5121" data-name="Path 5121" d="M-300.895,156.847l2.545-2.543a44.97,44.97,0,0,0-7.164-5.807l-1.964,3.013A41.165,41.165,0,0,1-300.895,156.847Z" transform="translate(374.336 -141.25)" fill="#e27030"/>
          <path id="Path_5122" data-name="Path 5122" d="M-291.805,201.082l3.339,1.337a44.1,44.1,0,0,0,2.343-7.847l-3.528-.7A40.683,40.683,0,0,1-291.805,201.082Z" transform="translate(374.302 -141.348)" fill="#e27030"/>
          <path id="Path_5123" data-name="Path 5123" d="M-345.114,223.91l-1.339,3.339a43.87,43.87,0,0,0,7.848,2.344l.7-3.529A40.594,40.594,0,0,1-345.114,223.91Z" transform="translate(374.42 -141.413)" fill="#e27030"/>
          <path id="Path_5124" data-name="Path 5124" d="M-314.633,147.779l1.337-3.341a44.2,44.2,0,0,0-7.847-2.342l-.7,3.529A40.561,40.561,0,0,1-314.633,147.779Z" transform="translate(374.367 -141.236)" fill="#e27030"/>
          <path id="Path_5125" data-name="Path 5125" d="M-329.865,226.859v3.6a44.5,44.5,0,0,0,9.175-.955l-.742-3.522A40.855,40.855,0,0,1-329.865,226.859Z" transform="translate(374.384 -141.418)" fill="#e27030"/>
          <path id="Path_5126" data-name="Path 5126" d="M-313.732,223.541l1.416,3.307a44.42,44.42,0,0,0,7.193-3.911l-2-2.992A40.817,40.817,0,0,1-313.732,223.541Z" transform="translate(374.349 -141.405)" fill="#e27030"/>
        </g>
        <g id="Group_889" data-name="Group 889" transform="translate(34.954 46.68)">
          <path id="Path_5127" data-name="Path 5127" d="M-350.474,200.769a8.659,8.659,0,0,1-4.929-1.176,5.885,5.885,0,0,1-2.332-3.3,17.636,17.636,0,0,1-.626-4.967h5.65a15.812,15.812,0,0,0,.209,2.806,3.231,3.231,0,0,0,.758,1.706,2.083,2.083,0,0,0,1.649.532,1.811,1.811,0,0,0,1.592-.834,5.1,5.1,0,0,0,.608-2.275q.114-1.479.114-3.488a19.546,19.546,0,0,0-.189-2.882,4.278,4.278,0,0,0-.74-1.972,1.99,1.99,0,0,0-1.687-.721,2.194,2.194,0,0,0-1.687.721,4.406,4.406,0,0,0-.967,2.047h-5.005l.417-17.442h14.105v5.043h-9.29l-.341,6.787a3.584,3.584,0,0,1,1.536-.986,7.739,7.739,0,0,1,2.332-.493,5.639,5.639,0,0,1,3.962.909A6.648,6.648,0,0,1-343,184.142a16.837,16.837,0,0,1,.758,5.4,31.14,31.14,0,0,1-.3,4.493,9.894,9.894,0,0,1-1.176,3.564,5.959,5.959,0,0,1-2.5,2.332A9.34,9.34,0,0,1-350.474,200.769Z" transform="translate(358.361 -169.107)" fill="#f7faf6"/>
          <path id="Path_5128" data-name="Path 5128" d="M-330.639,200.768a8.514,8.514,0,0,1-4.588-1.138,7.072,7.072,0,0,1-2.73-3.129,10.971,10.971,0,0,1-.91-4.606V178.131a11.866,11.866,0,0,1,.872-4.721,6.806,6.806,0,0,1,2.692-3.166,8.671,8.671,0,0,1,4.664-1.139,8.5,8.5,0,0,1,4.607,1.139,6.847,6.847,0,0,1,2.673,3.166,11.885,11.885,0,0,1,.872,4.721V191.9a10.973,10.973,0,0,1-.91,4.606,7.073,7.073,0,0,1-2.73,3.129A8.363,8.363,0,0,1-330.639,200.768Zm0-5.158a1.682,1.682,0,0,0,1.479-.644,3.7,3.7,0,0,0,.607-1.536,9.9,9.9,0,0,0,.152-1.649V178.245a12.033,12.033,0,0,0-.133-1.744,3.68,3.68,0,0,0-.588-1.574,1.707,1.707,0,0,0-1.517-.664,1.756,1.756,0,0,0-1.536.664,3.528,3.528,0,0,0-.607,1.574,12.033,12.033,0,0,0-.133,1.744v13.537a9.8,9.8,0,0,0,.152,1.649,3.423,3.423,0,0,0,.645,1.536A1.743,1.743,0,0,0-330.639,195.61Z" transform="translate(358.319 -169.106)" fill="#f7faf6"/>
          <path id="Path_5129" data-name="Path 5129" d="M-310,200.768a8.52,8.52,0,0,1-4.589-1.138,7.077,7.077,0,0,1-2.729-3.129,10.972,10.972,0,0,1-.91-4.606V178.131a11.868,11.868,0,0,1,.872-4.721,6.8,6.8,0,0,1,2.692-3.166A8.671,8.671,0,0,1-310,169.106a8.5,8.5,0,0,1,4.607,1.139,6.852,6.852,0,0,1,2.673,3.166,11.878,11.878,0,0,1,.872,4.721V191.9a10.976,10.976,0,0,1-.91,4.606,7.073,7.073,0,0,1-2.73,3.129A8.363,8.363,0,0,1-310,200.768Zm0-5.158a1.682,1.682,0,0,0,1.479-.644,3.7,3.7,0,0,0,.606-1.536,9.784,9.784,0,0,0,.153-1.649V178.245a12.2,12.2,0,0,0-.133-1.744,3.682,3.682,0,0,0-.588-1.574,1.708,1.708,0,0,0-1.517-.664,1.756,1.756,0,0,0-1.536.664,3.529,3.529,0,0,0-.607,1.574,12.058,12.058,0,0,0-.133,1.744v13.537a9.8,9.8,0,0,0,.152,1.649,3.423,3.423,0,0,0,.645,1.536A1.741,1.741,0,0,0-310,195.61Z" transform="translate(358.274 -169.106)" fill="#f7faf6"/>
        </g>
      </g>
    </g>
  </g>
</svg>
