<svg xmlns="http://www.w3.org/2000/svg" xmlns:xlink="http://www.w3.org/1999/xlink" width="147.678" height="147.678" viewBox="0 0 147.678 147.678">
  <defs>
    <filter id="Ellipse_105" x="0" y="0" width="147.678" height="147.678" filterUnits="userSpaceOnUse">
      <feOffset dy="4" input="SourceAlpha"/>
      <feGaussianBlur stdDeviation="3.5" result="blur"/>
      <feFlood flood-opacity="0.388"/>
      <feComposite operator="in" in2="blur"/>
      <feComposite in="SourceGraphic"/>
    </filter>
    <linearGradient id="linear-gradient" x1="68.826" y1="4.573" x2="68.982" y2="4.573" gradientUnits="objectBoundingBox">
      <stop offset="0" stop-color="#a9a5a6"/>
      <stop offset="0.264" stop-color="#c8c6c6"/>
      <stop offset="0.566" stop-color="#e6e5e5"/>
      <stop offset="0.822" stop-color="#f8f8f8"/>
      <stop offset="1" stop-color="#fff"/>
    </linearGradient>
    <linearGradient id="linear-gradient-2" x1="41.632" y1="6.803" x2="41.703" y2="6.803" xlink:href="#linear-gradient"/>
    <linearGradient id="linear-gradient-3" x1="27.086" y1="21.554" x2="27.139" y2="21.554" xlink:href="#linear-gradient"/>
    <linearGradient id="linear-gradient-4" x1="95.445" y1="4.031" x2="95.601" y2="4.031" xlink:href="#linear-gradient"/>
    <linearGradient id="linear-gradient-5" x1="31.934" y1="3.982" x2="31.987" y2="3.982" xlink:href="#linear-gradient"/>
    <linearGradient id="linear-gradient-6" x1="64.857" y1="3.379" x2="64.946" y2="3.379" gradientUnits="objectBoundingBox">
      <stop offset="0" stop-color="#0071b2"/>
      <stop offset="0.498" stop-color="#006fb0"/>
      <stop offset="0.679" stop-color="#0168a9"/>
      <stop offset="0.808" stop-color="#035c9e"/>
      <stop offset="0.911" stop-color="#054b8d"/>
      <stop offset="1" stop-color="#093679"/>
    </linearGradient>
    <linearGradient id="linear-gradient-7" x1="27.276" y1="-1.063" x2="27.314" y2="-1.063" xlink:href="#linear-gradient-6"/>
    <linearGradient id="linear-gradient-8" y1="0.5" x2="1" y2="0.5" gradientUnits="objectBoundingBox">
      <stop offset="0" stop-color="#003d7c"/>
      <stop offset="0.212" stop-color="#023571"/>
      <stop offset="0.548" stop-color="#042e67"/>
      <stop offset="1" stop-color="#052c65"/>
    </linearGradient>
    <linearGradient id="linear-gradient-10" x1="17.44" y1="5.4" x2="17.478" y2="5.4" xlink:href="#linear-gradient-6"/>
    <linearGradient id="linear-gradient-11" x1="11.853" y1="19.354" x2="11.872" y2="19.354" xlink:href="#linear-gradient-6"/>
    <linearGradient id="linear-gradient-12" x1="39.88" y1="3.069" x2="39.951" y2="3.069" xlink:href="#linear-gradient"/>
  </defs>
  <g id="Group_1171" data-name="Group 1171" transform="translate(10.5 6.5)">
    <g id="Group_1169" data-name="Group 1169" transform="translate(0 0)">
      <g transform="matrix(1, 0, 0, 1, -10.5, -6.5)" filter="url(#Ellipse_105)">
        <circle id="Ellipse_105-2" data-name="Ellipse 105" cx="63.339" cy="63.339" r="63.339" transform="translate(10.5 6.5)" fill="#5aaf21"/>
      </g>
      <g id="Group_1168" data-name="Group 1168">
        <g id="Group_1159" data-name="Group 1159" transform="translate(0 0)">
          <path id="Path_5818" data-name="Path 5818" d="M-623.662,369.888a63.4,63.4,0,0,1-63.4,63.4,63.4,63.4,0,0,1-63.4-63.4,63.4,63.4,0,0,1,63.4-63.4A63.4,63.4,0,0,1-623.662,369.888Z" transform="translate(750.459 -306.488)" fill="#1e4e97"/>
          <path id="Path_5819" data-name="Path 5819" d="M-639.577,359.922a48.252,48.252,0,0,0-2.875-9.084A48.44,48.44,0,0,0-646.713,343a48.8,48.8,0,0,0-6.042-7.362,48.87,48.87,0,0,0-7.8-6.325A48.457,48.457,0,0,0-669,324.911a47.9,47.9,0,0,0-8.547-2.552c-.687-.138-1.381-.255-2.082-.362-.213-.035-.43-.063-.647-.094-.5-.07-1.012-.134-1.521-.189-.23-.025-.459-.051-.692-.074-.638-.059-1.281-.11-1.928-.145l-.223-.014q-1.187-.061-2.39-.06c-.845,0-1.688.021-2.522.066h0l-.2.014c-.69.039-1.379.1-2.063.164-.245.024-.484.053-.728.08q-.8.094-1.6.211c-.231.035-.46.066-.689.1-.736.122-1.464.253-2.188.4a48,48,0,0,0-9.082,2.875,48.52,48.52,0,0,0-7.837,4.26,48.92,48.92,0,0,0-7.36,6.043,48.709,48.709,0,0,0-6.325,7.8,48.39,48.39,0,0,0-4.405,8.446,47.816,47.816,0,0,0-2.552,8.548,48.433,48.433,0,0,0-.939,9.481,48.382,48.382,0,0,0,1.043,9.995,48.119,48.119,0,0,0,2.874,9.084,48.335,48.335,0,0,0,4.26,7.836,48.791,48.791,0,0,0,6.045,7.362,48.913,48.913,0,0,0,7.8,6.325,48.4,48.4,0,0,0,8.444,4.405,48.041,48.041,0,0,0,8.549,2.552c.688.137,1.382.256,2.082.362.215.035.431.063.648.094q.757.1,1.52.189c.231.026.46.051.691.073q.961.09,1.931.146c.865.047,1.735.074,2.61.074a48.48,48.48,0,0,0,9.994-1.041,48.068,48.068,0,0,0,9.086-2.874,48.743,48.743,0,0,0,7.835-4.261,49.015,49.015,0,0,0,7.362-6.043,48.922,48.922,0,0,0,6.325-7.8,48.432,48.432,0,0,0,4.4-8.445,47.972,47.972,0,0,0,2.554-8.547,48.673,48.673,0,0,0,.937-9.483A48.5,48.5,0,0,0-639.577,359.922ZM-679.014,322.1c-.145-.025-.29-.054-.435-.076C-679.3,322.052-679.159,322.079-679.014,322.1Zm-1.554-.238q-.543-.073-1.092-.135Q-681.11,321.793-680.568,321.866Zm-1.992-.23q-.916-.088-1.838-.139Q-683.475,321.547-682.56,321.637Zm-7.22-.133c-.659.037-1.315.092-1.968.156Q-690.769,321.564-689.78,321.5Zm-2.915.261c-.386.047-.771.1-1.155.152C-693.466,321.862-693.082,321.812-692.7,321.765Zm-2.332.329c-.151.025-.3.056-.447.082C-695.324,322.151-695.177,322.12-695.027,322.095Zm-.028,95.634c.149.025.3.055.443.078C-694.758,417.784-694.906,417.756-695.055,417.729Zm1.558.238c.364.049.73.1,1.1.137C-692.766,418.062-693.133,418.015-693.5,417.966Zm1.994.233q.918.084,1.844.138Q-690.587,418.284-691.5,418.2Z" transform="translate(750.429 -306.518)" fill="#1e4e97"/>
          <path id="Path_5820" data-name="Path 5820" d="M-734.157,390.183a50.846,50.846,0,0,1-3.029-9.6q-.432-2.064-.695-4.187l-12.086,1.517q.325,2.623.859,5.181a62.868,62.868,0,0,0,3.75,11.882c.3.7.622,1.391.948,2.08l11.019-5.2C-733.652,391.306-733.914,390.75-734.157,390.183Z" transform="translate(750.458 -306.629)" fill="#f7faf6"/>
          <path id="Path_5821" data-name="Path 5821" d="M-633.845,404.832l-10.19-6.681a51.367,51.367,0,0,1-6.618,8.139,51.25,51.25,0,0,1-4.223,3.765l7.61,9.51a64.068,64.068,0,0,0,5.228-4.663A63.722,63.722,0,0,0-633.845,404.832Z" transform="translate(750.266 -306.673)" fill="#f7faf6"/>
          <path id="Path_5822" data-name="Path 5822" d="M-706.048,417.658a50.78,50.78,0,0,1-6.736-3.3l-6.134,10.526a63.1,63.1,0,0,0,8.338,4.082,62.866,62.866,0,0,0,10.249,3.121l2.564-11.917A50.922,50.922,0,0,1-706.048,417.658Z" transform="translate(750.395 -306.705)" fill="#f7faf6"/>
          <path id="Path_5823" data-name="Path 5823" d="M-639.745,349.8a50.587,50.587,0,0,1,3.03,9.6q.431,2.066.695,4.188l12.089-1.517c-.22-1.749-.5-3.477-.861-5.181a62.8,62.8,0,0,0-3.75-11.88c-.3-.7-.624-1.392-.949-2.08l-11.02,5.193C-640.247,348.681-639.985,349.237-639.745,349.8Z" transform="translate(750.238 -306.561)" fill="#f7faf6"/>
          <path id="Path_5824" data-name="Path 5824" d="M-667.861,322.334a51.16,51.16,0,0,1,6.734,3.3l6.135-10.526a63.133,63.133,0,0,0-8.339-4.082,62.792,62.792,0,0,0-10.247-3.123l-2.565,11.92A50.787,50.787,0,0,1-667.861,322.334Z" transform="translate(750.309 -306.491)" fill="#f7faf6"/>
          <path id="Path_5825" data-name="Path 5825" d="M-624.153,362l-12.088,1.517v.006q-.262-2.123-.695-4.194a50.578,50.578,0,0,0-3.03-9.6c-.24-.567-.5-1.125-.768-1.682v0l11.02-5.193a63.576,63.576,0,0,0-4.615-8.173,63.661,63.661,0,0,0-7.9-9.629,63.72,63.72,0,0,0-10.2-8.278q-1.334-.871-2.711-1.675l-6.135,10.526,0,0a50.975,50.975,0,0,0-6.736-3.3,50.781,50.781,0,0,0-8.282-2.512l2.565-11.92c-.312-.066-.624-.134-.936-.2a63.664,63.664,0,0,0-12.4-1.214,63.677,63.677,0,0,0-13.067,1.351,62.657,62.657,0,0,0-11.881,3.75,62.989,62.989,0,0,0-10.254,5.565c-1.517,1.013-2.978,2.1-4.4,3.24l7.61,9.51a51.838,51.838,0,0,0-4.225,3.766,51.325,51.325,0,0,0-6.687,8.24l.07-.1-10.188-6.68-.085.13a63.105,63.105,0,0,0-5.757,11.048,62.945,62.945,0,0,0-3.32,11.184,63.737,63.737,0,0,0-1.214,12.4,63.914,63.914,0,0,0,.491,7.888l12.086-1.517v-.011q.262,2.126.7,4.2a50.81,50.81,0,0,0,3.029,9.6c.244.567.505,1.123.766,1.679l-11.019,5.2a63.242,63.242,0,0,0,4.615,8.172,63.758,63.758,0,0,0,7.9,9.629,63.756,63.756,0,0,0,10.2,8.278q1.331.873,2.709,1.675l6.134-10.526v0a50.523,50.523,0,0,0,6.736,3.3,50.939,50.939,0,0,0,9.035,2.683c-.253-.051-.5-.116-.754-.168l-2.564,11.917c.311.068.623.137.935.2a63.683,63.683,0,0,0,12.4,1.216,63.745,63.745,0,0,0,13.068-1.35,62.962,62.962,0,0,0,11.882-3.75,63.017,63.017,0,0,0,10.253-5.566c1.516-1.015,2.978-2.1,4.4-3.24l-7.61-9.51a51.274,51.274,0,0,0,4.223-3.765,51.373,51.373,0,0,0,6.618-8.139l10.19,6.68.086-.129a63.258,63.258,0,0,0,5.756-11.05,62.99,62.99,0,0,0,3.317-11.184,63.674,63.674,0,0,0,1.217-12.4A64.054,64.054,0,0,0-624.153,362Zm-17.27-15.35c-.091-.175-.18-.35-.271-.526C-641.6,346.3-641.514,346.474-641.423,346.649Zm-1.912-3.432c-.364-.6-.737-1.189-1.125-1.767C-644.072,342.028-643.7,342.618-643.335,343.217Zm1.01,1.739q-.247-.442-.5-.877C-642.659,344.369-642.49,344.661-642.325,344.955ZM-715.5,327.286c-.618.413-1.223.846-1.822,1.284C-716.724,328.13-716.118,327.7-715.5,327.286Zm-22.563,47.262.021.237Zm-.192-3.146c0,.125.01.25.016.376C-738.246,371.651-738.251,371.527-738.256,371.4Zm.071,1.548c.008.117.015.233.023.353C-738.17,373.183-738.177,373.067-738.185,372.95Zm5.487,20.174c.089.177.179.353.27.527C-732.518,393.477-732.609,393.3-732.7,393.124Zm1.91,3.431c.364.6.736,1.189,1.127,1.77C-730.052,397.745-730.424,397.154-730.788,396.555Zm-1.012-1.739q.248.445.509.883C-731.462,395.408-731.634,395.113-731.8,394.817Zm73.176,17.671c.619-.415,1.225-.846,1.827-1.286Q-657.694,411.865-658.624,412.488Zm8.84-18.293a44.991,44.991,0,0,1-5.806,7.164,44.92,44.92,0,0,1-6.76,5.547,44.507,44.507,0,0,1-7.195,3.912,44.135,44.135,0,0,1-8.34,2.642,44.507,44.507,0,0,1-9.177.955,44.659,44.659,0,0,1-8.7-.859,44.049,44.049,0,0,1-7.85-2.345,44.333,44.333,0,0,1-7.751-4.045,44.831,44.831,0,0,1-7.164-5.806,44.806,44.806,0,0,1-5.549-6.76,44.548,44.548,0,0,1-3.913-7.2,44.306,44.306,0,0,1-2.639-8.34,44.5,44.5,0,0,1-.955-9.177,44.539,44.539,0,0,1,.859-8.705,44.2,44.2,0,0,1,2.343-7.849,44.639,44.639,0,0,1,4.045-7.752,44.853,44.853,0,0,1,5.808-7.164,44.871,44.871,0,0,1,6.758-5.547,44.274,44.274,0,0,1,7.195-3.912,44.11,44.11,0,0,1,8.34-2.642,44.5,44.5,0,0,1,9.177-.955,44.468,44.468,0,0,1,8.708.86,44.171,44.171,0,0,1,7.847,2.342,44.4,44.4,0,0,1,7.753,4.045,44.957,44.957,0,0,1,7.165,5.808,44.778,44.778,0,0,1,5.547,6.76,44.513,44.513,0,0,1,3.912,7.195,44.311,44.311,0,0,1,2.642,8.34,44.612,44.612,0,0,1,.955,9.175,44.54,44.54,0,0,1-.862,8.706,44.235,44.235,0,0,1-2.342,7.848A44.535,44.535,0,0,1-649.783,394.195Zm13.7-29.2.02.213Zm.119,1.483c.008.112.016.223.022.334C-635.944,366.7-635.952,366.594-635.96,366.482Zm.079,1.521c0,.123.009.244.013.366C-635.872,368.246-635.878,368.126-635.881,368Z" transform="translate(750.459 -306.488)" fill="#1e4e97"/>
          <path id="Path_5826" data-name="Path 5826" d="M-723.257,333.7a51.792,51.792,0,0,1,4.224-3.766l-7.61-9.51a64.04,64.04,0,0,0-5.229,4.663,63.684,63.684,0,0,0-8.192,10.071l10.188,6.681A51.4,51.4,0,0,1-723.257,333.7Z" transform="translate(750.438 -306.516)" fill="#f7faf6"/>
          <path id="Path_5827" data-name="Path 5827" d="M-737.609,378.094c.019.136.035.274.058.411C-737.574,378.368-737.59,378.23-737.609,378.094Z" transform="translate(750.433 -306.632)" fill="#c80e2d"/>
          <path id="Path_5828" data-name="Path 5828" d="M-650.645,406.29a51.365,51.365,0,0,0,6.618-8.139A51.365,51.365,0,0,1-650.645,406.29Z" transform="translate(750.258 -306.673)" fill="#c80e2d"/>
          <path id="Path_5829" data-name="Path 5829" d="M-701.916,419.1q2.053.626,4.176,1.077Q-699.86,419.727-701.916,419.1Z" transform="translate(750.361 -306.715)" fill="#c80e2d"/>
          <path id="Path_5830" data-name="Path 5830" d="M-703.957,418.439c.552.195,1.111.371,1.673.547C-702.846,418.81-703.405,418.632-703.957,418.439Z" transform="translate(750.365 -306.714)" fill="#c80e2d"/>
          <path id="Path_5831" data-name="Path 5831" d="M-636.316,361.522l.029.2Z" transform="translate(750.229 -306.599)" fill="#c80e2d"/>
          <path id="Path_5832" data-name="Path 5832" d="M-726.75,337.631a51.275,51.275,0,0,0-3.092,4.224A51.63,51.63,0,0,1-726.75,337.631Z" transform="translate(750.417 -306.551)" fill="#f8faf8"/>
          <path id="Path_5833" data-name="Path 5833" d="M-725.04,335.637c-.539.6-1.057,1.208-1.567,1.828C-726.1,336.846-725.579,336.233-725.04,335.637Z" transform="translate(750.411 -306.547)" fill="#f8faf8"/>
          <path id="Path_5834" data-name="Path 5834" d="M-743.574,396.666c-.321-.679-.64-1.358-.935-2.049a62.09,62.09,0,0,1-3.7-11.709q-.528-2.518-.847-5.1l-.914.115q.325,2.623.859,5.181a62.869,62.869,0,0,0,3.75,11.882c.3.7.622,1.391.948,2.08Z" transform="translate(750.458 -306.632)" fill="url(#linear-gradient)"/>
          <path id="Path_5835" data-name="Path 5835" d="M-642.679,414.262a62.2,62.2,0,0,1-5.151,4.595l.577.721a64.047,64.047,0,0,0,5.227-4.663,63.7,63.7,0,0,0,8.195-10.071l-.772-.507A62.626,62.626,0,0,1-642.679,414.262Z" transform="translate(750.252 -306.685)" fill="url(#linear-gradient-2)"/>
          <path id="Path_5836" data-name="Path 5836" d="M-710.236,428.132a62.147,62.147,0,0,1-8.217-4.022l-.465.8a63.1,63.1,0,0,0,8.338,4.082,62.878,62.878,0,0,0,10.249,3.121l.194-.9A62.173,62.173,0,0,1-710.236,428.132Z" transform="translate(750.395 -306.725)" fill="url(#linear-gradient-3)"/>
          <path id="Path_5837" data-name="Path 5837" d="M-629.37,345.374a61.918,61.918,0,0,1,3.694,11.708q.529,2.518.848,5.106l.916-.116c-.219-1.749-.5-3.477-.861-5.181a62.813,62.813,0,0,0-3.749-11.88c-.3-.7-.624-1.392-.949-2.08l-.834.393C-629.983,344-629.665,344.684-629.37,345.374Z" transform="translate(750.217 -306.561)" fill="url(#linear-gradient-4)"/>
          <path id="Path_5838" data-name="Path 5838" d="M-663.668,311.881a62.526,62.526,0,0,1,8.218,4.023l.464-.8a63.118,63.118,0,0,0-8.339-4.082,62.792,62.792,0,0,0-10.247-3.123l-.195.9A61.96,61.96,0,0,1-663.668,311.881Z" transform="translate(750.304 -306.491)" fill="url(#linear-gradient-5)"/>
          <path id="Path_5839" data-name="Path 5839" d="M-749.054,377.717a63.082,63.082,0,0,1-.483-7.773,62.583,62.583,0,0,1,1.2-12.216A62.036,62.036,0,0,1-745.07,346.7a62.515,62.515,0,0,1,5.672-10.888l.086-.127-.772-.505-.085.13a63.1,63.1,0,0,0-5.757,11.048,62.945,62.945,0,0,0-3.32,11.184,63.738,63.738,0,0,0-1.214,12.4,63.916,63.916,0,0,0,.491,7.888Z" transform="translate(750.459 -306.546)" fill="url(#linear-gradient-6)"/>
          <path id="Path_5840" data-name="Path 5840" d="M-718.5,424.055q-1.358-.792-2.672-1.649a62.827,62.827,0,0,1-10.05-8.16,62.752,62.752,0,0,1-7.79-9.489,62.41,62.41,0,0,1-4.548-8.054l-.835.394a63.253,63.253,0,0,0,4.616,8.173,63.77,63.77,0,0,0,7.9,9.629,63.741,63.741,0,0,0,10.2,8.278q1.331.873,2.709,1.675Z" transform="translate(750.447 -306.67)" fill="url(#linear-gradient-7)"/>
          <path id="Path_5841" data-name="Path 5841" d="M-647.936,418.886c-1.4,1.121-2.84,2.193-4.335,3.193a62.28,62.28,0,0,1-10.1,5.485,61.929,61.929,0,0,1-11.706,3.7,62.873,62.873,0,0,1-12.879,1.331,62.784,62.784,0,0,1-12.217-1.2c-.307-.061-.614-.129-.922-.193l-.194.9c.311.068.623.137.935.2a63.683,63.683,0,0,0,12.4,1.216,63.733,63.733,0,0,0,13.068-1.35,62.956,62.956,0,0,0,11.882-3.75,62.994,62.994,0,0,0,10.253-5.566c1.516-1.015,2.978-2.1,4.4-3.24Z" transform="translate(750.358 -306.714)" fill="url(#linear-gradient-8)"/>
          <path id="Path_5842" data-name="Path 5842" d="M-623.92,362.111l-.916.116h0a62.813,62.813,0,0,1,.485,7.771,62.756,62.756,0,0,1-1.2,12.217,61.818,61.818,0,0,1-3.271,11.021,62.038,62.038,0,0,1-5.672,10.889l-.084.127.772.507.086-.129a63.264,63.264,0,0,0,5.756-11.05,63.012,63.012,0,0,0,3.317-11.183,63.666,63.666,0,0,0,1.217-12.4A64.1,64.1,0,0,0-623.92,362.111Z" transform="translate(750.226 -306.6)" fill="url(#linear-gradient-8)"/>
          <path id="Path_5843" data-name="Path 5843" d="M-655.414,315.918q1.356.792,2.671,1.649a62.91,62.91,0,0,1,10.052,8.16,62.8,62.8,0,0,1,7.787,9.489,62.15,62.15,0,0,1,4.549,8.054l.834-.393a63.618,63.618,0,0,0-4.616-8.174,63.64,63.64,0,0,0-7.9-9.628,63.7,63.7,0,0,0-10.2-8.278q-1.334-.871-2.711-1.675Z" transform="translate(750.267 -306.505)" fill="url(#linear-gradient-10)"/>
          <path id="Path_5844" data-name="Path 5844" d="M-726.038,321.115c1.4-1.121,2.841-2.2,4.335-3.194a62.222,62.222,0,0,1,10.1-5.485,62.041,62.041,0,0,1,11.707-3.7,62.855,62.855,0,0,1,12.878-1.331,62.928,62.928,0,0,1,12.218,1.2c.308.063.613.129.921.2l.195-.9c-.312-.066-.624-.134-.936-.2a63.666,63.666,0,0,0-12.4-1.214,63.677,63.677,0,0,0-13.067,1.351,62.66,62.66,0,0,0-11.881,3.75,63,63,0,0,0-10.254,5.565c-1.517,1.013-2.978,2.1-4.4,3.24Z" transform="translate(750.411 -306.488)" fill="url(#linear-gradient-11)"/>
          <path id="Path_5845" data-name="Path 5845" d="M-731.217,325.737a62.483,62.483,0,0,1,5.152-4.594l-.577-.722a64.04,64.04,0,0,0-5.229,4.663,63.684,63.684,0,0,0-8.192,10.071l.772.505A62.736,62.736,0,0,1-731.217,325.737Z" transform="translate(750.438 -306.516)" fill="url(#linear-gradient-12)"/>
          <path id="Path_5846" data-name="Path 5846" d="M-642.583,360.564a45.269,45.269,0,0,0-2.693-8.507,45.339,45.339,0,0,0-3.992-7.338,45.626,45.626,0,0,0-5.659-6.894,45.748,45.748,0,0,0-7.306-5.924,45.368,45.368,0,0,0-7.909-4.127,45.122,45.122,0,0,0-8-2.388c-.646-.128-1.3-.24-1.949-.34-.2-.031-.405-.059-.609-.087-.47-.066-.945-.126-1.422-.177-.217-.024-.432-.049-.646-.068q-.9-.088-1.807-.136l-.209-.014c-.74-.04-1.488-.057-2.24-.057q-1.187,0-2.362.062h0l-.19.014q-.971.055-1.934.152c-.228.023-.453.051-.681.077q-.753.084-1.5.2c-.215.03-.431.058-.644.094-.69.113-1.373.236-2.051.377a45.012,45.012,0,0,0-8.5,2.694,45.325,45.325,0,0,0-7.338,3.991,45.708,45.708,0,0,0-6.9,5.659,45.685,45.685,0,0,0-5.921,7.305,45.27,45.27,0,0,0-4.127,7.908,45.015,45.015,0,0,0-2.389,8,45.385,45.385,0,0,0-.878,8.879,45.36,45.36,0,0,0,.975,9.361,45.069,45.069,0,0,0,2.692,8.507,45.439,45.439,0,0,0,3.989,7.338,46,46,0,0,0,5.661,6.894,45.858,45.858,0,0,0,7.305,5.923,45.359,45.359,0,0,0,7.908,4.125,45.079,45.079,0,0,0,8.006,2.392c.643.127,1.294.237,1.947.336.2.034.406.061.608.09q.709.1,1.426.176c.213.025.428.049.645.068q.9.088,1.811.137c.809.043,1.622.07,2.442.07a45.436,45.436,0,0,0,9.361-.974,45.159,45.159,0,0,0,8.5-2.692,45.471,45.471,0,0,0,7.338-3.992,45.694,45.694,0,0,0,6.9-5.659A45.813,45.813,0,0,0-649,394.714a45.338,45.338,0,0,0,4.125-7.905,45.02,45.02,0,0,0,2.39-8.007,45.38,45.38,0,0,0,.878-8.88A45.559,45.559,0,0,0-642.583,360.564Zm-36.934-35.417c-.136-.024-.271-.05-.409-.073C-679.787,325.1-679.653,325.123-679.517,325.147Zm-1.455-.221c-.341-.046-.681-.091-1.023-.128C-681.653,324.837-681.313,324.88-680.972,324.926Zm-1.867-.22c-.571-.053-1.143-.1-1.719-.128C-683.982,324.612-683.41,324.654-682.839,324.707Zm-9.491.125c-.363.041-.721.09-1.082.142C-693.051,324.919-692.693,324.872-692.33,324.831Zm-2.184.307c-.14.024-.276.053-.418.077C-694.79,325.192-694.653,325.163-694.514,325.139Zm-.026,89.561c.141.021.278.049.415.07C-694.262,414.749-694.4,414.721-694.54,414.7Zm1.459.222c.341.045.685.088,1.027.127C-692.4,415.009-692.739,414.966-693.081,414.921Zm1.869.217c.572.053,1.146.1,1.723.131Q-690.353,415.219-691.211,415.138Z" transform="translate(750.423 -306.524)" fill="#093679"/>
          <path id="Path_5847" data-name="Path 5847" d="M-647.822,361.68a39.909,39.909,0,0,0-2.374-7.5,40.005,40.005,0,0,0-3.52-6.472,40.413,40.413,0,0,0-4.99-6.08,40.338,40.338,0,0,0-6.444-5.224,39.937,39.937,0,0,0-6.975-3.639,39.659,39.659,0,0,0-7.058-2.108c-.569-.113-1.144-.211-1.72-.3-.176-.027-.356-.05-.536-.076-.415-.058-.834-.111-1.255-.156-.19-.022-.379-.043-.569-.06-.528-.051-1.06-.092-1.593-.12l-.185-.013c-.653-.034-1.312-.049-1.975-.049-.7,0-1.393.017-2.084.055h0l-.168.011q-.858.049-1.706.135c-.2.019-.4.045-.6.066-.442.051-.883.11-1.319.176-.19.027-.38.053-.568.084-.608.1-1.212.207-1.809.333a39.694,39.694,0,0,0-7.5,2.374,40.02,40.02,0,0,0-6.471,3.52,40.245,40.245,0,0,0-6.082,4.99,40.334,40.334,0,0,0-5.222,6.442,39.959,39.959,0,0,0-3.64,6.975,39.715,39.715,0,0,0-2.107,7.06,40.035,40.035,0,0,0-.774,7.83,39.969,39.969,0,0,0,.86,8.254,39.728,39.728,0,0,0,2.374,7.5,40.028,40.028,0,0,0,3.518,6.471,40.415,40.415,0,0,0,4.992,6.081,40.318,40.318,0,0,0,6.442,5.224A39.933,39.933,0,0,0-701.9,407.1a39.556,39.556,0,0,0,7.061,2.109c.567.113,1.141.21,1.717.3.18.029.359.053.536.078q.626.088,1.258.156c.188.022.378.043.57.061q.792.076,1.6.119c.713.039,1.43.062,2.153.062a39.983,39.983,0,0,0,8.255-.859,39.7,39.7,0,0,0,7.5-2.374,39.929,39.929,0,0,0,6.472-3.52,40.283,40.283,0,0,0,6.082-4.99,40.319,40.319,0,0,0,5.224-6.445,39.873,39.873,0,0,0,3.637-6.973,39.57,39.57,0,0,0,2.109-7.06,39.963,39.963,0,0,0,.774-7.831A40.156,40.156,0,0,0-647.822,361.68Zm-32.571-31.234c-.12-.021-.238-.045-.36-.064C-680.631,330.4-680.513,330.425-680.393,330.446Zm-1.282-.195c-.3-.041-.6-.08-.9-.113C-682.276,330.173-681.977,330.21-681.676,330.251Zm-1.647-.193q-.754-.07-1.517-.114C-684.33,329.975-683.825,330.012-683.322,330.059Zm-8.37.109c-.319.037-.636.08-.954.125C-692.328,330.245-692.012,330.2-691.693,330.167Zm-1.926.271c-.123.021-.243.046-.368.068C-693.862,330.485-693.741,330.46-693.619,330.439Zm-.022,78.984c.124.02.244.043.365.063C-693.4,409.465-693.517,409.442-693.641,409.422Zm1.286.195c.3.041.6.078.905.114C-691.751,409.695-692.053,409.658-692.354,409.617Zm1.648.192q.758.07,1.521.115C-689.694,409.894-690.2,409.858-690.706,409.809Z" transform="translate(750.412 -306.535)" fill="#1e4e97"/>
          <g id="Group_1157" data-name="Group 1157" transform="translate(18.872 18.872)">
            <path id="Path_5848" data-name="Path 5848" d="M-649.241,353.864l3.307-1.415a44.5,44.5,0,0,0-3.912-7.195l-2.992,2A41,41,0,0,1-649.241,353.864Z" transform="translate(731.39 -325.438)" fill="#e2ece6"/>
            <path id="Path_5849" data-name="Path 5849" d="M-657.948,398.988l2.545,2.544a44.993,44.993,0,0,0,5.806-7.163l-3.014-1.966A41.214,41.214,0,0,1-657.948,398.988Z" transform="translate(731.401 -325.533)" fill="#e2ece6"/>
            <path id="Path_5850" data-name="Path 5850" d="M-725,354.765l-3.341-1.339a44.15,44.15,0,0,0-2.343,7.849l3.531.7A40.321,40.321,0,0,1-725,354.765Z" transform="translate(731.547 -325.454)" fill="#e2ece6"/>
            <path id="Path_5851" data-name="Path 5851" d="M-727.95,370.014h-3.6a44.5,44.5,0,0,0,.955,9.177l3.522-.74A40.93,40.93,0,0,1-727.95,370.014Z" transform="translate(731.549 -325.488)" fill="#e2ece6"/>
            <path id="Path_5852" data-name="Path 5852" d="M-724.638,386.148l-3.31,1.415a44.555,44.555,0,0,0,3.913,7.2l2.992-2A40.825,40.825,0,0,1-724.638,386.148Z" transform="translate(731.542 -325.521)" fill="#e2ece6"/>
            <path id="Path_5853" data-name="Path 5853" d="M-715.923,399l-2.544,2.544a44.848,44.848,0,0,0,7.164,5.806l1.965-3.013A41.211,41.211,0,0,1-715.923,399Z" transform="translate(731.523 -325.546)" fill="#e2ece6"/>
            <path id="Path_5854" data-name="Path 5854" d="M-686.953,329v-3.6a44.5,44.5,0,0,0-9.177.955l.741,3.523A40.885,40.885,0,0,1-686.953,329Z" transform="translate(731.478 -325.398)" fill="#e2ece6"/>
            <path id="Path_5855" data-name="Path 5855" d="M-703.083,332.309-704.5,329a44.271,44.271,0,0,0-7.194,3.912l2,2.992A40.8,40.8,0,0,1-703.083,332.309Z" transform="translate(731.509 -325.405)" fill="#e2ece6"/>
            <path id="Path_5856" data-name="Path 5856" d="M-715.935,341.024l-2.544-2.544a44.872,44.872,0,0,0-5.808,7.163l3.013,1.965A41.269,41.269,0,0,1-715.935,341.024Z" transform="translate(731.535 -325.424)" fill="#e2ece6"/>
            <path id="Path_5857" data-name="Path 5857" d="M-646.8,361.561a40.928,40.928,0,0,1,.877,8.434h3.6a44.62,44.62,0,0,0-.955-9.175Z" transform="translate(731.378 -325.469)" fill="#e2ece6"/>
            <path id="Path_5858" data-name="Path 5858" d="M-657.961,341.012l2.545-2.544a44.969,44.969,0,0,0-7.164-5.808l-1.964,3.014A41.193,41.193,0,0,1-657.961,341.012Z" transform="translate(731.414 -325.413)" fill="#e2ece6"/>
            <path id="Path_5859" data-name="Path 5859" d="M-648.873,385.247l3.339,1.337a44.2,44.2,0,0,0,2.342-7.848l-3.528-.7A40.687,40.687,0,0,1-648.873,385.247Z" transform="translate(731.382 -325.504)" fill="#e2ece6"/>
            <path id="Path_5860" data-name="Path 5860" d="M-702.183,408.075l-1.339,3.339a44.079,44.079,0,0,0,7.85,2.345l.7-3.531A40.616,40.616,0,0,1-702.183,408.075Z" transform="translate(731.492 -325.565)" fill="#e2ece6"/>
            <path id="Path_5861" data-name="Path 5861" d="M-671.7,331.944l1.337-3.341a44.177,44.177,0,0,0-7.847-2.342l-.7,3.53A40.541,40.541,0,0,1-671.7,331.944Z" transform="translate(731.443 -325.4)" fill="#e2ece6"/>
            <path id="Path_5862" data-name="Path 5862" d="M-686.934,411.024v3.6a44.5,44.5,0,0,0,9.177-.955l-.742-3.522A40.936,40.936,0,0,1-686.934,411.024Z" transform="translate(731.459 -325.569)" fill="#e2ece6"/>
            <path id="Path_5863" data-name="Path 5863" d="M-670.8,407.707l1.417,3.307a44.494,44.494,0,0,0,7.194-3.912l-2-2.992A40.827,40.827,0,0,1-670.8,407.707Z" transform="translate(731.427 -325.557)" fill="#e2ece6"/>
          </g>
          <g id="Group_1158" data-name="Group 1158" transform="translate(31.097 51.117)">
            <path id="Path_5864" data-name="Path 5864" d="M-712.683,384.269a7.267,7.267,0,0,1-4.135-.986,4.928,4.928,0,0,1-1.956-2.767,14.791,14.791,0,0,1-.525-4.167h4.739a13.3,13.3,0,0,0,.175,2.353,2.72,2.72,0,0,0,.636,1.432,1.75,1.75,0,0,0,1.383.445,1.52,1.52,0,0,0,1.336-.7,4.276,4.276,0,0,0,.508-1.908q.1-1.241.1-2.927a16.35,16.35,0,0,0-.158-2.417,3.586,3.586,0,0,0-.621-1.655,1.669,1.669,0,0,0-1.415-.6,1.841,1.841,0,0,0-1.415.6,3.7,3.7,0,0,0-.811,1.719h-4.2l.349-14.633h11.833v4.231h-7.793l-.287,5.693a3.005,3.005,0,0,1,1.289-.826,6.472,6.472,0,0,1,1.956-.413,4.726,4.726,0,0,1,3.324.763,5.569,5.569,0,0,1,1.956,2.815,14.112,14.112,0,0,1,.637,4.533,26.015,26.015,0,0,1-.254,3.769,8.306,8.306,0,0,1-.987,2.99,5,5,0,0,1-2.1,1.956A7.838,7.838,0,0,1-712.683,384.269Z" transform="translate(719.299 -357.709)" fill="#f7faf6"/>
            <path id="Path_5865" data-name="Path 5865" d="M-696.046,384.268a7.138,7.138,0,0,1-3.849-.954,5.927,5.927,0,0,1-2.29-2.625,9.208,9.208,0,0,1-.763-3.864V365.279a9.956,9.956,0,0,1,.731-3.96,5.713,5.713,0,0,1,2.259-2.656,7.271,7.271,0,0,1,3.913-.955,7.119,7.119,0,0,1,3.864.955,5.745,5.745,0,0,1,2.242,2.656,9.956,9.956,0,0,1,.731,3.96v11.547a9.219,9.219,0,0,1-.762,3.864,5.934,5.934,0,0,1-2.291,2.625A7.01,7.01,0,0,1-696.046,384.268Zm0-4.326a1.408,1.408,0,0,0,1.24-.541,3.1,3.1,0,0,0,.509-1.287,8.4,8.4,0,0,0,.127-1.383V365.375a10.218,10.218,0,0,0-.111-1.463,3.1,3.1,0,0,0-.493-1.32,1.432,1.432,0,0,0-1.272-.557,1.471,1.471,0,0,0-1.288.557,2.963,2.963,0,0,0-.509,1.32,10.083,10.083,0,0,0-.112,1.463v11.356a8.272,8.272,0,0,0,.128,1.383,2.859,2.859,0,0,0,.541,1.287A1.458,1.458,0,0,0-696.046,379.942Z" transform="translate(719.266 -357.708)" fill="#f7faf6"/>
            <path id="Path_5866" data-name="Path 5866" d="M-678.739,384.268a7.14,7.14,0,0,1-3.849-.954,5.927,5.927,0,0,1-2.29-2.625,9.2,9.2,0,0,1-.763-3.864V365.279a9.956,9.956,0,0,1,.731-3.96,5.713,5.713,0,0,1,2.259-2.656,7.271,7.271,0,0,1,3.913-.955,7.118,7.118,0,0,1,3.864.955,5.742,5.742,0,0,1,2.242,2.656,9.956,9.956,0,0,1,.732,3.96v11.547a9.219,9.219,0,0,1-.762,3.864,5.935,5.935,0,0,1-2.29,2.625A7.012,7.012,0,0,1-678.739,384.268Zm0-4.326a1.408,1.408,0,0,0,1.24-.541,3.1,3.1,0,0,0,.509-1.287,8.4,8.4,0,0,0,.127-1.383V365.375a10.218,10.218,0,0,0-.111-1.463,3.1,3.1,0,0,0-.493-1.32,1.431,1.431,0,0,0-1.272-.557,1.473,1.473,0,0,0-1.289.557,2.962,2.962,0,0,0-.509,1.32,10.05,10.05,0,0,0-.112,1.463v11.356a8.3,8.3,0,0,0,.128,1.383,2.864,2.864,0,0,0,.541,1.287A1.458,1.458,0,0,0-678.739,379.942Z" transform="translate(719.231 -357.708)" fill="#f7faf6"/>
            <path id="Path_5867" data-name="Path 5867" d="M-661.433,384.268a7.137,7.137,0,0,1-3.848-.954,5.929,5.929,0,0,1-2.29-2.625,9.208,9.208,0,0,1-.763-3.864V365.279a9.961,9.961,0,0,1,.731-3.96,5.713,5.713,0,0,1,2.259-2.656,7.269,7.269,0,0,1,3.912-.955,7.12,7.12,0,0,1,3.865.955,5.744,5.744,0,0,1,2.243,2.656,9.976,9.976,0,0,1,.731,3.96v11.547a9.206,9.206,0,0,1-.763,3.864,5.929,5.929,0,0,1-2.291,2.625A7.008,7.008,0,0,1-661.433,384.268Zm0-4.326a1.41,1.41,0,0,0,1.241-.541,3.1,3.1,0,0,0,.508-1.287,8.27,8.27,0,0,0,.127-1.383V365.375a10.217,10.217,0,0,0-.111-1.463,3.1,3.1,0,0,0-.494-1.32,1.429,1.429,0,0,0-1.272-.557,1.474,1.474,0,0,0-1.288.557,2.97,2.97,0,0,0-.508,1.32,10.05,10.05,0,0,0-.112,1.463v11.356a8.172,8.172,0,0,0,.128,1.383,2.858,2.858,0,0,0,.54,1.287A1.459,1.459,0,0,0-661.433,379.942Z" transform="translate(719.196 -357.708)" fill="#f7faf6"/>
          </g>
        </g>
      </g>
    </g>
  </g>
</svg>
