<svg xmlns="http://www.w3.org/2000/svg" xmlns:xlink="http://www.w3.org/1999/xlink" width="147.678" height="147.678" viewBox="0 0 147.678 147.678">
  <defs>
    <filter id="Ellipse_106" x="0" y="0" width="147.678" height="147.678" filterUnits="userSpaceOnUse">
      <feOffset dy="4" input="SourceAlpha"/>
      <feGaussianBlur stdDeviation="3.5" result="blur"/>
      <feFlood flood-opacity="0.388"/>
      <feComposite operator="in" in2="blur"/>
      <feComposite in="SourceGraphic"/>
    </filter>
    <linearGradient id="linear-gradient" x1="49.639" y1="3.959" x2="49.795" y2="3.959" gradientUnits="objectBoundingBox">
      <stop offset="0" stop-color="#a9a5a6"/>
      <stop offset="0.264" stop-color="#c8c6c6"/>
      <stop offset="0.566" stop-color="#e6e5e5"/>
      <stop offset="0.822" stop-color="#f8f8f8"/>
      <stop offset="1" stop-color="#fff"/>
    </linearGradient>
    <linearGradient id="linear-gradient-2" x1="28.94" y1="5.814" x2="29.011" y2="5.814" xlink:href="#linear-gradient"/>
    <linearGradient id="linear-gradient-3" x1="19.213" y1="16.783" x2="19.267" y2="16.783" xlink:href="#linear-gradient"/>
    <linearGradient id="linear-gradient-4" x1="66.456" y1="4.305" x2="66.613" y2="4.305" xlink:href="#linear-gradient"/>
    <linearGradient id="linear-gradient-5" x1="22.801" y1="6.702" x2="22.854" y2="6.702" xlink:href="#linear-gradient"/>
    <linearGradient id="linear-gradient-6" x1="29.275" y1="3.926" x2="29.346" y2="3.926" xlink:href="#linear-gradient"/>
  </defs>
  <g id="Group_1174" data-name="Group 1174" transform="translate(10.5 6.5)">
    <g id="Group_1170" data-name="Group 1170">
      <g transform="matrix(1, 0, 0, 1, -10.5, -6.5)" filter="url(#Ellipse_106)">
        <circle id="Ellipse_106-2" data-name="Ellipse 106" cx="63.339" cy="63.339" r="63.339" transform="translate(10.5 6.5)" fill="#5aaf21"/>
      </g>
      <g id="Group_1167" data-name="Group 1167">
        <g id="Group_1164" data-name="Group 1164" transform="translate(0 0)">
          <path id="Path_5868" data-name="Path 5868" d="M-460.766,369.888a63.4,63.4,0,0,1-63.4,63.4,63.4,63.4,0,0,1-63.4-63.4,63.4,63.4,0,0,1,63.4-63.4A63.4,63.4,0,0,1-460.766,369.888Z" transform="translate(587.563 -306.488)" fill="#f5d838"/>
          <path id="Path_5869" data-name="Path 5869" d="M-571.261,390.183a50.855,50.855,0,0,1-3.029-9.6q-.433-2.064-.694-4.187l-12.087,1.517q.323,2.623.859,5.181a62.816,62.816,0,0,0,3.751,11.882c.3.7.622,1.391.947,2.08l11.019-5.2C-570.756,391.306-571.016,390.75-571.261,390.183Z" transform="translate(587.562 -306.629)" fill="#f7faf6"/>
          <path id="Path_5870" data-name="Path 5870" d="M-470.948,404.832l-10.19-6.681a51.48,51.48,0,0,1-6.618,8.139,51.307,51.307,0,0,1-4.224,3.765l7.61,9.51a64.018,64.018,0,0,0,5.228-4.663A63.818,63.818,0,0,0-470.948,404.832Z" transform="translate(587.37 -306.673)" fill="#f7faf6"/>
          <path id="Path_5871" data-name="Path 5871" d="M-543.151,417.658a50.665,50.665,0,0,1-6.736-3.3l-6.135,10.526a63.048,63.048,0,0,0,8.339,4.082,62.856,62.856,0,0,0,10.247,3.121l2.565-11.917A50.86,50.86,0,0,1-543.151,417.658Z" transform="translate(587.499 -306.705)" fill="#f7faf6"/>
          <path id="Path_5872" data-name="Path 5872" d="M-476.848,349.8a50.518,50.518,0,0,1,3.03,9.6q.431,2.066.7,4.188l12.088-1.517q-.329-2.623-.86-5.181a62.857,62.857,0,0,0-3.749-11.88c-.3-.7-.624-1.392-.949-2.08l-11.02,5.193C-477.351,348.681-477.089,349.237-476.848,349.8Z" transform="translate(587.342 -306.561)" fill="#f7faf6"/>
          <path id="Path_5873" data-name="Path 5873" d="M-504.964,322.334a51.25,51.25,0,0,1,6.734,3.3l6.134-10.526a63.164,63.164,0,0,0-8.338-4.082,62.808,62.808,0,0,0-10.248-3.123l-2.564,11.92A50.823,50.823,0,0,1-504.964,322.334Z" transform="translate(587.413 -306.491)" fill="#f7faf6"/>
          <path id="Path_5874" data-name="Path 5874" d="M-461.257,362l-12.088,1.517v.006q-.262-2.123-.7-4.194a50.508,50.508,0,0,0-3.03-9.6c-.241-.567-.5-1.125-.766-1.682v0l11.02-5.193a63.621,63.621,0,0,0-4.616-8.173,63.764,63.764,0,0,0-7.9-9.629,63.769,63.769,0,0,0-10.2-8.278q-1.334-.871-2.712-1.675l-6.134,10.526,0,0a51.036,51.036,0,0,0-6.736-3.3,50.815,50.815,0,0,0-8.282-2.512l2.564-11.92c-.311-.066-.624-.134-.935-.2a63.669,63.669,0,0,0-12.4-1.214,63.691,63.691,0,0,0-13.068,1.351,62.653,62.653,0,0,0-11.88,3.75,63.021,63.021,0,0,0-10.255,5.565c-1.516,1.013-2.978,2.1-4.4,3.24l7.61,9.51a51.963,51.963,0,0,0-4.224,3.766,51.327,51.327,0,0,0-6.687,8.24l.07-.1-10.189-6.68-.086.13a63.179,63.179,0,0,0-5.756,11.048,63.1,63.1,0,0,0-3.32,11.184,63.746,63.746,0,0,0-1.214,12.4,63.7,63.7,0,0,0,.492,7.888l12.087-1.517,0-.011q.264,2.126.7,4.2a50.872,50.872,0,0,0,3.029,9.6c.244.567.505,1.123.766,1.679l-11.019,5.2a63.488,63.488,0,0,0,4.616,8.172,63.77,63.77,0,0,0,7.9,9.629,63.668,63.668,0,0,0,10.2,8.278q1.329.873,2.708,1.675l6.135-10.526v0a50.4,50.4,0,0,0,6.736,3.3,50.915,50.915,0,0,0,9.035,2.683c-.254-.051-.5-.116-.755-.168l-2.565,11.917c.312.068.624.137.936.2a63.683,63.683,0,0,0,12.4,1.216,63.752,63.752,0,0,0,13.068-1.35,62.983,62.983,0,0,0,11.882-3.75,62.991,62.991,0,0,0,10.252-5.566c1.517-1.015,2.979-2.1,4.4-3.24l-7.61-9.51a51.309,51.309,0,0,0,4.224-3.765,51.48,51.48,0,0,0,6.618-8.139l10.191,6.68.086-.129a63.246,63.246,0,0,0,5.755-11.05,62.818,62.818,0,0,0,3.317-11.184,63.664,63.664,0,0,0,1.217-12.4A64.078,64.078,0,0,0-461.257,362Zm-17.27-15.35c-.091-.175-.179-.35-.27-.526C-478.706,346.3-478.618,346.474-478.527,346.649Zm-1.912-3.432c-.364-.6-.736-1.189-1.125-1.767C-481.176,342.028-480.8,342.618-480.439,343.217Zm1.01,1.739q-.246-.442-.5-.877C-479.763,344.369-479.593,344.661-479.429,344.955ZM-552.6,327.286c-.618.413-1.224.846-1.822,1.284C-553.828,328.13-553.221,327.7-552.6,327.286Zm-22.564,47.262.022.237Zm-.191-3.146c0,.125.01.25.016.376C-575.349,371.651-575.355,371.527-575.359,371.4Zm.07,1.548.024.353Zm5.487,20.174c.089.177.18.353.271.527C-569.622,393.477-569.713,393.3-569.8,393.124Zm1.91,3.431c.365.6.737,1.189,1.127,1.77C-567.155,397.745-567.526,397.154-567.892,396.555Zm-1.011-1.739q.248.445.508.883C-568.565,395.408-568.737,395.113-568.9,394.817Zm73.176,17.671c.618-.415,1.224-.846,1.826-1.286Q-494.8,411.865-495.726,412.488Zm8.839-18.293a44.936,44.936,0,0,1-5.806,7.164,44.932,44.932,0,0,1-6.759,5.547,44.516,44.516,0,0,1-7.194,3.912,44.126,44.126,0,0,1-8.341,2.642,44.505,44.505,0,0,1-9.177.955,44.664,44.664,0,0,1-8.705-.859,44.039,44.039,0,0,1-7.849-2.345,44.389,44.389,0,0,1-7.752-4.045,44.829,44.829,0,0,1-7.163-5.806,44.812,44.812,0,0,1-5.55-6.76,44.624,44.624,0,0,1-3.913-7.2,44.286,44.286,0,0,1-2.638-8.34,44.5,44.5,0,0,1-.955-9.177,44.464,44.464,0,0,1,.859-8.705,44.176,44.176,0,0,1,2.343-7.849,44.641,44.641,0,0,1,4.044-7.752,44.927,44.927,0,0,1,5.809-7.164,44.858,44.858,0,0,1,6.757-5.547,44.359,44.359,0,0,1,7.194-3.912,44.094,44.094,0,0,1,8.341-2.642,44.483,44.483,0,0,1,9.176-.955,44.462,44.462,0,0,1,8.706.86,44.213,44.213,0,0,1,7.848,2.342,44.387,44.387,0,0,1,7.752,4.045,44.98,44.98,0,0,1,7.165,5.808,44.821,44.821,0,0,1,5.548,6.76,44.578,44.578,0,0,1,3.912,7.195,44.318,44.318,0,0,1,2.641,8.34,44.629,44.629,0,0,1,.955,9.175,44.606,44.606,0,0,1-.861,8.706,44.135,44.135,0,0,1-2.343,7.848A44.526,44.526,0,0,1-486.887,394.195Zm13.705-29.2.019.213Zm.119,1.483c.008.112.016.223.021.334C-473.047,366.7-473.055,366.594-473.063,366.482Zm.078,1.521c0,.123.01.244.014.366C-472.975,368.246-472.981,368.126-472.985,368Z" transform="translate(587.563 -306.488)" fill="#edae0f"/>
          <path id="Path_5875" data-name="Path 5875" d="M-560.36,333.7a51.942,51.942,0,0,1,4.223-3.766l-7.61-9.51a63.862,63.862,0,0,0-5.227,4.663,63.684,63.684,0,0,0-8.193,10.071l10.188,6.681A51.364,51.364,0,0,1-560.36,333.7Z" transform="translate(587.542 -306.516)" fill="#f7faf6"/>
          <path id="Path_5876" data-name="Path 5876" d="M-574.713,378.094c.02.136.035.274.059.411C-574.678,378.368-574.693,378.23-574.713,378.094Z" transform="translate(587.537 -306.632)" fill="#c80e2d"/>
          <path id="Path_5877" data-name="Path 5877" d="M-539.02,419.1q2.054.626,4.177,1.077Q-536.965,419.727-539.02,419.1Z" transform="translate(587.465 -306.715)" fill="#c80e2d"/>
          <path id="Path_5878" data-name="Path 5878" d="M-541.061,418.439c.552.195,1.112.371,1.673.547C-539.949,418.81-540.509,418.632-541.061,418.439Z" transform="translate(587.469 -306.714)" fill="#c80e2d"/>
          <path id="Path_5879" data-name="Path 5879" d="M-473.42,361.522l.029.2Z" transform="translate(587.333 -306.599)" fill="#c80e2d"/>
          <path id="Path_5880" data-name="Path 5880" d="M-563.854,337.631a51.608,51.608,0,0,0-3.091,4.224A51.967,51.967,0,0,1-563.854,337.631Z" transform="translate(587.522 -306.551)" fill="#f8faf8"/>
          <path id="Path_5881" data-name="Path 5881" d="M-562.144,335.637c-.539.6-1.056,1.208-1.567,1.828C-563.2,336.846-562.683,336.233-562.144,335.637Z" transform="translate(587.515 -306.547)" fill="#f8faf8"/>
          <path id="Path_5882" data-name="Path 5882" d="M-580.677,396.666c-.321-.679-.641-1.358-.936-2.049a62.249,62.249,0,0,1-3.7-11.709q-.527-2.518-.846-5.1l-.914.115q.323,2.623.859,5.181a62.817,62.817,0,0,0,3.751,11.882c.3.7.622,1.391.947,2.08Z" transform="translate(587.562 -306.632)" fill="url(#linear-gradient)"/>
          <path id="Path_5883" data-name="Path 5883" d="M-479.783,414.262a62.025,62.025,0,0,1-5.151,4.595l.577.721a64.062,64.062,0,0,0,5.228-4.663,63.808,63.808,0,0,0,8.194-10.071l-.773-.507A62.5,62.5,0,0,1-479.783,414.262Z" transform="translate(587.356 -306.685)" fill="url(#linear-gradient-2)"/>
          <path id="Path_5884" data-name="Path 5884" d="M-547.339,428.132a62.076,62.076,0,0,1-8.217-4.022l-.465.8a63.049,63.049,0,0,0,8.339,4.082,62.868,62.868,0,0,0,10.247,3.121l.195-.9A62.177,62.177,0,0,1-547.339,428.132Z" transform="translate(587.499 -306.725)" fill="url(#linear-gradient-3)"/>
          <path id="Path_5885" data-name="Path 5885" d="M-466.474,345.374a61.76,61.76,0,0,1,3.695,11.708q.53,2.518.848,5.106l.916-.116q-.329-2.623-.86-5.181a62.874,62.874,0,0,0-3.749-11.88c-.3-.7-.624-1.392-.949-2.08l-.834.393C-467.087,344-466.769,344.684-466.474,345.374Z" transform="translate(587.321 -306.561)" fill="url(#linear-gradient-4)"/>
          <path id="Path_5886" data-name="Path 5886" d="M-500.772,311.881a62.525,62.525,0,0,1,8.217,4.023l.464-.8a63.164,63.164,0,0,0-8.338-4.082,62.808,62.808,0,0,0-10.248-3.123l-.194.9A61.949,61.949,0,0,1-500.772,311.881Z" transform="translate(587.409 -306.491)" fill="url(#linear-gradient-5)"/>
          <path id="Path_5887" data-name="Path 5887" d="M-586.157,377.717a62.843,62.843,0,0,1-.484-7.773,62.6,62.6,0,0,1,1.2-12.216,62.068,62.068,0,0,1,3.269-11.023,62.529,62.529,0,0,1,5.672-10.888l.086-.127-.771-.505-.086.13a63.176,63.176,0,0,0-5.756,11.048,63.1,63.1,0,0,0-3.32,11.184,63.748,63.748,0,0,0-1.214,12.4,63.7,63.7,0,0,0,.492,7.888Z" transform="translate(587.563 -306.546)" fill="#ffe576"/>
          <path id="Path_5888" data-name="Path 5888" d="M-555.608,424.055q-1.358-.792-2.671-1.649a62.89,62.89,0,0,1-10.051-8.16,62.8,62.8,0,0,1-7.788-9.489,62.281,62.281,0,0,1-4.548-8.054l-.836.394a63.5,63.5,0,0,0,4.616,8.173,63.762,63.762,0,0,0,7.9,9.629,63.655,63.655,0,0,0,10.2,8.278c.886.582,1.791,1.139,2.708,1.675Z" transform="translate(587.551 -306.67)" fill="#ffe576"/>
          <path id="Path_5889" data-name="Path 5889" d="M-485.04,418.886c-1.4,1.121-2.839,2.193-4.334,3.193a62.328,62.328,0,0,1-10.1,5.485,61.958,61.958,0,0,1-11.707,3.7,62.86,62.86,0,0,1-12.878,1.331,62.779,62.779,0,0,1-12.217-1.2c-.308-.061-.615-.129-.922-.193l-.195.9c.312.068.624.137.936.2a63.683,63.683,0,0,0,12.4,1.216A63.743,63.743,0,0,0-511,432.162a62.978,62.978,0,0,0,11.882-3.75,63,63,0,0,0,10.252-5.566c1.517-1.015,2.979-2.1,4.4-3.24Z" transform="translate(587.462 -306.714)" fill="#e09b00"/>
          <path id="Path_5890" data-name="Path 5890" d="M-461.024,362.111l-.916.116h0a62.813,62.813,0,0,1,.485,7.771,62.756,62.756,0,0,1-1.2,12.217,61.805,61.805,0,0,1-3.27,11.021,61.985,61.985,0,0,1-5.674,10.889l-.084.127.773.507.086-.129a63.251,63.251,0,0,0,5.755-11.05,62.829,62.829,0,0,0,3.317-11.183,63.675,63.675,0,0,0,1.217-12.4A64.078,64.078,0,0,0-461.024,362.111Z" transform="translate(587.33 -306.6)" fill="#e09b00"/>
          <path id="Path_5891" data-name="Path 5891" d="M-492.518,315.918q1.358.792,2.671,1.649a62.823,62.823,0,0,1,10.052,8.16,62.741,62.741,0,0,1,7.787,9.489,62.141,62.141,0,0,1,4.55,8.054l.834-.393a63.589,63.589,0,0,0-4.616-8.174,63.764,63.764,0,0,0-7.9-9.628,63.761,63.761,0,0,0-10.2-8.278q-1.334-.871-2.712-1.675Z" transform="translate(587.371 -306.505)" fill="#ffe576"/>
          <path id="Path_5892" data-name="Path 5892" d="M-563.142,321.115c1.4-1.121,2.842-2.2,4.335-3.194a62.276,62.276,0,0,1,10.1-5.485,62.031,62.031,0,0,1,11.707-3.7,62.849,62.849,0,0,1,12.878-1.331,62.93,62.93,0,0,1,12.217,1.2c.308.063.613.129.922.2l.194-.9c-.311-.066-.624-.134-.935-.2a63.671,63.671,0,0,0-12.4-1.214,63.7,63.7,0,0,0-13.068,1.351,62.645,62.645,0,0,0-11.88,3.75,63,63,0,0,0-10.255,5.565c-1.516,1.013-2.978,2.1-4.4,3.24Z" transform="translate(587.515 -306.488)" fill="#ffe576"/>
          <path id="Path_5893" data-name="Path 5893" d="M-568.321,325.737a62.641,62.641,0,0,1,5.151-4.594l-.577-.722a63.862,63.862,0,0,0-5.227,4.663,63.684,63.684,0,0,0-8.193,10.071l.771.505A62.838,62.838,0,0,1-568.321,325.737Z" transform="translate(587.542 -306.516)" fill="url(#linear-gradient-6)"/>
          <path id="Path_5894" data-name="Path 5894" d="M-479.687,360.564a45.162,45.162,0,0,0-2.693-8.507,45.259,45.259,0,0,0-3.991-7.338,45.7,45.7,0,0,0-5.659-6.894,45.8,45.8,0,0,0-7.307-5.924,45.388,45.388,0,0,0-7.908-4.127,45.135,45.135,0,0,0-8-2.388c-.645-.128-1.3-.24-1.949-.34-.2-.031-.4-.059-.608-.087-.471-.066-.946-.126-1.423-.177-.216-.024-.431-.049-.646-.068-.6-.059-1.2-.1-1.805-.136l-.211-.014c-.74-.04-1.487-.057-2.239-.057-.791,0-1.581.02-2.363.062h0l-.191.014c-.647.037-1.292.088-1.933.152-.228.023-.453.051-.681.077q-.753.084-1.5.2c-.214.03-.43.058-.643.094-.69.113-1.374.236-2.052.377a45.031,45.031,0,0,0-8.5,2.694,45.356,45.356,0,0,0-7.338,3.991,45.7,45.7,0,0,0-6.9,5.659,45.753,45.753,0,0,0-5.921,7.305,45.352,45.352,0,0,0-4.127,7.908,45.086,45.086,0,0,0-2.389,8,45.442,45.442,0,0,0-.877,8.879,45.369,45.369,0,0,0,.975,9.361,45.067,45.067,0,0,0,2.692,8.507,45.444,45.444,0,0,0,3.99,7.338,45.87,45.87,0,0,0,5.661,6.894,45.808,45.808,0,0,0,7.3,5.923,45.37,45.37,0,0,0,7.908,4.125,45.12,45.12,0,0,0,8.006,2.392c.644.127,1.294.237,1.948.336.2.034.406.061.607.09q.711.1,1.426.176c.213.025.428.049.646.068q.9.088,1.81.137c.808.043,1.621.07,2.442.07a45.426,45.426,0,0,0,9.36-.974,45.1,45.1,0,0,0,8.5-2.692,45.414,45.414,0,0,0,7.338-3.992,45.738,45.738,0,0,0,6.9-5.659,45.74,45.74,0,0,0,5.923-7.308,45.215,45.215,0,0,0,4.125-7.905,44.948,44.948,0,0,0,2.39-8.007,45.3,45.3,0,0,0,.879-8.88A45.466,45.466,0,0,0-479.687,360.564Zm-36.933-35.417c-.136-.024-.269-.05-.409-.073C-516.89,325.1-516.757,325.123-516.621,325.147Zm-1.454-.221c-.342-.046-.681-.091-1.024-.128C-518.756,324.837-518.417,324.88-518.075,324.926Zm-1.868-.22c-.57-.053-1.142-.1-1.719-.128Q-520.8,324.628-519.943,324.707Zm-9.491.125c-.362.041-.719.09-1.082.142C-530.154,324.919-529.8,324.872-529.434,324.831Zm-2.184.307c-.139.024-.276.053-.417.077C-531.893,325.192-531.756,325.163-531.618,325.139Zm-.025,89.561c.141.021.277.049.414.07C-531.365,414.749-531.5,414.721-531.643,414.7Zm1.458.222q.514.067,1.027.127Q-529.671,414.99-530.185,414.921Zm1.869.217c.573.053,1.147.1,1.725.131Q-527.458,415.219-528.315,415.138Z" transform="translate(587.527 -306.524)" fill="#e09b00"/>
          <path id="Path_5895" data-name="Path 5895" d="M-484.926,361.68a39.838,39.838,0,0,0-2.374-7.5,39.912,39.912,0,0,0-3.52-6.472,40.388,40.388,0,0,0-4.99-6.08,40.36,40.36,0,0,0-6.444-5.224,39.9,39.9,0,0,0-6.974-3.639,39.673,39.673,0,0,0-7.059-2.108c-.569-.113-1.143-.211-1.719-.3-.178-.027-.357-.05-.536-.076-.415-.058-.834-.111-1.255-.156-.191-.022-.38-.043-.569-.06-.529-.051-1.061-.092-1.593-.12l-.186-.013c-.653-.034-1.311-.049-1.974-.049-.7,0-1.394.017-2.084.055h0l-.168.011c-.571.033-1.141.078-1.706.135-.2.019-.4.045-.6.066q-.663.076-1.319.176c-.189.027-.38.053-.567.084-.609.1-1.212.207-1.809.333a39.679,39.679,0,0,0-7.5,2.374,39.978,39.978,0,0,0-6.472,3.52,40.227,40.227,0,0,0-6.081,4.99,40.379,40.379,0,0,0-5.222,6.442,40,40,0,0,0-3.639,6.975,39.789,39.789,0,0,0-2.108,7.06,40.1,40.1,0,0,0-.773,7.83,40.027,40.027,0,0,0,.859,8.254,39.772,39.772,0,0,0,2.374,7.5,40.032,40.032,0,0,0,3.519,6.471,40.281,40.281,0,0,0,4.992,6.081,40.269,40.269,0,0,0,6.442,5.224,39.892,39.892,0,0,0,6.974,3.638,39.569,39.569,0,0,0,7.06,2.109c.567.113,1.142.21,1.718.3.179.029.358.053.536.078q.626.088,1.257.156c.188.022.378.043.569.061q.792.076,1.6.119c.712.039,1.429.062,2.154.062a39.975,39.975,0,0,0,8.254-.859,39.716,39.716,0,0,0,7.5-2.374,39.95,39.95,0,0,0,6.471-3.52,40.188,40.188,0,0,0,6.082-4.99,40.325,40.325,0,0,0,5.224-6.445,39.886,39.886,0,0,0,3.638-6.973,39.588,39.588,0,0,0,2.108-7.06,39.954,39.954,0,0,0,.776-7.831A40.1,40.1,0,0,0-484.926,361.68Zm-32.57-31.234c-.121-.021-.239-.045-.361-.064C-517.735,330.4-517.617,330.425-517.5,330.446Zm-1.284-.195c-.3-.041-.6-.08-.9-.113C-519.38,330.173-519.08,330.21-518.78,330.251Zm-1.647-.193q-.754-.07-1.516-.114C-521.434,329.975-520.929,330.012-520.426,330.059Zm-8.37.109c-.32.037-.635.08-.954.125C-529.431,330.245-529.116,330.2-528.8,330.167Zm-1.925.271c-.123.021-.244.046-.368.068C-530.965,330.485-530.844,330.46-530.721,330.439Zm-.023,78.984c.124.02.244.043.365.063C-530.5,409.465-530.621,409.442-530.744,409.422Zm1.286.195c.3.041.6.078.905.114C-528.854,409.695-529.157,409.658-529.458,409.617Zm1.649.192q.756.07,1.52.115C-526.8,409.894-527.305,409.858-527.809,409.809Z" transform="translate(587.516 -306.535)" fill="#edae0f"/>
          <g id="Group_1160" data-name="Group 1160" transform="translate(18.873 18.872)">
            <path id="Path_5896" data-name="Path 5896" d="M-486.345,353.864l3.308-1.415a44.588,44.588,0,0,0-3.912-7.195l-2.992,2A41.092,41.092,0,0,1-486.345,353.864Z" transform="translate(568.493 -325.438)" fill="#e2ece6"/>
            <path id="Path_5897" data-name="Path 5897" d="M-495.052,398.988l2.545,2.544a44.939,44.939,0,0,0,5.806-7.163l-3.013-1.966A41.267,41.267,0,0,1-495.052,398.988Z" transform="translate(568.504 -325.533)" fill="#e2ece6"/>
            <path id="Path_5898" data-name="Path 5898" d="M-562.108,354.765l-3.339-1.339a44.171,44.171,0,0,0-2.343,7.849l3.53.7A40.441,40.441,0,0,1-562.108,354.765Z" transform="translate(568.65 -325.454)" fill="#e2ece6"/>
            <path id="Path_5899" data-name="Path 5899" d="M-565.054,370.014h-3.6a44.5,44.5,0,0,0,.955,9.177l3.522-.74A40.939,40.939,0,0,1-565.054,370.014Z" transform="translate(568.652 -325.488)" fill="#e2ece6"/>
            <path id="Path_5900" data-name="Path 5900" d="M-561.741,386.148l-3.311,1.415a44.65,44.65,0,0,0,3.913,7.2l2.992-2A40.923,40.923,0,0,1-561.741,386.148Z" transform="translate(568.645 -325.521)" fill="#e2ece6"/>
            <path id="Path_5901" data-name="Path 5901" d="M-553.027,399l-2.543,2.544a44.846,44.846,0,0,0,7.163,5.806l1.965-3.013A41.217,41.217,0,0,1-553.027,399Z" transform="translate(568.626 -325.546)" fill="#e2ece6"/>
            <path id="Path_5902" data-name="Path 5902" d="M-524.056,329v-3.6a44.485,44.485,0,0,0-9.177.955l.741,3.523A40.869,40.869,0,0,1-524.056,329Z" transform="translate(568.581 -325.398)" fill="#e2ece6"/>
            <path id="Path_5903" data-name="Path 5903" d="M-540.187,332.309-541.6,329a44.354,44.354,0,0,0-7.194,3.912l2,2.992A40.834,40.834,0,0,1-540.187,332.309Z" transform="translate(568.612 -325.405)" fill="#e2ece6"/>
            <path id="Path_5904" data-name="Path 5904" d="M-553.039,341.024l-2.543-2.544a44.931,44.931,0,0,0-5.809,7.163l3.014,1.965A41.238,41.238,0,0,1-553.039,341.024Z" transform="translate(568.637 -325.424)" fill="#e2ece6"/>
            <path id="Path_5905" data-name="Path 5905" d="M-483.906,361.561a40.928,40.928,0,0,1,.877,8.434h3.6a44.62,44.62,0,0,0-.955-9.175Z" transform="translate(568.481 -325.469)" fill="#e2ece6"/>
            <path id="Path_5906" data-name="Path 5906" d="M-495.065,341.012l2.545-2.544a44.965,44.965,0,0,0-7.165-5.808l-1.963,3.014A41.224,41.224,0,0,1-495.065,341.012Z" transform="translate(568.517 -325.413)" fill="#e2ece6"/>
            <path id="Path_5907" data-name="Path 5907" d="M-485.977,385.247l3.339,1.337a44.138,44.138,0,0,0,2.343-7.848l-3.528-.7A40.709,40.709,0,0,1-485.977,385.247Z" transform="translate(568.485 -325.504)" fill="#e2ece6"/>
            <path id="Path_5908" data-name="Path 5908" d="M-539.286,408.075l-1.339,3.339a44.072,44.072,0,0,0,7.849,2.345l.7-3.531A40.588,40.588,0,0,1-539.286,408.075Z" transform="translate(568.596 -325.565)" fill="#e2ece6"/>
            <path id="Path_5909" data-name="Path 5909" d="M-508.8,331.944l1.337-3.341a44.213,44.213,0,0,0-7.848-2.342l-.7,3.53A40.582,40.582,0,0,1-508.8,331.944Z" transform="translate(568.546 -325.4)" fill="#e2ece6"/>
            <path id="Path_5910" data-name="Path 5910" d="M-524.037,411.024v3.6a44.5,44.5,0,0,0,9.177-.955l-.743-3.522A40.934,40.934,0,0,1-524.037,411.024Z" transform="translate(568.562 -325.569)" fill="#e2ece6"/>
            <path id="Path_5911" data-name="Path 5911" d="M-507.9,407.707l1.417,3.307a44.5,44.5,0,0,0,7.194-3.912l-2-2.992A40.827,40.827,0,0,1-507.9,407.707Z" transform="translate(568.53 -325.557)" fill="#e2ece6"/>
          </g>
          <g id="Group_1161" data-name="Group 1161" transform="translate(33.118 52.894)">
            <path id="Path_5912" data-name="Path 5912" d="M-554.378,380.5l4.072-21.01h4.745l4.047,21.01h-3.969l-.751-4.618h-3.32l-.8,4.618Zm5.212-7.236h2.516l-1.271-8.481Z" transform="translate(554.378 -359.489)" fill="#f7faf6"/>
            <path id="Path_5913" data-name="Path 5913" d="M-539.357,380.5v-21.01h4.279v18.105h4.929v2.9Z" transform="translate(554.348 -359.489)" fill="#f7faf6"/>
            <path id="Path_5914" data-name="Path 5914" d="M-528.1,380.5v-21.01h4.28v18.105h4.928v2.9Z" transform="translate(554.325 -359.489)" fill="#f7faf6"/>
            <path id="Path_5915" data-name="Path 5915" d="M-512.38,380.5v-21.01h4.254V380.5Z" transform="translate(554.293 -359.489)" fill="#f7faf6"/>
            <path id="Path_5916" data-name="Path 5916" d="M-504.9,380.5v-21.01h2.983l4.669,10.946V359.489h3.528V380.5h-2.853l-4.669-11.62V380.5Z" transform="translate(554.278 -359.489)" fill="#f7faf6"/>
          </g>
          <g id="Group_1162" data-name="Group 1162" transform="translate(51.204 79.441)">
            <path id="Path_5917" data-name="Path 5917" d="M-532.9,390.568h0Zm1.861-4.479a2.59,2.59,0,0,0-2.593,2.591,2.584,2.584,0,0,0,.756,1.832h0l0,.005h0c.032.032.066.064.1.093l-.131-.044h0a2.6,2.6,0,0,0-.764-.114,2.59,2.59,0,0,0-2.592,2.591,2.591,2.591,0,0,0,2.59,2.593,2.59,2.59,0,0,0,2.122-1.1h0c.044-.062.085-.126.123-.191l-.07.212c-.134.405-.266.785-.4,1.12a12.712,12.712,0,0,1-.847,1.7v.005l0,0,3.377,0,.005,0v-.005a12.605,12.605,0,0,1-.847-1.7c-.133-.333-.266-.713-.4-1.115h0c-.023-.072-.047-.144-.071-.217.038.066.079.129.122.191h0a2.587,2.587,0,0,0,2.121,1.1,2.593,2.593,0,0,0,2.593-2.59,2.592,2.592,0,0,0-2.591-2.594,2.618,2.618,0,0,0-.76.113h0l0,0h0c-.043.013-.087.027-.13.043.034-.03.068-.063.1-.095a2.583,2.583,0,0,0,.765-1.838,2.59,2.59,0,0,0-2.59-2.592Zm0,0" transform="translate(536.256 -386.089)" fill="#ce8900"/>
            <path id="Path_5918" data-name="Path 5918" d="M-516.205,386.094a.017.017,0,0,0-.012.007l-4.357,5.6a.015.015,0,0,0,0,.017l0,0h0l4.352,5.644a.013.013,0,0,0,.012.006h.005l.008-.006,4.359-5.637,0-.01h0l0-.009-4.355-5.607a.016.016,0,0,0-.013-.007Zm0,0" transform="translate(536.224 -386.089)" fill="#ce8900"/>
          </g>
          <g id="Group_1163" data-name="Group 1163" transform="translate(49.301 36.082)">
            <path id="Path_5919" data-name="Path 5919" d="M-512.875,342.65a8.172,8.172,0,0,0-3.279,1.118h0l-.008,0-.006,0-.007,0h0a8.239,8.239,0,0,0-3.29-1.118,2.311,2.311,0,0,0-1.06.244,3.981,3.981,0,0,0-1.741,4.349,5.6,5.6,0,0,0,1.813,2.362c.356.308.729.6,1.088.882h0c.33.258.648.508.927.749a8.952,8.952,0,0,1,2.25,2.935.02.02,0,0,0,.017.01h.005a.026.026,0,0,0,.012-.011,9.017,9.017,0,0,1,2.3-3.1c.305-.26.651-.524,1.01-.8h0c1.137-.863,2.385-1.811,2.771-3.032a4.034,4.034,0,0,0-1.738-4.35,2.26,2.26,0,0,0-1.065-.25h0Zm0,0" transform="translate(538.131 -342.643)" fill="#ce8900"/>
            <path id="Path_5920" data-name="Path 5920" d="M-533.17,342.643h0a7.086,7.086,0,0,1-1.809,2.3c-.224.19-.477.383-.74.584h0c-.286.219-.584.446-.868.686a4.417,4.417,0,0,0-1.451,1.842,3.132,3.132,0,0,0,1.326,3.438,1.8,1.8,0,0,0,.829.2h.026a5.777,5.777,0,0,0,2.3-.715h0l.078-.037h0c-.007.02-.014.041-.022.063h0a10.61,10.61,0,0,1-.476,1.137,11.526,11.526,0,0,1-.965,1.53v0l0,0h3.366v0a11.631,11.631,0,0,1-.993-1.562,9.815,9.815,0,0,1-.452-1.095h0l-.022-.064h0l.024.012.032.016.023.012h0a5.648,5.648,0,0,0,2.29.768h.025a1.772,1.772,0,0,0,.813-.186,3.175,3.175,0,0,0,1.409-3.4,5.694,5.694,0,0,0-2.157-2.417h0c-.28-.219-.551-.429-.788-.638a7.092,7.092,0,0,1-1.79-2.472Zm0,0" transform="translate(538.163 -342.643)" fill="#ce8900"/>
          </g>
        </g>
      </g>
    </g>
    <circle id="Ellipse_108" data-name="Ellipse 108" cx="63.339" cy="63.339" r="63.339" fill="#031d02" opacity="0.3"/>
  </g>
</svg>
