<svg xmlns="http://www.w3.org/2000/svg" xmlns:xlink="http://www.w3.org/1999/xlink" width="50" height="50" viewBox="0 0 50 50">
  <defs>
    <linearGradient id="linear-gradient" x1="0.1" y1="0.101" x2="1.801" y2="2.115" gradientUnits="objectBoundingBox">
      <stop offset="0" stop-color="#ff266d"/>
      <stop offset="1" stop-color="#fb8700"/>
    </linearGradient>
  </defs>
  <g id="Group_472" data-name="Group 472" transform="translate(17794 -287)">
    <g id="Group_471" data-name="Group 471">
      <rect id="Rectangle_741" data-name="Rectangle 741" width="50" height="50" rx="10" transform="translate(-17794 287)" fill="url(#linear-gradient)"/>
      <g id="Group_470" data-name="Group 470" transform="translate(-18450.334 36.246)">
        <path id="Path_5743" data-name="Path 5743" d="M731.951,271.021c0-3.277-1.4-4.152-2.779-4.994-1.56-.969-3.184-1.966-3.121-6.4a.468.468,0,0,0,.343-.437.437.437,0,1,0-.656.374c-.094,4.651,1.687,5.744,3.246,6.712,1.374.843,2.654,1.623,2.654,4.744a.157.157,0,1,0,.314,0Z" transform="translate(-34.279)" fill="#280067"/>
        <path id="Path_5744" data-name="Path 5744" d="M737.338,275.664a.173.173,0,0,0,.156-.094c1.467-3.215,0-4.652-1.186-5.838a3.244,3.244,0,0,1-1.279-1.967.467.467,0,0,0,.342-.437.437.437,0,0,0-.874,0,.41.41,0,0,0,.187.375,3.593,3.593,0,0,0,1.405,2.278c1.217,1.186,2.466,2.436,1.093,5.463a.048.048,0,0,0-.005.013.161.161,0,0,0,.1.206Z" transform="translate(-39.227 -4.486)" fill="#280067"/>
        <path id="Path_5745" data-name="Path 5745" d="M730.8,281.315a.292.292,0,1,1,.3.28.292.292,0,0,1-.3-.28" transform="translate(-37.187 -12.282)" fill="#280067"/>
        <path id="Path_3655" data-name="Path 3655" d="M707.949,272.792h0a1.33,1.33,0,0,0-.795.255.135.135,0,0,1-.157,0l-2.53-1.781a.134.134,0,0,1-.035-.184,1.934,1.934,0,0,0,.32-1.049,1.5,1.5,0,0,0-.486-1.117,1.708,1.708,0,0,0-1.13-.465h0a1.471,1.471,0,0,0-1.056.429.134.134,0,0,1-.124.036c-.719-.159-1.261-2-1.261-4.283-.689-.024-1.266.664-1.354,1.573a.134.134,0,0,1-.079.11.136.136,0,0,1-.135-.015,6.663,6.663,0,0,1-2.019-5.689.071.071,0,0,0-.011-.026,1.2,1.2,0,0,0-.948.783,5.475,5.475,0,0,0-.369,3.422c.03.1.062.206.093.309s.06.194.089.3l0,.01a.293.293,0,0,1-.011.23.3.3,0,0,1-.169.152.136.136,0,0,1-.044.007h-.059a.306.306,0,0,1-.276-.167c-.087-.254-.209-.728-.248-.884a4.783,4.783,0,0,0-2.72-.973,6.853,6.853,0,0,0-1.779.3,8.7,8.7,0,0,1-4.276.22l-.021-.017a.1.1,0,0,0-.006.053c.329,1.29,2.459,3.288,3.861,3.288a.31.31,0,0,1,.29.331.285.285,0,0,1-.281.282l-.055,0a5.451,5.451,0,0,1-1.71-.487,4.1,4.1,0,0,0-1.939,1.924,5.474,5.474,0,0,1-3.514,2.805.113.113,0,0,1-.03,0,3.682,3.682,0,0,0-2.052,1.285,1.687,1.687,0,0,0-.2,1.355s0,.031,0,.035a.36.36,0,0,1,.044-.024c1.167-.852,2.222-1.126,3.056-.791a3.745,3.745,0,0,1,1.892,2.407,9.509,9.509,0,0,1,1.283-3.849,5.323,5.323,0,0,1,3.619-2.53.226.226,0,0,1,.071-.01.291.291,0,0,1,.267.224.258.258,0,0,1-.01.2.328.328,0,0,1-.2.157,4.769,4.769,0,0,0-3.267,2.252,10.212,10.212,0,0,0-1.106,5.951s0,.031,0,.036c.662,3.233,2.181,4.938,4.512,5.044a3.365,3.365,0,0,0-.795-3.035,5.023,5.023,0,0,1-.832-4.813.277.277,0,0,1,.343-.2.233.233,0,0,1,.159.1.3.3,0,0,1,.039.265,4.34,4.34,0,0,0,.766,4.348,3.994,3.994,0,0,1,.906,3.325c1.778-.094,3.878,1.47,4.991,2.3l.032.024.05.039a7.949,7.949,0,0,0-1.819-2.492,6.333,6.333,0,0,1-1.657-2.313.274.274,0,0,1,.214-.341.28.28,0,0,1,.357.21,6.1,6.1,0,0,0,1.5,2.043l.208.235c.939,1.058,1.825,2.057,1.825,2.978v.022c.219.044.41.08.581.112a4,4,0,0,1,2.455,1.175h.028c-.452-2.552-1.221-4.133-2.568-5.264-.227-.146-5.883-3.84-6.291-7.111a4.155,4.155,0,0,1,1.307-3.85,2.052,2.052,0,0,0-.146-1.336l-.039-.149a1.187,1.187,0,0,1-.048-.8.553.553,0,0,1,.524-.245,3.634,3.634,0,0,1,.491.048,5.045,5.045,0,0,0,.645.054.9.9,0,0,0,.588-.147.634.634,0,0,0,.142-.451.292.292,0,1,1,.583-.01,1.14,1.14,0,0,1-.357.909,1.37,1.37,0,0,1-.974.314,5.684,5.684,0,0,1-.667-.052l-.059-.007a1.849,1.849,0,0,0-.4-.038,1.806,1.806,0,0,0,.1.419,3.045,3.045,0,0,1,.23,1.094,1.232,1.232,0,0,1,.275-.085,2.1,2.1,0,0,1,.58-.081,2.138,2.138,0,0,1,1.506.616,1.608,1.608,0,0,1-.175,2.518,1.442,1.442,0,0,1-1.761-.171,1.225,1.225,0,0,1-.283-1.3,1.039,1.039,0,0,1,.861-.679.84.84,0,0,1,.761.481.289.289,0,0,1,.021.216.294.294,0,0,1-.142.177.3.3,0,0,1-.4-.115.272.272,0,0,0-.231-.149.426.426,0,0,0-.333.289.561.561,0,0,0,.064.536.858.858,0,0,0,1.541-.221,1.15,1.15,0,0,0-.331-1.139,1.442,1.442,0,0,0-1.485-.4,2.575,2.575,0,0,0-1.409,1.4,1.9,1.9,0,0,0,.022,1.629,4.712,4.712,0,0,0,4.126,2.484,4.933,4.933,0,0,1,3.561,1.508,4.406,4.406,0,0,1,1.255,2.993c0,.044.01.056.024.056h0a1.315,1.315,0,0,0,1.045-.509.135.135,0,0,1,.239.058,9.925,9.925,0,0,1,.158,1.741s.017.025.021.028l.029,0c.9-.312,1.227-1.011,1.625-2.04a7.073,7.073,0,0,1,1.873-2.953.083.083,0,0,0,.021-.046,1.637,1.637,0,0,0-1.306-.315,1.412,1.412,0,0,0-.984.514.127.127,0,0,1-.107.05,7.014,7.014,0,0,1-4.909-2.733,7.4,7.4,0,0,1-1.747-3.845.135.135,0,0,1,.035-.11.133.133,0,0,1,.107-.043c1.547.1,2.21,1.144,2.852,2.154.578.922,1.231,1.967,2.665,1.967v-.045c-1.372,0-2.01-.987-2.626-1.941-.6-.959-1.324-2.119-2.935-2.18a.135.135,0,0,1-.129-.127,6.851,6.851,0,0,1,.063-1.4.135.135,0,0,1,.065-.1.131.131,0,0,1,.116-.01,17.6,17.6,0,0,1,6.094,4.178l.133.127c.933.911,1.739,1.7,2.419,1.7a.969.969,0,0,0,.618-.238.135.135,0,0,1,.165,0c.367.274.6.37.792.32.224-.044.36-.289.55-.628l.084-.15a5,5,0,0,1,.924-1.4A1.374,1.374,0,0,0,707.949,272.792Zm-13.741-6.318a.3.3,0,0,1-.244.137.242.242,0,0,1-.109-.029.1.1,0,0,1-.061-.024,2.6,2.6,0,0,0-2.314-.267l-.025.007a3.507,3.507,0,0,1-1.98.061.231.231,0,0,1-.159-.1.3.3,0,0,1-.045-.247.28.28,0,0,1,.363-.2,3.319,3.319,0,0,0,1.7-.063,3.165,3.165,0,0,1,2.755.322.246.246,0,0,1,.131.134A.334.334,0,0,1,694.208,266.473Zm8.964,4.227a.7.7,0,1,1,.7-.7A.7.7,0,0,1,703.172,270.7Z" transform="translate(-9.556 -1.011)" fill="#280067"/>
        <path id="Path_3656" data-name="Path 3656" d="M664.122,302.332a2.768,2.768,0,0,0-.779,2.15,1.252,1.252,0,0,0,.13.436.217.217,0,0,1,.056.116,2.189,2.189,0,0,0,.3,1.452,2.547,2.547,0,0,1,.123-1.176.137.137,0,0,1,.145-.088c.041.005.083.009.125.01a3.2,3.2,0,0,1,.117-1.384C663.959,303.555,664.067,302.663,664.122,302.332Z" transform="translate(0 -24.021)" fill="#280067"/>
        <path id="Path_3657" data-name="Path 3657" d="M683.352,302.47a5.842,5.842,0,0,1-.118.972c0,.033-.67,3.756-4.072,3.77a.074.074,0,0,1-.024,0,6.563,6.563,0,0,1-2.3-.474.135.135,0,0,1,.086-.255,5.308,5.308,0,0,0,1.28.15,3.874,3.874,0,0,0,4.037-3.316,4.205,4.205,0,0,0,.119-.892l-.461-.017a4.39,4.39,0,0,1-.835-.188c-.4,2.052-2.813,2.388-2.839,2.392a.135.135,0,0,1-.089-.247,3.765,3.765,0,0,0,1.977-2.591,5.29,5.29,0,0,1-1.66-1.75,1.746,1.746,0,0,1-.528.548.132.132,0,0,1-.161-.02.134.134,0,0,1-.024-.161,3.653,3.653,0,0,0,.346-1.049,10.49,10.49,0,0,1-.719-2.04,3.285,3.285,0,0,0-1.039-.525.123.123,0,0,1-.044-.018.133.133,0,0,1-.049-.172,1.256,1.256,0,0,1,.869-.676c-.03-.224-.044-.385-.05-.46a6.751,6.751,0,0,0-1.232-2.537,1.693,1.693,0,0,0-.434-.335,2.653,2.653,0,0,0-.4-.139,1.289,1.289,0,0,0-.213-.024h0a2.5,2.5,0,0,0-1.214.381c.6.161,1.277.675,1.631,2.058a.135.135,0,0,1-.255.085,2.34,2.34,0,0,0-2.322-1.42.6.6,0,0,1-.776-.032.56.56,0,0,1-.164-.486,1.961,1.961,0,0,0-.511-.111c-.2.162-.384.313-.56.454-.557.446-1,.8-1.086,1.067a2.052,2.052,0,0,0-.081.394,3.556,3.556,0,0,1,1.076,1.264.134.134,0,0,1-.2.166,8.1,8.1,0,0,0-1.074-.727l-.086-.054a1.581,1.581,0,0,0-.754-.171,2.811,2.811,0,0,0-1.259.338,6.447,6.447,0,0,0-1.471.987,2.716,2.716,0,0,1,.726-.106,2.306,2.306,0,0,1,2.06,1.639.675.675,0,0,1-.047.627.6.6,0,0,1-.272.2,2.072,2.072,0,0,0,1.639-.9c.28-.5.582-.785.832-.785a.265.265,0,0,1,.24.137.477.477,0,0,1-.065.474,2.571,2.571,0,0,1-2.264,1.452,3.12,3.12,0,0,1-.75-.1.135.135,0,0,1-.091-.209,1.756,1.756,0,0,1-.26-.019.135.135,0,0,1-.013-.263c.154-.04.241-.128.238-.241,0-.14-.15-.324-.468-.394a.852.852,0,0,0-.672.169,1.4,1.4,0,0,1-.336.167A2.14,2.14,0,0,0,667.3,301.3a.135.135,0,0,1,.075.138,1.988,1.988,0,0,0,.389,1.763,2.912,2.912,0,0,1,.349-1.586.136.136,0,0,1,.132-.069,4.386,4.386,0,0,0,4.038-1.857.132.132,0,0,1,.051-.04,3.166,3.166,0,0,1,1.185-.245,1.957,1.957,0,0,1,1.92,1.355,4.283,4.283,0,0,1,.192,2.653.135.135,0,0,1-.263-.055,3.082,3.082,0,0,0-.816-2.732l-.087-.106a2.544,2.544,0,0,0-1.415,1.68.135.135,0,0,1-.262-.041,2.768,2.768,0,0,1,.969-2.168.885.885,0,0,0-1.07.284,4.509,4.509,0,0,1-1.789,1.487,2.026,2.026,0,0,0-.18,1.489.135.135,0,0,1-.034.129.138.138,0,0,1-.128.036,2.49,2.49,0,0,0-1.546.12,1.2,1.2,0,0,0-.332,1.89c.187-.346.649-1.093,1.141-1.093a.5.5,0,0,1,.11.012.364.364,0,0,1,.266.449,1.684,1.684,0,0,0-.1.887,10.091,10.091,0,0,0,.675-1.4,2.211,2.211,0,0,1,1.763-1.522,1.293,1.293,0,0,1,.879.369l.167.153c.521.474.97.884,1.332.884a.154.154,0,0,1,.15.086.129.129,0,0,1-.027.153.741.741,0,0,1-.772.079,5.376,5.376,0,0,1-.786-.484c-.466-.328-.854-.571-1.362-.372-.35.139-.7.787-1.032,1.413a3.777,3.777,0,0,1-1.233,1.632.135.135,0,0,1-.176-.06,2.124,2.124,0,0,1-.176-1.479,1.7,1.7,0,0,0-.471,1.28.135.135,0,0,1-.2.127,6.115,6.115,0,0,1-.6-.374,2.344,2.344,0,0,0-1.135-.523.135.135,0,0,1-.127-.093,1.794,1.794,0,0,1-.049-.9,1.461,1.461,0,0,0-.345,1.1.137.137,0,0,1-.041.111,1.486,1.486,0,0,0-.126,1.524,3.429,3.429,0,0,0,2.8,2.2l-.139-.206a.135.135,0,0,1,.153-.2,2.922,2.922,0,0,0,2.374-.278l-.508-.081a.133.133,0,0,1-.094-.062,1.637,1.637,0,0,1,.587-2.058,2.392,2.392,0,0,1,1.534-.628,1.008,1.008,0,0,1,.893.408.973.973,0,0,1,0,.924,4.974,4.974,0,0,0,1.721.4.135.135,0,0,1,.08.237l-.944.8a8.614,8.614,0,0,0,4.227-.431.135.135,0,0,1,.146.217l-.726.8c.924-.129,3.419-.593,4.648-1.953a.121.121,0,0,1,.029-.024c.018-.011,1.776-1.143,2.2-4.365a6.163,6.163,0,0,0-1.938-.6Zm-8.7-6.024a1.235,1.235,0,0,0-.088.263,1.346,1.346,0,0,1-1.13,1.187,1.528,1.528,0,0,1-.206.015,1.41,1.41,0,0,1-1.2-.818,1.271,1.271,0,0,0-.2-.263.229.229,0,0,0-.209-.075l0,0-.058.042a.135.135,0,0,1-.179-.2.356.356,0,0,1,.134-.092,2.3,2.3,0,0,1,.848-.336l.2-.021.185-.019a.14.14,0,0,1,.1.034.136.136,0,0,1,.045.1.461.461,0,0,0,.394.525.455.455,0,0,0,.466-.426.511.511,0,0,0-.041-.245.136.136,0,0,1,.086-.184,5.36,5.36,0,0,0,.624-.222,1.935,1.935,0,0,1,1.568-.087.135.135,0,0,1,.082.159.138.138,0,0,1-.149.1A1.342,1.342,0,0,0,674.648,296.446Zm.641,9.3h0a3.813,3.813,0,0,1-.441-.024.125.125,0,0,1-.136-.1.135.135,0,0,1,.071-.152.147.147,0,0,1,.062-.015,2.09,2.09,0,0,0,1.616-.764c.9-1.138.542-3.183.5-3.412a.144.144,0,0,1,.07-.153.136.136,0,0,1,.106-.006.132.132,0,0,1,.078.073c.706,1.609.8,2.822.291,3.605A2.605,2.605,0,0,1,675.289,305.75Z" transform="translate(-1.282 -18.556)" fill="#280067"/>
        <g id="Group_469" data-name="Group 469" transform="translate(687.39 270.719)">
          <path id="Path_3658" data-name="Path 3658" d="M722.977,289.906h-.005a3.578,3.578,0,0,1-2.836-2.185c-1.283-2.31-2.974-1.949-2.992-1.945a.166.166,0,0,1-.2-.126.168.168,0,0,1,.126-.2c.079-.018,1.957-.419,3.37,2.125.016.035.843,1.937,2.545,2a.168.168,0,0,1-.006.337Z" transform="translate(-716.937 -285.415)" fill="#280067"/>
        </g>
      </g>
    </g>
  </g>
</svg>
