<svg xmlns="http://www.w3.org/2000/svg" width="25.883" height="26.768" viewBox="0 0 25.883 26.768">
  <g id="Group_1209" data-name="Group 1209" transform="translate(-2475.059 103)">
    <g id="Group_1206" data-name="Group 1206" transform="translate(2271.874 -156.918)">
      <path id="Path_5938" data-name="Path 5938" d="M203.749,77.3l10.575,3.348a.845.845,0,0,0,1.094-.8V78.295h5.172a.821.821,0,0,0,.829-.829V69.988h-1.79V76.5h-4.243V58.1h4.277v6.517h1.79V57.139a.821.821,0,0,0-.829-.829h-5.172V54.752a.846.846,0,0,0-1.094-.8L203.782,57.3a.816.816,0,0,0-.6.8V76.471a.9.9,0,0,0,.564.829Z" transform="translate(0 0)" fill="#568a29"/>
      <path id="Path_5939" data-name="Path 5939" d="M430.479,213.821a.51.51,0,0,0-.5.5v1.989a.51.51,0,0,0,.5.5h6.5v1.989a.594.594,0,0,0,.961.464l4.277-3.481a.593.593,0,0,0,0-.928l-4.276-3.481a.594.594,0,0,0-.961.464v1.989Z" transform="translate(-213.371 -148.01)" fill="#568a29"/>
    </g>
  </g>
</svg>
