<svg id="Group_691" data-name="Group 691" xmlns="http://www.w3.org/2000/svg" xmlns:xlink="http://www.w3.org/1999/xlink" width="15.443" height="21.974" viewBox="0 0 15.443 21.974">
  <defs>
    <linearGradient id="linear-gradient" x1="0.793" y1="0.761" x2="-0.119" y2="-0.1" gradientUnits="objectBoundingBox">
      <stop offset="0" stop-color="#ac21b6"/>
      <stop offset="1" stop-color="#fe696f"/>
    </linearGradient>
  </defs>
  <path id="Path_1214" data-name="Path 1214" d="M227.183,81.6h-3.491l-.056-.25a6.132,6.132,0,0,0-.842-2.032c-.02-.031-.041-.061-.063-.09l-.391-.563,4.29,0c.176,0,.352,0,.527,0h.025a1.162,1.162,0,0,0,.832-1.976,1.235,1.235,0,0,0-.832-.351l-12.562,0-.527,0h-.025a1.2,1.2,0,0,0-.822.341,1.266,1.266,0,0,0-.323.6.82.82,0,0,0-.019.2,1.207,1.207,0,0,0,.331.825,1.237,1.237,0,0,0,.832.351h3.125c.254,0,.5.011.732.032l.027,0a5.671,5.671,0,0,1,.992.272l.023.01a5.77,5.77,0,0,1,.92.539l.019.015a5.768,5.768,0,0,1,.7.7l.015.019a5.783,5.783,0,0,1,.524.888l.217.457-6.743,0c-.176,0-.351,0-.527,0h-.025a1.163,1.163,0,0,0-.832,1.976,1.236,1.236,0,0,0,.832.351h7.294l-.218.457a5.783,5.783,0,0,1-.523.886l-.015.019a5.783,5.783,0,0,1-.7.7l-.02.015a5.788,5.788,0,0,1-.919.539l-.023.01a5.663,5.663,0,0,1-1.017.276l-.027,0c-.268.023-.531.028-.844.028h-2.363a1.179,1.179,0,0,0-1.163,1.163v.231c0,.152,0,.3,0,.455a1.218,1.218,0,0,0,.38.879l2.544,2.363q1.373,1.276,2.744,2.554l2.773,2.58c.307.287.612.572.921.857a.3.3,0,0,1,.029.026,1.221,1.221,0,0,0,.82.339,1.186,1.186,0,0,0,.811-.33,1.2,1.2,0,0,0,.352-.819,1.225,1.225,0,0,0-.335-.829l-.9-.837-1.081-1.006-1.081-1.006-4.587-4.265.751-.041a6.378,6.378,0,0,0,3.151-1,6.5,6.5,0,0,0,2.218-2.394,6.8,6.8,0,0,0,.6-1.608l.057-.247,2.931,0,.527,0h.025a1.163,1.163,0,0,0,.832-1.976A1.235,1.235,0,0,0,227.183,81.6Z" transform="translate(-212.905 -76.33)" fill="url(#linear-gradient)"/>
</svg>
