<svg xmlns="http://www.w3.org/2000/svg" width="26.768" height="26.768" viewBox="0 0 26.768 26.768">
  <g id="Group_1208" data-name="Group 1208" transform="translate(-97.2 -27.198)">
    <path id="Path_5945" data-name="Path 5945" d="M120.048,31.118a13.385,13.385,0,1,0,3.92,9.464A13.3,13.3,0,0,0,120.048,31.118Zm-1.319,17.613a11.506,11.506,0,1,1,3.4-8.132A11.462,11.462,0,0,1,118.729,48.731Z" transform="translate(0 0)" fill="#568a29"/>
    <path id="Path_5946" data-name="Path 5946" d="M321.884,130.857a2.15,2.15,0,0,0,.03-4.3,2.151,2.151,0,0,0-2.164,2.135h0A2.132,2.132,0,0,0,321.884,130.857Z" transform="translate(-210.766 -94.1)" fill="#568a29"/>
    <path id="Path_5947" data-name="Path 5947" d="M288.315,235.547a5.565,5.565,0,0,0-.593.3,2.737,2.737,0,0,1-.8.237.544.544,0,0,1-.652-.445,2.1,2.1,0,0,1-.059-.741c.059-.5.178-1.008.267-1.512.267-1.542.563-3.054.83-4.6a5.952,5.952,0,0,0,.148-1.245c0-.5-.3-.741-.8-.741h-4.032a2.556,2.556,0,0,0-.474.03c-.3.059-.445.207-.474.445a.557.557,0,0,0,.385.534,5.948,5.948,0,0,0,.712.119c.563.059.741.267.741.83,0,.089-.03.178-.03.267l-.712,4-.356,2.313a2.241,2.241,0,0,0,1.779,2.313,9.315,9.315,0,0,0,1.571.089,3.963,3.963,0,0,0,2.817-1.275,1.416,1.416,0,0,0,.3-.5h0C288.968,235.636,288.7,235.4,288.315,235.547Z" transform="translate(-174.707 -189.035)" fill="#568a29"/>
  </g>
</svg>
