<svg xmlns="http://www.w3.org/2000/svg" width="17.926" height="17.396" viewBox="0 0 17.926 17.396">
  <g id="Group_1076" data-name="Group 1076" transform="translate(1217.599 569.708)">
    <path id="Path_3957" data-name="Path 3957" d="M-1216.855-232.166l.043,0,.02-.038a1.276,1.276,0,0,0,.118-.408c.012-.069.023-.134.04-.195a5.2,5.2,0,0,1,1.986-2.934,4.276,4.276,0,0,0,2.636,1.013,3.458,3.458,0,0,0,.927-.127l.062-.017-.007-.064a3.584,3.584,0,0,0-.129-.606l-.024-.088-.019-.07-.07.016a3.263,3.263,0,0,1-.7.08h0a3.483,3.483,0,0,1-2.462-1.2l-.04-.039-.049.026a5.788,5.788,0,0,0-1.992,1.683,6.186,6.186,0,0,0-1.067,2.6v0a1.182,1.182,0,0,0-.01.186l0,.076.077,0h0a.719.719,0,0,1,.127.026c.043.011.092.024.14.032a1.981,1.981,0,0,0,.348.04Z" transform="translate(0 -326.568)" fill="#666e7a"/>
    <path id="Path_3958" data-name="Path 3958" d="M-892.726-26.118a7.068,7.068,0,0,0-1.19-3.538,7.191,7.191,0,0,0-2.565-2.213l-.044-.024-.039.032c-.14.113-.274.233-.4.349a5.018,5.018,0,0,1-.891.684,3.583,3.583,0,0,1-1.837.445,4.073,4.073,0,0,1-3.126-1.473l-.04-.04-.05.027a8.192,8.192,0,0,0-1.757,1.242l-.046.043.034.053a1.74,1.74,0,0,0,.283.314,2.053,2.053,0,0,1,.213.221l.047.06.06-.047c.063-.05.13-.107.2-.167.1-.082.205-.174.328-.268.03-.023.065-.052.106-.087.122-.1.327-.276.434-.276.041,0,.137.088.2.145.031.028.062.057.094.083a4.534,4.534,0,0,0,3.02,1.077,4.906,4.906,0,0,0,3.3-1.308,5.691,5.691,0,0,1,2.777,5.264h-9.259l-.014.059a1.816,1.816,0,0,0-.021.434c0,.088,0,.18,0,.26l0,.08H-892.8l.011-.062A5.822,5.822,0,0,0-892.726-26.118Z" transform="translate(-306.961 -527.633)" fill="#666e7a"/>
    <path id="Path_3959" data-name="Path 3959" d="M-1098.212-563.523a3.908,3.908,0,0,0,2.565.89l.084,0-.006-.084a2.406,2.406,0,0,1,0-.245,1.1,1.1,0,0,0-.045-.463l-.01-.021-.02-.012a.953.953,0,0,0-.473-.113c-.051,0-.1-.005-.144-.011a2.6,2.6,0,0,1-2.262-2.593,2.646,2.646,0,0,1,1.839-2.539,2.7,2.7,0,0,1,.779-.117,2.685,2.685,0,0,1,2.037.964c.025.03.062.083.1.139.144.206.245.342.34.36a.207.207,0,0,0,.038,0c.164,0,.609-.221.637-.366.024-.121-.088-.292-.262-.512l-.018-.022a3.8,3.8,0,0,0-1.183-1.029,3.609,3.609,0,0,0-1.76-.416c-.129,0-.262.005-.4.016a3.263,3.263,0,0,0-2.209,1.237,3.478,3.478,0,0,0-.794,2.631A3.424,3.424,0,0,0-1098.212-563.523Z" transform="translate(-115.972 0)" fill="#666e7a"/>
    <path id="Path_3960" data-name="Path 3960" d="M-870.76-447.123a4.265,4.265,0,0,0,.371,2.893,4.49,4.49,0,0,0,1.652,1.769,4.566,4.566,0,0,0,2.282.607,4.125,4.125,0,0,0,.491-.029,4.322,4.322,0,0,0,2.368-1.059,4.411,4.411,0,0,0,1.307-2.167,4.221,4.221,0,0,0-.208-2.862,4.617,4.617,0,0,0-1.455-1.791,4.177,4.177,0,0,0-2.478-.8c-.113,0-.228,0-.343.013a4.209,4.209,0,0,0-1.5.367A4.353,4.353,0,0,0-870.76-447.123Zm.793.868a3.534,3.534,0,0,1,.964-2.333,3.341,3.341,0,0,1,2.241-1.074c.1-.008.2-.012.3-.012a3.414,3.414,0,0,1,2.852,1.53,3.631,3.631,0,0,1,.518,2.631,3.4,3.4,0,0,1-3.443,2.773c-.111,0-.225,0-.338-.014a3.385,3.385,0,0,1-2.183-1.111A3.4,3.4,0,0,1-869.966-446.255Z" transform="translate(-340.174 -116.889)" fill="#666e7a"/>
    <path id="Path_3961" data-name="Path 3961" d="M-1190.006-51.623c.214-.025.455-.029.688-.033.154,0,.314-.005.466-.014l.055,0,.014-.053a1.992,1.992,0,0,1,.127-.331,2.51,2.51,0,0,0,.117-.29l.014-.045-.035-.033c-.349-.327-.7-.667-1.035-1-.622-.606-1.264-1.232-1.939-1.808l-.051-.043-.049.045c-.864.781-1.835,1.7-2.6,2.463l-.006.006c-.206.206-.328.344-.337.437a.624.624,0,0,0,.129.374.534.534,0,0,1,.1.222v.068l.068.006c.148.013.306.014.443.014h.167a3.633,3.633,0,0,1,.583.033,4.9,4.9,0,0,0,1.552,2.655,6.388,6.388,0,0,0,2.924,1.328l.037.008.028-.025a1,1,0,0,0,.242-.431c.026-.071.05-.137.079-.2l.026-.055-.048-.037A4.338,4.338,0,0,1-1190.006-51.623Zm-.872-.917,0,.071a6.475,6.475,0,0,0,.189,2.027,5.46,5.46,0,0,0,.559,1.359,4.087,4.087,0,0,1-2.207-3.372l-.007-.054-.054-.011a1.674,1.674,0,0,0-.31-.023l-.155,0-.152,0c-.052,0-.1,0-.137,0a14.906,14.906,0,0,1,1.124-1.107c.148-.136.3-.276.45-.417A21.172,21.172,0,0,1-1190-52.541Z" transform="translate(-22.589 -504.698)" fill="#666e7a"/>
  </g>
</svg>
