<svg xmlns="http://www.w3.org/2000/svg" width="31.839" height="27" viewBox="0 0 31.839 27">
  <g id="Group_1180" data-name="Group 1180" transform="translate(-1582.568 86.232)">
    <path id="Path_5935" data-name="Path 5935" d="M570.526,87.865,569.5,89.848a10.774,10.774,0,0,1,.32,18.813l1.025,1.973a12.974,12.974,0,0,0,6.5-10.123V98.128A12.924,12.924,0,0,0,570.526,87.865Z" transform="translate(1037.058 -171.44)" fill="#568a29"/>
    <path id="Path_5936" data-name="Path 5936" d="M495.174,77.716a1.83,1.83,0,0,0-1.3.542l-5.995,6.355-7.531-.127h-.174a2.48,2.48,0,0,0-2.322,2.468v9.151a2.479,2.479,0,0,0,2.479,2.479h7.423l6.089,5.56a1.83,1.83,0,0,0,1.3.572h.031a1.822,1.822,0,0,0,1.274-.516,1.844,1.844,0,0,0,.556-1.288V79.5a1.83,1.83,0,0,0-1.83-1.78Zm-.367,24.254-6.167-5.633h-8.528V86.656l8.749.149,5.99-6.3Z" transform="translate(1104.715 -163.948)" fill="#568a29"/>
    <path id="Path_5937" data-name="Path 5937" d="M561.654,104.95l-1.027,1.978a5.743,5.743,0,0,1,.081,9.411l1.029,1.989a7.959,7.959,0,0,0-.083-13.377Z" transform="translate(1043.609 -184.053)" fill="#568a29"/>
  </g>
</svg>
