<svg xmlns="http://www.w3.org/2000/svg" width="31.84" height="27" viewBox="0 0 31.84 27">
  <g id="Group_1181" data-name="Group 1181" transform="translate(-1627.717 82.232)">
    <g id="Group_1179" data-name="Group 1179" transform="translate(8.717 -27.232)">
      <g id="Group_1177" data-name="Group 1177" transform="translate(1619.001 -55)">
        <path id="Path_5928" data-name="Path 5928" d="M25.015,2.657,23.99,4.64a10.777,10.777,0,0,1,2.7,2.062l1.673-1.458A12.891,12.891,0,0,0,25.015,2.657Z" fill="#568a29"/>
        <path id="Path_5929" data-name="Path 5929" d="M28.45,9.15a10.774,10.774,0,0,1-4.141,14.3l1.024,1.973a12.972,12.972,0,0,0,6.5-10.123V12.92a12.881,12.881,0,0,0-1.677-5.255Z" fill="#568a29"/>
        <path id="Path_5930" data-name="Path 5930" d="M10.787,18.621H2.259V8.94l8.749.149L17,2.789l-.024,12.378,2.178-1.9V1.784A1.831,1.831,0,0,0,17.321,0V0a1.829,1.829,0,0,0-1.3.542L10.026,6.9,2.495,6.77H2.321A2.481,2.481,0,0,0,0,9.238v9.151a2.479,2.479,0,0,0,2.479,2.479H9.9l.256.235,1.714-1.493Z" fill="#568a29"/>
        <path id="Path_5931" data-name="Path 5931" d="M16.955,24.254,14.1,21.647l-1.713,1.492,3.6,3.289a1.83,1.83,0,0,0,1.3.572h.031a1.824,1.824,0,0,0,1.274-.516,1.845,1.845,0,0,0,.556-1.289V17.248l-2.187,1.9Z" fill="#568a29"/>
        <path id="Path_5932" data-name="Path 5932" d="M23.15,17.092a5.726,5.726,0,0,1-1.4,1.426l1.03,1.989a7.954,7.954,0,0,0,3.183-9.189l-1.877,1.634A5.718,5.718,0,0,1,23.15,17.092Z" fill="#568a29"/>
        <path id="Path_5933" data-name="Path 5933" d="M22.694,7.13h0L21.667,9.107a5.712,5.712,0,0,1,1.109,1.005l1.671-1.455A7.944,7.944,0,0,0,22.694,7.13Z" fill="#568a29"/>
        <path id="Path_5934" data-name="Path 5934" d="M2.877,27H5.924L31.839,4.448V1.788Z" fill="#568a29"/>
      </g>
    </g>
  </g>
</svg>
