<svg xmlns="http://www.w3.org/2000/svg" width="99.033" height="137.729" viewBox="0 0 99.033 137.729">
  <path id="Path_5818" data-name="Path 5818" d="M262.136,61.93h-19.3V46.785h19.3a8.314,8.314,0,0,0,0-16.629h-82.4a8.314,8.314,0,0,0,0,16.629h46.471V60.675q0,.626,0,1.254H179.734a8.314,8.314,0,0,0,0,16.629h43.717a37.1,37.1,0,0,1-3.052,5,37.317,37.317,0,0,1-5.084,5.082,37.094,37.094,0,0,1-6.257,3.656,36.848,36.848,0,0,1-7.092,1.941c-3.486.348-7.034.2-10.529.2h-11.7a8.392,8.392,0,0,0-8.314,8.314V104a8.432,8.432,0,0,0,2.452,5.968l.263.266,1.411,1.43,5.783,5.863L200.052,136.5l19.336,19.6q4.623,4.685,9.245,9.371l.009.01A8.314,8.314,0,0,0,240.4,153.723l-8.776-8.9-19.19-19.452-14.091-14.283c.9-.024,1.805-.065,2.7-.134a44.668,44.668,0,0,0,37.317-25.141,50.068,50.068,0,0,0,2.771-7.258h21a8.314,8.314,0,1,0,0-16.629Z" transform="translate(-171.42 -30.156)" fill="#fff"/>
</svg>
