<svg id="Group_2262" data-name="Group 2262" xmlns="http://www.w3.org/2000/svg" xmlns:xlink="http://www.w3.org/1999/xlink" width="23.482" height="19.912" viewBox="0 0 23.482 19.912">
  <defs>
    <linearGradient id="linear-gradient" x1="0.5" x2="0.5" y2="1" gradientUnits="objectBoundingBox">
      <stop offset="0" stop-color="#f3dbff"/>
      <stop offset="1" stop-color="#c6a7ff"/>
    </linearGradient>
  </defs>
  <g id="Group_1179" data-name="Group 1179" transform="translate(0 0)">
    <g id="Group_1177" data-name="Group 1177" transform="translate(0 0)">
      <path id="Path_5928" data-name="Path 5928" d="M24.746,2.657,23.99,4.119A7.948,7.948,0,0,1,25.983,5.64l1.234-1.075A9.507,9.507,0,0,0,24.746,2.657Z" transform="translate(-6.297 -0.698)" fill="url(#linear-gradient)"/>
      <path id="Path_5929" data-name="Path 5929" d="M27.363,8.76a7.946,7.946,0,0,1-3.054,10.548l.755,1.455A9.567,9.567,0,0,0,29.858,13.3V11.54a9.5,9.5,0,0,0-1.237-3.875Z" transform="translate(-6.381 -2.012)" fill="url(#linear-gradient)"/>
      <path id="Path_5930" data-name="Path 5930" d="M7.955,13.733H1.666V6.593l6.452.11,4.417-4.646-.018,9.129,1.606-1.4V1.316A1.35,1.35,0,0,0,12.774,0V0a1.349,1.349,0,0,0-.959.4L7.394,5.086,1.84,4.993H1.711A1.829,1.829,0,0,0,0,6.813v6.749A1.828,1.828,0,0,0,1.827,15.39H7.3l.189.173,1.264-1.1Z" transform="translate(0.001)" fill="url(#linear-gradient)"/>
      <path id="Path_5931" data-name="Path 5931" d="M15.756,22.415,13.65,20.492l-1.263,1.1,2.657,2.426A1.35,1.35,0,0,0,16,24.44h.023a1.345,1.345,0,0,0,.94-.381,1.361,1.361,0,0,0,.41-.951V17.248l-1.613,1.4Z" transform="translate(-3.251 -4.528)" fill="url(#linear-gradient)"/>
      <path id="Path_5932" data-name="Path 5932" d="M22.782,15.576a4.223,4.223,0,0,1-1.035,1.052l.76,1.467a5.866,5.866,0,0,0,2.347-6.777L23.47,12.523A4.217,4.217,0,0,1,22.782,15.576Z" transform="translate(-5.708 -2.971)" fill="url(#linear-gradient)"/>
      <path id="Path_5933" data-name="Path 5933" d="M22.424,7.13h0l-.757,1.459a4.212,4.212,0,0,1,.818.741l1.232-1.073A5.858,5.858,0,0,0,22.424,7.13Z" transform="translate(-5.687 -1.871)" fill="url(#linear-gradient)"/>
      <path id="Path_5934" data-name="Path 5934" d="M2.877,20.381H5.124L24.236,3.75V1.788Z" transform="translate(-0.754 -0.469)" fill="url(#linear-gradient)"/>
    </g>
  </g>
</svg>
